<?xml version="1.0" encoding="UTF-8" ?>
<svg width="81px" height="81px" viewBox="0 0 81 81" version="1.1" xmlns="http://www.w3.org/2000/svg">
    <g id="Page-1" stroke="none" stroke-width="1" fill-rule="evenodd">
        <g id="abacus" transform="translate(-10.000000, 0.000000)" fill-rule="nonzero">
            <path d="M14.1,80.9 L86.2,80.9 C88.4,80.9 90.2,79.1 90.2,76.9 C90.2,75.1 89,73.6 87.3,73.1 L87.3,4.3 C87.3,2.5 86,0.9 84.4,0.9 C82.8,0.9 81.5,2.4 81.5,4.3 L81.5,9.3 C81.2,9.2 80.8,9.1 80.5,9.1 C79.7,9.1 79,9.4 78.4,9.9 C77.8,9.4 77,9 76.2,9 C75.4,9 74.7,9.3 74.1,9.8 C73.6,9.3 72.8,9 72,9 C71.2,9 70.5,9.3 69.9,9.8 C69.5,9.4 68.8,9 68,9 C67.2,9 66.5,9.3 65.9,9.8 C65.4,9.3 64.6,9 63.8,9 C63,9 62.3,9.3 61.7,9.8 C61.2,9.3 60.4,9 59.6,9 C58.8,9 58.1,9.3 57.5,9.8 C57,9.3 56.2,9 55.4,9 C53.7,9 52.4,10.4 52.4,12 L52.4,13.5 L43,13.5 L43,12 C43,10.3 41.6,9 40,9 C39.2,9 38.5,9.3 37.9,9.8 C37.4,9.3 36.6,9 35.8,9 C35,9 34.3,9.3 33.7,9.8 C33.2,9.3 32.4,9 31.6,9 C29.9,9 28.6,10.4 28.6,12 L28.6,13.5 L18.7,13.5 L18.7,4.2 C18.7,2.4 17.3,0.8 15.7,0.8 C14.1,0.8 12.7,2.3 12.7,4.2 L12.7,73.2 C11.2,73.8 10.1,75.2 10.1,76.9 C10.1,79.1 11.9,80.9 14.1,80.9 Z M83.4,4.3 C83.4,3.6 83.8,2.9 84.3,2.9 C84.8,2.9 85.2,3.5 85.2,4.3 L85.2,73 L83.4,73 L83.4,32.1 L83.4,27.2 L83.4,17 L83.4,12.1 L83.4,4.3 L83.4,4.3 Z M20.2,35.1 C21.9,35.1 23.2,33.7 23.2,32.1 L23.2,30.6 L27.3,30.6 L27.3,32.1 C27.3,33.8 28.7,35.1 30.3,35.1 C31.1,35.1 31.8,34.8 32.4,34.3 C32.9,34.8 33.7,35.1 34.5,35.1 C35.3,35.1 36,34.8 36.6,34.3 C37.1,34.8 37.9,35.1 38.7,35.1 C39.5,35.1 40.2,34.8 40.8,34.3 C41.3,34.8 42.1,35.1 42.9,35.1 C43.7,35.1 44.4,34.8 45,34.3 C45.5,34.8 46.3,35.1 47.1,35.1 C48.8,35.1 50.1,33.7 50.1,32.1 L50.1,30.6 L56.6,30.6 L56.6,32.1 C56.6,33.8 58,35.1 59.6,35.1 C61.2,35.1 62.6,33.7 62.6,32.1 L62.6,30.6 L69.2,30.6 L69.2,32.1 C69.2,33.8 70.6,35.1 72.2,35.1 C73,35.1 73.7,34.8 74.3,34.3 C74.8,34.8 75.6,35.1 76.4,35.1 C77.2,35.1 77.9,34.8 78.5,34.3 C79,34.8 79.8,35.1 80.6,35.1 C81,35.1 81.3,35 81.6,34.9 L81.6,43.7 L79.5,43.7 L79.5,42.2 C79.5,40.5 78.1,39.2 76.5,39.2 C74.9,39.2 73.5,40.6 73.5,42.2 L73.5,43.7 L69.9,43.7 L69.9,42.2 C69.9,40.5 68.5,39.2 66.9,39.2 C66.1,39.2 65.4,39.5 64.8,40 C64.3,39.5 63.5,39.2 62.7,39.2 C61.9,39.2 61.2,39.5 60.7,40 C60.2,39.5 59.5,39.2 58.7,39.2 C57.9,39.2 57.2,39.5 56.6,40 C56.1,39.5 55.3,39.2 54.5,39.2 C52.8,39.2 51.5,40.6 51.5,42.2 L51.5,43.7 L48,43.7 L48,42.2 C48,40.5 46.6,39.2 45,39.2 C44.2,39.2 43.5,39.5 42.9,40 C42.4,39.5 41.6,39.2 40.8,39.2 C40,39.2 39.3,39.5 38.7,40 C38.2,39.5 37.4,39.2 36.6,39.2 C35.8,39.2 35.1,39.5 34.5,40 C34,39.5 33.2,39.2 32.4,39.2 C31.6,39.2 30.9,39.5 30.3,40 C29.8,39.5 29,39.2 28.2,39.2 C26.5,39.2 25.2,40.6 25.2,42.2 L25.2,43.7 L18.6,43.7 L18.6,34.7 C19.3,35 19.7,35.1 20.2,35.1 Z M19.2,32.1 L19.2,27.2 C19.2,26.6 19.7,26.2 20.2,26.2 C20.7,26.2 21.2,26.7 21.2,27.2 L21.2,32.1 C21.2,32.7 20.7,33.1 20.2,33.1 C19.7,33.1 19.2,32.6 19.2,32.1 Z M29.4,32.1 L29.4,27.2 C29.4,26.6 29.9,26.2 30.4,26.2 C30.9,26.2 31.4,26.7 31.4,27.2 L31.4,32.1 C31.4,32.7 30.9,33.1 30.4,33.1 C29.9,33.1 29.4,32.6 29.4,32.1 Z M33.5,32.1 L33.5,27.2 C33.5,26.6 34,26.2 34.5,26.2 C35,26.2 35.5,26.7 35.5,27.2 L35.5,32.1 C35.5,32.7 35,33.1 34.5,33.1 C34,33.1 33.5,32.6 33.5,32.1 Z M37.6,32.1 L37.6,27.2 C37.6,26.6 38.1,26.2 38.6,26.2 C39.1,26.2 39.6,26.7 39.6,27.2 L39.6,32.1 C39.6,32.7 39.1,33.1 38.6,33.1 C38.1,33.1 37.6,32.6 37.6,32.1 Z M41.8,32.1 L41.8,27.2 C41.8,26.6 42.3,26.2 42.8,26.2 C43.3,26.2 43.8,26.7 43.8,27.2 L43.8,32.1 C43.8,32.7 43.3,33.1 42.8,33.1 C42.3,33.1 41.8,32.6 41.8,32.1 Z M45.9,32.1 L45.9,27.2 C45.9,26.6 46.4,26.2 46.9,26.2 C47.4,26.2 47.9,26.7 47.9,27.2 L47.9,32.1 C47.9,32.7 47.4,33.1 46.9,33.1 C46.4,33.1 45.9,32.6 45.9,32.1 Z M58.4,32.1 L58.4,27.2 C58.4,26.6 58.9,26.2 59.4,26.2 C59.9,26.2 60.4,26.7 60.4,27.2 L60.4,32.1 C60.4,32.7 59.9,33.1 59.4,33.1 C58.9,33.1 58.4,32.6 58.4,32.1 Z M71.1,32.1 L71.1,27.2 C71.1,26.6 71.6,26.2 72.1,26.2 C72.6,26.2 73.1,26.7 73.1,27.2 L73.1,32.1 C73.1,32.7 72.6,33.1 72.1,33.1 C71.6,33.1 71.1,32.6 71.1,32.1 Z M75.2,32.1 L75.2,27.2 C75.2,26.6 75.7,26.2 76.2,26.2 C76.7,26.2 77.2,26.7 77.2,27.2 L77.2,32.1 C77.2,32.7 76.7,33.1 76.2,33.1 C75.7,33.1 75.2,32.6 75.2,32.1 Z M68.9,54.3 C68.1,54.3 67.4,54.6 66.8,55.1 C66.3,54.6 65.5,54.3 64.7,54.3 C63.9,54.3 63.2,54.6 62.6,55.1 C62.1,54.6 61.3,54.3 60.5,54.3 C58.8,54.3 57.5,55.7 57.5,57.3 L57.5,58.8 L48,58.8 L48,57.3 C48,55.6 46.6,54.3 45,54.3 C44.2,54.3 43.5,54.6 42.9,55.1 C42.4,54.6 41.6,54.3 40.8,54.3 C40,54.3 39.3,54.6 38.7,55.1 C38.2,54.6 37.4,54.3 36.6,54.3 C35.8,54.3 35.1,54.6 34.5,55.1 C34,54.6 33.2,54.3 32.4,54.3 C31.6,54.3 30.9,54.6 30.3,55.1 C29.8,54.6 29,54.3 28.2,54.3 C27.4,54.3 26.7,54.6 26.1,55.1 C25.6,54.6 24.8,54.3 24,54.3 C23.2,54.3 22.5,54.6 21.9,55.1 C21.4,54.6 20.6,54.3 19.8,54.3 C19.3,54.3 18.8,54.4 18.4,54.6 L18.4,45.6 L25,45.6 L25,47.1 C25,48.8 26.4,50.1 28,50.1 C28.8,50.1 29.5,49.8 30.1,49.3 C30.6,49.8 31.4,50.1 32.2,50.1 C33,50.1 33.7,49.8 34.3,49.3 C34.8,49.8 35.6,50.1 36.4,50.1 C37.2,50.1 37.9,49.8 38.5,49.3 C39,49.8 39.8,50.1 40.6,50.1 C41.4,50.1 42.1,49.8 42.7,49.3 C43.2,49.8 44,50.1 44.8,50.1 C46.5,50.1 47.8,48.7 47.8,47.1 L47.8,45.6 L51,45.6 L51,47.1 C51,48.8 52.4,50.1 54,50.1 C54.8,50.1 55.5,49.8 56.1,49.3 C56.6,49.8 57.4,50.1 58.2,50.1 C59,50.1 59.7,49.8 60.2,49.3 C60.7,49.8 61.4,50.1 62.2,50.1 C63,50.1 63.7,49.8 64.3,49.3 C64.8,49.8 65.6,50.1 66.4,50.1 C68.1,50.1 69.4,48.7 69.4,47.1 L69.4,45.6 L73,45.6 L73,47.1 C73,48.8 74.4,50.1 76,50.1 C77.6,50.1 79,48.7 79,47.1 L79,45.6 L81.1,45.6 L81.1,58.7 L71.6,58.7 L71.6,57.2 C71.9,55.7 70.5,54.3 68.9,54.3 Z M69.9,57.4 L69.9,62.3 C69.9,62.9 69.4,63.3 68.9,63.3 C68.4,63.3 67.9,62.8 67.9,62.3 L67.9,57.4 C67.9,56.8 68.4,56.4 68.9,56.4 C69.4,56.4 69.9,56.8 69.9,57.4 Z M65.8,57.4 L65.8,62.3 C65.8,62.9 65.3,63.3 64.8,63.3 C64.3,63.3 63.8,62.8 63.8,62.3 L63.8,57.4 C63.8,56.8 64.3,56.4 64.8,56.4 C65.3,56.4 65.8,56.8 65.8,57.4 Z M61.6,57.4 L61.6,62.3 C61.6,62.9 61.1,63.3 60.6,63.3 C60.1,63.3 59.6,62.8 59.6,62.3 L59.6,57.4 C59.6,56.8 60.1,56.4 60.6,56.4 C61.1,56.4 61.6,56.8 61.6,57.4 Z M46,57.4 L46,62.3 C46,62.9 45.5,63.3 45,63.3 C44.5,63.3 44,62.8 44,62.3 L44,57.4 C44,56.8 44.5,56.4 45,56.4 C45.5,56.4 46,56.8 46,57.4 Z M41.9,57.4 L41.9,62.3 C41.9,62.9 41.4,63.3 40.9,63.3 C40.3,63.3 39.9,62.8 39.9,62.3 L39.9,57.4 C39.9,56.8 40.4,56.4 40.9,56.4 C41.4,56.3 41.9,56.8 41.9,57.4 Z M37.8,57.4 L37.8,62.3 C37.8,62.9 37.3,63.3 36.8,63.3 C36.3,63.3 35.8,62.8 35.8,62.3 L35.8,57.4 C35.8,56.8 36.3,56.4 36.8,56.4 C37.3,56.4 37.8,56.8 37.8,57.4 Z M33.6,57.4 L33.6,62.3 C33.6,62.9 33.1,63.3 32.6,63.3 C32,63.3 31.6,62.8 31.6,62.3 L31.6,57.4 C31.6,56.8 32.1,56.4 32.6,56.4 C33.2,56.3 33.6,56.8 33.6,57.4 Z M29.5,57.4 L29.5,62.3 C29.5,62.9 29,63.3 28.5,63.3 C28,63.3 27.5,62.8 27.5,62.3 L27.5,57.4 C27.5,56.8 28,56.4 28.5,56.4 C29,56.4 29.5,56.8 29.5,57.4 Z M25.4,57.4 L25.4,62.3 C25.4,62.9 24.9,63.3 24.4,63.3 C23.9,63.3 23.4,62.8 23.4,62.3 L23.4,57.4 C23.4,56.8 23.9,56.4 24.4,56.4 C24.9,56.4 25.4,56.8 25.4,57.4 Z M21.2,57.4 L21.2,62.3 C21.2,62.9 20.7,63.3 20.2,63.3 C19.7,63.3 19.2,62.8 19.2,62.3 L19.2,57.4 C19.2,56.8 19.7,56.4 20.2,56.4 C20.7,56.4 21.2,56.8 21.2,57.4 Z M27.4,47.2 L27.4,42.3 C27.4,41.7 27.9,41.3 28.4,41.3 C28.9,41.3 29.4,41.8 29.4,42.3 L29.4,47.2 C29.4,47.8 28.9,48.2 28.4,48.2 C27.9,48.2 27.4,47.7 27.4,47.2 Z M31.6,47.2 L31.6,42.3 C31.6,41.7 32.1,41.3 32.6,41.3 C33.2,41.3 33.6,41.8 33.6,42.3 L33.6,47.2 C33.6,47.8 33.1,48.2 32.6,48.2 C32,48.2 31.6,47.7 31.6,47.2 Z M35.7,47.2 L35.7,42.3 C35.7,41.7 36.2,41.3 36.7,41.3 C37.2,41.3 37.7,41.8 37.7,42.3 L37.7,47.2 C37.7,47.8 37.2,48.2 36.7,48.2 C36.2,48.2 35.7,47.7 35.7,47.2 Z M39.8,47.2 L39.8,42.3 C39.8,41.7 40.3,41.3 40.8,41.3 C41.4,41.3 41.8,41.8 41.8,42.3 L41.8,47.2 C41.8,47.8 41.3,48.2 40.8,48.2 C40.3,48.2 39.8,47.7 39.8,47.2 Z M44,47.2 L44,42.3 C44,41.7 44.5,41.3 45,41.3 C45.5,41.3 46,41.8 46,42.3 L46,47.2 C46,47.8 45.5,48.2 45,48.2 C44.5,48.2 44,47.7 44,47.2 Z M53.3,47.2 L53.3,42.3 C53.3,41.7 53.8,41.3 54.3,41.3 C54.8,41.3 55.3,41.8 55.3,42.3 L55.3,47.2 C55.3,47.8 54.8,48.2 54.3,48.2 C53.8,48.2 53.3,47.7 53.3,47.2 Z M59.5,47.2 C59.5,47.8 59,48.2 58.5,48.2 C57.9,48.2 57.5,47.7 57.5,47.2 L57.5,42.3 C57.5,41.7 58,41.3 58.5,41.3 C59.1,41.3 59.5,41.8 59.5,42.3 L59.5,47.2 Z M61.5,42.3 C61.5,41.7 62,41.3 62.5,41.3 C63,41.3 63.5,41.8 63.5,42.3 L63.5,47.2 C63.5,47.8 63,48.2 62.5,48.2 C62,48.2 61.5,47.7 61.5,47.2 L61.5,42.3 Z M65.6,47.2 L65.6,42.3 C65.6,41.7 66.1,41.3 66.6,41.3 C67.1,41.3 67.6,41.8 67.6,42.3 L67.6,47.2 C67.6,47.8 67.1,48.2 66.6,48.2 C66.1,48.2 65.6,47.7 65.6,47.2 Z M77.3,47.2 C77.3,47.8 76.8,48.2 76.3,48.2 C75.8,48.2 75.3,47.7 75.3,47.2 L75.3,42.3 C75.3,41.7 75.8,41.3 76.3,41.3 C76.8,41.3 77.3,41.8 77.3,42.3 L77.3,47.2 Z M81.4,32.1 C81.4,32.7 80.9,33.1 80.4,33.1 C79.8,33.1 79.4,32.6 79.4,32.1 L79.4,27.2 C79.4,26.6 79.9,26.2 80.4,26.2 C81,26.2 81.4,26.7 81.4,27.2 L81.4,32.1 Z M18.8,65 C19.2,65.2 19.7,65.3 20.2,65.3 C21,65.3 21.7,65 22.3,64.5 C22.8,65 23.6,65.3 24.4,65.3 C25.2,65.3 25.9,65 26.5,64.5 C27,65 27.8,65.3 28.6,65.3 C29.4,65.3 30.1,65 30.7,64.5 C31.2,65 32,65.3 32.8,65.3 C33.6,65.3 34.3,65 34.9,64.5 C35.4,65 36.2,65.3 37,65.3 C37.8,65.3 38.5,65 39.1,64.5 C39.6,65 40.4,65.3 41.2,65.3 C42,65.3 42.7,65 43.3,64.5 C43.8,65 44.6,65.3 45.4,65.3 C47.1,65.3 48.4,63.9 48.4,62.3 L48.4,60.8 L57.9,60.8 L57.9,62.3 C57.9,64 59.3,65.3 60.9,65.3 C61.7,65.3 62.4,65 63,64.5 C63.5,65 64.3,65.3 65.1,65.3 C65.9,65.3 66.6,65 67.2,64.5 C67.7,65 68.5,65.3 69.3,65.3 C71,65.3 72.3,63.9 72.3,62.3 L72.3,60.8 L81.8,60.8 L81.8,73 L18.8,73 L18.8,65 Z M79.3,12.1 C79.3,11.5 79.8,11.1 80.3,11.1 C80.9,11.1 81.3,11.6 81.3,12.1 L81.3,17 C81.3,17.6 80.8,18 80.3,18 C79.7,18 79.3,17.5 79.3,17 L79.3,12.1 Z M75.2,12.1 C75.2,11.5 75.7,11.1 76.2,11.1 C76.7,11.1 77.2,11.6 77.2,12.1 L77.2,17 C77.2,17.6 76.7,18 76.2,18 C75.7,18 75.2,17.5 75.2,17 L75.2,12.1 Z M71.1,12.1 C71.1,11.5 71.6,11.1 72.1,11.1 C72.6,11.1 73.1,11.6 73.1,12.1 L73.1,17 C73.1,17.6 72.6,18 72.1,18 C71.6,18 71.1,17.5 71.1,17 L71.1,12.1 Z M66.9,12.1 C66.9,11.5 67.4,11.1 67.9,11.1 C68.4,11.1 68.9,11.6 68.9,12.1 L68.9,17 C68.9,17.6 68.4,18 67.9,18 C67.4,18 66.9,17.5 66.9,17 L66.9,12.1 Z M62.8,12.1 C62.8,11.5 63.3,11.1 63.8,11.1 C64.3,11.1 64.8,11.6 64.8,12.1 L64.8,17 C64.8,17.6 64.3,18 63.8,18 C63.3,18 62.8,17.5 62.8,17 L62.8,12.1 Z M58.7,12.1 C58.7,11.5 59.2,11.1 59.7,11.1 C60.3,11.1 60.7,11.6 60.7,12.1 L60.7,17 C60.7,17.6 60.2,18 59.7,18 C59.1,18 58.7,17.5 58.7,17 L58.7,12.1 Z M54.6,12.1 C54.6,11.5 55.1,11.1 55.6,11.1 C56.1,11.1 56.6,11.6 56.6,12.1 L56.6,17 C56.6,17.6 56.1,18 55.6,18 C55.1,18 54.6,17.5 54.6,17 L54.6,12.1 Z M39,12.1 C39,11.5 39.5,11.1 40,11.1 C40.5,11.1 41,11.6 41,12.1 L41,17 C41,17.6 40.5,18 40,18 C39.5,18 39,17.5 39,17 L39,12.1 Z M34.8,12.1 C34.8,11.5 35.3,11.1 35.8,11.1 C36.3,11.1 36.8,11.6 36.8,12.1 L36.8,17 C36.8,17.6 36.3,18 35.8,18 C35.3,18 34.8,17.5 34.8,17 L34.8,12.1 Z M30.7,12.1 C30.7,11.5 31.2,11.1 31.7,11.1 C32.2,11.1 32.7,11.6 32.7,12.1 L32.7,17 C32.7,17.6 32.2,18 31.7,18 C31.2,18 30.7,17.5 30.7,17 L30.7,12.1 L30.7,12.1 Z M28.7,15.5 L28.7,17 C28.7,18.7 30.1,20 31.7,20 C32.5,20 33.2,19.7 33.8,19.2 C34.3,19.7 35.1,20 35.9,20 C36.7,20 37.4,19.7 38,19.2 C38.5,19.7 39.3,20 40.1,20 C41.8,20 43.1,18.6 43.1,17 L43.1,15.5 L52.6,15.5 L52.6,17 C52.6,18.7 54,20 55.6,20 C56.4,20 57.1,19.7 57.7,19.2 C58.2,19.7 59,20 59.8,20 C60.6,20 61.3,19.7 61.9,19.2 C62.4,19.7 63.2,20 64,20 C64.8,20 65.5,19.7 66.1,19.2 C66.6,19.7 67.4,20 68.2,20 C69,20 69.7,19.7 70.3,19.2 C70.8,19.7 71.6,20 72.4,20 C73.2,20 73.9,19.7 74.5,19.2 C75,19.7 75.8,20 76.6,20 C77.4,20 78.1,19.7 78.7,19.2 C79.2,19.7 80,20 80.8,20 C81.2,20 81.5,19.9 81.8,19.8 L81.8,24.3 C81.5,24.2 81.1,24.1 80.8,24.1 C80,24.1 79.3,24.4 78.7,24.9 C78.2,24.4 77.4,24.1 76.6,24.1 C75.8,24.1 75.1,24.4 74.5,24.9 C74,24.4 73.2,24.1 72.4,24.1 C70.7,24.1 69.4,25.5 69.4,27.1 L69.4,28.6 L62.8,28.6 L62.8,27.1 C62.8,25.4 61.4,24.1 59.8,24.1 C58.2,24.1 56.8,25.5 56.8,27.1 L56.8,28.6 L50,28.6 L50,27.1 C50,25.4 48.6,24.1 47,24.1 C46.2,24.1 45.5,24.4 44.9,24.9 C44.4,24.4 43.6,24.1 42.8,24.1 C42,24.1 41.3,24.4 40.7,24.9 C40.2,24.4 39.4,24.1 38.6,24.1 C37.8,24.1 37.1,24.4 36.5,24.9 C36,24.4 35.2,24.1 34.4,24.1 C33.6,24.1 32.9,24.4 32.3,24.9 C31.8,24.4 31,24.1 30.2,24.1 C28.5,24.1 27.2,25.5 27.2,27.1 L27.2,28.6 L23.1,28.6 L23.1,27.1 C23.1,25.4 21.7,24.1 20.1,24.1 C19.6,24.1 19.1,24.2 18.7,24.4 L18.7,15.4 L28.7,15.4 L28.7,15.5 Z M15.8,2.9 C16.4,2.9 16.8,3.5 16.8,4.3 L16.8,73 L14.7,73 L14.7,4.3 C14.8,3.5 15.2,2.9 15.8,2.9 Z M14.1,75 L86.2,75 C87.3,75 88.2,75.9 88.2,77 C88.2,78.1 87.3,79 86.2,79 L14.1,79 C13,79 12.1,78.1 12.1,77 C12.1,75.8 13,75 14.1,75 Z"
            id="Shape"></path>
        </g>
    </g>
</svg>