<?xml version="1.0" encoding="UTF-8" ?>
<svg width="90px" height="81px" viewBox="0 0 90 81" version="1.1" xmlns="http://www.w3.org/2000/svg">
    <g id="Page-1" stroke="none" stroke-width="1" fill-rule="evenodd">
        <g id="agree" fill-rule="nonzero">
            <path d="M80.13,67.97 C79.7833333,67.01 79.48,66.04 79.22,65.06 C78.7855787,63.4411487 78.487866,61.7886761 78.33,60.12 C85.48,53.85 89.84,45.55 89.84,36.44 C89.84,16.84 69.76,0.97 45,0.97 C20.24,0.97 0.16,16.84 0.16,36.39 C0.16,45.49 4.52,53.8 11.67,60.07 C11.5132053,61.7249309 11.2188547,63.3639288 10.79,64.97 C10.53,65.95 10.2266667,66.92 9.88,67.88 C7.92180819,73.1069536 4.48988511,77.6539043 7.10542736e-15,80.97 L1.61,80.97 C6.38813278,81.0095084 11.1491259,80.3937757 15.76,79.14 C20.1098666,78.0121285 24.176531,75.989014 27.7,73.2 C28.9153892,72.2479135 30.022078,71.1647 31,69.97 C40.1854412,72.3197461 49.8145588,72.3197461 59,69.97 C59.9644947,71.1480002 61.0542339,72.2176211 62.25,73.16 C65.7790198,75.9395543 69.849032,77.9524223 74.2,79.07 C78.8205179,80.3509209 83.5952598,80.9902451 88.39,80.97 L90,80.97 C85.527616,77.6766857 82.1005327,73.1627968 80.13,67.97 L80.13,67.97 Z M75.2,75.71 C71.3231828,74.7175518 67.6937274,72.9334668 64.54,70.47 L64.54,70.47 L64.54,70.47 C63.5470909,69.6865941 62.6418265,68.7980939 61.84,67.82 L60.36,65.97 L58.16,66.54 C49.5265028,68.7552467 40.4734972,68.7552467 31.84,66.54 L29.64,65.97 L28.2,67.78 C27.3981735,68.7580939 26.4929091,69.6465941 25.5,70.43 L25.5,70.43 L25.5,70.43 C22.3378732,72.9126444 18.6940932,74.7106966 14.8,75.71 C12.8957282,76.239464 10.9580299,76.6403671 9,76.91 C10.7406558,74.5391012 12.1565308,71.946133 13.21,69.2 L13.21,69.13 C13.59,68.13 13.93,67 14.21,65.93 C14.697033,64.1177943 15.0315338,62.2680044 15.21,60.4 L15.38,58.6 L14,57.41 C7.36,51.58 3.7,44.12 3.7,36.41 C3.7,18.83 22.23,4.54 45,4.54 C67.77,4.54 86.3,18.83 86.3,36.39 C86.3,44.12 82.64,51.58 76,57.39 L74.64,58.58 L74.81,60.38 C74.9884662,62.2480044 75.322967,64.0977943 75.81,65.91 C76.1,66.98 76.44,68.06 76.81,69.11 L76.81,69.18 C77.8556126,71.9320292 79.2647843,74.531766 81,76.91 C79.0419701,76.6403671 77.1042718,76.239464 75.2,75.71 Z"
            id="Shape"></path>
        </g>
    </g>
</svg>