<?xml version="1.0" encoding="UTF-8" ?>
<svg width="128px" height="113px" viewBox="0 0 128 113" version="1.1"
xmlns="http://www.w3.org/2000/svg">
    <g id="Page-1" stroke="none" stroke-width="1" fill-rule="evenodd">
        <g id="automation" fill-rule="nonzero">
            <g id="Group">
                <path d="M9.8,44.7 L9.8,55.1 C9.8,55.5 10.1,55.9 10.6,55.9 C11,55.9 11.4,55.6 11.4,55.1 L11.4,44.7 C11.4,44.3 11.1,43.9 10.6,43.9 C10.1,43.9 9.8,44.2 9.8,44.7 Z"
                id="Shape"></path>
                <path d="M10.6,62.6 C11,62.6 11.4,62.3 11.4,61.8 L11.4,58.4 C11.4,58 11.1,57.6 10.6,57.6 C10.2,57.6 9.8,57.9 9.8,58.4 L9.8,61.8 C9.8,62.3 10.1,62.6 10.6,62.6 Z"
                id="Shape"></path>
                <path d="M121.7,39.4 C121.7,39 121.4,38.6 120.9,38.6 C120.5,38.6 120.1,38.9 120.1,39.4 L120.1,49.8 C120.1,50.2 120.4,50.6 120.9,50.6 C121.3,50.6 121.7,50.3 121.7,49.8 L121.7,39.4 Z"
                id="Shape"></path>
                <path d="M121,52.5 C120.6,52.5 120.2,52.8 120.2,53.3 L120.2,56.7 C120.2,57.1 120.5,57.5 121,57.5 C121.4,57.5 121.8,57.2 121.8,56.7 L121.8,53.3 C121.7,52.8 121.4,52.5 121,52.5 Z"
                id="Shape"></path>
                <path d="M6.6,98 C6.3,97.7 5.8,97.7 5.5,98 C5.2,98.3 5.2,98.8 5.5,99.1 L7,100.6 C7.1,100.7 7.3,100.8 7.5,100.8 C7.7,100.8 7.9,100.7 8,100.6 C8.3,100.3 8.3,99.8 8,99.5 L6.6,98 Z"
                id="Shape"></path>
                <path d="M11.3,102.7 C11,102.4 10.5,102.4 10.2,102.7 C9.9,103 9.9,103.5 10.2,103.8 L11.7,105.3 C11.8,105.4 12,105.5 12.2,105.5 C12.4,105.5 12.6,105.4 12.7,105.3 C13,105 13,104.5 12.7,104.2 L11.3,102.7 Z"
                id="Shape"></path>
                <path d="M7,102.7 L5.5,104.2 C5.2,104.5 5.2,105 5.5,105.3 C5.6,105.4 5.8,105.5 6,105.5 C6.2,105.5 6.4,105.4 6.5,105.3 L8,103.8 C8.3,103.5 8.3,103 8,102.7 C7.7,102.4 7.2,102.4 7,102.7 Z"
                id="Shape"></path>
                <path d="M11.7,98 L10.2,99.5 C9.9,99.8 9.9,100.3 10.2,100.6 C10.3,100.7 10.5,100.8 10.7,100.8 C10.9,100.8 11.1,100.7 11.2,100.6 L12.7,99.1 C13,98.8 13,98.3 12.7,98 C12.4,97.7 12,97.7 11.7,98 Z"
                id="Shape"></path>
                <path d="M84.2,93.3 C83.9,93 83.4,93 83.1,93.3 C82.8,93.6 82.8,94.1 83.1,94.4 L84.6,95.9 C84.7,96 84.9,96.1 85.1,96.1 C85.3,96.1 85.5,96 85.6,95.9 C85.9,95.6 85.9,95.1 85.6,94.8 L84.2,93.3 Z"
                id="Shape"></path>
                <path d="M88.9,98 C88.6,97.7 88.1,97.7 87.8,98 C87.5,98.3 87.5,98.8 87.8,99.1 L89.3,100.6 C89.4,100.7 89.6,100.8 89.8,100.8 C90,100.8 90.2,100.7 90.3,100.6 C90.6,100.3 90.6,99.8 90.3,99.5 L88.9,98 Z"
                id="Shape"></path>
                <path d="M84.6,98 L83.1,99.5 C82.8,99.8 82.8,100.3 83.1,100.6 C83.2,100.7 83.4,100.8 83.6,100.8 C83.8,100.8 84,100.7 84.1,100.6 L85.6,99.1 C85.9,98.8 85.9,98.3 85.6,98 C85.4,97.7 84.9,97.7 84.6,98 Z"
                id="Shape"></path>
                <path d="M89.3,93.3 L87.8,94.8 C87.5,95.1 87.5,95.6 87.8,95.9 C87.9,96 88.1,96.1 88.3,96.1 C88.5,96.1 88.7,96 88.8,95.9 L90.3,94.4 C90.6,94.1 90.6,93.6 90.3,93.3 C90.1,93 89.6,93 89.3,93.3 Z"
                id="Shape"></path>
                <path d="M70.7,11.7 C70.8,11.8 71,11.9 71.2,11.9 C71.4,11.9 71.6,11.8 71.7,11.7 C72,11.4 72,10.9 71.7,10.6 L70.2,9.1 C69.9,8.8 69.4,8.8 69.1,9.1 C68.8,9.4 68.8,9.9 69.1,10.2 L70.7,11.7 Z"
                id="Shape"></path>
                <path d="M75.4,16.4 C75.5,16.5 75.7,16.6 75.9,16.6 C76.1,16.6 76.3,16.5 76.4,16.4 C76.7,16.1 76.7,15.6 76.4,15.3 L74.9,13.8 C74.6,13.5 74.1,13.5 73.8,13.8 C73.5,14.1 73.5,14.6 73.8,14.9 L75.4,16.4 Z"
                id="Shape"></path>
                <path d="M69.8,16.6 C70,16.6 70.2,16.5 70.3,16.4 L71.8,14.9 C72.1,14.6 72.1,14.1 71.8,13.8 C71.5,13.5 71,13.5 70.7,13.8 L69.2,15.3 C68.9,15.6 68.9,16.1 69.2,16.4 C69.4,16.5 69.6,16.6 69.8,16.6 Z"
                id="Shape"></path>
                <path d="M74.5,11.9 C74.7,11.9 74.9,11.8 75,11.7 L76.5,10.2 C76.8,9.9 76.8,9.4 76.5,9.1 C76.2,8.8 75.7,8.8 75.4,9.1 L74,10.6 C73.7,10.9 73.7,11.4 74,11.7 C74.1,11.8 74.3,11.9 74.5,11.9 Z"
                id="Shape"></path>
                <path d="M3.5,29.8 C3.7,30 3.8,30.1 4,30.1 C4.2,30.1 4.4,30 4.5,29.9 C4.8,29.6 4.8,29.1 4.5,28.8 L3,27.3 C2.8,27 2.3,27 2,27.3 C1.7,27.6 1.7,28.1 2,28.4 L3.5,29.8 Z"
                id="Shape"></path>
                <path d="M7.8,32 C7.5,31.7 7,31.7 6.7,32 C6.4,32.3 6.4,32.8 6.7,33.1 L8.2,34.6 C8.3,34.7 8.5,34.8 8.7,34.8 C8.9,34.8 9.1,34.7 9.2,34.6 C9.5,34.3 9.5,33.8 9.2,33.5 L7.8,32 Z"
                id="Shape"></path>
                <path d="M2,34.6 C2.1,34.7 2.3,34.8 2.5,34.8 C2.7,34.8 2.9,34.7 3,34.6 L4.5,33.1 C4.8,32.8 4.8,32.3 4.5,32 C4.2,31.7 3.7,31.7 3.4,32 L2,33.5 C1.8,33.8 1.8,34.3 2,34.6 Z"
                id="Shape"></path>
                <path d="M8.2,27.3 L6.7,28.8 C6.4,29.1 6.4,29.6 6.7,29.9 C6.8,30 7,30.1 7.2,30.1 C7.4,30.1 7.6,30 7.7,29.9 L9.2,28.4 C9.5,28.1 9.5,27.6 9.2,27.3 C9,27 8.5,27 8.2,27.3 Z"
                id="Shape"></path>
                <path d="M120.4,66.3 C118.6,66.3 117.1,67.8 117.1,69.6 C117.1,71.4 118.6,72.9 120.4,72.9 C122.2,72.9 123.7,71.4 123.7,69.6 C123.7,67.8 122.2,66.3 120.4,66.3 Z M120.4,71.4 C119.4,71.4 118.6,70.6 118.6,69.6 C118.6,68.6 119.4,67.8 120.4,67.8 C121.4,67.8 122.2,68.6 122.2,69.6 C122.2,70.6 121.4,71.4 120.4,71.4 Z"
                id="Shape"></path>
                <path d="M86.4,7.9 C88.2,7.9 89.7,6.4 89.7,4.6 C89.7,2.8 88.2,1.3 86.4,1.3 C84.6,1.3 83.1,2.8 83.1,4.6 C83,6.4 84.5,7.9 86.4,7.9 Z M86.4,2.8 C87.4,2.8 88.2,3.6 88.2,4.6 C88.2,5.6 87.4,6.4 86.4,6.4 C85.4,6.4 84.6,5.6 84.6,4.6 C84.6,3.6 85.4,2.8 86.4,2.8 Z"
                id="Shape"></path>
                <path d="M5.2,70.7 C3.4,70.7 2,72.1 2,73.9 C2,75.7 3.4,77.1 5.2,77.1 C7,77.1 8.4,75.7 8.4,73.9 C8.4,72.1 6.9,70.7 5.2,70.7 Z M5.2,75.6 C4.3,75.6 3.5,74.8 3.5,73.9 C3.5,73 4.3,72.2 5.2,72.2 C6.1,72.2 6.9,73 6.9,73.9 C6.9,74.8 6.1,75.6 5.2,75.6 Z"
                id="Shape"></path>
                <path d="M122.5,100.6 L111.2,100.6 C110.8,100.6 110.4,100.9 110.4,101.4 C110.4,101.8 110.7,102.2 111.2,102.2 L122.5,102.2 C122.9,102.2 123.3,101.9 123.3,101.4 C123.2,100.9 122.9,100.6 122.5,100.6 Z"
                id="Shape"></path>
                <path d="M103.9,100.6 C103.5,100.6 103.1,100.9 103.1,101.4 C103.1,101.8 103.4,102.2 103.9,102.2 L107.5,102.2 C107.9,102.2 108.3,101.9 108.3,101.4 C108.3,101 108,100.6 107.5,100.6 L103.9,100.6 Z"
                id="Shape"></path>
                <path d="M111.7,104.4 L103.8,104.4 C103.4,104.4 103,104.7 103,105.2 C103,105.6 103.3,106 103.8,106 L111.7,106 C112.1,106 112.5,105.7 112.5,105.2 C112.5,104.8 112.1,104.4 111.7,104.4 Z"
                id="Shape"></path>
                <path d="M117.6,104.4 L115.1,104.4 C114.7,104.4 114.3,104.7 114.3,105.2 C114.3,105.6 114.6,106 115.1,106 L117.6,106 C118,106 118.4,105.7 118.4,105.2 C118.4,104.8 118.1,104.4 117.6,104.4 Z"
                id="Shape"></path>
                <path d="M8.6,9.2 L19.9,9.2 C20.3,9.2 20.7,8.9 20.7,8.4 C20.7,8 20.4,7.6 19.9,7.6 L8.6,7.6 C8.2,7.6 7.8,7.9 7.8,8.4 C7.8,8.9 8.2,9.2 8.6,9.2 Z"
                id="Shape"></path>
                <path d="M1.3,9.2 L4.9,9.2 C5.3,9.2 5.7,8.9 5.7,8.4 C5.7,8 5.4,7.6 4.9,7.6 L1.3,7.6 C0.9,7.6 0.5,7.9 0.5,8.4 C0.5,8.9 0.8,9.2 1.3,9.2 Z"
                id="Shape"></path>
                <path d="M9.1,11.6 L1.3,11.6 C0.9,11.6 0.5,11.9 0.5,12.4 C0.5,12.8 0.8,13.2 1.3,13.2 L9.2,13.2 C9.6,13.2 10,12.9 10,12.4 C9.9,11.9 9.5,11.6 9.1,11.6 Z"
                id="Shape"></path>
                <path d="M15.8,12.3 C15.8,11.9 15.5,11.5 15,11.5 L12.5,11.5 C12.1,11.5 11.7,11.8 11.7,12.3 C11.7,12.7 12,13.1 12.5,13.1 L15,13.1 C15.5,13.1 15.8,12.7 15.8,12.3 Z"
                id="Shape"></path>
                <path d="M34.7,100 L23.5,100 C23.1,100 22.7,100.3 22.7,100.8 C22.7,101.2 23,101.6 23.5,101.6 L34.8,101.6 C35.2,101.6 35.6,101.3 35.6,100.8 C35.5,100.3 35.2,100 34.7,100 Z"
                id="Shape"></path>
                <path d="M42.1,100 L38.5,100 C38.1,100 37.7,100.3 37.7,100.8 C37.7,101.2 38,101.6 38.5,101.6 L42.1,101.6 C42.5,101.6 42.9,101.3 42.9,100.8 C42.8,100.3 42.5,100 42.1,100 Z"
                id="Shape"></path>
                <path d="M42.1,96.1 L34.2,96.1 C33.8,96.1 33.4,96.4 33.4,96.9 C33.4,97.3 33.7,97.7 34.2,97.7 L42.1,97.7 C42.5,97.7 42.9,97.4 42.9,96.9 C42.8,96.5 42.5,96.1 42.1,96.1 Z"
                id="Shape"></path>
                <path d="M30.8,97.6 C31.2,97.6 31.6,97.3 31.6,96.8 C31.6,96.4 31.3,96 30.8,96 L28.3,96 C27.9,96 27.5,96.3 27.5,96.8 C27.5,97.2 27.8,97.6 28.3,97.6 L30.8,97.6 Z"
                id="Shape"></path>
                <path d="M78.2,104.8 L73.5,104.8 L70.1,89 L107.3,89 C111,89 113.9,86 113.9,82.4 L113.9,34 C121.8,32.3 127.5,25.4 127.5,17.3 C127.5,7.9 119.8,0.2 110.4,0.2 C101,0.2 93.3,7.9 93.3,17.3 C93.3,18.4 93.4,19.4 93.6,20.4 L62.7,20.4 L62.7,11.9 L62.7,11.8 C62.8,11.6 62.7,11.3 62.5,11.1 L55.2,3.8 L55.2,3.8 C55.1,3.7 55.1,3.7 55,3.7 C55,3.7 55,3.7 54.9,3.7 L54.7,3.7 L54.7,3.7 L48.5,3.7 C48.3,1.7 46.6,0.1 44.6,0.1 C42.6,0.1 40.9,1.7 40.7,3.7 L39.4,3.7 C39.2,1.7 37.5,0.1 35.5,0.1 C33.5,0.1 31.8,1.7 31.6,3.7 L30.7,3.7 C29.1,3.7 27.7,5 27.7,6.7 L27.7,20.6 L22.2,20.6 C18.5,20.6 15.6,23.6 15.6,27.2 L15.6,82.5 C15.6,86.2 18.6,89.1 22.2,89.1 L59.4,89.1 L56,104.9 L51.3,104.9 C49.6,104.9 48.1,106.3 48.1,108.1 L48.1,109.1 C48.1,110.8 49.5,112.3 51.3,112.3 L78.4,112.3 C80.1,112.3 81.6,110.9 81.6,109.1 L81.6,108.1 C81.4,106.2 80,104.8 78.2,104.8 Z M110.4,1.7 C119,1.7 126,8.7 126,17.3 C126,24.9 120.6,31.4 113.1,32.7 C112.2,32.9 111.3,32.9 110.4,32.9 C103.2,32.9 96.9,28 95.2,21 C94.9,19.8 94.8,18.6 94.8,17.3 C94.8,8.7 101.8,1.7 110.4,1.7 Z M55.4,6.1 L60.2,10.9 L55.4,10.9 L55.4,6.1 Z M44.5,1.5 C45.7,1.5 46.7,2.4 46.9,3.6 L42,3.6 C42.3,2.3 43.3,1.5 44.5,1.5 Z M35.4,1.5 C36.6,1.5 37.6,2.4 37.8,3.6 L32.9,3.6 C33.2,2.3 34.2,1.5 35.4,1.5 Z M29.1,6.5 C29.1,5.7 29.8,5 30.6,5 L37.7,5 C37.3,5.8 36.5,6.4 35.5,6.4 C35.1,6.4 34.7,6.7 34.7,7.2 C34.7,7.6 35,8 35.5,8 C37.3,8 38.8,6.8 39.3,5.1 L46.9,5.1 C46.5,5.9 45.7,6.5 44.7,6.5 C44.3,6.5 43.9,6.8 43.9,7.3 C43.9,7.7 44.2,8.1 44.7,8.1 C46.5,8.1 48,6.9 48.5,5.2 L54,5.2 L54,11.8 C54,12.2 54.3,12.6 54.8,12.6 L61.4,12.6 L61.4,46 C61.4,46.8 60.7,47.5 59.9,47.5 L30.5,47.5 C29.7,47.5 29,46.8 29,46 L29,6.5 L29.1,6.5 Z M17,27.1 C17,24.3 19.3,22 22.1,22 L27.6,22 L27.6,46 C27.6,47.6 28.9,49 30.6,49 L59.8,49 C61.4,49 62.8,47.7 62.8,46 L62.8,21.9 L94,21.9 C96.1,29.3 102.8,34.4 110.5,34.4 C111.2,34.4 111.8,34.3 112.5,34.3 L112.5,79.8 L17,79.8 L17,27.1 Z M22.1,87.5 C19.3,87.5 17,85.2 17,82.4 L17,81.4 L112.5,81.4 L112.5,82.4 C112.5,85.2 110.2,87.5 107.4,87.5 L69.2,87.5 L69.2,87.5 L60.2,87.5 L60.2,87.5 L22.1,87.5 Z M60.8,89 L68.5,89 L71.9,104.8 L57.4,104.8 L60.8,89 Z M79.9,108.9 C79.9,109.8 79.2,110.5 78.3,110.5 L51.2,110.5 C50.3,110.5 49.6,109.8 49.6,108.9 L49.6,107.9 C49.6,107 50.3,106.3 51.2,106.3 L56.5,106.3 L72.9,106.3 L78.2,106.3 C79.1,106.3 79.8,107 79.8,107.9 L79.8,108.9 L79.9,108.9 Z"
                id="Shape"></path>
                <path d="M83.4,46.1 L83.4,46.1 C80.8,48.6 80.8,52.7 83.3,55.3 C84.6,56.6 86.3,57.3 87.9,57.3 C89.5,57.3 91.2,56.7 92.4,55.5 C95,53 95,48.9 92.5,46.3 C90.1,43.6 86,43.6 83.4,46.1 Z M91.4,54.3 C89.4,56.2 86.3,56.2 84.4,54.2 C82.5,52.2 82.5,49.1 84.5,47.2 C86.5,45.3 89.6,45.3 91.5,47.3 C93.4,49.2 93.4,52.4 91.4,54.3 Z"
                id="Shape"></path>
                <path d="M104.3,46.5 C104.2,46.1 103.8,45.9 103.4,46 L99,47 C98.5,45.5 97.8,44.2 96.7,43 L99.9,39.8 C100.2,39.5 100.2,39 99.9,38.7 C99.6,38.4 99.1,38.4 98.8,38.7 L95.6,41.9 C94.4,40.8 93,40.1 91.5,39.6 L92.6,35.3 C92.7,34.9 92.5,34.5 92.1,34.4 C91.7,34.3 91.3,34.5 91.2,34.9 L90.1,39.2 C88.6,38.9 87.1,38.9 85.6,39.2 L84.4,35 C84.3,34.6 83.9,34.4 83.5,34.5 C83.1,34.6 82.9,35 83,35.4 L84.2,39.7 C82.8,40.2 81.5,40.9 80.3,42 L77.2,38.9 C76.9,38.6 76.4,38.6 76.1,38.9 C75.8,39.2 75.8,39.7 76.1,40 L79.2,43.1 C78.2,44.3 77.4,45.6 76.9,47.1 L72.7,46 C72.3,45.9 71.9,46.1 71.8,46.5 C71.7,46.9 71.9,47.3 72.3,47.4 L76.5,48.5 C76.2,50 76.2,51.6 76.5,53.1 L72.3,54.2 C71.9,54.3 71.7,54.7 71.8,55.1 C71.9,55.4 72.2,55.7 72.5,55.7 L72.7,55.7 L76.9,54.6 C77.3,55.7 77.8,56.7 78.4,57.6 L76.8,59.2 C76.2,59 75.6,59.1 75.1,59.5 L64.7,69.8 C63.7,70.8 63.7,72.5 64.7,73.5 L65.2,74 C65.7,74.5 66.4,74.8 67,74.8 C67.7,74.8 68.3,74.5 68.8,74 L79.2,63.6 C79.5,63.3 79.7,62.9 79.7,62.5 C79.7,62.3 79.7,62.1 79.6,61.9 L81.2,60.3 C82.1,61 83.2,61.5 84.2,61.8 L83.1,66 C83,66.4 83.2,66.8 83.6,66.9 L83.8,66.9 C84.1,66.9 84.4,66.7 84.5,66.3 L85.6,62.1 C86.3,62.2 87.1,62.3 87.9,62.3 C88.7,62.3 89.5,62.2 90.2,62.1 L91.3,66.3 C91.4,66.6 91.7,66.9 92,66.9 L92.2,66.9 C92.6,66.8 92.8,66.4 92.7,66 L91.6,61.8 C93,61.3 94.4,60.6 95.5,59.5 L98.6,62.6 C98.7,62.7 98.9,62.8 99.1,62.8 C99.3,62.8 99.5,62.7 99.6,62.6 C99.9,62.3 99.9,61.8 99.6,61.5 L96.5,58.4 C97.5,57.2 98.3,55.9 98.8,54.5 L103.1,55.7 L103.3,55.7 C103.6,55.7 103.9,55.5 104,55.1 C104.1,54.7 103.9,54.3 103.5,54.2 L99.4,53 C99.7,51.5 99.7,50 99.4,48.5 L103.7,47.4 C104.1,47.3 104.4,46.9 104.3,46.5 Z M67.8,72.9 C67.4,73.3 66.7,73.3 66.2,72.9 L65.7,72.4 C65.3,72 65.3,71.3 65.7,70.8 L76.2,60.4 L78.2,62.4 L67.8,72.9 Z M78.6,60.7 L77.9,60 L79.3,58.6 L80,59.3 L78.6,60.7 Z M95,58 C91,61.9 84.5,61.8 80.6,57.8 C76.7,53.8 76.8,47.3 80.8,43.4 C84.8,39.5 91.3,39.6 95.2,43.6 C99.1,47.6 99.1,54.1 95,58 Z"
                id="Shape"></path>
                <path d="M110.4,19.4 L110.6,19.4 L112.6,23.4 C112.7,23.7 113,23.8 113.3,23.8 C113.4,23.8 113.5,23.8 113.6,23.7 C114,23.5 114.1,23.1 113.9,22.7 L111.9,18.7 L112,18.6 C112,18.5 112.1,18.5 112.1,18.4 C112.2,18.3 112.2,18.2 112.3,18 C112.3,17.9 112.4,17.9 112.4,17.8 C112.5,17.6 112.5,17.4 112.5,17.2 L112.5,17.1 L120.6,13.4 C121,13.2 121.1,12.8 121,12.4 C120.8,12 120.4,11.9 120,12 L111.9,15.7 C111.5,15.3 111,15.1 110.4,15.1 C109.2,15.1 108.3,16 108.3,17.2 C108.3,18.5 109.2,19.4 110.4,19.4 Z"
                id="Shape"></path>
                <path d="M110.4,6.2 C110.8,6.2 111.2,5.9 111.2,5.4 L111.2,3.6 C111.2,3.2 110.9,2.8 110.4,2.8 C110,2.8 109.6,3.1 109.6,3.6 L109.6,5.4 C109.6,5.9 110,6.2 110.4,6.2 Z"
                id="Shape"></path>
                <path d="M96.7,18.1 L98.5,18.1 C98.9,18.1 99.3,17.8 99.3,17.3 C99.3,16.9 99,16.5 98.5,16.5 L96.7,16.5 C96.3,16.5 95.9,16.8 95.9,17.3 C96,17.7 96.3,18.1 96.7,18.1 Z"
                id="Shape"></path>
                <path d="M110.4,28.3 C110,28.3 109.6,28.6 109.6,29.1 L109.6,30.9 C109.6,31.3 109.9,31.7 110.4,31.7 C110.8,31.7 111.2,31.4 111.2,30.9 L111.2,29.1 C111.1,28.7 110.8,28.3 110.4,28.3 Z"
                id="Shape"></path>
                <path d="M122.2,18.1 L124,18.1 C124.4,18.1 124.8,17.8 124.8,17.3 C124.8,16.9 124.5,16.5 124,16.5 L122.2,16.5 C121.8,16.5 121.4,16.8 121.4,17.3 C121.4,17.7 121.8,18.1 122.2,18.1 Z"
                id="Shape"></path>
                <path d="M58.3,55.1 L23.5,55.1 C23.1,55.1 22.7,55.4 22.7,55.9 C22.7,56.3 23,56.7 23.5,56.7 L58.4,56.7 C58.8,56.7 59.2,56.4 59.2,55.9 C59.1,55.4 58.7,55.1 58.3,55.1 Z"
                id="Shape"></path>
                <path d="M58.3,60.9 L23.5,60.9 C23.1,60.9 22.7,61.2 22.7,61.7 C22.7,62.1 23,62.5 23.5,62.5 L58.4,62.5 C58.8,62.5 59.2,62.2 59.2,61.7 C59.1,61.2 58.7,60.9 58.3,60.9 Z"
                id="Shape"></path>
                <path d="M58.3,66.6 L23.5,66.6 C23.1,66.6 22.7,66.9 22.7,67.4 C22.7,67.8 23,68.2 23.5,68.2 L58.4,68.2 C58.8,68.2 59.2,67.9 59.2,67.4 C59.1,67 58.7,66.6 58.3,66.6 Z"
                id="Shape"></path>
                <path d="M47.8,72.4 L23.5,72.4 C23.1,72.4 22.7,72.7 22.7,73.2 C22.7,73.6 23,74 23.5,74 L47.8,74 C48.2,74 48.6,73.7 48.6,73.2 C48.5,72.7 48.2,72.4 47.8,72.4 Z"
                id="Shape"></path>
                <path d="M36.3,19.9 L54,19.9 C54.4,19.9 54.8,19.6 54.8,19.1 C54.8,18.7 54.5,18.3 54,18.3 L36.3,18.3 C35.9,18.3 35.5,18.6 35.5,19.1 C35.5,19.6 35.9,19.9 36.3,19.9 Z"
                id="Shape"></path>
                <path d="M36.3,25.7 L54,25.7 C54.4,25.7 54.8,25.4 54.8,24.9 C54.8,24.5 54.5,24.1 54,24.1 L36.3,24.1 C35.9,24.1 35.5,24.4 35.5,24.9 C35.5,25.4 35.9,25.7 36.3,25.7 Z"
                id="Shape"></path>
                <path d="M36.3,31.5 L54,31.5 C54.4,31.5 54.8,31.2 54.8,30.7 C54.8,30.3 54.5,29.9 54,29.9 L36.3,29.9 C35.9,29.9 35.5,30.2 35.5,30.7 C35.5,31.1 35.9,31.5 36.3,31.5 Z"
                id="Shape"></path>
                <path d="M36.3,37.2 L48.7,37.2 C49.1,37.2 49.5,36.9 49.5,36.4 C49.5,36 49.2,35.6 48.7,35.6 L36.3,35.6 C35.9,35.6 35.5,35.9 35.5,36.4 C35.5,36.9 35.9,37.2 36.3,37.2 Z"
                id="Shape"></path>
            </g>
        </g>
    </g>
</svg>