<?xml version="1.0" encoding="UTF-8" ?>
<svg width="48px" height="69px" viewBox="0 0 48 69" version="1.1" xmlns="http://www.w3.org/2000/svg">
    <g id="Page-1" stroke="none" stroke-width="1" fill-rule="evenodd">
        <g id="backpack" transform="translate(-26.000000, 0.000000)" fill-rule="nonzero">
            <g id="Group" transform="translate(26.000000, 0.000000)">
                <path d="M48,10 C47.9115524,8.26294929 46.4375953,6.9229883 44.7,7 L33.106,7 C32.599415,3.00391369 29.2030634,0.00625121606 25.175,0 L23.824,0 C19.7959366,0.00625121606 16.399585,3.00391369 15.893,7 L3.3,7 C1.56240472,6.9229883 0.0884476298,8.26294929 3.55271368e-15,10 L3.55271368e-15,16 C0.00935977289,17.8627913 0.590174603,19.6778377 1.664,21.2 L0,59 C0.00606237045,64.5203344 4.47966557,68.9939376 10,69 L38,69 C40.6582474,68.9949672 43.2055313,67.9337418 45.0810687,66.0499521 C46.9566061,64.1661623 48.0066378,61.6142438 48,58.956 L46.336,21.2 C47.4098254,19.6778377 47.9906402,17.8627913 48,16 L48,10 Z M23.824,2 L25.176,2 C28.1015207,2.00296468 30.5984145,4.11539594 31.086,7 L17.915,7 C18.4025221,4.11576812 20.8988574,2.00345191 23.824,2 L23.824,2 Z M2,10 C2.10238284,9.37633788 2.67094213,8.93898458 3.3,9 L44.7,9 C45.3290579,8.93898458 45.8976172,9.37633788 46,10 L46,16 C46,19.668 43.057,22.833 39,23.737 L39,20 C39,19.4477153 38.5522847,19 38,19 L32,19 C31.4477153,19 31,19.4477153 31,20 L31,24 L17,24 L17,20 C17,19.4477153 16.5522847,19 16,19 L10,19 C9.44771525,19 9,19.4477153 9,20 L9,23.737 C4.941,22.837 2,19.669 2,16 L2,10 Z M33,25 L33,21 L37,21 L37,25 L37,25.034 L37,25.044 L37,26 C37,27.1045695 36.1045695,28 35,28 C33.8954305,28 33,27.1045695 33,26 L33,25 Z M15,21 L15,26 C15,27.1045695 14.1045695,28 13,28 C11.8954305,28 11,27.1045695 11,26 L11,21 L15,21 Z M38,67 L10,67 C5.59884819,67.0000666 2.02420633,63.4450852 2,59.044 L3.575,23.276 C5.13986141,24.5601953 7.00752384,25.4222463 9,25.78 L9,26 C9,28.209139 10.790861,30 13,30 C15.209139,30 17,28.209139 17,26 L31,26 C31,28.209139 32.790861,30 35,30 C37.209139,30 39,28.209139 39,26 L39,25.779 C40.9928441,25.4208599 42.8608159,24.5584807 44.426,23.274 L46,59 C45.9950401,63.4162219 42.4162219,66.9950401 38,67 Z"
                id="Shape"></path>
                <path d="M20,40 L6,40 C5.44771525,40 5,40.4477153 5,41 L5,59 C5,59.5522847 5.44771525,60 6,60 L20,60 C20.5522847,60 21,59.5522847 21,59 L21,41 C21,40.4477153 20.5522847,40 20,40 Z M7,42 L19,42 L19,43 C19,45.209139 17.209139,47 15,47 L11,47 C8.790861,47 7,45.209139 7,43 L7,42 Z M7,58 L7,47.46 C8.09668528,48.4508585 9.52198814,48.9996001 11,49 L15,49 C16.4780119,48.9996001 17.9033147,48.4508585 19,47.46 L19,58 L7,58 Z"
                id="Shape"></path>
                <path d="M42,40 L28,40 C27.4477153,40 27,40.4477153 27,41 L27,59 C27,59.5522847 27.4477153,60 28,60 L42,60 C42.5522847,60 43,59.5522847 43,59 L43,41 C43,40.4477153 42.5522847,40 42,40 Z M29,42 L41,42 L41,43 C41,45.209139 39.209139,47 37,47 L33,47 C30.790861,47 29,45.209139 29,43 L29,42 Z M29,58 L29,47.46 C30.0966853,48.4508585 31.5219881,48.9996001 33,49 L37,49 C38.4780119,48.9996001 39.9033147,48.4508585 41,47.46 L41,58 L29,58 Z"
                id="Shape"></path>
            </g>
        </g>
    </g>
</svg>