<?xml version="1.0" encoding="UTF-8" ?>
<svg width="48px" height="59px" viewBox="0 0 48 59" version="1.1" xmlns="http://www.w3.org/2000/svg">
    <g id="Page-1" stroke="none" stroke-width="1" fill-rule="evenodd">
        <g id="bell" transform="translate(-26.000000, 0.000000)" fill-rule="nonzero">
            <g id="Group" transform="translate(26.000000, 0.000000)">
                <path d="M24,21.1 C23.2,21.1 22.5,21.8 22.5,22.6 C22.5,23.4 23.2,24.1 24,24.1 C28.2,24.1 31.6,27.5 31.6,31.7 L31.6,42 C31.6,42.8 32.3,43.5 33.1,43.5 C33.9,43.5 34.6,42.8 34.6,42 L34.6,31.6 C34.6,25.8 29.8,21.1 24,21.1 Z"
                id="Shape"></path>
                <path d="M46.2,50 L43.2,50 L43.2,31.6 C43.2,21.5 35.4,13.2 25.5,12.5 L25.5,1.6 C25.5,0.8 24.8,0.1 24,0.1 C23.2,0.1 22.5,0.8 22.5,1.6 L22.5,12.5 C12.6,13.3 4.8,21.5 4.8,31.6 L4.8,50 L1.8,50 C1,50 0.3,50.7 0.3,51.5 C0.3,52.3 1,53 1.8,53 L4.8,53 L18.4,53 C18.5,56 21,58.4 24,58.4 C27,58.4 29.5,56 29.6,53 L43.2,53 L46.2,53 C47,53 47.7,52.3 47.7,51.5 C47.7,50.7 47,50 46.2,50 Z M7.8,50 L7.8,31.6 C7.8,22.7 15.1,15.4 24,15.4 C32.9,15.4 40.2,22.7 40.2,31.6 L40.2,50 L7.8,50 Z"
                id="Shape"></path>
            </g>
        </g>
    </g>
</svg>