<?xml version="1.0" encoding="UTF-8" ?>
<svg width="84px" height="83px" viewBox="0 0 84 83" version="1.1" xmlns="http://www.w3.org/2000/svg">
    <g id="Page-1" stroke="none" stroke-width="1" fill-rule="evenodd">
        <g id="berries" transform="translate(-7.000000, 0.000000)" fill-rule="nonzero">
            <g id="Group" transform="translate(7.000000, 0.000000)">
                <path d="M46.3,57.2 C46.1,56.7 45.8,56.2 45.3,55.8 C44.9,55.4 44.4,55.1 43.9,54.8 C43.3,54.6 42.8,54.4 42.2,54.4 C41.6,54.4 41,54.5 40.5,54.8 C40.2,54.9 40,55.1 39.7,55.2 C39.5,54.7 39.2,54.3 38.8,53.9 C38.4,53.5 37.9,53.2 37.4,52.9 C36.8,52.7 36.3,52.5 35.7,52.5 C35.1,52.5 34.5,52.6 34,52.9 C33.5,53.1 33,53.4 32.6,53.9 C32.2,54.3 31.9,54.8 31.6,55.3 C31.4,55.9 31.2,56.4 31.2,57 C31.2,57.6 31.3,58.2 31.6,58.7 C31.8,59.2 32.1,59.7 32.6,60.1 C33,60.5 33.4,60.7 33.8,61 C33.6,61.3 33.4,61.6 33.3,61.9 C33.1,62.5 32.9,63 32.9,63.6 C32.9,64.2 33,64.8 33.3,65.3 C33.5,65.8 33.8,66.3 34.3,66.7 C34.7,67.1 35.2,67.4 35.7,67.7 C36.3,67.9 36.8,68.1 37.4,68.1 C38,68.1 38.6,68 39.1,67.7 C39.6,67.5 40.1,67.2 40.5,66.7 C40.9,66.3 41.2,65.8 41.5,65.3 C41.7,64.7 41.9,64.2 41.9,63.6 L41.9,63.3 L42.3,63.3 C42.9,63.3 43.5,63.2 44,62.9 C44.5,62.7 45,62.4 45.4,61.9 C45.8,61.5 46.1,61 46.4,60.5 C46.6,59.9 46.8,59.4 46.8,58.8 C46.8,58.2 46.6,57.7 46.3,57.2 Z M35.6,54.7 C36.9,54.7 38,55.8 38,57.1 C38,58.4 36.9,59.5 35.6,59.5 C34.3,59.5 33.2,58.4 33.2,57.1 C33.2,55.8 34.3,54.7 35.6,54.7 Z M37.3,66.1 C36,66.1 34.9,65 34.9,63.7 C34.9,62.4 36,61.3 37.3,61.3 C38,61.3 38.6,61.6 39,62 L39,62 C39.4,62.4 39.7,63 39.7,63.6 C39.7,65 38.6,66.1 37.3,66.1 Z M42.2,61.3 C41.5,61.3 40.9,61 40.5,60.6 L40.5,60.6 C40.1,60.2 39.8,59.6 39.8,59 C39.8,57.7 40.9,56.6 42.2,56.6 C43.5,56.6 44.6,57.7 44.6,59 C44.6,60.3 43.5,61.3 42.2,61.3 Z"
                id="Shape"></path>
                <path d="M76.8,38.9 C76.6,38.4 76.3,37.9 75.8,37.5 C75.4,37.1 74.9,36.8 74.4,36.5 C73.8,36.3 73.3,36.1 72.7,36.1 C72.1,36.1 71.5,36.2 71,36.5 C70.7,36.6 70.5,36.8 70.2,36.9 C70,36.4 69.7,36 69.3,35.6 C68.9,35.2 68.4,34.9 67.9,34.6 C67.3,34.4 66.8,34.2 66.2,34.2 C65.6,34.2 65,34.3 64.5,34.6 C64,34.8 63.5,35.1 63.1,35.6 C62.7,36 62.4,36.5 62.1,37 C61.9,37.6 61.7,38.1 61.7,38.7 C61.7,39.3 61.8,39.9 62.1,40.4 C62.3,40.9 62.6,41.4 63.1,41.8 C63.5,42.2 63.9,42.4 64.3,42.7 C64.1,43 63.9,43.3 63.8,43.6 C63.6,44.2 63.4,44.7 63.4,45.3 C63.4,45.9 63.5,46.5 63.8,47 C64,47.5 64.3,48 64.8,48.4 C65.2,48.8 65.7,49.1 66.2,49.4 C66.8,49.6 67.3,49.8 67.9,49.8 C68.5,49.8 69.1,49.7 69.6,49.4 C70.1,49.2 70.6,48.9 71,48.4 C71.4,48 71.7,47.5 72,47 C72.2,46.4 72.4,45.9 72.4,45.3 L72.4,45 L72.8,45 C73.4,45 74,44.9 74.5,44.6 C75,44.4 75.5,44.1 75.9,43.6 C76.3,43.2 76.6,42.7 76.9,42.2 C77.1,41.6 77.3,41.1 77.3,40.5 C77.3,39.9 77.1,39.5 76.8,38.9 Z M66.1,36.4 C67.4,36.4 68.5,37.5 68.5,38.8 C68.5,40.1 67.4,41.2 66.1,41.2 C64.8,41.2 63.7,40.1 63.7,38.8 C63.7,37.5 64.8,36.4 66.1,36.4 Z M67.8,47.8 C66.5,47.8 65.4,46.7 65.4,45.4 C65.4,44.1 66.5,43 67.8,43 C68.5,43 69.1,43.3 69.5,43.7 L69.5,43.7 C69.9,44.1 70.2,44.7 70.2,45.3 C70.1,46.8 69.1,47.8 67.8,47.8 Z M72.7,43 C72,43 71.4,42.7 71,42.3 L71,42.3 C70.6,41.9 70.3,41.3 70.3,40.7 C70.3,39.4 71.4,38.3 72.7,38.3 C74,38.3 75.1,39.4 75.1,40.7 C75.1,42 74,43 72.7,43 Z"
                id="Shape"></path>
                <path d="M45.3,21.4 C45.1,20.9 44.8,20.4 44.3,20 C43.9,19.6 43.4,19.3 42.9,19 C42.3,18.8 41.8,18.6 41.2,18.6 C40.6,18.6 40,18.7 39.5,19 C39.2,19.1 39,19.3 38.7,19.4 C38.5,18.9 38.2,18.5 37.8,18.1 C37.4,17.7 36.9,17.4 36.4,17.1 C35.8,16.9 35.3,16.7 34.7,16.7 C34.1,16.7 33.5,16.8 33,17.1 C32.5,17.3 32,17.6 31.6,18.1 C31.2,18.5 30.9,19 30.6,19.5 C30.4,20.1 30.2,20.6 30.2,21.2 C30.2,21.8 30.3,22.4 30.6,22.9 C30.8,23.4 31.1,23.9 31.6,24.3 C32,24.7 32.4,24.9 32.8,25.2 C32.6,25.5 32.4,25.8 32.3,26.1 C32.1,26.7 31.9,27.2 31.9,27.8 C31.9,28.4 32,29 32.3,29.5 C32.5,30 32.8,30.5 33.3,30.9 C33.7,31.3 34.2,31.6 34.7,31.9 C35.3,32.1 35.8,32.3 36.4,32.3 C37,32.3 37.6,32.2 38.1,31.9 C38.6,31.7 39.1,31.4 39.5,30.9 C39.9,30.5 40.2,30 40.5,29.5 C40.7,28.9 40.9,28.4 40.9,27.8 L40.9,27.5 L41.3,27.5 C41.9,27.5 42.5,27.4 43,27.1 C43.5,26.9 44,26.6 44.4,26.1 C44.8,25.7 45.1,25.2 45.4,24.7 C45.6,24.1 45.8,23.6 45.8,23 C45.7,22.6 45.6,22 45.3,21.4 Z M34.6,18.9 C35.9,18.9 37,20 37,21.3 C37,22.6 35.9,23.7 34.6,23.7 C33.3,23.7 32.2,22.6 32.2,21.3 C32.2,20 33.3,18.9 34.6,18.9 Z M36.3,30.3 C35,30.3 33.9,29.2 33.9,27.9 C33.9,26.6 35,25.5 36.3,25.5 C37,25.5 37.6,25.8 38,26.2 L38,26.2 C38.4,26.6 38.7,27.2 38.7,27.8 C38.7,29.3 37.6,30.3 36.3,30.3 Z M41.2,25.5 C40.5,25.5 39.9,25.2 39.5,24.8 L39.5,24.8 C39.1,24.4 38.8,23.8 38.8,23.2 C38.8,21.9 39.9,20.8 41.2,20.8 C42.5,20.8 43.6,21.9 43.6,23.2 C43.6,24.5 42.5,25.5 41.2,25.5 Z"
                id="Shape"></path>
                <path d="M83.7,38.7 C83.5,37.7 83.2,36.8 82.8,35.9 C82.4,35 82,34.2 81.4,33.4 C80.9,32.6 80.2,31.9 79.6,31.2 C78.9,30.5 78.2,29.9 77.4,29.4 C76.9,29.1 76.4,28.8 75.9,28.5 L75.9,28.5 L75.9,28.5 C76.1,26.6 76.2,24.6 76.2,22.7 L76.2,22.4 C76.2,15.1 74.6,7.6 71.7,1.1 L71.7,1.1 C71.6,0.8 71.2,0.5 70.8,0.5 C70.7,0.5 70.2,0.6 70,0.6 C66.2,1.2 62.4,2.2 58.7,3.8 C58.7,3.8 57.3,4.4 57,4.5 C54.5,5.6 52.2,6.9 49.9,8.3 C48.3,9.3 46.8,10.4 45.3,11.6 L45.3,11.6 L45.3,11.6 L45.3,11.6 C44.7,11.3 44.1,11 43.5,10.7 C42.6,10.3 41.7,10 40.7,9.8 C39.7,9.6 38.7,9.5 37.7,9.5 C36.7,9.5 35.7,9.6 34.7,9.8 C33.7,10 32.8,10.3 31.9,10.7 C31,11.1 30.2,11.5 29.4,12.1 C28.6,12.6 27.9,13.3 27.2,13.9 C26.5,14.6 25.9,15.3 25.4,16.1 C24.9,16.9 24.4,17.8 24,18.6 C23.6,19.5 23.3,20.4 23.1,21.4 C22.9,22.4 22.8,23.4 22.8,24.4 L22.8,25.2 L22.8,25.2 C21,26 19.2,26.9 17.5,27.9 C11,31.5 5.1,36.6 0.9,42.5 C0.7,42.7 0.7,42.9 0.7,43.1 C0.7,43.3 0.8,43.6 0.9,43.7 L0.9,43.7 C3.5,47 6.7,50.2 10.1,52.8 L10.1,52.8 C12.5,54.7 15.1,56.4 17.8,57.8 C19.7,58.8 21.4,59.6 23.3,60.4 L23.4,60.4 C23.4,61.3 23.5,62.2 23.7,63.1 C23.9,64.1 24.2,65 24.6,65.9 C25,66.8 25.4,67.6 26,68.4 C26.5,69.2 27.2,69.9 27.8,70.6 C28.5,71.3 29.2,71.9 30,72.4 C30.8,72.9 31.7,73.4 32.5,73.8 C33.4,74.2 34.3,74.5 35.3,74.7 C36.3,74.9 37.3,75 38.3,75 C39.3,75 40.3,74.9 41.3,74.7 C42.3,74.5 43.2,74.2 44.1,73.8 C44.8,73.5 45.6,73.1 46.3,72.7 L47.3,73.4 L47.3,73.4 L47.3,73.4 L47.3,73.4 L47.3,73.4 C48.7,74.3 50.2,75.3 51.6,76.1 C57.9,79.7 65.2,82.1 72.2,82.9 L72.7,82.9 C73.1,82.9 73.5,82.6 73.6,82.3 C73.6,82.3 73.7,82.2 73.7,82.1 C76,76.2 77.3,69.5 77.3,63 C77.3,62.1 77.3,61.3 77.2,60.5 C77.1,58.5 76.9,56.5 76.6,54.5 L76.6,54.5 C76.8,54.4 77,54.2 77.3,54.1 C78.1,53.6 78.8,52.9 79.5,52.3 C80.2,51.6 80.8,50.9 81.3,50.1 C81.8,49.3 82.3,48.4 82.7,47.6 C83.1,46.7 83.4,45.8 83.6,44.8 C83.8,43.8 83.9,42.8 83.9,41.8 C84,40.7 83.9,39.7 83.7,38.7 Z M74.2,22.6 C74.2,23.9 74.1,25.3 74,26.7 L57.8,27 L60.6,21.9 L74.2,21.6 L74.2,22.6 Z M62.1,55.1 L57.5,55.2 L57.5,55.2 L57.5,55.2 L50,42.9 L54.1,42.8 C54.1,43.5 54.2,44.1 54.4,44.7 C54.6,45.7 54.9,46.6 55.3,47.5 C55.7,48.4 56.1,49.2 56.7,50 C57.2,50.8 57.9,51.5 58.5,52.2 C59.2,52.9 59.9,53.5 60.7,54 C61.2,54.4 61.8,54.7 62.3,55 L62.1,55.1 Z M75,56.9 C75.1,58.1 75.2,59.4 75.3,60.6 L75.3,61.9 L61.7,62.1 L61.7,62.1 L61.7,62.1 L58.6,57.1 L75,56.9 Z M53,57.1 C52.8,56.1 52.5,55.2 52.1,54.3 C51.7,53.4 51.3,52.6 50.7,51.8 C50.2,51 49.5,50.3 48.9,49.6 C48.2,48.9 47.5,48.3 46.7,47.8 C46.6,47.7 46.5,47.7 46.5,47.6 L48.4,44.2 L55.7,56 L53.4,60.2 L53.4,60.3 L53.4,60.1 C53.3,59.1 53.2,58 53,57.1 Z M52.6,24.3 L54.9,28.2 L48.3,40.2 L46.2,36.7 C46.9,36.2 47.6,35.6 48.3,35 C49,34.3 49.6,33.6 50.1,32.8 C50.6,32 51.1,31.1 51.5,30.3 C51.9,29.4 52.2,28.5 52.4,27.5 C52.5,26.4 52.6,25.3 52.6,24.3 L52.6,24.3 Z M46.5,41 L32.8,41.3 L30.4,37.4 L30.4,37.4 L30.4,37.4 L30.4,37.4 C30.9,37.7 31.4,37.9 31.9,38.1 C32.8,38.5 33.7,38.8 34.7,39 C35.7,39.2 36.7,39.3 37.7,39.3 C38.7,39.3 39.7,39.2 40.7,39 C41.7,38.8 42.6,38.5 43.5,38.1 C43.8,38 44.2,37.8 44.5,37.6 L46.5,41 Z M32.8,43.3 L46.8,42.9 L46.8,42.9 L46.8,42.9 L44.8,46.5 C44.6,46.4 44.4,46.3 44.2,46.2 C43.3,45.8 42.4,45.5 41.4,45.3 C40.4,45.1 39.4,45 38.4,45 C37.4,45 36.4,45.1 35.4,45.3 C34.4,45.5 33.5,45.8 32.6,46.2 C31.9,46.5 31.3,46.8 30.7,47.2 L32.8,43.3 Z M54.4,38.7 C54.3,39.4 54.2,40.1 54.1,40.8 L50.2,40.9 L56.7,29.1 L56.7,29.1 L56.7,29.1 L61.2,29 C61,29.1 60.9,29.2 60.7,29.3 C59.9,29.8 59.2,30.5 58.5,31.1 C57.8,31.8 57.2,32.5 56.7,33.3 C56.2,34.1 55.7,35 55.3,35.8 C54.9,36.8 54.6,37.7 54.4,38.7 Z M74.1,19.6 L61.7,19.9 L64.5,14.7 L73.5,14.5 C73.9,16.2 74,17.9 74.1,19.6 Z M63,13.8 L63,13.8 L63,13.8 C63,13.8 62.9,13.8 63,13.8 L63,13.8 C63,13.7 63,13.7 63,13.8 C63,13.7 63,13.7 63,13.8 L63,13.8 Z M64.4,14.6 L64.4,14.6 L64.4,14.6 L64.4,14.6 L64.4,14.6 Z M70.6,3.7 C71.7,6.5 72.6,9.5 73.2,12.6 L65.6,12.8 L70.6,3.7 Z M68.9,2.7 C68.8,2.9 64.5,10.7 63.9,11.7 L60,5.2 C63,4.1 65.9,3.3 68.9,2.7 Z M58.2,6 L62.8,13.7 L60,18.9 L53.6,8.2 C55.1,7.5 56.6,6.7 58.2,6 Z M51,9.8 C51,9.8 51.6,9.4 51.9,9.3 L58.9,21 L56,26.1 L47.7,12.1 C48.8,11.3 49.9,10.5 51,9.8 Z M37.6,11.3 C44.8,11.3 50.6,17.1 50.6,24.3 C50.6,31.5 44.8,37.3 37.6,37.3 C33.1,37.3 29.2,35 26.9,31.6 C26.5,31 26.1,30.4 25.8,29.7 C25.1,28.1 24.6,26.2 24.6,24.3 C24.7,17.2 30.5,11.3 37.6,11.3 Z M18.4,29.6 C19.6,28.9 20.8,28.3 22,27.7 L30.4,41.4 L24.6,41.5 L17.5,30 L18.4,29.6 Z M15.8,31.1 L22.3,41.6 L16.4,41.7 L11.7,34.1 C13,33 14.4,32 15.8,31.1 Z M3.7,42.1 C5.6,39.7 7.7,37.5 10.1,35.4 L14,41.8 L3.7,42.1 L3.7,42.1 L3.7,42.1 Z M10.4,50.5 C8,48.5 5.7,46.3 3.8,44 C4,44 12.9,43.8 14.1,43.7 L14.1,43.7 L14.1,43.7 L10.4,50.5 Z M16.2,54.6 C14.7,53.7 13.3,52.8 11.9,51.7 L16.3,43.7 L22.2,43.5 L16.2,54.6 Z M22.5,57.9 C21.3,57.4 20.1,56.8 18.8,56.1 L17.9,55.6 L24.6,43.5 L30.4,43.4 L30.4,43.4 L30.4,43.4 L22.5,57.9 Z M38.4,73.1 C31.2,73.1 25.4,67.3 25.4,60.1 C25.4,52.9 31.2,47.1 38.4,47.1 C45.6,47.1 51.4,52.9 51.4,60.1 C51.4,67.3 45.5,73.1 38.4,73.1 Z M53.4,74.8 L53.4,74.8 L52.7,74.4 C51.5,73.7 50.3,72.9 49.1,72.1 L56.9,58 L59.9,62.9 L53.4,74.8 L53.4,74.8 Z M55.2,75.8 L61.2,64.9 L61.2,64.9 L61.2,64.9 L63.5,68.7 L63.5,68.7 C63.5,68.7 63.8,69.2 64.3,69.9 L59.9,77.9 C58.3,77.2 56.7,76.5 55.2,75.8 Z M61.8,78.5 L65.5,71.8 C67.7,75.3 70.8,80.5 71,80.7 L71,80.7 C67.9,80.3 64.8,79.6 61.8,78.5 Z M72.6,79.7 L67.2,70.9 L74.8,70.8 C74.3,73.9 73.6,76.9 72.6,79.7 Z M75.1,68.8 L66,68.9 L66,68.9 L66,68.9 L63,64.1 L75.4,64 C75.4,65.6 75.3,67.2 75.1,68.8 Z M69,54.7 C61.8,54.7 56,48.9 56,41.7 C56,34.5 61.8,28.7 69,28.7 C76.2,28.7 82,34.5 82,41.7 C82,48.9 76.2,54.7 69,54.7 Z"
                id="Shape"></path>
            </g>
        </g>
    </g>
</svg>