<?xml version="1.0" encoding="UTF-8" ?>
<svg width="81px" height="85px" viewBox="0 0 81 85" version="1.1" xmlns="http://www.w3.org/2000/svg">
    <g id="Page-1" stroke="none" stroke-width="1" fill-rule="evenodd">
        <g id="bookmark" transform="translate(-9.000000, 0.000000)" fill-rule="nonzero">
            <path d="M81.1,2.5 L75.8,2.5 L75.8,0 L54.7,0 L54.7,2.5 L33.5,2.5 L25.6,2.5 C20.6,2.5 17.7,5.3 17.7,10.4 L17.7,18.3 L15.1,18.3 C13.2,18.3 9.8,19.4 9.8,23.6 C9.8,27.8 13.5,28.9 15.1,28.9 L17.7,28.9 L17.7,58 L15.1,58 C13.2,58 9.8,59.1 9.8,63.3 C9.8,67.5 13.5,68.6 15.1,68.6 L17.7,68.6 L17.7,76.5 C17.7,81.6 20.6,84.4 25.6,84.4 L33.5,84.4 L75.9,84.4 L81.2,84.4 C86.2,84.4 89.1,81.6 89.1,76.5 L89.1,68.6 L89.1,21 L89.1,10.4 C89.1,5.3 86.1,2.5 81.1,2.5 Z M57.3,2.7 L73.2,2.7 L73.2,42.4 L65.3,33.6 L57.4,42.4 L57.4,2.7 L57.3,2.7 Z M15.1,26.4 C13.9,26.4 12.5,25.9 12.5,23.8 C12.5,21.7 13.7,21.2 15.1,21.2 L28.3,21.2 C29.8,21.2 30.9,21.8 30.9,23.8 C30.9,25.9 29.5,26.4 28.3,26.4 L15.1,26.4 Z M15.1,66.1 C13.9,66.1 12.5,65.6 12.5,63.5 C12.5,61.4 13.7,60.9 15.1,60.9 L28.3,60.9 C29.8,60.9 30.9,61.5 30.9,63.5 C30.9,65.6 29.5,66.1 28.3,66.1 L15.1,66.1 Z M83.8,21 L83.8,68.7 L83.8,76.6 C83.8,77.3 83.4,79.2 81.2,79.2 L75.9,79.2 L33.5,79.2 L25.6,79.2 C23.3,79.2 23,77.3 23,76.6 L23,68.7 L28.3,68.7 C29.8,68.7 33.6,67.6 33.6,63.4 C33.6,59.2 30.2,58.1 28.3,58.1 L23,58.1 L23,29 L28.3,29 C29.8,29 33.6,27.9 33.6,23.7 C33.6,19.5 30.2,18.4 28.3,18.4 L23,18.4 L23,10.5 C23,9.8 23.4,7.9 25.6,7.9 L33.5,7.9 L54.7,7.9 L54.7,47.8 L65.3,37.2 L75.9,47.8 L75.9,7.8 L81.2,7.8 C83.5,7.8 83.8,9.7 83.8,10.4 C83.8,11.2 83.8,21 83.8,21 Z"
            id="Shape"></path>
        </g>
    </g>
</svg>