<?xml version="1.0" encoding="UTF-8" ?>
<svg width="82px" height="82px" viewBox="0 0 82 82" version="1.1" xmlns="http://www.w3.org/2000/svg">
    <g id="Page-1" stroke="none" stroke-width="1" fill-rule="evenodd">
        <g id="brain" transform="translate(-9.000000, 0.000000)" fill-rule="nonzero">
            <g id="Group" transform="translate(9.000000, 0.000000)">
                <path d="M38.608,69.336 L38.608,7.633 L38.561,7.633 C37.721,3.398 33.995,0.33 29.67,0.33 C25.817,0.33 22.526,2.751 21.216,6.147 C20.206,5.814 19.134,5.633 18.032,5.633 C12.416,5.633 7.847,10.202 7.847,15.818 C7.847,17.26 8.152,18.658 8.728,19.95 C4,21.532 0.58,25.993 0.58,31.247 C0.58,33.825 1.414,36.232 2.835,38.202 C1.559,40.132 0.863,42.391 0.863,44.741 C0.863,49.563 3.758,53.718 7.898,55.575 C7.025,56.981 6.53,58.612 6.53,60.323 C6.53,64.864 9.909,68.622 14.283,69.237 C14.281,69.325 14.272,69.413 14.272,69.501 C14.272,76.212 19.732,81.671 26.443,81.671 C33.154,81.671 38.614,76.212 38.614,69.501 C38.614,69.446 38.606,69.392 38.605,69.337 L38.608,69.337 L38.608,69.336 Z M26.443,77.67 C21.937,77.67 18.272,74.006 18.272,69.5 C18.272,69.291 18.308,69.086 18.324,68.877 C20.478,68.178 22.333,66.693 23.452,64.643 L19.942,62.727 C19.062,64.336 17.377,65.336 15.543,65.336 C12.779,65.336 10.53,63.086 10.53,60.322 C10.53,58.881 11.147,57.535 12.202,56.592 C12.383,56.6 12.56,56.619 12.742,56.619 C15.986,56.619 19.042,55.289 21.249,53.025 C21.917,53.185 22.61,53.279 23.326,53.279 C24.061,53.279 24.795,53.187 25.507,53.008 L24.53,49.129 C24.137,49.229 23.732,49.279 23.326,49.279 C20.608,49.279 18.397,47.068 18.397,44.349 L18.402,44.122 L14.406,43.968 C14.401,44.095 14.397,44.222 14.397,44.349 C14.397,47.019 15.581,49.412 17.443,51.048 C16.104,52.046 14.464,52.618 12.742,52.618 C8.397,52.618 4.863,49.083 4.863,44.739 C4.863,43.444 5.182,42.192 5.773,41.07 C7.291,42.112 9.061,42.821 10.991,43.068 L11.497,39.1 C7.554,38.598 4.58,35.221 4.58,31.246 C4.58,26.88 8.132,23.328 12.498,23.328 C14.575,23.328 16.518,24.129 17.972,25.527 C16.14,27.216 14.984,29.628 14.984,32.31 C14.984,32.581 14.997,32.851 15.02,33.121 L19.004,32.77 C18.99,32.617 18.983,32.463 18.983,32.31 C18.983,29.421 21.333,27.072 24.221,27.072 C24.845,27.072 25.457,27.181 26.041,27.398 L27.432,23.648 C26.402,23.265 25.322,23.072 24.221,23.072 C23.282,23.072 22.376,23.215 21.522,23.476 C19.377,20.976 16.307,19.488 12.97,19.357 C12.24,18.314 11.848,17.094 11.848,15.817 C11.848,12.406 14.622,9.632 18.033,9.632 C18.957,9.632 19.842,9.848 20.644,10.224 C20.646,10.24 20.646,10.257 20.647,10.273 L20.744,10.264 C22.172,10.962 23.315,12.197 23.866,13.761 L27.639,12.432 C27.048,10.757 26.041,9.313 24.765,8.188 C25.31,5.978 27.294,4.329 29.67,4.329 C32.051,4.329 34.099,5.998 34.608,8.311 L34.608,68.661 L34.571,68.665 C34.6,68.942 34.614,69.22 34.614,69.499 C34.614,74.006 30.949,77.67 26.443,77.67 Z"
                id="Shape"></path>
                <path d="M81.42,31.247 C81.42,25.979 78.07,21.529 73.287,19.95 C73.844,18.68 74.152,17.282 74.152,15.818 C74.152,10.202 69.584,5.633 63.966,5.633 C62.861,5.633 61.788,5.81 60.782,6.139 C59.471,2.747 56.182,0.33 52.335,0.33 C48.007,0.33 44.288,3.396 43.45,7.633 L43.391,7.633 L43.391,69.336 L43.395,69.336 C43.395,69.391 43.385,69.445 43.385,69.5 C43.385,76.211 48.846,81.67 55.557,81.67 C62.268,81.67 67.727,76.211 67.727,69.5 C67.727,69.412 67.719,69.324 67.717,69.236 C72.09,68.621 75.469,64.863 75.469,60.322 C75.469,58.615 74.992,56.976 74.115,55.568 C78.248,53.705 81.135,49.556 81.135,44.74 C81.135,42.328 80.408,40.085 79.17,38.21 C80.641,36.17 81.42,33.764 81.42,31.247 Z M69.258,52.619 C68.307,52.619 67.371,52.443 66.49,52.113 C67.697,49.269 67.095,45.857 64.771,43.615 L61.994,46.494 C63.367,47.818 63.48,50.002 62.25,51.463 C60.984,52.967 58.777,53.201 57.227,51.994 L54.772,55.152 C56.172,56.24 57.825,56.769 59.465,56.769 C61.035,56.769 62.59,56.277 63.906,55.331 C65.556,56.163 67.388,56.618 69.258,56.618 C69.44,56.618 69.615,56.598 69.795,56.591 C70.859,57.542 71.471,58.886 71.471,60.321 C71.471,63.085 69.223,65.335 66.459,65.335 C66.084,65.335 65.715,65.28 65.354,65.2 C65.932,64.198 66.28,63.044 66.319,61.802 L62.321,61.673 C62.266,63.419 60.854,64.786 59.108,64.786 C58.053,64.786 57.065,64.266 56.463,63.399 L53.174,65.676 C54.522,67.623 56.74,68.785 59.108,68.785 C60.159,68.785 61.153,68.558 62.051,68.16 C62.571,68.453 63.114,68.693 63.678,68.877 C63.694,69.084 63.729,69.289 63.729,69.498 C63.729,74.004 60.065,77.668 55.559,77.668 C51.053,77.668 47.387,74.004 47.387,69.498 C47.387,69.182 47.407,68.861 47.444,68.545 L47.393,68.539 L47.393,8.349 C47.885,6.015 49.94,4.329 52.336,4.329 C54.703,4.329 56.682,5.971 57.231,8.172 C56.735,8.61 56.282,9.101 55.876,9.633 C55.81,9.631 55.743,9.623 55.677,9.623 C52.636,9.623 50.046,11.796 49.519,14.791 L53.458,15.485 C53.647,14.406 54.581,13.623 55.677,13.623 C56.919,13.623 57.931,14.634 57.931,15.877 C57.931,15.998 57.921,16.119 57.902,16.238 L61.847,16.896 C61.902,16.563 61.931,16.22 61.931,15.876 C61.931,14.028 61.12,12.371 59.843,11.225 C60.267,10.843 60.736,10.517 61.249,10.266 L61.353,10.276 C61.355,10.258 61.355,10.24 61.357,10.221 C62.156,9.849 63.039,9.632 63.968,9.632 C67.38,9.632 70.154,12.406 70.154,15.817 C70.154,18.571 68.383,20.952 65.744,21.742 L66.89,25.574 C68.359,25.135 69.658,24.39 70.742,23.431 C74.588,24.031 77.422,27.293 77.422,31.245 C77.422,32.658 77.035,34.009 76.332,35.215 C74.353,33.741 71.91,32.859 69.26,32.859 C67.883,32.859 66.539,33.1 65.27,33.554 C63.563,30.615 60.387,28.629 56.75,28.629 C54.322,28.629 51.988,29.521 50.178,31.14 L52.844,34.122 C53.92,33.159 55.309,32.629 56.75,32.629 C59.979,32.629 62.605,35.256 62.605,38.485 L62.603,38.61 L66.603,38.682 L66.605,38.485 C66.605,38.104 66.58,37.73 66.537,37.36 C67.402,37.04 68.316,36.858 69.26,36.858 C73.606,36.858 77.139,40.393 77.139,44.738 C77.137,49.084 73.604,52.619 69.258,52.619 Z"
                id="Shape"></path>
            </g>
        </g>
    </g>
</svg>