<?xml version="1.0" encoding="UTF-8" ?>
<svg width="44px" height="69px" viewBox="0 0 44 69" version="1.1" xmlns="http://www.w3.org/2000/svg">
    <g id="Page-1" stroke="none" stroke-width="1" fill-rule="evenodd">
        <g id="campfire" transform="translate(-28.000000, 0.000000)" fill-rule="nonzero">
            <g id="Group" transform="translate(28.000000, 0.000000)">
                <path d="M21.321,41.412 C21.407,41.436 22.842,41.443 22.89,41.436 C26.272,41.373 32.031,40.564 35.866,36.235 C38.088,33.724 39.543,30.232 40.312,25.556 C41.084,20.866 39.849,15.912 38.4,11.258 C37.694,8.997 36.107,5.178 36.06,5.066 C35.433,3.551 34.775,2.191 33.621,2.191 C32.211,2.191 31.452,4.065 30.38,8.002 C30.295,8.314 30.103,8.955 30.034,9.18 C29.668,10.396 29.353,11.311 29.088,12.001 C28.946,11.166 28.76,10.314 28.527,9.453 C28.051,7.688 27.415,6.091 26.632,4.705 C24.38,0.712 23.005,0.25 22.167,0.25 C20.917,0.25 19.604,1.512 17.913,4.341 C17.086,5.723 16.41,7.325 15.904,9.101 C15.633,10.054 15.416,10.997 15.258,11.926 C15.077,11.456 14.183,8.739 14,8.137 C13.49,6.457 12.964,4.72 12.07,3.185 C11.618,2.406 11.02,2.29 10.704,2.29 C9.492,2.29 8.857,3.752 8.393,4.82 L8.28,5.078 C7.112,7.557 6.121,10.356 5.247,13.634 C3.384,20.64 3.53,26.379 5.71,31.696 C8.146,37.639 13.686,41.078 21.321,41.412 Z M22.914,39.423 C22.75,39.426 21.906,39.438 21.647,39.43 C21.637,39.429 21.627,39.428 21.618,39.428 C18.752,39.108 16.868,36.604 16.868,32.99 C16.868,28.667 21.27,24.294 22.238,24.185 C23.231,24.294 27.632,28.667 27.632,32.99 C27.632,36.59 25.763,39.088 22.914,39.423 Z M7.181,14.148 C8.024,10.987 10.175,5.742 10.23,5.616 C10.385,5.259 10.522,4.967 10.64,4.741 C11.25,5.958 11.675,7.357 12.087,8.717 C12.275,9.34 12.748,10.805 12.748,10.805 C13.76,13.931 14.556,15.397 15.495,15.866 C15.799,16.018 16.159,16.005 16.452,15.83 C16.745,15.657 16.929,15.346 16.94,15.006 C17.002,13.301 17.3,11.498 17.829,9.648 C18.287,8.039 18.892,6.599 19.631,5.366 C21.398,2.411 22.152,2.253 22.159,2.248 C22.168,2.249 23.036,2.397 24.89,5.686 C25.59,6.926 26.163,8.368 26.595,9.971 C27.068,11.722 27.336,13.416 27.395,15.006 C27.407,15.34 27.584,15.645 27.869,15.82 C28.153,15.996 28.506,16.018 28.809,15.879 C30.055,15.311 30.965,13.02 31.949,9.754 C32.01,9.553 32.211,8.888 32.309,8.525 C32.92,6.282 33.342,5.133 33.628,4.563 C33.773,4.828 33.963,5.228 34.212,5.829 C34.272,5.973 35.811,9.674 36.489,11.852 C37.866,16.271 39.043,20.951 38.339,25.229 C37.632,29.522 36.333,32.687 34.368,34.908 C32.796,36.682 30.536,37.986 27.857,38.73 C28.979,37.263 29.63,35.289 29.63,32.988 C29.63,27.72 24.509,22.184 22.249,22.184 C19.989,22.184 14.866,27.721 14.866,32.988 C14.866,35.268 15.506,37.228 16.609,38.691 C12.983,37.691 9.425,35.489 7.559,30.935 C5.556,26.045 5.436,20.71 7.181,14.148 Z"
                id="Shape"></path>
                <path d="M42.352,61.088 C42.278,60.981 29.937,53.077 29.937,53.077 L42.194,45.263 C43.02,44.736 43.58,43.907 43.769,42.93 C43.976,41.858 43.708,40.703 43.037,39.761 C41.725,37.924 39.23,37.348 37.474,38.47 L22.502,48.016 C22.421,48.068 22.362,48.14 22.302,48.209 L7.03,38.471 C5.272,37.346 2.776,37.924 1.467,39.761 C0.794,40.703 0.527,41.858 0.734,42.93 C0.923,43.907 1.483,44.736 2.309,45.264 L14.564,53.078 C14.564,53.078 2.225,60.98 2.151,61.088 C1.25,61.834 0.666,62.924 0.666,64.153 C0.666,66.396 2.57,68.221 4.911,68.221 C5.654,68.221 6.344,68.021 6.952,67.698 C7.022,67.674 22.252,57.979 22.252,57.979 C22.252,57.979 37.487,67.676 37.561,67.701 C38.167,68.022 38.854,68.222 39.595,68.222 C41.936,68.222 43.84,66.397 43.84,64.154 C43.837,62.924 43.253,61.834 42.352,61.088 Z M38.55,40.155 C39.423,39.596 40.706,39.939 41.408,40.923 C41.763,41.421 41.908,42.014 41.804,42.549 C41.744,42.856 41.577,43.283 41.117,43.576 L28.075,51.891 L24.109,49.362 L38.55,40.155 Z M6.182,65.854 L6.146,65.877 C5.791,66.094 5.366,66.222 4.909,66.222 C3.671,66.222 2.664,65.294 2.664,64.154 C2.664,63.014 3.671,62.086 4.909,62.086 C6.147,62.086 7.154,63.014 7.154,64.154 C7.153,64.857 6.768,65.479 6.182,65.854 Z M9.134,63.971 C9.061,62.418 8.083,61.095 6.688,60.473 L16.422,54.265 L20.389,56.793 L9.134,63.971 Z M35.366,63.972 L16.991,52.254 L16.989,52.254 L3.383,43.577 C2.922,43.283 2.755,42.855 2.695,42.549 C2.591,42.014 2.736,41.421 3.092,40.923 C3.792,39.94 5.076,39.596 5.95,40.156 L37.811,60.472 C36.417,61.095 35.439,62.418 35.366,63.972 Z M39.592,66.222 C39.133,66.222 38.706,66.094 38.35,65.875 L38.324,65.857 C37.735,65.484 37.347,64.86 37.347,64.153 C37.347,63.012 38.354,62.085 39.592,62.085 C40.83,62.085 41.837,63.013 41.837,64.153 C41.837,65.293 40.83,66.222 39.592,66.222 Z"
                id="Shape"></path>
            </g>
        </g>
    </g>
</svg>