<?xml version="1.0" encoding="UTF-8" ?>
<svg width="88px" height="92px" viewBox="0 0 88 92" version="1.1" xmlns="http://www.w3.org/2000/svg">
    <g id="Page-1" stroke="none" stroke-width="1" fill-rule="evenodd">
        <g id="castle" transform="translate(-6.000000, 0.000000)" fill-rule="nonzero">
            <g id="Group" transform="translate(6.000000, 0.000000)">
                <path d="M86.885,31.047 C86.487,30.649 85.946,30.424 85.381,30.424 L79.985,30.424 C78.811,30.424 77.86,31.375 77.86,32.549 L77.86,34.023 L76.713,34.023 L76.713,32.55 C76.713,31.376 75.763,30.425 74.588,30.425 L67.392,30.425 C66.217,30.425 65.267,31.376 65.267,32.55 L65.267,34.024 L64.121,34.024 L64.121,32.55 C64.121,31.488 63.342,30.607 62.322,30.45 L62.322,28.709 L68.176,22.854 C68.574,22.456 68.797,21.915 68.797,21.352 L68.797,14.874 C68.797,13.7 67.847,12.749 66.672,12.749 L60.194,12.749 C59.02,12.749 58.069,13.7 58.069,14.874 L58.069,15.988 L55.84,15.988 L55.84,14.874 C55.84,13.7 54.889,12.749 53.715,12.749 L45.25,12.749 L45.25,7.999 L60.33,6.323 C60.965,6.253 61.443,5.718 61.443,5.081 C61.443,4.444 60.964,3.909 60.33,3.839 L45.25,2.163 L45.25,1.482 C45.25,0.792 44.691,0.232 44,0.232 C43.31,0.232 42.75,0.792 42.75,1.482 L42.75,3.272 C42.75,3.275 42.748,3.278 42.748,3.281 L42.748,6.88 C42.748,6.883 42.75,6.886 42.75,6.889 L42.75,12.748 L34.283,12.748 C33.109,12.748 32.158,13.699 32.158,14.873 L32.158,15.987 L29.931,15.987 L29.931,14.873 C29.931,13.699 28.98,12.748 27.806,12.748 L21.329,12.748 C20.155,12.748 19.204,13.699 19.204,14.873 L19.204,21.351 C19.204,21.914 19.428,22.455 19.826,22.853 L25.68,28.708 L25.68,30.449 C24.661,30.606 23.881,31.487 23.881,32.549 L23.881,34.023 L22.733,34.023 L22.733,32.55 C22.733,31.376 21.782,30.425 20.608,30.425 L13.411,30.425 C12.237,30.425 11.286,31.376 11.286,32.55 L11.286,34.024 L10.14,34.024 L10.14,32.55 C10.14,31.376 9.189,30.425 8.015,30.425 L2.619,30.425 C1.445,30.425 0.494,31.376 0.494,32.55 L0.494,40.332 C0.494,40.889 0.713,41.424 1.103,41.821 L5.892,46.696 L5.892,89.643 C5.892,90.817 5.937,91.768 5.937,91.768 L20.613,91.768 L32.306,91.768 L34.431,91.768 L34.431,89.643 L34.431,89.323 L53.566,89.323 L53.566,89.643 L53.566,91.768 L55.691,91.768 L67.384,91.768 L82.103,91.768 C82.103,91.768 82.107,90.817 82.107,89.643 L82.107,46.632 L86.966,41.157 C87.312,40.768 87.501,40.267 87.501,39.747 L87.503,32.55 C87.506,31.987 87.283,31.446 86.885,31.047 Z M26.008,33.8 L28.886,33.8 L28.886,39.915 L26.008,43.746 L26.008,43.746 L24.758,45.41 L24.758,47.072 L24.758,57.609 C23.455,57.168 22.065,56.916 20.614,56.916 C19.924,56.916 19.364,57.477 19.364,58.166 L19.363,88.395 L9.267,88.395 L9.267,45.315 L3.869,39.821 L3.869,33.8 L6.767,33.8 L6.767,37.399 L14.663,37.399 L14.663,33.8 L19.36,33.8 L19.36,37.399 L26.008,37.399 L26.008,36.149 L26.008,33.8 L26.008,33.8 Z M68.639,37.398 L68.639,33.8 L73.336,33.8 L73.336,37.399 L81.234,37.399 L81.234,33.8 L84.13,33.8 L84.128,39.273 L78.732,45.352 L78.732,88.393 L68.637,88.393 L68.635,58.164 C68.635,57.475 68.076,56.914 67.385,56.914 C65.936,56.914 64.545,57.166 63.242,57.607 L63.242,47.07 L63.242,45.397 L61.992,43.79 L61.992,43.79 L58.969,39.903 L58.971,33.799 L61.992,33.799 L61.992,36.148 L61.992,37.398 L68.639,37.398 L68.639,37.398 Z M21.864,88.393 L21.865,59.49 C27.036,60.11 31.057,64.522 31.057,69.858 L31.057,87.199 L31.057,88.393 L24.758,88.393 L21.864,88.393 L21.864,88.393 Z M35.534,19.362 L35.534,16.123 L39.513,16.123 L39.513,19.362 L48.488,19.362 L48.488,16.123 L52.466,16.123 L52.466,19.362 L61.445,19.362 L61.445,16.123 L65.422,16.123 L65.422,20.833 L58.945,27.311 L58.945,30.437 L57.722,30.437 C57.033,30.437 56.472,30.997 56.472,31.687 L56.47,40.332 C56.47,40.61 56.564,40.88 56.734,41.1 L58.945,43.943 L58.945,45.821 L54.797,45.821 C54.108,45.821 53.547,46.381 53.547,47.071 L53.547,49.42 L48.85,49.42 L48.85,47.07 C48.85,46.38 48.291,45.82 47.6,45.82 L40.403,45.82 C39.713,45.82 39.153,46.38 39.153,47.07 L39.153,49.418 L34.458,49.418 L34.458,47.07 C34.458,46.38 33.898,45.82 33.208,45.82 L29.06,45.82 L29.06,43.849 L31.138,41.083 C31.288,40.883 31.389,40.585 31.389,40.332 L31.389,31.687 C31.389,30.997 30.829,30.437 30.139,30.437 L29.06,30.437 L29.06,27.311 L22.583,20.833 L22.583,16.123 L26.56,16.123 L26.56,19.362 L35.534,19.362 L35.534,19.362 Z M56.943,87.197 L56.943,69.857 C56.943,64.521 60.964,60.109 66.133,59.488 L66.136,88.392 L63.24,88.392 L56.94,88.392 L56.94,87.197 L56.943,87.197 Z M31.956,50.668 L31.956,51.918 L33.206,51.918 L40.401,51.918 L41.651,51.918 L41.651,50.668 L41.651,48.32 L46.348,48.32 L46.348,50.668 L46.348,51.918 L47.598,51.918 L54.795,51.918 L56.045,51.918 L56.045,50.668 L56.045,48.32 L60.742,48.32 L60.742,58.77 C58.554,60.086 56.791,62.024 55.693,64.344 C53.617,59.961 49.164,56.914 44,56.914 C38.836,56.914 34.383,59.961 32.307,64.346 C31.208,62.026 29.446,60.086 27.258,58.772 L27.258,48.32 L31.955,48.32 L31.956,50.668 L31.956,50.668 Z M45.25,71.107 L45.25,73.094 C45.25,73.785 44.691,74.344 44,74.344 C43.31,74.344 42.75,73.785 42.75,73.094 L42.75,71.107 L38.772,71.107 L38.772,73.094 C38.772,73.785 38.212,74.344 37.522,74.344 C36.832,74.344 36.272,73.785 36.272,73.094 L36.272,71.107 L33.556,71.107 L33.556,69.857 C33.556,69.433 33.589,69.017 33.638,68.607 L36.272,68.607 L36.272,62.857 C36.995,62.06 37.835,61.375 38.772,60.832 L38.772,68.607 L42.75,68.607 L42.75,59.496 C43.16,59.447 43.576,59.414 44,59.414 C44.424,59.414 44.839,59.447 45.25,59.496 L45.25,68.607 L49.229,68.607 L49.229,60.832 C50.166,61.375 51.006,62.061 51.729,62.859 L51.729,68.607 L54.362,68.607 C54.412,69.017 54.444,69.433 54.444,69.857 L54.444,71.107 L51.729,71.107 L51.729,73.094 C51.729,73.785 51.168,74.344 50.479,74.344 C49.789,74.344 49.229,73.785 49.229,73.094 L49.229,71.107 L45.25,71.107 Z"
                id="Shape"></path>
                <rect id="Rectangle-path" x="15.213" y="43.346" width="3.599" height="7.626"></rect>
                <rect id="Rectangle-path" x="69.188" y="43.346" width="3.599" height="7.626"></rect>
                <rect id="Rectangle-path" x="47.598" y="32.55" width="3.598" height="7.627"></rect>
                <rect id="Rectangle-path" x="36.802" y="32.55" width="3.599" height="7.627"></rect>
            </g>
        </g>
    </g>
</svg>