<?xml version="1.0" encoding="UTF-8" ?>
<svg width="60px" height="56px" viewBox="0 0 60 56" version="1.1" xmlns="http://www.w3.org/2000/svg">
    <g id="Page-1" stroke="none" stroke-width="1" fill-rule="evenodd">
        <g id="chat" fill-rule="nonzero">
            <path d="M54.07,0.07 L19.93,0 C16.66,0 14,2.66 14,5.93 L14,11.05 L5.93,11.07 C2.66,11.07 0,13.73 0,17 L0,38.14 C0,41.41 2.66,44.07 5.93,44.07 L12,44.07 L12,54.07 C12,54.48 12.25,54.85 12.64,55 C12.76,55.05 12.88,55.07 13,55.07 C13.28,55.07 13.55,54.96 13.74,54.74 L23.44,44.07 L40.07,44 C43.34,44 46,41.34 46,38.07 L46,37.96 L51.26,43.75 C51.45,43.96 51.72,44.08 52,44.08 C52.12,44.08 52.24,44.06 52.36,44.01 C52.75,43.86 53,43.49 53,43.08 L53,33.08 L54.07,33.08 C57.34,33.08 60,30.42 60,27.15 L60,6 C60,2.73 57.34,0.07 54.07,0.07 Z M44,38.07 C44,40.24 42.24,42 40.07,42 L23,42.07 C22.72,42.07 22.45,42.19 22.26,42.4 L14,51.48 L14,43.07 C14,42.52 13.55,42.07 13,42.07 L5.93,42.07 C3.76,42.07 2,40.31 2,38.14 L2,17 C2,14.83 3.76,13.07 5.93,13.07 L15,13.05 L15,13.05 L15,13.05 L39.87,13 L40.07,13 C41.42,13 42.62,13.69 43.33,14.73 C43.75,15.36 44,16.11 44,16.93 L44,35.37 L44,38.07 Z M58,27.14 C58,29.31 56.24,31.07 54.07,31.07 L52,31.07 C51.45,31.07 51,31.52 51,32.07 L51,40.48 L46,34.98 L46,16.93 C46,16.52 45.96,16.12 45.88,15.74 C45.84,15.55 45.79,15.36 45.73,15.17 C44.98,12.76 42.73,11 40.07,11 L40.07,11 L40.07,11 L39.97,11 L16,11.05 L16,5.93 C16,3.76 17.76,2 19.93,2 L54.07,2.07 C56.24,2.07 58,3.83 58,6 L58,27.14 Z"
            id="Shape"></path>
        </g>
    </g>
</svg>