<?xml version="1.0" encoding="UTF-8" ?>
<svg width="88px" height="60px" viewBox="0 0 88 60" version="1.1" xmlns="http://www.w3.org/2000/svg">
    <g id="Page-1" stroke="none" stroke-width="1" fill-rule="evenodd">
        <g id="chatHeads" fill-rule="nonzero">
            <path d="M85.615,23.794 L60.255,23.794 L60.255,39.558 C60.255,41.47 58.133,43.59 56.225,43.59 L49.929,43.59 L49.929,51.668 C49.929,52.367 50.504,52.943 51.203,52.943 L55.348,52.943 C56.038,56.19 58.181,58.308 61.116,59.815 L61.116,52.943 L85.952,52.943 C86.647,52.943 87.226,52.366 87.226,51.668 L87.226,25.067 C87.226,24.121 86.467,23.794 85.615,23.794 Z M64.325,34.528 C64.379,34.517 64.432,34.52 64.485,34.525 C64.479,31.597 65.115,29.044 69.069,29.044 C73.041,29.044 73.666,31.619 73.654,34.562 C73.757,34.525 73.862,34.508 73.966,34.528 C74.471,34.623 74.746,35.401 74.583,36.265 C74.418,37.129 73.876,37.751 73.372,37.655 C73.35,37.651 73.331,37.638 73.311,37.633 C73.304,37.634 73.297,37.637 73.29,37.638 C72.947,38.532 72.523,39.386 71.94,40.184 C71.362,40.978 70.801,41.554 70.115,41.81 C69.634,41.988 68.506,41.988 68.028,41.81 C67.339,41.554 66.777,40.978 66.2,40.184 C65.623,39.392 65.199,38.543 64.86,37.657 C64.374,37.694 63.868,37.095 63.71,36.265 C63.545,35.401 63.821,34.623 64.325,34.528 Z M58.95,48.054 C60.13,45.43 62.271,43.39 65.951,41.998 C66.431,42.554 66.993,43.04 67.699,43.302 C68.395,43.561 69.748,43.561 70.444,43.302 C71.147,43.039 71.709,42.553 72.192,41.998 C75.872,43.39 78.01,45.43 79.19,48.054 L58.95,48.054 Z"
            id="Shape"></path>
            <path d="M58.001,39.558 L58.001,2.473 C58.001,1.151 56.944,0.697 55.752,0.697 L3.145,0.697 C1.948,0.697 0.895,1.152 0.895,2.473 L0.895,39.557 C0.895,40.534 1.696,41.335 2.671,41.335 L36.909,41.335 L36.909,50.917 C40.998,48.817 43.989,45.861 44.951,41.335 L56.223,41.335 C57.197,41.335 58.001,40.535 58.001,39.558 Z M21.962,14.777 C22.045,14.761 22.129,14.765 22.213,14.773 C22.203,10.153 23.206,6.125 29.446,6.125 C35.712,6.125 36.698,10.187 36.679,14.832 C36.842,14.774 37.008,14.746 37.171,14.777 C37.968,14.928 38.402,16.155 38.144,17.519 C37.885,18.881 37.029,19.863 36.233,19.712 C36.199,19.706 36.169,19.686 36.137,19.676 C36.126,19.677 36.115,19.683 36.104,19.685 C35.563,21.095 34.894,22.442 33.974,23.701 C33.063,24.955 32.176,25.862 31.095,26.266 C30.337,26.548 28.556,26.548 27.802,26.266 C26.716,25.861 25.83,24.955 24.918,23.701 C24.008,22.451 23.339,21.113 22.804,19.714 C22.036,19.773 21.239,18.827 20.99,17.52 C20.731,16.155 21.166,14.928 21.962,14.777 Z M13.479,36.118 C15.341,31.978 18.719,28.76 24.525,26.564 C25.283,27.44 26.17,28.207 27.282,28.621 C28.381,29.03 30.515,29.03 31.615,28.621 C32.722,28.206 33.609,27.44 34.371,26.564 C40.177,28.76 43.551,31.978 45.413,36.118 L13.479,36.118 Z"
            id="Shape"></path>
        </g>
    </g>
</svg>