<?xml version="1.0" encoding="UTF-8" ?>
<svg width="444px" height="412px" viewBox="0 0 444 412" version="1.1"
xmlns="http://www.w3.org/2000/svg">
    <g id="Page-1" stroke="none" stroke-width="1" fill-rule="evenodd">
        <g id="chatDrawn" transform="translate(-28.000000, 0.000000)" fill-rule="nonzero">
            <g id="Group" transform="translate(28.000000, 0.000000)">
                <path d="M229.6,411.8 C226.8,411.8 224,411.7 221.2,411.6 C187.7,409.8 155.5,400.9 120.5,383.9 C94.4,390.3 69.5,395.9 44.6,400.8 C39.3,401.8 33.9,400 30.4,396 C26.9,392 25.8,386.3 27.5,381.3 C33.8,362.8 40.7,343.6 47.8,324.2 C18,288.5 1.3,246.9 0.6,206.2 C-0.2,160.9 20.1,114.6 57.6,76 C102.3,30 165.2,1 221.8,0.3 L221.8,0.3 C276.7,-0.4 336.2,25.6 380.9,69.8 C421.2,109.6 443.4,157.9 443.4,205.9 C443.4,255.4 418.7,307.2 375.5,348.1 C333,388.4 279.1,411.8 229.6,411.8 Z M122.2,353 C124.5,353 126.8,353.5 128.9,354.6 C162.6,371.6 191.5,379.9 222.8,381.6 C266.4,384 315.8,363.3 354.9,326.3 C392.1,291.1 413.4,247.2 413.4,205.9 C413.4,166 394.4,125.2 359.8,91.1 C321.2,53 268.4,29.7 222.1,30.3 L222.1,30.3 C173.2,30.9 118.3,56.4 79,96.9 C47.1,129.8 29.8,168.4 30.4,205.7 C31,241.8 47.2,279.2 75.9,311 C79.7,315.2 80.8,321.1 78.8,326.3 C73.8,339.7 69,353 64.3,366 C82,362.2 99.8,358 118.4,353.4 C119.8,353.2 121,353 122.2,353 Z"
                id="Shape"></path>
                <g transform="translate(102.000000, 179.000000)" id="Shape">
                    <path d="M48.1,24.4 C48.1,37.7 37.5,48.3 24.4,48.3 C11.3,48.2 0.6,37.5 0.6,24.5 C0.6,11.4 11.3,0.7 24.4,0.6 C37.6,0.5 48.1,11.2 48.1,24.4 Z"></path>
                    <path d="M143.8,24.4 C143.8,37.8 133.1,48.6 120,48.6 C106.9,48.6 96.2,37.7 96.2,24.4 C96.2,11 106.9,0.2 120,0.2 C133.1,0.2 143.8,11 143.8,24.4 Z"></path>
                    <path d="M239.3,24.5 C239.3,37.6 228.6,48.2 215.5,48.3 C202.4,48.4 191.8,37.7 191.8,24.4 C191.8,11.1 202.3,0.5 215.4,0.6 C228.6,0.7 239.3,11.4 239.3,24.5 Z"></path>
                </g>
            </g>
        </g>
    </g>
</svg>