<?xml version="1.0" encoding="UTF-8" ?>
<svg width="60px" height="53px" viewBox="0 0 60 53" version="1.1" xmlns="http://www.w3.org/2000/svg">
    <g id="Page-1" stroke="none" stroke-width="1" fill-rule="evenodd">
        <g id="checkbox" fill-rule="nonzero">
            <g id="Group">
                <g id="Shape">
                    <path d="M59.136,3.864 C58.003,2.731 56.026,2.731 54.894,3.864 L27,31.758 L15.344,20.102 C14.211,18.969 12.234,18.969 11.102,20.102 C10.535,20.668 10.223,21.422 10.223,22.223 C10.223,23.023 10.535,23.777 11.102,24.344 L24.879,38.121 C25.445,38.688 26.199,39 27,39 C27.801,39 28.555,38.688 29.121,38.121 L59.136,8.106 C59.702,7.54 60.015,6.786 60.015,5.985 C60.015,5.185 59.702,4.431 59.136,3.864"></path>
                    <path d="M27,41.5 C25.531,41.5 24.15,40.928 23.111,39.889 L9.334,26.111 C8.295,25.072 7.723,23.691 7.723,22.223 C7.723,20.754 8.295,19.373 9.334,18.334 C10.339,17.328 11.757,16.752 13.223,16.752 C14.688,16.752 16.106,17.328 17.111,18.334 L27,28.223 L53,2.223 L53,0 L0,0 L0,53 L53,53 L53,17.777 L30.889,39.889 C29.85,40.928 28.469,41.5 27,41.5"></path>
                </g>
            </g>
        </g>
    </g>
</svg>