<?xml version="1.0" encoding="UTF-8" ?>
<svg width="40px" height="88px" viewBox="0 0 40 88" version="1.1" xmlns="http://www.w3.org/2000/svg">
    <g id="Page-1" stroke="none" stroke-width="1" fill-rule="evenodd">
        <g id="chromosome" transform="translate(-30.000000, -1.000000)" fill-rule="nonzero">
            <g id="Group" transform="translate(30.000000, 0.637820)">
                <path d="M1.78122,0.40272 C0.750842678,0.5158582 -0.0222971718,1.39680757 1.33221342e-15,2.43232 L1.33221342e-15,23.4152 C1.33221342e-15,32.65085 4.798743,40.77698 11.812304,44.3981 C4.791914,48.0159 1.33221342e-15,56.1398 1.33221342e-15,65.381 L1.33221342e-15,86.3639 C-0.0101953463,87.0845805 0.368750696,87.7549192 0.99173344,88.1182324 C1.61471618,88.4815455 2.38521782,88.4815455 3.00820056,88.1182324 C3.6311833,87.7549192 4.01012935,87.0845805 3.999934,86.3639 L3.999934,84.3655 L35.999404,84.3655 L35.999404,86.3639 C35.9891958,87.0845888 36.3681389,87.7549407 36.9911268,88.1182617 C37.6141146,88.4815828 38.3846264,88.4815828 39.0076142,88.1182617 C39.6306021,87.7549407 40.0095452,87.0845888 39.999337,86.3639 L39.999337,65.381 C39.999337,56.1398 35.207423,48.0159 28.187033,44.3981 C35.200597,40.77698 39.999337,32.65085 39.999337,23.4152 L39.999337,2.43232 C40.0095452,1.71163123 39.6306021,1.0412793 39.0076142,0.677958251 C38.3846264,0.314637197 37.6141146,0.314637197 36.9911268,0.677958251 C36.3681389,1.0412793 35.9891958,1.71163123 35.999404,2.43232 L35.999404,4.43069 L3.999934,4.43069 L3.999934,2.43232 C4.01234319,1.85679605 3.7757893,1.30387448 3.35085394,0.915158857 C2.92591858,0.526443231 2.35387357,0.339687527 1.78122,0.40272 L1.78122,0.40272 Z M3.999934,8.42743 L12.999785,8.42743 L12.999785,17.42009 L3.999934,17.42009 L3.999934,8.42743 Z M16.999718,8.42743 L35.999404,8.42743 L35.999404,17.42009 L16.999718,17.42009 L16.999718,8.42743 Z M3.999934,21.41683 L23.999602,21.41683 L23.999602,30.40949 L5.124915,30.40949 C4.404357,28.25339 3.999934,25.90178 3.999934,23.4152 L3.999934,21.41683 Z M27.999536,21.41683 L35.999404,21.41683 L35.999404,23.4152 C35.999404,25.90178 35.594979,28.25339 34.874422,30.40949 L27.999536,30.40949 L27.999536,21.41683 Z M6.968635,34.40623 L33.030703,34.40623 C30.104722,39.28103 25.31943,42.3997 19.999669,42.3997 C14.679918,42.3997 9.894618,39.28103 6.968635,34.40623 Z M19.999669,46.3965 C25.311218,46.3965 30.103436,49.528 33.030703,54.3899 L6.968635,54.3899 C9.895898,49.528 14.68811,46.3965 19.999669,46.3965 Z M5.124915,58.3867 L11.999801,58.3867 L11.999801,67.3793 L3.999934,67.3793 L3.999934,65.381 C3.999934,62.8944 4.404358,60.5427 5.124915,58.3867 Z M15.999735,58.3867 L34.874422,58.3867 C35.59498,60.5427 35.999404,62.8944 35.999404,65.381 L35.999404,67.3793 L15.999735,67.3793 L15.999735,58.3867 L15.999735,58.3867 Z M3.999934,71.3761 L22.999619,71.3761 L22.999619,80.3687 L3.999934,80.3687 L3.999934,71.3761 Z M26.999553,71.3761 L35.999404,71.3761 L35.999404,80.3687 L26.999553,80.3687 L26.999553,71.3761 L26.999553,71.3761 Z"
                id="Shape"></path>
            </g>
        </g>
    </g>
</svg>