<?xml version="1.0" encoding="UTF-8" ?>
<svg width="74px" height="90px" viewBox="0 0 74 90" version="1.1" xmlns="http://www.w3.org/2000/svg">
    <g id="Page-1" stroke="none" stroke-width="1" fill-rule="evenodd">
        <g id="church" transform="translate(-13.000000, 0.000000)" fill-rule="nonzero">
            <g id="Group" transform="translate(13.000000, 0.000000)">
                <path d="M42.71,61.25 L31.29,61.25 C30.6327811,61.25 30.1,60.7172189 30.1,60.06 L30.1,48.65 C30.1,47.9927811 30.6327811,47.46 31.29,47.46 L42.71,47.46 C43.3672189,47.46 43.9,47.9927811 43.9,48.65 L43.9,60.06 C43.9,60.7172189 43.3672189,61.25 42.71,61.25 Z M32.48,58.87 L41.48,58.87 L41.48,49.87 L32.48,49.87 L32.48,58.87 Z"
                id="Shape"></path>
                <path d="M72.67,53.17 L61,53.17 L61,45 C61.7192131,44.5873981 62.1705007,43.8289316 62.19,43 C62.199096,30.6148796 53.2239728,20.0514265 41,18.06 L41,14 L45.52,14 C45.8356076,14 46.1382888,13.8746254 46.3614571,13.6514571 C46.5846254,13.4282888 46.71,13.1256076 46.71,12.81 L46.71,7.11 C46.71,6.45278115 46.1772189,5.92 45.52,5.92 L41,5.92 L41,1.4 C41,0.742781148 40.4672189,0.21 39.81,0.21 L34.15,0.21 C33.5084531,0.231576693 32.9996373,0.758090428 33,1.4 L33,5.92 L28.44,5.92 C27.7827811,5.92 27.25,6.45278115 27.25,7.11 L27.25,12.82 C27.2554902,13.4733103 27.7866667,14.0000231 28.44,14 L33,14 L33,18.05 C20.786748,20.0296118 11.8070074,30.567365 11.79,42.94 C11.7924224,43.7946024 12.2547557,44.5817153 13,45 L13,53.18 L1.33,53.18 C0.672781148,53.18 0.14,53.7127811 0.14,54.37 L0.14,88.6 C0.14,89.2572189 0.672781148,89.79 1.33,89.79 L72.67,89.79 C73.3272189,89.79 73.86,89.2572189 73.86,88.6 L73.86,54.35 C73.8545098,53.6966897 73.3233333,53.1699769 72.67,53.17 L72.67,53.17 Z M13,60.06 L13,87.41 L2.51,87.41 L2.51,55.54 L13,55.54 L13,60.06 Z M34.15,11.62 L29.63,11.62 L29.63,8.3 L34.15,8.3 C34.8072189,8.3 35.34,7.76721885 35.34,7.11 L35.34,2.59 L38.67,2.59 L38.67,7.11 C38.67,7.76721885 39.2027811,8.3 39.86,8.3 L44.38,8.3 L44.38,11.63 L39.85,11.63 C39.1927811,11.63 38.66,12.1627811 38.66,12.82 L38.66,17.82 C38.11,17.82 37.56,17.76 37,17.76 C36.44,17.76 35.89,17.76 35.34,17.82 L35.34,12.82 C35.3426668,12.5026633 35.2184704,12.1974068 34.9950124,11.972071 C34.7715544,11.7467352 34.4673479,11.6199888 34.15,11.62 Z M30.15,87.41 L26.77,87.41 L26.77,67 L30.1,67 L30.15,87.41 Z M41.57,87.41 L32.57,87.41 L32.57,67 L41.57,67 L41.57,87.41 Z M47.28,87.41 L43.9,87.41 L43.9,67 L47.23,67 L47.28,87.41 Z M58.64,54.35 L58.64,54.35 L58.64,58.87 L49.64,58.87 L49.64,49.87 L58.64,49.87 L58.64,54.35 Z M58.64,47.46 L48.42,47.46 C47.7627811,47.46 47.23,47.9927811 47.23,48.65 L47.23,60.06 C47.23,60.7172189 47.7627811,61.25 48.42,61.25 L58.64,61.25 L58.64,87.41 L49.64,87.41 L49.64,65.77 C49.64,65.1127811 49.1072189,64.58 48.45,64.58 L25.58,64.58 C24.9227811,64.58 24.39,65.1127811 24.39,65.77 L24.39,87.41 L15.39,87.41 L15.39,61.25 L25.58,61.25 C26.2372189,61.25 26.77,60.7172189 26.77,60.06 L26.77,48.65 C26.77,47.9927811 26.2372189,47.46 25.58,47.46 L15.36,47.46 L15.36,45.32 L58.64,45.32 L58.64,47.46 Z M15.36,58.87 L15.36,49.87 L24.36,49.87 L24.36,58.87 L15.36,58.87 Z M14.17,42.94 C14.1700002,30.3313393 24.3913393,20.1100003 37,20.1100003 C49.6086607,20.1100003 59.8299998,30.3313393 59.83,42.94 L14.17,42.94 Z M71.49,87.41 L61,87.41 L61,55.54 L71.49,55.54 L71.49,87.41 Z"
                id="Shape"></path>
                <path d="M29.87,28 C25.2772752,28.0055102 21.5555102,31.7272752 21.55,36.32 C21.55,36.9772189 22.0827811,37.51 22.74,37.51 C23.3972189,37.51 23.93,36.9772189 23.93,36.32 C23.9571779,33.0452293 26.6052293,30.3971779 29.88,30.37 C30.5372189,30.37 31.07,29.8372189 31.07,29.18 C31.07,28.5227811 30.5372189,27.99 29.88,27.99 L29.87,28 Z"
                id="Shape"></path>
            </g>
        </g>
    </g>
</svg>