<?xml version="1.0" encoding="UTF-8" ?>
<svg width="91px" height="88px" viewBox="0 0 91 88" version="1.1" xmlns="http://www.w3.org/2000/svg">
    <g id="Page-1" stroke="none" stroke-width="1" fill-rule="evenodd">
        <g id="circuit" transform="translate(-4.000000, 0.000000)" fill-rule="nonzero">
            <g id="Group" transform="translate(4.000000, 0.000000)">
                <path d="M52.729,30.694 C56.515,30.694 59.583,33.763 59.583,37.548 L59.583,50.952 C59.583,54.738 56.514,57.806 52.729,57.806 L39.325,57.806 C35.539,57.806 32.471,54.737 32.471,50.952 L32.471,37.548 C32.471,33.762 35.54,30.694 39.325,30.694 L52.729,30.694 L52.729,30.694 Z M52.729,29.194 L39.325,29.194 C34.718,29.194 30.971,32.942 30.971,37.548 L30.971,50.952 C30.971,55.559 34.719,59.306 39.325,59.306 L52.729,59.306 C57.336,59.306 61.083,55.558 61.083,50.952 L61.083,37.548 C61.083,32.941 57.336,29.194 52.729,29.194 L52.729,29.194 Z"
                id="Shape"></path>
                <path d="M50.78,35.018 C53.25,35.018 55.259,37.027 55.259,39.497 L55.259,49.003 C55.259,51.473 53.25,53.482 50.78,53.482 L41.274,53.482 C38.804,53.482 36.795,51.473 36.795,49.003 L36.795,39.497 C36.795,37.027 38.804,35.018 41.274,35.018 L50.78,35.018 L50.78,35.018 Z M50.78,34.018 L41.274,34.018 C38.248,34.018 35.795,36.471 35.795,39.497 L35.795,49.003 C35.795,52.029 38.248,54.482 41.274,54.482 L50.78,54.482 C53.806,54.482 56.259,52.029 56.259,49.003 L56.259,39.497 C56.259,36.471 53.806,34.018 50.78,34.018 L50.78,34.018 Z"
                id="Shape"></path>
                <circle id="Oval" cx="39.795" cy="38.018" r="1"></circle>
                <circle id="Oval" cx="52.259" cy="38.018" r="1"></circle>
                <circle id="Oval" cx="52.259" cy="50.482" r="1"></circle>
                <circle id="Oval" cx="39.795" cy="50.482" r="1"></circle>
                <g transform="translate(36.000000, 28.000000)" id="Shape">
                    <path d="M11.351,2.069 L8.667,2.069 C8.46,2.069 8.292,1.901 8.292,1.694 L8.292,0.5 C8.292,0.293 8.46,0.125 8.667,0.125 L11.351,0.125 C11.558,0.125 11.726,0.293 11.726,0.5 L11.726,1.694 C11.726,1.901 11.558,2.069 11.351,2.069 Z M9.042,1.319 L10.976,1.319 L10.976,0.875 L9.042,0.875 L9.042,1.319 Z"></path>
                    <path d="M19.147,2.069 L16.463,2.069 C16.256,2.069 16.088,1.901 16.088,1.694 L16.088,0.5 C16.088,0.293 16.256,0.125 16.463,0.125 L19.147,0.125 C19.354,0.125 19.522,0.293 19.522,0.5 L19.522,1.694 C19.522,1.901 19.354,2.069 19.147,2.069 Z M16.839,1.319 L18.773,1.319 L18.773,0.875 L16.839,0.875 L16.839,1.319 Z"></path>
                    <path d="M3.553,2.069 L0.87,2.069 C0.663,2.069 0.495,1.901 0.495,1.694 L0.495,0.5 C0.495,0.293 0.663,0.125 0.87,0.125 L3.553,0.125 C3.76,0.125 3.928,0.293 3.928,0.5 L3.928,1.694 C3.928,1.901 3.76,2.069 3.553,2.069 Z M1.245,1.319 L3.178,1.319 L3.178,0.875 L1.245,0.875 L1.245,1.319 Z"></path>
                    <path d="M7.451,2.069 L4.768,2.069 C4.561,2.069 4.393,1.901 4.393,1.694 L4.393,0.5 C4.393,0.293 4.561,0.125 4.768,0.125 L7.451,0.125 C7.658,0.125 7.826,0.293 7.826,0.5 L7.826,1.694 C7.826,1.901 7.658,2.069 7.451,2.069 Z M5.144,1.319 L7.077,1.319 L7.077,0.875 L5.144,0.875 L5.144,1.319 Z"></path>
                    <path d="M15.249,2.069 L12.565,2.069 C12.358,2.069 12.19,1.901 12.19,1.694 L12.19,0.5 C12.19,0.293 12.358,0.125 12.565,0.125 L15.249,0.125 C15.456,0.125 15.624,0.293 15.624,0.5 L15.624,1.694 C15.624,1.901 15.456,2.069 15.249,2.069 Z M12.94,1.319 L14.874,1.319 L14.874,0.875 L12.94,0.875 L12.94,1.319 Z"></path>
                </g>
                <g transform="translate(36.000000, 58.000000)" id="Shape">
                    <path d="M11.351,2.375 L8.667,2.375 C8.46,2.375 8.292,2.207 8.292,2 L8.292,0.807 C8.292,0.6 8.46,0.432 8.667,0.432 L11.351,0.432 C11.558,0.432 11.726,0.6 11.726,0.807 L11.726,2 C11.726,2.207 11.558,2.375 11.351,2.375 Z M9.042,1.625 L10.976,1.625 L10.976,1.182 L9.042,1.182 L9.042,1.625 Z"></path>
                    <path d="M19.147,2.375 L16.463,2.375 C16.256,2.375 16.088,2.207 16.088,2 L16.088,0.807 C16.088,0.6 16.256,0.432 16.463,0.432 L19.147,0.432 C19.354,0.432 19.522,0.6 19.522,0.807 L19.522,2 C19.522,2.207 19.354,2.375 19.147,2.375 Z M16.839,1.625 L18.773,1.625 L18.773,1.182 L16.839,1.182 L16.839,1.625 Z"></path>
                    <path d="M3.553,2.375 L0.87,2.375 C0.663,2.375 0.495,2.207 0.495,2 L0.495,0.807 C0.495,0.6 0.663,0.432 0.87,0.432 L3.553,0.432 C3.76,0.432 3.928,0.6 3.928,0.807 L3.928,2 C3.928,2.207 3.76,2.375 3.553,2.375 Z M1.245,1.625 L3.178,1.625 L3.178,1.182 L1.245,1.182 L1.245,1.625 Z"></path>
                    <path d="M7.451,2.375 L4.768,2.375 C4.561,2.375 4.393,2.207 4.393,2 L4.393,0.807 C4.393,0.6 4.561,0.432 4.768,0.432 L7.451,0.432 C7.658,0.432 7.826,0.6 7.826,0.807 L7.826,2 C7.826,2.207 7.658,2.375 7.451,2.375 Z M5.144,1.625 L7.077,1.625 L7.077,1.182 L5.144,1.182 L5.144,1.625 Z"></path>
                    <path d="M15.249,2.375 L12.565,2.375 C12.358,2.375 12.19,2.207 12.19,2 L12.19,0.807 C12.19,0.6 12.358,0.432 12.565,0.432 L15.249,0.432 C15.456,0.432 15.624,0.6 15.624,0.807 L15.624,2 C15.624,2.207 15.456,2.375 15.249,2.375 Z M12.94,1.625 L14.874,1.625 L14.874,1.182 L12.94,1.182 L12.94,1.625 Z"></path>
                </g>
                <g transform="translate(60.000000, 34.000000)" id="Shape">
                    <path d="M1.777,11.796 L0.583,11.796 C0.376,11.796 0.208,11.628 0.208,11.421 L0.208,8.738 C0.208,8.531 0.376,8.363 0.583,8.363 L1.777,8.363 C1.984,8.363 2.152,8.531 2.152,8.738 L2.152,11.421 C2.152,11.628 1.984,11.796 1.777,11.796 Z M0.958,11.046 L1.402,11.046 L1.402,9.113 L0.958,9.113 L0.958,11.046 Z"></path>
                    <path d="M1.777,3.999 L0.583,3.999 C0.376,3.999 0.208,3.831 0.208,3.624 L0.208,0.941 C0.208,0.734 0.376,0.566 0.583,0.566 L1.777,0.566 C1.984,0.566 2.152,0.734 2.152,0.941 L2.152,3.624 C2.152,3.831 1.984,3.999 1.777,3.999 Z M0.958,3.249 L1.402,3.249 L1.402,1.316 L0.958,1.316 L0.958,3.249 Z"></path>
                    <path d="M1.777,19.593 L0.583,19.593 C0.376,19.593 0.208,19.425 0.208,19.218 L0.208,16.535 C0.208,16.328 0.376,16.16 0.583,16.16 L1.777,16.16 C1.984,16.16 2.152,16.328 2.152,16.535 L2.152,19.218 C2.152,19.425 1.984,19.593 1.777,19.593 Z M0.958,18.843 L1.402,18.843 L1.402,16.91 L0.958,16.91 L0.958,18.843 Z"></path>
                    <path d="M1.777,15.694 L0.583,15.694 C0.376,15.694 0.208,15.526 0.208,15.319 L0.208,12.636 C0.208,12.429 0.376,12.261 0.583,12.261 L1.777,12.261 C1.984,12.261 2.152,12.429 2.152,12.636 L2.152,15.319 C2.152,15.526 1.984,15.694 1.777,15.694 Z M0.958,14.944 L1.402,14.944 L1.402,13.011 L0.958,13.011 L0.958,14.944 Z"></path>
                    <path d="M1.777,7.897 L0.583,7.897 C0.376,7.897 0.208,7.729 0.208,7.522 L0.208,4.839 C0.208,4.632 0.376,4.464 0.583,4.464 L1.777,4.464 C1.984,4.464 2.152,4.632 2.152,4.839 L2.152,7.522 C2.152,7.729 1.984,7.897 1.777,7.897 Z M0.958,7.147 L1.402,7.147 L1.402,5.214 L0.958,5.214 L0.958,7.147 Z"></path>
                </g>
                <g transform="translate(29.000000, 34.000000)" id="Shape">
                    <path d="M2.471,11.967 L1.278,11.967 C1.071,11.967 0.903,11.799 0.903,11.592 L0.903,8.909 C0.903,8.702 1.071,8.534 1.278,8.534 L2.471,8.534 C2.678,8.534 2.846,8.702 2.846,8.909 L2.846,11.592 C2.846,11.799 2.678,11.967 2.471,11.967 Z M1.652,11.217 L2.095,11.217 L2.095,9.284 L1.652,9.284 L1.652,11.217 Z"></path>
                    <path d="M2.471,4.169 L1.278,4.169 C1.071,4.169 0.903,4.001 0.903,3.794 L0.903,1.111 C0.903,0.904 1.071,0.736 1.278,0.736 L2.471,0.736 C2.678,0.736 2.846,0.904 2.846,1.111 L2.846,3.794 C2.846,4.001 2.678,4.169 2.471,4.169 Z M1.652,3.419 L2.095,3.419 L2.095,1.486 L1.652,1.486 L1.652,3.419 Z"></path>
                    <path d="M2.471,19.764 L1.278,19.764 C1.071,19.764 0.903,19.596 0.903,19.389 L0.903,16.705 C0.903,16.498 1.071,16.33 1.278,16.33 L2.471,16.33 C2.678,16.33 2.846,16.498 2.846,16.705 L2.846,19.389 C2.846,19.596 2.678,19.764 2.471,19.764 Z M1.652,19.014 L2.095,19.014 L2.095,17.08 L1.652,17.08 L1.652,19.014 Z"></path>
                    <path d="M2.471,15.865 L1.278,15.865 C1.071,15.865 0.903,15.697 0.903,15.49 L0.903,12.806 C0.903,12.599 1.071,12.431 1.278,12.431 L2.471,12.431 C2.678,12.431 2.846,12.599 2.846,12.806 L2.846,15.49 C2.846,15.697 2.678,15.865 2.471,15.865 Z M1.652,15.115 L2.095,15.115 L2.095,13.181 L1.652,13.181 L1.652,15.115 Z"></path>
                    <path d="M2.471,8.068 L1.278,8.068 C1.071,8.068 0.903,7.9 0.903,7.693 L0.903,5.01 C0.903,4.803 1.071,4.635 1.278,4.635 L2.471,4.635 C2.678,4.635 2.846,4.803 2.846,5.01 L2.846,7.693 C2.846,7.9 2.678,8.068 2.471,8.068 Z M1.652,7.318 L2.095,7.318 L2.095,5.385 L1.652,5.385 L1.652,7.318 Z"></path>
                </g>
                <path d="M38.531,28.502 L37.781,28.497 L37.836,20.215 L34.213,15.764 C34.158,15.697 34.129,15.614 34.129,15.527 L34.129,4.653 L34.879,4.653 L34.879,15.395 L38.503,19.847 C38.558,19.914 38.588,19.999 38.587,20.086 L38.531,28.502 Z"
                id="Shape"></path>
                <path d="M42.485,28.312 L41.735,28.312 L41.735,15.046 L38.974,10.701 L39.607,10.299 L42.426,14.737 C42.464,14.797 42.485,14.867 42.485,14.938 L42.485,28.312 Z"
                id="Shape"></path>
                <path d="M46.402,28.5 L45.652,28.5 L45.652,17.312 C45.652,17.251 45.667,17.191 45.695,17.137 L48.19,12.407 L48.19,2.5 L48.94,2.5 L48.94,12.5 C48.94,12.561 48.925,12.621 48.897,12.675 L46.402,17.405 L46.402,28.5 Z"
                id="Shape"></path>
                <path d="M50.173,28.765 L49.907,28.5 L49.907,28.125 L49.907,28.5 L49.535,28.46 C49.554,28.188 49.544,23.252 49.532,20.002 C49.532,19.938 49.548,19.874 49.58,19.818 L52.203,15.109 L52.857,15.474 L50.282,20.097 C50.312,28.625 50.312,28.625 50.173,28.765 Z"
                id="Shape"></path>
                <path d="M54.181,28.5 L53.431,28.5 L53.431,21.438 C53.431,21.373 53.448,21.309 53.48,21.252 L55.813,17.151 L55.813,11.438 C55.813,11.375 55.829,11.313 55.859,11.257 L58.297,6.819 L58.955,7.18 L56.563,11.533 L56.563,17.249 C56.563,17.314 56.546,17.378 56.514,17.435 L54.181,21.536 L54.181,28.5 Z"
                id="Shape"></path>
                <path d="M70.688,36.657 L61.778,36.657 L61.778,35.907 L70.574,35.907 L75.104,32.876 L75.522,33.499 L70.897,36.594 C70.834,36.635 70.762,36.657 70.688,36.657 Z"
                id="Shape"></path>
                <path d="M77.562,40.556 L61.777,40.556 L61.777,39.806 L77.47,39.806 L83.264,36.792 L83.61,37.457 L77.735,40.513 C77.682,40.542 77.623,40.556 77.562,40.556 Z"
                id="Shape"></path>
                <path d="M87.917,47.012 L77.104,47.012 C77.051,47.012 77,47.001 76.951,46.98 L71.308,44.455 L61.777,44.455 L61.777,43.705 L71.388,43.705 C71.441,43.705 71.492,43.716 71.541,43.738 L77.184,46.262 L87.916,46.262 L87.916,47.012 L87.917,47.012 Z"
                id="Shape"></path>
                <rect id="Rectangle-path" x="62.125" y="47.603" width="9.264" height="1"></rect>
                <path d="M80.338,54.818 L75.083,52.252 L61.777,52.252 L61.777,51.502 L75.17,51.502 C75.227,51.502 75.283,51.515 75.335,51.54 L80.668,54.144 L80.338,54.818 Z"
                id="Shape"></path>
                <path d="M48.94,80.364 L48.19,80.364 L48.19,73.468 L45.674,69.064 C45.641,69.007 45.624,68.944 45.624,68.878 L45.624,60 L46.374,60 L46.374,68.779 L48.89,73.183 C48.923,73.24 48.94,73.303 48.94,73.369 L48.94,80.364 Z"
                id="Shape"></path>
                <path d="M54.502,84.769 L53.752,84.769 L53.752,75.809 L49.59,69.165 C49.552,69.105 49.532,69.036 49.532,68.966 L49.532,60 L50.282,60 L50.282,68.858 L54.444,75.502 C54.482,75.562 54.502,75.631 54.502,75.701 L54.502,84.769 Z"
                id="Shape"></path>
                <rect id="Rectangle-path" x="53.431" y="60" width="1" height="7.138"></rect>
                <path d="M40.29,81.314 L39.54,81.314 L39.54,78.205 C39.54,78.149 39.553,78.094 39.577,78.043 L41.735,73.544 L41.735,60 L42.485,60 L42.485,73.629 C42.485,73.685 42.472,73.74 42.448,73.791 L40.29,78.29 L40.29,81.314 Z"
                id="Shape"></path>
                <path d="M35.828,75.181 L35.172,74.82 L37.781,70.087 L37.781,60 L38.531,60 L38.531,70.183 C38.531,70.246 38.515,70.309 38.484,70.364 L35.828,75.181 Z"
                id="Shape"></path>
                <path d="M30.277,44.625 L22.75,44.625 C22.701,44.625 22.652,44.615 22.607,44.597 L18.94,43.085 L19.225,42.392 L22.824,43.876 L30.277,43.876 L30.277,44.625 Z"
                id="Shape"></path>
                <path d="M30.277,40.727 L22.083,40.727 C22.023,40.727 21.965,40.713 21.912,40.686 L16.993,38.17 L11.167,38.17 L11.167,37.42 L17.083,37.42 C17.143,37.42 17.201,37.434 17.254,37.461 L22.173,39.977 L30.277,39.977 L30.277,40.727 Z"
                id="Shape"></path>
                <path d="M30.277,36.828 L22.667,36.828 C22.602,36.828 22.536,36.811 22.479,36.778 L13.982,31.875 L5.25,31.875 L5.25,31.125 L14.083,31.125 C14.148,31.125 14.214,31.142 14.271,31.175 L22.768,36.078 L30.278,36.078 L30.278,36.828 L30.277,36.828 Z"
                id="Shape"></path>
                <path d="M30.277,48.523 L12,48.523 C11.932,48.523 11.864,48.504 11.806,48.468 L7.306,45.74 L7.695,45.099 L12.105,47.772 L30.278,47.772 L30.278,48.523 L30.277,48.523 Z"
                id="Shape"></path>
                <path d="M12.639,57.22 L12.196,56.615 L18.835,51.745 C18.899,51.698 18.977,51.673 19.057,51.673 L30.279,51.673 L30.279,52.423 L19.179,52.423 L12.639,57.22 Z"
                id="Shape"></path>
                <path d="M34.504,5.332 C33.685,5.332 33.018,4.665 33.018,3.845 C33.018,3.025 33.685,2.358 34.504,2.358 C35.324,2.358 35.991,3.025 35.991,3.845 C35.991,4.665 35.324,5.332 34.504,5.332 Z M34.504,3.107 C34.098,3.107 33.768,3.438 33.768,3.844 C33.768,4.25 34.098,4.581 34.504,4.581 C34.91,4.581 35.241,4.25 35.241,3.844 C35.241,3.438 34.91,3.107 34.504,3.107 Z"
                id="Shape"></path>
                <path d="M38.792,11.154 C37.972,11.154 37.305,10.487 37.305,9.667 C37.305,8.847 37.972,8.18 38.792,8.18 C39.612,8.18 40.279,8.847 40.279,9.667 C40.279,10.487 39.612,11.154 38.792,11.154 Z M38.792,8.93 C38.386,8.93 38.055,9.261 38.055,9.667 C38.055,10.074 38.386,10.404 38.792,10.404 C39.198,10.404 39.529,10.073 39.529,9.667 C39.529,9.26 39.198,8.93 38.792,8.93 Z"
                id="Shape"></path>
                <path d="M52.958,15.875 C52.138,15.875 51.471,15.208 51.471,14.388 C51.471,13.568 52.138,12.901 52.958,12.901 C53.778,12.901 54.445,13.568 54.445,14.388 C54.445,15.208 53.778,15.875 52.958,15.875 Z M52.958,13.65 C52.552,13.65 52.221,13.981 52.221,14.387 C52.221,14.793 52.552,15.124 52.958,15.124 C53.364,15.124 53.695,14.793 53.695,14.387 C53.695,13.981 53.364,13.65 52.958,13.65 Z"
                id="Shape"></path>
                <path d="M59.042,7.779 C58.222,7.779 57.555,7.112 57.555,6.292 C57.555,5.472 58.222,4.805 59.042,4.805 C59.862,4.805 60.529,5.472 60.529,6.292 C60.529,7.112 59.862,7.779 59.042,7.779 Z M59.042,5.555 C58.636,5.555 58.305,5.886 58.305,6.292 C58.305,6.699 58.636,7.029 59.042,7.029 C59.448,7.029 59.779,6.698 59.779,6.292 C59.779,5.885 59.448,5.555 59.042,5.555 Z"
                id="Shape"></path>
                <path d="M76.153,34.1 C75.333,34.1 74.666,33.433 74.666,32.613 C74.666,31.793 75.333,31.126 76.153,31.126 C76.973,31.126 77.64,31.793 77.64,32.613 C77.64,33.433 76.974,34.1 76.153,34.1 Z M76.153,31.875 C75.747,31.875 75.416,32.206 75.416,32.612 C75.416,33.018 75.747,33.349 76.153,33.349 C76.559,33.349 76.89,33.018 76.89,32.612 C76.89,32.206 76.56,31.875 76.153,31.875 Z"
                id="Shape"></path>
                <path d="M84.306,38.154 C83.486,38.154 82.819,37.487 82.819,36.667 C82.819,35.847 83.486,35.18 84.306,35.18 C85.126,35.18 85.793,35.847 85.793,36.667 C85.793,37.487 85.126,38.154 84.306,38.154 Z M84.306,35.93 C83.9,35.93 83.569,36.261 83.569,36.667 C83.569,37.074 83.9,37.404 84.306,37.404 C84.712,37.404 85.043,37.073 85.043,36.667 C85.043,36.26 84.712,35.93 84.306,35.93 Z"
                id="Shape"></path>
                <path d="M88.75,48.124 C87.93,48.124 87.263,47.457 87.263,46.637 C87.263,45.817 87.93,45.15 88.75,45.15 C89.57,45.15 90.237,45.817 90.237,46.637 C90.237,47.457 89.57,48.124 88.75,48.124 Z M88.75,45.899 C88.344,45.899 88.013,46.23 88.013,46.636 C88.013,47.042 88.344,47.373 88.75,47.373 C89.156,47.373 89.487,47.042 89.487,46.636 C89.487,46.23 89.156,45.899 88.75,45.899 Z"
                id="Shape"></path>
                <path d="M72.252,49.465 C71.432,49.465 70.765,48.798 70.765,47.978 C70.765,47.159 71.432,46.492 72.252,46.492 C73.072,46.492 73.739,47.159 73.739,47.978 C73.739,48.798 73.072,49.465 72.252,49.465 Z M72.252,47.241 C71.846,47.241 71.515,47.571 71.515,47.977 C71.515,48.383 71.846,48.714 72.252,48.714 C72.658,48.714 72.989,48.383 72.989,47.977 C72.989,47.571 72.658,47.241 72.252,47.241 Z"
                id="Shape"></path>
                <path d="M53.806,69.945 C52.986,69.945 52.319,69.278 52.319,68.458 C52.319,67.638 52.986,66.971 53.806,66.971 C54.626,66.971 55.293,67.638 55.293,68.458 C55.293,69.278 54.626,69.945 53.806,69.945 Z M53.806,67.721 C53.4,67.721 53.069,68.052 53.069,68.458 C53.069,68.864 53.4,69.195 53.806,69.195 C54.212,69.195 54.543,68.864 54.543,68.458 C54.543,68.052 54.212,67.721 53.806,67.721 Z"
                id="Shape"></path>
                <path d="M35,77.279 C34.18,77.279 33.513,76.612 33.513,75.792 C33.513,74.972 34.18,74.305 35,74.305 C35.82,74.305 36.487,74.972 36.487,75.792 C36.487,76.612 35.82,77.279 35,77.279 Z M35,75.055 C34.594,75.055 34.263,75.386 34.263,75.792 C34.263,76.198 34.594,76.529 35,76.529 C35.406,76.529 35.737,76.198 35.737,75.792 C35.737,75.386 35.406,75.055 35,75.055 Z"
                id="Shape"></path>
                <path d="M11.667,58.945 C10.847,58.945 10.18,58.278 10.18,57.458 C10.18,56.638 10.847,55.971 11.667,55.971 C12.487,55.971 13.154,56.638 13.154,57.458 C13.154,58.278 12.487,58.945 11.667,58.945 Z M11.667,56.721 C11.261,56.721 10.93,57.052 10.93,57.458 C10.93,57.864 11.261,58.195 11.667,58.195 C12.073,58.195 12.404,57.864 12.404,57.458 C12.404,57.052 12.073,56.721 11.667,56.721 Z"
                id="Shape"></path>
                <path d="M6.792,46.404 C5.972,46.404 5.305,45.737 5.305,44.916 C5.305,44.096 5.972,43.429 6.792,43.429 C7.612,43.429 8.279,44.096 8.279,44.916 C8.279,45.737 7.612,46.404 6.792,46.404 Z M6.792,44.18 C6.386,44.18 6.055,44.511 6.055,44.917 C6.055,45.324 6.386,45.655 6.792,45.655 C7.198,45.655 7.529,45.324 7.529,44.917 C7.529,44.51 7.198,44.18 6.792,44.18 Z"
                id="Shape"></path>
                <path d="M18.25,43.869 C17.43,43.869 16.763,43.202 16.763,42.382 C16.763,41.562 17.43,40.895 18.25,40.895 C19.07,40.895 19.737,41.562 19.737,42.382 C19.737,43.202 19.07,43.869 18.25,43.869 Z M18.25,41.645 C17.844,41.645 17.513,41.976 17.513,42.382 C17.513,42.788 17.844,43.119 18.25,43.119 C18.656,43.119 18.987,42.788 18.987,42.382 C18.987,41.976 18.656,41.645 18.25,41.645 Z"
                id="Shape"></path>
                <path d="M10.292,39.282 C9.472,39.282 8.805,38.615 8.805,37.795 C8.805,36.975 9.472,36.308 10.292,36.308 C11.112,36.308 11.779,36.975 11.779,37.795 C11.779,38.615 11.112,39.282 10.292,39.282 Z M10.292,37.057 C9.886,37.057 9.555,37.388 9.555,37.794 C9.555,38.2 9.886,38.531 10.292,38.531 C10.698,38.531 11.029,38.2 11.029,37.794 C11.029,37.388 10.698,37.057 10.292,37.057 Z"
                id="Shape"></path>
                <path d="M4.333,32.987 C3.513,32.987 2.846,32.32 2.846,31.5 C2.846,30.68 3.513,30.013 4.333,30.013 C5.153,30.013 5.82,30.68 5.82,31.5 C5.82,32.32 5.153,32.987 4.333,32.987 Z M4.333,30.763 C3.927,30.763 3.596,31.094 3.596,31.5 C3.596,31.906 3.927,32.237 4.333,32.237 C4.739,32.237 5.07,31.907 5.07,31.5 C5.07,31.093 4.739,30.763 4.333,30.763 Z"
                id="Shape"></path>
                <path d="M39.915,83.658 C39.095,83.658 38.428,82.991 38.428,82.171 C38.428,81.351 39.095,80.684 39.915,80.684 C40.735,80.684 41.402,81.351 41.402,82.171 C41.402,82.991 40.735,83.658 39.915,83.658 Z M39.915,81.434 C39.509,81.434 39.178,81.765 39.178,82.171 C39.178,82.577 39.509,82.908 39.915,82.908 C40.321,82.908 40.652,82.577 40.652,82.171 C40.652,81.765 40.321,81.434 39.915,81.434 Z"
                id="Shape"></path>
                <path d="M48.565,82.802 C47.745,82.802 47.078,82.135 47.078,81.315 C47.078,80.495 47.745,79.828 48.565,79.828 C49.385,79.828 50.052,80.495 50.052,81.315 C50.052,82.135 49.386,82.802 48.565,82.802 Z M48.565,80.577 C48.159,80.577 47.828,80.908 47.828,81.314 C47.828,81.72 48.159,82.051 48.565,82.051 C48.971,82.051 49.302,81.72 49.302,81.314 C49.302,80.908 48.972,80.577 48.565,80.577 Z"
                id="Shape"></path>
                <path d="M54.127,87.112 C53.307,87.112 52.64,86.445 52.64,85.625 C52.64,84.805 53.307,84.138 54.127,84.138 C54.947,84.138 55.614,84.805 55.614,85.625 C55.614,86.445 54.947,87.112 54.127,87.112 Z M54.127,84.888 C53.721,84.888 53.39,85.219 53.39,85.625 C53.39,86.031 53.721,86.362 54.127,86.362 C54.533,86.362 54.864,86.031 54.864,85.625 C54.864,85.219 54.533,84.888 54.127,84.888 Z"
                id="Shape"></path>
                <path d="M81.292,56.32 C80.472,56.32 79.805,55.653 79.805,54.833 C79.805,54.013 80.472,53.346 81.292,53.346 C82.112,53.346 82.779,54.013 82.779,54.833 C82.779,55.653 82.112,56.32 81.292,56.32 Z M81.292,54.096 C80.886,54.096 80.555,54.427 80.555,54.833 C80.555,55.239 80.886,55.57 81.292,55.57 C81.698,55.57 82.029,55.239 82.029,54.833 C82.029,54.427 81.698,54.096 81.292,54.096 Z"
                id="Shape"></path>
                <path d="M48.565,3.107 C47.745,3.107 47.078,2.44 47.078,1.62 C47.078,0.8 47.745,0.133 48.565,0.133 C49.385,0.133 50.053,0.8 50.053,1.62 C50.053,2.44 49.386,3.107 48.565,3.107 Z M48.565,0.883 C48.159,0.883 47.828,1.214 47.828,1.62 C47.828,2.026 48.159,2.357 48.565,2.357 C48.971,2.357 49.302,2.026 49.302,1.62 C49.302,1.214 48.972,0.883 48.565,0.883 Z"
                id="Shape"></path>
                <path d="M64.149,15.55 C64.086,15.55 64.021,15.526 63.972,15.477 L62.625,14.131 C62.527,14.033 62.527,13.875 62.625,13.777 C62.722,13.68 62.88,13.679 62.979,13.777 L64.326,15.123 C64.424,15.221 64.424,15.379 64.326,15.477 C64.277,15.525 64.214,15.55 64.149,15.55 Z"
                id="Shape"></path>
                <path d="M61.403,12.804 C61.34,12.804 61.275,12.78 61.226,12.731 L59.923,11.429 C59.825,11.331 59.825,11.173 59.923,11.075 C60.02,10.978 60.178,10.977 60.277,11.075 L61.58,12.377 C61.678,12.475 61.678,12.633 61.58,12.731 C61.531,12.779 61.468,12.804 61.403,12.804 Z"
                id="Shape"></path>
                <path d="M60.101,15.55 C60.037,15.55 59.973,15.526 59.924,15.477 C59.826,15.379 59.826,15.221 59.924,15.123 L61.227,13.82 C61.326,13.722 61.484,13.724 61.581,13.82 C61.679,13.918 61.679,14.076 61.581,14.174 L60.278,15.477 C60.229,15.525 60.164,15.55 60.101,15.55 Z"
                id="Shape"></path>
                <path d="M62.803,12.847 C62.739,12.847 62.675,12.823 62.626,12.774 C62.528,12.676 62.528,12.518 62.626,12.42 L63.973,11.074 C64.071,10.976 64.229,10.977 64.327,11.074 C64.425,11.172 64.425,11.33 64.327,11.428 L62.98,12.774 C62.931,12.823 62.866,12.847 62.803,12.847 Z"
                id="Shape"></path>
                <path d="M90.619,54.78 C90.556,54.78 90.491,54.756 90.442,54.707 L89.096,53.361 C88.998,53.263 88.998,53.105 89.096,53.007 C89.194,52.909 89.352,52.909 89.45,53.007 L90.796,54.353 C90.894,54.451 90.894,54.609 90.796,54.707 C90.747,54.756 90.684,54.78 90.619,54.78 Z"
                id="Shape"></path>
                <path d="M87.873,52.034 C87.809,52.034 87.745,52.01 87.696,51.961 L86.393,50.658 C86.295,50.56 86.295,50.402 86.393,50.304 C86.491,50.206 86.649,50.206 86.747,50.304 L88.05,51.607 C88.148,51.705 88.148,51.863 88.05,51.961 C88.001,52.01 87.938,52.034 87.873,52.034 Z"
                id="Shape"></path>
                <path d="M86.57,54.78 C86.506,54.78 86.442,54.756 86.393,54.707 C86.295,54.609 86.295,54.451 86.393,54.353 L87.696,53.05 C87.793,52.953 87.951,52.951 88.05,53.05 C88.148,53.148 88.148,53.306 88.05,53.404 L86.747,54.707 C86.698,54.756 86.635,54.78 86.57,54.78 Z"
                id="Shape"></path>
                <path d="M89.273,52.078 C89.21,52.078 89.145,52.054 89.096,52.005 C88.998,51.907 88.998,51.749 89.096,51.651 L90.442,50.304 C90.54,50.206 90.698,50.206 90.796,50.304 C90.894,50.402 90.894,50.56 90.796,50.658 L89.45,52.005 C89.401,52.054 89.338,52.078 89.273,52.078 Z"
                id="Shape"></path>
                <path d="M34.495,70.732 C34.432,70.732 34.367,70.708 34.318,70.659 L32.972,69.313 C32.874,69.215 32.874,69.057 32.972,68.959 C33.07,68.861 33.228,68.861 33.326,68.959 L34.672,70.305 C34.77,70.403 34.77,70.561 34.672,70.659 C34.623,70.708 34.56,70.732 34.495,70.732 Z"
                id="Shape"></path>
                <path d="M31.749,67.986 C31.686,67.986 31.621,67.962 31.572,67.913 L30.269,66.611 C30.171,66.513 30.171,66.355 30.269,66.257 C30.366,66.16 30.524,66.158 30.623,66.257 L31.926,67.559 C32.024,67.657 32.024,67.815 31.926,67.913 C31.877,67.962 31.813,67.986 31.749,67.986 Z"
                id="Shape"></path>
                <path d="M30.446,70.732 C30.382,70.732 30.318,70.708 30.269,70.659 C30.171,70.561 30.171,70.403 30.269,70.305 L31.572,69.002 C31.67,68.904 31.828,68.904 31.926,69.002 C32.024,69.1 32.024,69.258 31.926,69.356 L30.623,70.659 C30.574,70.708 30.51,70.732 30.446,70.732 Z"
                id="Shape"></path>
                <path d="M33.149,68.03 C33.086,68.03 33.021,68.006 32.972,67.957 C32.874,67.859 32.874,67.701 32.972,67.603 L34.318,66.257 C34.417,66.158 34.575,66.16 34.672,66.257 C34.77,66.355 34.77,66.513 34.672,66.611 L33.326,67.957 C33.277,68.006 33.214,68.03 33.149,68.03 Z"
                id="Shape"></path>
                <path d="M58.526,73.769 C58.462,73.769 58.398,73.745 58.349,73.696 L57.595,72.941 C57.497,72.843 57.497,72.685 57.595,72.587 C57.693,72.489 57.851,72.489 57.949,72.587 L58.703,73.342 C58.801,73.441 58.801,73.599 58.703,73.696 C58.654,73.744 58.59,73.769 58.526,73.769 Z"
                id="Shape"></path>
                <path d="M56.988,72.23 C56.924,72.23 56.86,72.206 56.811,72.157 L56.082,71.427 C55.984,71.328 55.984,71.17 56.082,71.073 C56.181,70.974 56.339,70.976 56.436,71.073 L57.165,71.803 C57.263,71.901 57.263,72.059 57.165,72.157 C57.116,72.206 57.053,72.23 56.988,72.23 Z"
                id="Shape"></path>
                <path d="M56.259,73.769 C56.195,73.769 56.131,73.745 56.082,73.696 C55.984,73.598 55.984,73.44 56.082,73.342 L56.811,72.612 C56.909,72.514 57.067,72.514 57.165,72.612 C57.263,72.71 57.263,72.868 57.165,72.966 L56.436,73.696 C56.387,73.744 56.323,73.769 56.259,73.769 Z"
                id="Shape"></path>
                <path d="M57.772,72.255 C57.708,72.255 57.644,72.231 57.595,72.182 C57.497,72.084 57.497,71.926 57.595,71.828 L58.349,71.073 C58.446,70.976 58.604,70.974 58.703,71.073 C58.801,71.17 58.801,71.328 58.703,71.427 L57.949,72.182 C57.9,72.23 57.837,72.255 57.772,72.255 Z"
                id="Shape"></path>
                <path d="M82.918,32.078 C82.854,32.078 82.79,32.054 82.741,32.005 L81.987,31.251 C81.889,31.153 81.889,30.995 81.987,30.897 C82.085,30.799 82.243,30.799 82.341,30.897 L83.095,31.651 C83.193,31.749 83.193,31.907 83.095,32.005 C83.046,32.053 82.981,32.078 82.918,32.078 Z"
                id="Shape"></path>
                <path d="M81.38,30.54 C81.316,30.54 81.252,30.516 81.203,30.467 L80.474,29.737 C80.376,29.639 80.376,29.481 80.474,29.383 C80.572,29.284 80.73,29.286 80.828,29.383 L81.557,30.113 C81.655,30.211 81.655,30.369 81.557,30.467 C81.508,30.515 81.444,30.54 81.38,30.54 Z"
                id="Shape"></path>
                <path d="M80.65,32.078 C80.586,32.078 80.522,32.054 80.473,32.005 C80.375,31.907 80.375,31.749 80.473,31.651 L81.202,30.921 C81.299,30.824 81.457,30.822 81.556,30.921 C81.654,31.018 81.654,31.177 81.556,31.275 L80.827,32.005 C80.778,32.053 80.715,32.078 80.65,32.078 Z"
                id="Shape"></path>
                <path d="M82.164,30.564 C82.101,30.564 82.036,30.54 81.987,30.491 C81.889,30.394 81.889,30.235 81.987,30.137 L82.741,29.383 C82.838,29.286 82.996,29.284 83.095,29.383 C83.193,29.48 83.193,29.639 83.095,29.737 L82.341,30.491 C82.292,30.54 82.229,30.564 82.164,30.564 Z"
                id="Shape"></path>
                <path d="M41.825,6.037 C41.761,6.037 41.697,6.013 41.648,5.964 L40.894,5.21 C40.796,5.112 40.796,4.954 40.894,4.856 C40.992,4.758 41.15,4.758 41.248,4.856 L42.002,5.61 C42.1,5.708 42.1,5.866 42.002,5.964 C41.953,6.013 41.889,6.037 41.825,6.037 Z"
                id="Shape"></path>
                <path d="M40.287,4.499 C40.223,4.499 40.159,4.475 40.11,4.426 L39.381,3.697 C39.283,3.599 39.283,3.441 39.381,3.343 C39.479,3.245 39.637,3.245 39.735,3.343 L40.464,4.072 C40.562,4.17 40.562,4.328 40.464,4.426 C40.415,4.475 40.352,4.499 40.287,4.499 Z"
                id="Shape"></path>
                <path d="M39.558,6.037 C39.494,6.037 39.43,6.013 39.381,5.964 C39.283,5.866 39.283,5.708 39.381,5.61 L40.11,4.881 C40.208,4.783 40.366,4.783 40.464,4.881 C40.562,4.979 40.562,5.137 40.464,5.235 L39.735,5.964 C39.686,6.013 39.622,6.037 39.558,6.037 Z"
                id="Shape"></path>
                <path d="M41.071,4.523 C41.008,4.523 40.943,4.499 40.894,4.45 C40.796,4.353 40.796,4.194 40.894,4.096 L41.648,3.342 C41.746,3.244 41.904,3.244 42.002,3.342 C42.1,3.44 42.1,3.598 42.002,3.696 L41.248,4.45 C41.199,4.499 41.136,4.523 41.071,4.523 Z"
                id="Shape"></path>
                <path d="M26.948,34.571 C26.885,34.571 26.82,34.547 26.771,34.498 L26.017,33.744 C25.919,33.646 25.919,33.488 26.017,33.39 C26.116,33.292 26.274,33.293 26.371,33.39 L27.125,34.144 C27.223,34.241 27.223,34.4 27.125,34.498 C27.076,34.547 27.013,34.571 26.948,34.571 Z"
                id="Shape"></path>
                <path d="M25.41,33.033 C25.346,33.033 25.282,33.009 25.233,32.96 L24.504,32.231 C24.406,32.133 24.406,31.975 24.504,31.877 C24.602,31.779 24.76,31.779 24.858,31.877 L25.587,32.606 C25.685,32.704 25.685,32.862 25.587,32.96 C25.538,33.009 25.475,33.033 25.41,33.033 Z"
                id="Shape"></path>
                <path d="M24.681,34.571 C24.617,34.571 24.553,34.547 24.504,34.498 C24.406,34.4 24.406,34.242 24.504,34.144 L25.233,33.415 C25.331,33.317 25.489,33.317 25.587,33.415 C25.685,33.513 25.685,33.671 25.587,33.769 L24.858,34.498 C24.809,34.547 24.745,34.571 24.681,34.571 Z"
                id="Shape"></path>
                <path d="M26.194,33.058 C26.131,33.058 26.066,33.034 26.017,32.985 C25.919,32.888 25.919,32.729 26.017,32.631 L26.771,31.877 C26.87,31.779 27.028,31.78 27.125,31.877 C27.223,31.975 27.223,32.133 27.125,32.231 L26.371,32.985 C26.322,33.033 26.259,33.058 26.194,33.058 Z"
                id="Shape"></path>
                <path d="M66.757,56.596 C66.693,56.596 66.629,56.572 66.58,56.523 L65.826,55.769 C65.728,55.67 65.728,55.512 65.826,55.415 C65.925,55.317 66.083,55.318 66.18,55.415 L66.934,56.169 C67.032,56.267 67.032,56.425 66.934,56.523 C66.885,56.571 66.821,56.596 66.757,56.596 Z"
                id="Shape"></path>
                <path d="M65.219,55.058 C65.155,55.058 65.091,55.034 65.042,54.985 L64.313,54.256 C64.215,54.158 64.215,54 64.313,53.902 C64.411,53.804 64.569,53.804 64.667,53.902 L65.396,54.631 C65.494,54.729 65.494,54.887 65.396,54.985 C65.347,55.033 65.283,55.058 65.219,55.058 Z"
                id="Shape"></path>
                <path d="M64.489,56.596 C64.425,56.596 64.361,56.572 64.312,56.523 C64.214,56.425 64.214,56.267 64.312,56.169 L65.041,55.44 C65.139,55.342 65.297,55.342 65.395,55.44 C65.493,55.538 65.493,55.696 65.395,55.794 L64.666,56.523 C64.617,56.571 64.554,56.596 64.489,56.596 Z"
                id="Shape"></path>
                <path d="M66.003,55.082 C65.939,55.082 65.875,55.058 65.826,55.009 C65.728,54.911 65.728,54.753 65.826,54.655 L66.58,53.901 C66.677,53.804 66.835,53.802 66.934,53.901 C67.032,53.998 67.032,54.156 66.934,54.255 L66.18,55.009 C66.131,55.058 66.067,55.082 66.003,55.082 Z"
                id="Shape"></path>
                <path d="M13.913,53.631 C13.85,53.631 13.785,53.607 13.736,53.558 L12.982,52.804 C12.884,52.705 12.884,52.547 12.982,52.45 C13.081,52.351 13.239,52.353 13.336,52.45 L14.09,53.204 C14.188,53.301 14.188,53.46 14.09,53.558 C14.041,53.606 13.978,53.631 13.913,53.631 Z"
                id="Shape"></path>
                <path d="M12.375,52.093 C12.311,52.093 12.247,52.069 12.198,52.02 L11.469,51.291 C11.371,51.193 11.371,51.035 11.469,50.937 C11.567,50.839 11.725,50.839 11.823,50.937 L12.552,51.666 C12.65,51.764 12.65,51.922 12.552,52.02 C12.503,52.068 12.439,52.093 12.375,52.093 Z"
                id="Shape"></path>
                <path d="M11.646,53.631 C11.582,53.631 11.518,53.607 11.469,53.558 C11.371,53.46 11.371,53.302 11.469,53.204 L12.198,52.475 C12.296,52.377 12.454,52.377 12.552,52.475 C12.65,52.573 12.65,52.731 12.552,52.829 L11.823,53.558 C11.773,53.606 11.71,53.631 11.646,53.631 Z"
                id="Shape"></path>
                <path d="M13.159,52.117 C13.095,52.117 13.031,52.093 12.982,52.044 C12.884,51.946 12.884,51.788 12.982,51.69 L13.736,50.936 C13.834,50.838 13.992,50.838 14.09,50.936 C14.188,51.034 14.188,51.192 14.09,51.29 L13.336,52.044 C13.287,52.093 13.224,52.117 13.159,52.117 Z"
                id="Shape"></path>
                <path d="M4.727,39.399 C4.663,39.399 4.599,39.375 4.55,39.326 L3.204,37.98 C3.106,37.882 3.106,37.724 3.204,37.626 C3.302,37.527 3.46,37.529 3.558,37.626 L4.904,38.972 C5.002,39.07 5.002,39.228 4.904,39.326 C4.854,39.375 4.79,39.399 4.727,39.399 Z"
                id="Shape"></path>
                <path d="M1.981,36.653 C1.918,36.653 1.853,36.629 1.804,36.58 L0.501,35.277 C0.403,35.179 0.403,35.021 0.501,34.923 C0.599,34.825 0.757,34.826 0.855,34.923 L2.158,36.226 C2.256,36.324 2.256,36.482 2.158,36.58 C2.109,36.629 2.046,36.653 1.981,36.653 Z"
                id="Shape"></path>
                <path d="M0.679,39.399 C0.616,39.399 0.551,39.375 0.502,39.326 C0.404,39.229 0.404,39.071 0.502,38.972 L1.805,37.669 C1.904,37.57 2.062,37.572 2.159,37.669 C2.257,37.767 2.257,37.925 2.159,38.023 L0.856,39.326 C0.807,39.375 0.743,39.399 0.679,39.399 Z"
                id="Shape"></path>
                <path d="M3.381,36.697 C3.318,36.697 3.253,36.673 3.204,36.624 C3.106,36.526 3.106,36.368 3.204,36.27 L4.55,34.924 C4.647,34.827 4.805,34.826 4.904,34.924 C5.002,35.022 5.002,35.18 4.904,35.278 L3.558,36.624 C3.509,36.672 3.445,36.697 3.381,36.697 Z"
                id="Shape"></path>
            </g>
        </g>
    </g>
</svg>