<?xml version="1.0" encoding="UTF-8" ?>
<svg width="82px" height="82px" viewBox="0 0 82 82" version="1.1" xmlns="http://www.w3.org/2000/svg">
    <g id="Page-1" stroke="none" stroke-width="1" fill-rule="evenodd" stroke-linecap="round"
    stroke-linejoin="round">
        <g id="cloudSecurity" transform="translate(-9.000000, 1.000000)" stroke="#000000"
        stroke-width="2">
            <g id="Group" transform="translate(10.000000, 0.000000)">
                <path d="M57.499,74.999 C57.499,77.75 55.25,80 52.499,80 L27.499,80 C24.748,80 22.498,77.75 22.498,74.999 L22.498,62.501 C22.498,59.749 24.748,57.499 27.499,57.499 L52.499,57.499 C55.25,57.499 57.499,59.749 57.499,62.501 L57.499,74.999 Z"
                id="Shape"></path>
                <path d="M52.501,37.499 L52.501,41.249 L47.5,41.249 L47.5,37.499 C47.5,33.358 44.142,30.001 40,30.001 C35.857,30.001 32.5,33.358 32.5,37.499 L32.5,57.499 L27.5,57.499 L27.5,37.499 C27.5,30.597 33.098,25 40,25 C46.904,25 52.501,30.597 52.501,37.499 Z"
                id="Shape"></path>
                <rect id="Rectangle-path" x="47.5" y="49.999" width="5.001" height="7.5"></rect>
                <path d="M42.5,41.249 L57.499,41.249 L42.5,41.249 Z" id="Shape"></path>
                <rect id="Rectangle-path" x="37.501" y="65" width="4.999" height="7.5"></rect>
                <path d="M65.002,20 C65.002,8.948 56.044,0 44.992,0 C35.673,0 27.867,6.373 25.641,14.999 L22.5,14.999 C16.975,14.999 12.492,19.478 12.492,25.004 C5.588,25.003 0,30.599 0,37.502 C0,44.398 5.588,49.999 12.493,49.999 L27.5,49.999 L27.5,37.499 C27.5,30.597 33.098,25 40,25 C46.904,25 52.501,30.597 52.501,37.5 L52.501,41.25 L47.5,41.25 L47.5,37.5 C47.5,33.359 44.142,30.002 40,30.002 C35.857,30.002 32.5,33.359 32.5,37.5 L32.5,50 L65.002,50 C73.287,49.999 80,43.281 80,35.001 C80,26.719 73.287,20 65.002,20 Z"
                id="Shape"></path>
            </g>
        </g>
    </g>
</svg>