<?xml version="1.0" encoding="UTF-8" ?>
<svg width="74px" height="58px" viewBox="0 0 74 58" version="1.1" xmlns="http://www.w3.org/2000/svg">
    <g id="Page-1" stroke="none" stroke-width="1" fill-rule="evenodd">
        <g id="coffee" transform="translate(-1.000000, 0.000000)">
            <g id="Group" transform="translate(38.000000, 29.000000) scale(-1, 1) rotate(-180.000000) translate(-38.000000, -29.000000) translate(1.000000, 0.000000)">
                <g id="Shape">
                    <g>
                        <path d="M12.203,3.128 C9.589,3.879 6.383,5.07 3.397,7.766 C2.241,8.809 1.42,9.808 0.907,10.487 C0.658,10.817 0.644,11.252 0.839,11.59 L1.086,11.882 C1.274,12.246 1.649,12.467 2.062,12.432 C5.319,12.154 8.581,11.949 11.848,11.799 L13.116,11.76 L12.232,13.009 C10.178,16.237 9.106,19.951 8.529,23.738 C7.763,28.767 7.854,34.074 7.751,38.653 C7.741,39.067 7.985,39.428 8.34,39.587 L8.408,39.603 L8.549,39.731 C8.661,39.798 8.787,39.845 8.924,39.865 C24.428,42.118 40.295,41.851 55.712,39.072 C56.255,38.974 56.617,38.453 56.519,37.91 L56.439,37.709 L56.481,37.409 L56.289,33.821 L57.633,34.199 C60.62,34.863 63.807,34.548 66.639,33.483 C68.92,32.626 71.233,31.165 72.51,28.854 C74.275,25.658 73.538,21.57 71.362,18.832 C69.183,16.091 65.792,14.614 62.456,14.203 C59.957,13.897 57.456,14.137 55.046,14.617 L53.526,14.969 L53.32,14.441 C52.962,13.638 52.547,12.861 52.078,12.118 L51.708,11.615 L56.586,11.917 C58.263,12.061 59.933,12.251 61.598,12.502 C61.87,12.543 62.134,12.47 62.34,12.317 L62.575,12.089 C63.048,11.793 63.188,11.175 62.893,10.708 C62.451,10.007 61.764,9.027 60.779,7.997 C57.455,4.515 53.388,3.235 49.755,2.408 C45.716,1.487 40.675,0.78 31.91,0.846 C23.947,0.904 17.635,1.562 12.203,3.128 Z M49.31,4.357 C52.839,5.162 56.426,6.332 59.332,9.378 L60.134,10.319 L56.76,9.925 C55.045,9.777 53.33,9.676 51.616,9.607 C48.189,9.467 44.756,9.452 41.35,9.437 C34.791,9.407 28.211,9.378 21.629,9.496 L15.508,9.685 L15.334,9.655 L15.134,9.697 L11.756,9.802 L3.656,10.325 L4.016,9.94 C4.238,9.716 4.479,9.484 4.738,9.251 C7.398,6.847 10.27,5.764 12.756,5.049 C17.942,3.555 24.05,2.903 31.925,2.845 C40.562,2.781 45.447,3.476 49.31,4.357 Z M41.341,11.436 C43.051,11.444 44.756,11.452 46.456,11.475 L49.188,11.545 L49.954,12.533 C50.852,13.816 51.563,15.228 52.064,16.715 C52.24,17.238 52.807,17.52 53.33,17.344 C53.46,17.3 53.576,17.231 53.673,17.145 L53.82,16.953 L55.443,16.577 C57.716,16.125 59.988,15.915 62.213,16.188 C65.177,16.553 68.028,17.852 69.797,20.077 C71.571,22.309 72.062,25.529 70.759,27.887 C69.802,29.618 67.983,30.841 65.936,31.61 C63,32.714 59.699,32.882 56.811,31.893 L55.82,31.487 L55.548,31.322 C55.426,31.278 55.293,31.257 55.156,31.264 C55.018,31.27 54.888,31.305 54.771,31.361 L54.567,31.513 L54.481,31.576 L54.421,31.661 L54.267,31.866 C54.207,31.99 54.175,32.12 54.169,32.25 L54.223,32.617 L54.468,37.244 L49.635,38.014 C38.158,39.605 26.487,39.802 14.96,38.602 L9.762,37.954 L9.808,35.11 C9.848,32.377 9.908,29.567 10.17,26.794 L10.246,26.173 L10.306,26.245 C11.667,27.548 13.834,28.016 15.568,27.162 C16.077,26.911 16.52,26.576 16.904,26.254 C17.269,25.947 17.632,25.605 17.965,25.321 C18.654,24.733 19.122,24.476 19.621,24.489 C20.07,24.501 20.51,24.741 21.206,25.272 C21.508,25.503 21.886,25.807 22.263,26.063 C22.652,26.327 23.106,26.587 23.631,26.748 C24.696,27.073 25.704,26.913 26.599,26.59 C27.476,26.273 28.317,25.771 29.058,25.335 C29.853,24.867 30.511,24.486 31.167,24.256 C31.8,24.035 32.332,23.995 32.84,24.165 C33.577,24.411 34.212,25.126 35.126,25.705 C36.862,26.803 39.135,26.959 41.002,26.106 C41.84,25.723 42.597,25.158 43.29,24.759 C43.969,24.369 44.471,24.206 44.956,24.275 C45.794,24.394 46.588,25.276 47.626,25.881 C49.291,26.851 51.406,26.893 53.142,26.102 L53.743,25.766 L53.986,28.415 C54.013,28.827 54.289,29.165 54.657,29.292 L54.77,29.307 L55.39,29.528 C57.041,30.072 59.646,30.606 62.554,29.831 C63.893,29.473 66.295,28.884 67.398,26.693 C68.455,24.598 67.888,21.987 66.541,20.405 C65.625,19.329 64.443,18.82 63.205,18.573 C61.998,18.333 60.653,18.33 59.365,18.323 C57.534,18.315 55.96,18.578 54.736,18.882 L54.284,19.009 L54.151,18.953 C54.023,18.926 53.889,18.924 53.754,18.951 C53.347,19.031 53.047,19.346 52.967,19.727 L52.966,19.953 L52.936,20.052 C52.924,20.181 52.936,20.315 52.978,20.447 L53.029,20.54 L53.488,23.496 L53.337,23.593 C52.126,24.756 50.083,24.998 48.633,24.154 C47.67,23.591 46.707,22.504 45.239,22.296 C44.074,22.128 43.079,22.574 42.293,23.025 C41.533,23.462 40.846,23.978 40.171,24.287 C38.92,24.858 37.361,24.752 36.195,24.014 C35.411,23.518 34.626,22.652 33.473,22.268 C32.415,21.914 31.405,22.054 30.507,22.368 C29.629,22.675 28.787,23.174 28.044,23.611 C27.244,24.082 26.584,24.468 25.919,24.709 C25.276,24.941 24.732,24.993 24.216,24.835 C22.91,24.436 21.713,22.545 19.674,22.49 C18.363,22.456 17.383,23.189 16.667,23.8 C15.998,24.371 15.349,25.04 14.683,25.369 C13.43,25.986 11.626,25.277 11.129,23.97 C11.08,23.841 11.007,23.728 10.917,23.634 L10.625,23.428 L11.115,20.923 C11.86,17.877 13.041,15.062 14.919,12.67 L15.784,11.677 L21.662,11.496 C28.214,11.378 34.773,11.407 41.341,11.436 Z M65.018,21.702 C65.923,22.764 66.254,24.519 65.611,25.794 C64.988,27.032 63.651,27.468 62.039,27.898 C59.983,28.447 58.085,28.205 56.682,27.827 L55.917,27.578 L55.591,24.005 L55.101,20.857 L55.219,20.823 C56.314,20.55 57.721,20.316 59.356,20.322 C62.219,20.339 63.922,20.414 65.018,21.702 Z M31.571,43.142 C31.295,43.673 30.976,44.301 30.752,44.957 C30.526,45.62 30.377,46.366 30.464,47.161 C30.524,47.722 30.695,48.231 30.88,48.675 C31.058,49.104 31.266,49.508 31.44,49.887 C31.781,50.636 32.033,51.426 32.124,52.189 C32.214,52.949 32.142,53.654 31.868,54.276 C31.572,54.955 30.966,55.673 30.665,56.614 C30.497,57.14 30.787,57.703 31.313,57.871 C31.839,58.039 32.402,57.749 32.57,57.223 C32.778,56.572 33.331,55.924 33.699,55.079 C34.149,54.058 34.232,52.977 34.11,51.953 C33.989,50.932 33.662,49.94 33.259,49.054 C33.073,48.652 32.879,48.274 32.726,47.906 C32.578,47.552 32.484,47.244 32.453,46.946 C32.407,46.532 32.478,46.093 32.645,45.602 C32.812,45.112 33.059,44.616 33.346,44.061 C33.6,43.571 33.409,42.967 32.918,42.714 C32.428,42.46 31.824,42.651 31.571,43.142 Z M36.052,42.91 C35.415,43.38 35.059,44.047 34.892,44.707 C34.725,45.363 34.732,46.055 34.851,46.676 C35.066,47.791 35.583,48.75 35.868,49.666 C36.297,51.042 36.268,52.558 35.788,53.915 C35.604,54.436 35.877,55.007 36.397,55.191 C36.918,55.375 37.489,55.102 37.673,54.582 C38.297,52.817 38.334,50.859 37.777,49.071 C37.462,48.056 36.984,47.173 36.814,46.299 C36.742,45.921 36.747,45.529 36.83,45.199 C36.913,44.873 37.06,44.652 37.241,44.517 C37.685,44.189 37.779,43.563 37.45,43.119 C37.122,42.675 36.496,42.581 36.052,42.91 Z M27.815,43.871 C26.195,46.477 26.184,49.972 27.785,52.59 C28.073,53.061 28.689,53.21 29.16,52.922 C29.631,52.634 29.78,52.018 29.492,51.547 C28.285,49.573 28.294,46.89 29.514,44.926 C29.805,44.458 29.661,43.84 29.192,43.549 C28.724,43.258 28.106,43.402 27.815,43.871 Z"></path>
                    </g>
                </g>
            </g>
        </g>
    </g>
</svg>