<?xml version="1.0" encoding="UTF-8" ?>
<svg width="96px" height="97px" viewBox="0 0 96 97" version="1.1" xmlns="http://www.w3.org/2000/svg">
    <g id="Page-1" stroke="none" stroke-width="1" fill-rule="evenodd">
        <g id="cog" transform="translate(-2.000000, 0.000000)" fill-rule="nonzero">
            <g id="Group" transform="translate(2.000000, 0.000000)">
                <path d="M48,34 C40.3,34 34,40.3 34,48 C34,55.7 40.3,62 48,62 C55.7,62 62,55.7 62,48 C62,40.3 55.7,34 48,34 Z M48,58 C42.5,58 38,53.5 38,48 C38,42.5 42.5,38 48,38 C53.5,38 58,42.5 58,48 C58,53.5 53.5,58 48,58 Z"
                id="Shape"></path>
                <path d="M48,26 C46.9,26 46,26.9 46,28 C46,29.1 46.9,30 48,30 C57.9,30 66,38.1 66,48 C66,49.1 66.9,50 68,50 C69.1,50 70,49.1 70,48 C70,35.9 60.1,26 48,26 Z"
                id="Shape"></path>
                <path d="M48,66 C38.1,66 30,57.9 30,48 C30,46.9 29.1,46 28,46 C26.9,46 26,46.9 26,48 C26,60.1 35.9,70 48,70 C49.1,70 50,69.1 50,68 C50,66.9 49.1,66 48,66 Z"
                id="Shape"></path>
                <path d="M92.5,41 L83.3,39 C82.9,38.9 82.3,38.4 82.2,37.9 L79.3,31 C79.1,30.7 79.2,29.9 79.4,29.5 L84.5,21.5 C85.6,19.8 85.3,17.4 83.9,15.9 L80.2,12.2 C78.8,10.8 76.3,10.5 74.6,11.6 L66.6,16.7 C66.3,16.9 65.5,16.9 65,16.7 L58,13.8 C57.6,13.7 57.1,13.1 57,12.7 L55,3.5 C54.6,1.5 52.6,1.77635684e-15 50.6,1.77635684e-15 L48,1.77635684e-15 L45.4,1.77635684e-15 C43.4,1.77635684e-15 41.5,1.5 41,3.5 L39,12.7 C38.9,13.1 38.4,13.7 37.9,13.9 L31,16.8 C30.7,17 29.9,16.9 29.5,16.7 L21.5,11.6 C19.8,10.5 17.3,10.8 15.9,12.2 L12.2,15.9 C10.8,17.3 10.5,19.8 11.6,21.5 L16.7,29.5 C16.9,29.8 16.9,30.6 16.7,31.1 L13.8,38 C13.7,38.4 13.1,38.9 12.7,39 L3.5,41 C1.5,41.4 1.77635684e-15,43.4 1.77635684e-15,45.4 L1.77635684e-15,50.6 C1.77635684e-15,52.6 1.5,54.5 3.5,55 L12.7,57.1 C13.1,57.2 13.7,57.7 13.8,58.3 L16.7,65.2 C16.9,65.5 16.8,66.3 16.6,66.7 L11.5,74.7 C10.4,76.4 10.7,78.8 12.1,80.3 L15.8,84 C17.2,85.4 19.7,85.7 21.4,84.6 L29.4,79.5 C29.7,79.3 30.5,79.3 31,79.5 L37.9,82.3 C38.3,82.4 38.8,83 38.9,83.4 L40.9,92.6 C41.3,94.6 43.3,96.1 45.3,96.1 L48,96.1 L50.6,96.1 C52.6,96.1 54.5,94.6 55,92.6 L57,83.4 C57.1,83 57.6,82.4 58.1,82.3 L65,79.4 C65.3,79.2 66.1,79.3 66.5,79.5 L74.5,84.6 C76.2,85.7 78.7,85.4 80.1,84 L83.8,80.3 C85.2,78.9 85.5,76.4 84.4,74.7 L79.3,66.7 C79.1,66.4 79.1,65.6 79.3,65.1 L82.1,58.2 C82.2,57.8 82.8,57.3 83.2,57.2 L92.4,55.2 C94.4,54.8 95.9,52.8 95.9,50.8 L95.9,45.6 C96,43.4 94.5,41.5 92.5,41 Z M92,50.6 C92,50.8 91.8,51 91.6,51.1 L82.4,53.1 C80.6,53.5 78.9,55 78.4,56.6 L75.7,63.2 C74.9,64.8 75,67.1 75.9,68.7 L81,76.7 C81.1,76.8 81,77.2 80.9,77.3 L77.3,81 C77.2,81.1 76.8,81.2 76.7,81.1 L68.7,76 C67.2,75 64.9,74.9 63.4,75.7 L56.8,78.4 C55.1,79 53.5,80.7 53.1,82.4 L51.1,91.6 C51.1,91.8 50.8,92 50.6,92 L48,92 L45.4,92 C45.2,92 45,91.8 44.9,91.6 L42.9,82.4 C42.5,80.6 41,78.9 39.4,78.4 L32.8,75.7 C31.2,74.9 28.9,75 27.3,75.9 L19.3,81 C19.2,81.1 18.8,81 18.7,80.9 L15,77.3 C14.9,77.2 14.8,76.8 14.9,76.7 L20,68.7 C21,67.2 21.1,64.9 20.3,63.4 L17.6,56.8 C17,55.1 15.3,53.5 13.6,53.1 L4.4,51 C4.2,51 4,50.8 4,50.6 L4,45.4 C4,45.2 4.2,45 4.4,44.9 L13.6,42.9 C15.4,42.5 17.1,41 17.6,39.4 L20.3,32.8 C21.1,31.2 21,28.9 20.1,27.3 L15,19.3 C14.9,19.2 15,18.8 15.1,18.7 L18.8,15 C18.9,14.9 19.3,14.8 19.4,14.9 L27.4,20 C28.9,21 31.2,21.1 32.7,20.3 L39.3,17.6 C41,17 42.6,15.3 43,13.6 L45,4.4 C45,4.2 45.2,4 45.4,4 L48,4 L50.6,4 C50.8,4 51,4.2 51.1,4.4 L53.1,13.6 C53.5,15.4 55,17.1 56.6,17.6 L63.2,20.3 C64.8,21.1 67.1,21 68.7,20.1 L76.7,15 C76.8,14.9 77.2,15 77.3,15.1 L81,18.8 C81.1,18.9 81.2,19.3 81.1,19.4 L76,27.4 C75,28.9 74.9,31.2 75.7,32.7 L78.4,39.3 C79,41 80.7,42.6 82.4,43 L91.6,45.1 C91.8,45.1 92,45.4 92,45.6 L92,50.6 L92,50.6 Z"
                id="Shape"></path>
            </g>
        </g>
    </g>
</svg>