<svg xmlns="http://www.w3.org/2000/svg" version="1.0" x="0px" y="0px"
viewBox="0 0 100 100" enable-background="new 0 0 100 100">
    <g>
        <path d="M89.401,78.899l-7.418-57.488c-0.003-0.021-0.01-0.041-0.014-0.062c-0.01-0.06-0.025-0.119-0.04-0.178   c-0.016-0.064-0.033-0.127-0.056-0.188c-0.02-0.054-0.043-0.106-0.068-0.159c-0.03-0.064-0.061-0.125-0.097-0.185   c-0.028-0.046-0.058-0.091-0.09-0.136c-0.045-0.063-0.094-0.121-0.146-0.178c-0.021-0.023-0.037-0.05-0.059-0.073l-3.199-3.199   l0.726-2.901c0.003-0.013,0.003-0.027,0.006-0.04c0.015-0.065,0.021-0.133,0.029-0.2c0.009-0.069,0.02-0.138,0.021-0.207   c0-0.013,0.004-0.025,0.004-0.039c0-0.046-0.011-0.09-0.014-0.136c-0.005-0.075-0.009-0.149-0.022-0.222   c-0.011-0.062-0.03-0.121-0.047-0.181c-0.018-0.064-0.035-0.128-0.059-0.189c-0.024-0.061-0.054-0.118-0.084-0.175   c-0.029-0.057-0.057-0.114-0.091-0.168c-0.034-0.053-0.073-0.101-0.111-0.15c-0.041-0.053-0.081-0.105-0.127-0.154   c-0.041-0.043-0.087-0.082-0.132-0.121c-0.052-0.045-0.102-0.091-0.159-0.131c-0.051-0.036-0.106-0.066-0.16-0.097   c-0.057-0.033-0.113-0.067-0.174-0.094c-0.065-0.029-0.133-0.05-0.202-0.073c-0.045-0.015-0.087-0.036-0.134-0.048   c-0.013-0.003-0.027-0.003-0.04-0.006c-0.062-0.014-0.126-0.02-0.19-0.028c-0.074-0.01-0.147-0.021-0.22-0.022   c-0.012,0-0.023-0.004-0.035-0.004H23c-0.012,0-0.023,0.003-0.035,0.004c-0.073,0.001-0.145,0.013-0.219,0.022   c-0.064,0.008-0.129,0.014-0.191,0.028c-0.013,0.003-0.027,0.003-0.04,0.006c-0.047,0.012-0.089,0.033-0.134,0.048   c-0.068,0.022-0.137,0.043-0.202,0.073c-0.061,0.027-0.117,0.061-0.174,0.094c-0.054,0.031-0.109,0.061-0.16,0.097   c-0.056,0.04-0.107,0.086-0.159,0.131c-0.045,0.04-0.091,0.078-0.132,0.121c-0.046,0.048-0.086,0.101-0.127,0.154   c-0.038,0.049-0.077,0.097-0.111,0.15c-0.034,0.054-0.062,0.111-0.091,0.168c-0.03,0.058-0.06,0.115-0.084,0.175   c-0.024,0.062-0.041,0.125-0.059,0.189c-0.017,0.06-0.036,0.119-0.047,0.181c-0.013,0.073-0.017,0.147-0.022,0.222   C21.011,13.577,21,13.62,21,13.667c0,0.013,0.004,0.026,0.004,0.039c0.001,0.069,0.012,0.138,0.021,0.207   c0.008,0.067,0.014,0.135,0.029,0.2c0.003,0.013,0.002,0.027,0.006,0.04l0.726,2.901l-3.199,3.199   c-0.023,0.023-0.038,0.049-0.059,0.073c-0.052,0.057-0.101,0.116-0.146,0.178c-0.032,0.044-0.062,0.089-0.09,0.136   c-0.036,0.06-0.068,0.121-0.097,0.185c-0.025,0.053-0.048,0.105-0.068,0.159c-0.022,0.061-0.039,0.124-0.056,0.188   c-0.015,0.059-0.03,0.118-0.04,0.178c-0.003,0.021-0.011,0.041-0.014,0.062l-7.418,57.488c-0.221,1.711,0.306,3.435,1.444,4.729   s2.781,2.038,4.506,2.038h66.902c1.725,0,3.367-0.743,4.506-2.038S89.622,80.61,89.401,78.899z M25.414,19.081   c0.497-0.497,0.696-1.218,0.526-1.899l-0.379-1.515h48.876l-0.379,1.515c-0.17,0.682,0.029,1.402,0.526,1.899l0.586,0.586H24.828   L25.414,19.081z M84.953,80.988c-0.386,0.438-0.919,0.679-1.502,0.679H16.549c-0.583,0-1.116-0.241-1.502-0.679   c-0.385-0.438-0.556-0.998-0.481-1.577l7.193-55.744h56.482l7.193,55.744C85.509,79.99,85.338,80.549,84.953,80.988z"
        />
        <path d="M68,28.667h-2.277c-0.346-0.595-0.984-1-1.723-1s-1.376,0.405-1.723,1H60c-1.104,0-2,0.896-2,2s0.896,2,2,2h2v4   c0,6.617-5.383,12-12,12s-12-5.383-12-12v-4h2c1.104,0,2-0.896,2-2s-0.896-2-2-2h-2.277c-0.346-0.595-0.984-1-1.723-1   s-1.376,0.405-1.723,1H32c-1.104,0-2,0.896-2,2s0.896,2,2,2h2v4c0,8.822,7.178,16,16,16s16-7.178,16-16v-4h2c1.104,0,2-0.896,2-2   S69.104,28.667,68,28.667z"
        />
    </g>
</svg>