<svg xmlns="http://www.w3.org/2000/svg" version="1.1" x="0px" y="0px"
viewBox="0 0 100 100" style="enable-background:new 0 0 100 100;">
    <style type="text/css">
        .st0{fill:none;stroke:#000000;stroke-width:2;stroke-linecap:round;stroke-linejoin:round;stroke-miterlimit:10;}
        	.st1{fill:none;stroke:#000000;stroke-linecap:round;stroke-linejoin:round;stroke-miterlimit:10;}
        	.st2{fill:none;stroke:#000000;stroke-width:2;stroke-miterlimit:10;}
    </style>
    <path d="M51.6,33.4v6.9c-1.3-0.5-2.3-1.8-2.3-3.3c0-0.6-0.4-1-1-1s-1,0.4-1,1c0,2.6,1.9,4.8,4.3,5.4v1.1c0,0.6,0.4,1,1,1s1-0.4,1-1  v-1c2.6-0.4,4.7-2.7,4.7-5.4s-2-5-4.7-5.4v-6.9c1.4,0.4,2.5,1.8,2.5,3.3c0,0.6,0.4,1,1,1s1-0.4,1-1c0-2.7-1.9-4.9-4.5-5.4v-1.1  c0-0.6-0.4-1-1-1s-1,0.4-1,1v1.1c-2.6,0.5-4.5,2.7-4.5,5.4S49.1,32.9,51.6,33.4z M56.3,37c0,1.6-1.1,3-2.7,3.4v-6.8  C55.2,33.9,56.3,35.3,56.3,37z M51.6,24.6v6.7c-1.4-0.4-2.5-1.8-2.5-3.3S50.2,25.1,51.6,24.6z"
    />
    <path d="M21.9,11c-0.6,0-1,0.4-1,1v76.8c0,0.6,0.4,1,1,1h59.8c0.6,0,1-0.4,1-1V12c0-0.6-0.4-1-1-1H21.9z M80.7,87.8H22.9V13h57.8  V87.8z"
    />
    <path d="M32.2,52.5h39.2c0.6,0,1-0.4,1-1s-0.4-1-1-1H32.2c-0.6,0-1,0.4-1,1S31.7,52.5,32.2,52.5z"
    />
    <path d="M32.2,60.8h39.2c0.6,0,1-0.4,1-1s-0.4-1-1-1H32.2c-0.6,0-1,0.4-1,1S31.7,60.8,32.2,60.8z"
    />
    <path d="M32.2,69h39.2c0.6,0,1-0.4,1-1s-0.4-1-1-1H32.2c-0.6,0-1,0.4-1,1S31.7,69,32.2,69z"
    />
    <path d="M32.2,77.3h39.2c0.6,0,1-0.4,1-1s-0.4-1-1-1H32.2c-0.6,0-1,0.4-1,1S31.7,77.3,32.2,77.3z"
    />
</svg>