<svg xmlns="http://www.w3.org/2000/svg" version="1.1" x="0px" y="0px"
viewBox="0 0 65 81.25" enable-background="new 0 0 65 65">
    <g>
        <path d="M50.5,18H45l-1.9,6.2H12.5L17.2,40h21.2l-1.2,4.1c-0.1,0-0.2,0-0.3,0H21.1c-2,0-3.6,1.6-3.6,3.6c0,2,1.6,3.6,3.6,3.6   c2,0,3.6-1.6,3.6-3.6c0-0.8-0.3-1.5-0.7-2.1H34c-0.4,0.6-0.7,1.3-0.7,2.1c0,2,1.6,3.6,3.6,3.6c2,0,3.6-1.6,3.6-3.6   c0-1.4-0.8-2.5-1.9-3.2L40,40h0l4.7-15.7h0l1.4-4.7h4.3V18z M23.2,47.7c0,1.2-1,2.1-2.1,2.1c-1.2,0-2.1-1-2.1-2.1   c0-1.2,1-2.1,2.1-2.1C22.3,45.5,23.2,46.5,23.2,47.7z M36.9,49.8c-1.2,0-2.1-1-2.1-2.1c0-1.2,1-2.1,2.1-2.1c1.2,0,2.1,1,2.1,2.1   C39,48.8,38,49.8,36.9,49.8z M41,31.4h-5l0.8-5.6h5.9L41,31.4z M27.9,32.9v5.6h-4L23,32.9H27.9z M22.8,31.4l-0.8-5.6h5.9v5.6H22.8z    M29.4,32.9h4.9l-0.8,5.6h-4V32.9z M29.4,31.4v-5.6h5.9l-0.8,5.6H29.4z M20.4,25.8l0.8,5.6h-5.1l-1.7-5.6H20.4z M16.6,32.9h4.8   l0.8,5.6h-4L16.6,32.9z M34.9,38.5l0.8-5.6h4.8l-1.7,5.6H34.9z"
        />
        <path d="M0.4,38.9c0.1,0.5,0.2,1,0.3,1.5l1.5-0.3c-0.1-0.5-0.2-1-0.3-1.4L0.4,38.9z"
        />
        <path d="M1.4,32.9c0-0.4,0-0.8,0-1.1l-1.5-0.1c0,0.4,0,0.7,0,1.2l0,0.4l1.5,0L1.4,32.9z"
        />
        <path d="M1.5,35.2L0,35.3c0,0.5,0.1,1,0.1,1.5l1.5-0.2C1.6,36.2,1.5,35.7,1.5,35.2z"
        />
        <path d="M1.8,28.4L1.8,28.4C3.5,18,10.8,9.3,20.7,5.7l-1.8,3.7l1.3,0.7l3-6l-6-3l-0.7,1.3l3.7,1.8C9.9,8.1,2.1,17.2,0.3,28.2   L1,28.3l-0.7-0.1c-0.1,0.4-0.1,0.9-0.2,1.5l1.5,0.2C1.6,29.2,1.7,28.8,1.8,28.4z"
        />
        <path d="M41.2,4.2c-0.5-0.2-0.9-0.4-1.4-0.5l-0.5,1.4c0.5,0.2,0.9,0.3,1.4,0.5L41.2,4.2z"
        />
        <path d="M47.5,7.4c-0.4-0.3-0.8-0.5-1.3-0.8l-0.8,1.3c0.5,0.3,0.9,0.5,1.3,0.8L47.5,7.4z"
        />
        <path d="M44.4,5.7C44,5.4,43.5,5.2,43.1,5l-0.6,1.4c0.5,0.2,0.9,0.4,1.3,0.6L44.4,5.7z"
        />
        <path d="M64.3,36.6l-3.5,2.2C62.9,28,58.9,16.7,50.4,9.6L50,10.1l0.5-0.6c-0.3-0.2-0.7-0.6-1.2-1l-0.9,1.2c0.5,0.4,0.9,0.7,1.1,0.9   l0,0c8,6.8,11.8,17.6,9.9,27.8l-2.2-3.5l-1.3,0.8l3.6,5.6l5.6-3.6L64.3,36.6z"
        />
        <path d="M49.3,55.8l0.9,1.2c0.4-0.3,0.8-0.6,1.2-1l-1-1.2C50,55.2,49.6,55.5,49.3,55.8z"
        />
        <path d="M46.5,57.7l0.8,1.3c0.4-0.3,0.8-0.5,1.3-0.8l-0.9-1.2C47.3,57.2,46.9,57.5,46.5,57.7z"
        />
        <path d="M40.4,60.8c-9.9,3.5-21.1,1.2-29-5.7l4.1-0.2l-0.1-1.5l-6.7,0.2L9,60.3l1.5-0.1l-0.2-4.1c5.7,5,13,7.7,20.5,7.7   c3.4,0,6.7-0.5,10-1.7c0.4-0.1,0.8-0.3,1.4-0.6l-0.6-1.4C41.2,60.5,40.7,60.7,40.4,60.8z"
        />
        <path d="M43.5,59.4l0.7,1.3c0.4-0.2,0.9-0.5,1.4-0.7l-0.7-1.3C44.3,59,43.9,59.2,43.5,59.4z"
        />
    </g>
</svg>