<svg xmlns="http://www.w3.org/2000/svg" version="1.1" x="0px" y="0px"
viewBox="0 0 65 81.25" enable-background="new 0 0 65 65">
    <g>
        <path d="M8.7,42.2c-0.5-0.4-0.8-1-0.8-1.6H6.4c0,1,0.5,2,1.3,2.7c0.6,0.5,1.4,0.9,2.2,1v2.5h1.5v-2.5c0.8-0.1,1.6-0.5,2.2-1   c0.8-0.7,1.3-1.7,1.3-2.7c0-1-0.5-2-1.3-2.7c-0.8-0.7-1.9-1.1-3-1.1c-0.8,0-1.5-0.3-2-0.7c-0.5-0.4-0.8-1-0.8-1.6   c0-0.6,0.3-1.2,0.8-1.6c1.1-0.9,3-0.9,4,0c0.5,0.4,0.8,1,0.8,1.6H15c0-1-0.5-2-1.3-2.7c-0.6-0.5-1.4-0.9-2.2-1v-2.6H9.9v2.6   c-0.8,0.1-1.6,0.4-2.2,1c-0.8,0.7-1.3,1.7-1.3,2.7c0,1,0.5,2,1.3,2.7c0.8,0.7,1.9,1.1,3,1.1c0.8,0,1.5,0.3,2,0.7   c0.5,0.4,0.8,1,0.8,1.6s-0.3,1.2-0.8,1.6C11.6,43.1,9.7,43.1,8.7,42.2z"
        />
        <path d="M60.1,15.3v-4.9L45.9,5.2l-14.2,5.3v4.9H0v44.5h65V15.3H60.1z M63.5,16.8v4.9h-3.4v-4.9H63.5z M33.2,11.5l12.7-4.7   l12.7,4.7V23c0,6.9-4,11.2-12.5,13.7l-0.1,0l-0.3-0.1c-8.5-2.5-12.4-6.9-12.4-13.7V11.5z M31.8,16.8v4.9H1.5v-4.9H31.8z M1.5,58.3   V23.2h30.3c0.1,7.4,4.5,12.2,13.5,14.9c0.2,0,0.3,0.1,0.5,0.1l0.2,0.1l0.6-0.2c9.1-2.6,13.5-7.5,13.6-14.9h3.4v35.1H1.5z"
        />
        <rect x="11.5" y="18.5" width="1.5" height="1.5" />
        <rect x="8" y="18.5" width="1.5" height="1.5" />
        <rect x="4.5" y="18.5" width="1.5" height="1.5" />
        <path d="M45.7,31.9l0.2,0.1l0.2-0.1c6.9-2.3,7.8-5.6,7.8-8.9v-8.4l-8.1-3l-8.1,3V23C37.8,26.2,38.8,29.5,45.7,31.9z M39.3,15.7   l6.6-2.5l6.6,2.5V23c0,2.6-0.5,5.3-6.6,7.4c-6.1-2.1-6.6-4.8-6.6-7.4V15.7z"
        />
        <rect x="6.4" y="52.8" width="52.2" height="1.5" />
        <rect x="20.3" y="47.3" width="38.3" height="1.5" />
        <rect x="26.3" y="41.8" width="32.4" height="1.5" />
    </g>
</svg>