<svg xmlns="http://www.w3.org/2000/svg" version="1.1" x="0px" y="0px"
viewBox="0 0 65 81.25" enable-background="new 0 0 65 65">
    <g>
        <path d="M60.7,18.6L60.7,18.6L60.7,18.6l-6.2-9.7V3.5c0-2.1-1.7-3.8-3.8-3.8H14.2c-2.1,0-3.8,1.7-3.8,3.8v5.3l-5.9,9.3l-0.2,0.4   l0,0h0c0,3.4,2.8,6.2,6.2,6.2v36.7c0,2.1,1.7,3.8,3.8,3.8h36.6c2.1,0,3.8-1.7,3.8-3.8V24.8C57.9,24.8,60.7,22,60.7,18.6z M12,24.6   c1.8-0.4,3.2-1.6,4.1-3.1c1.1,1.9,3.1,3.3,5.5,3.3s4.4-1.3,5.5-3.3c1.1,1.9,3.1,3.3,5.5,3.3c2.4,0,4.4-1.3,5.5-3.3   c1.1,1.9,3.1,3.3,5.5,3.3c2.4,0,4.4-1.3,5.5-3.3c0.8,1.5,2.3,2.7,4.1,3.1v31.8H12V24.6z M36.1,9.7l1,8.1h-9.2l1-8.1H36.1z    M37.2,19.3c-0.4,2.3-2.3,4-4.7,4c-2.4,0-4.3-1.7-4.7-4H37.2z M38.6,17.8l-1-8.1h7.1l3.1,8.1H38.6z M48.1,19.3   c-0.4,2.3-2.3,4-4.7,4c-2.4,0-4.3-1.7-4.7-4H48.1z M27.4,9.7l-1,8.1h-9.2l3.1-8.1H27.4z M26.2,19.3c-0.4,2.3-2.3,4-4.7,4   c-2.4,0-4.3-1.7-4.7-4H26.2z M49.4,17.8l-3.1-8.1h7l5.1,8.1H49.4z M14.2,1.3h36.6c1.2,0,2.3,1,2.3,2.3v4.7H12V3.5   C12,2.3,13,1.3,14.2,1.3z M11.7,9.7h7l-3.1,8.1H6.5L11.7,9.7z M5.9,19.3h9.3c-0.4,2.3-2.3,4-4.7,4C8.2,23.3,6.2,21.6,5.9,19.3z    M50.8,63.8H14.2c-1.2,0-2.3-1-2.3-2.3v-3.6H53v3.6C53,62.7,52,63.8,50.8,63.8z M54.5,23.3c-2.4,0-4.3-1.7-4.7-4h9.3   C58.8,21.6,56.8,23.3,54.5,23.3z"
        />
        <rect x="24.8" y="4" width="9.6" height="1.5" />
        <rect x="39.4" y="4" width="1.5" height="1.5" />
        <rect x="36.4" y="4" width="1.5" height="1.5" />
        <path d="M36.7,60.2h-8.3c-0.4,0-0.8,0.3-0.8,0.8c0,0.4,0.3,0.8,0.8,0.8h8.3c0.4,0,0.8-0.3,0.8-0.8C37.4,60.5,37.1,60.2,36.7,60.2z"
        />
        <path d="M32.5,39.1c3,0,5.4-2.4,5.4-5.4c0-3-2.4-5.4-5.4-5.4c-3,0-5.4,2.4-5.4,5.4C27.1,36.7,29.5,39.1,32.5,39.1z M32.5,29.8   c2.2,0,3.9,1.8,3.9,3.9c0,2.2-1.8,3.9-3.9,3.9c-2.2,0-3.9-1.8-3.9-3.9C28.6,31.5,30.3,29.8,32.5,29.8z"
        />
        <path d="M43.4,45.4c0-0.9-0.3-1.8-0.8-2.7c-0.5-0.9-1.4-1.7-2.5-2.1l-3.9-1.4l-3.3,6.2h-0.9l-3.3-6.2l-3.9,1.4   c-1.1,0.4-1.9,1.1-2.5,2.1c-0.5,0.9-0.8,1.8-0.8,2.7c0,0-0.4,3.4-0.5,6.7l0,0.8H44l0-0.8C43.8,48.7,43.4,45.4,43.4,45.4z M40,51.3   l-0.2-3.5l-1.5,0.1l0.2,3.4H26.5l0.2-3.4l-1.5-0.1L25,51.3h-2.4c0.2-3,0.5-5.8,0.5-5.9c0-0.8,0.3-1.5,0.6-2c0.4-0.6,1-1.1,1.7-1.4   L28,41l3.2,5.9h2.7L37,41l2.6,0.9c0.7,0.3,1.3,0.8,1.7,1.4c0.3,0.5,0.6,1.2,0.6,2.1c0,0,0.3,2.9,0.5,5.8H40z"
        />
    </g>
</svg>