<svg xmlns="http://www.w3.org/2000/svg" version="1.1" x="0px" y="0px"
viewBox="0 0 100 100">
    <g transform="translate(0,-952.36218)">
        <path style="text-indent:0;text-transform:none;direction:ltr;block-progression:tb;baseline-shift:baseline;color:#000000;enable-background:accumulate;"
        d="m 35.999904,958.36699 c -3.29,0 -6,2.71 -6,6 0,1.6134 0.6664,3.0731 1.7188,4.1562 l -6.4688,13.8438 -13.25,0 c -3.2894,0 -6,2.7106 -6,6 l 0,8 c 0,3.10432 2.4011,5.68721 5.4375,5.96881 l 8.625,36.4687 a 2.0002,2.0002 0 0 0 1.9375,1.5625 l 49.875,0 c 0.1273,0.1159 0.2452,0.2311 0.375,0.3438 2.305,2.001 5.1157,3.67 7.6562,5.3124 0.689,0.4611 1.5454,0.4297 2.1876,0 2.5405,-1.6424 5.3512,-3.3114 7.6562,-5.3124 2.305,-2.001 4.25,-4.5051 4.25,-7.6876 l 0,-12.6562 c 0.012,-0.8226 -0.54,-1.6235 -1.3125,-1.9062 l -7.3125,-2.6563 3.1875,-13.4687 c 3.0365,-0.2816 5.4375,-2.86449 5.4375,-5.96881 l 0,-8 c 0,-3.2894 -2.7106,-6 -6,-6 l -13.25,0 -6.4688,-13.8438 c 1.0524,-1.0831 1.7188,-2.5428 1.7188,-4.1562 0,-3.29 -2.71,-6 -6,-6 -3.29,0 -6,2.71 -6,6 0,3.29 2.71,6 6,6 0.239,0 0.4866,-4e-4 0.7188,-0.031 l 5.5937,12.0312 -40.625,0 5.5937,-12.0312 c 0.232,0.028 0.4798,0.031 0.7188,0.031 3.29,0 6,-2.71 6,-6 0,-3.29 -2.71,-6 -6,-6 z m 0,4 c 1.1283,0 2,0.8717 2,2 0,1.1283 -0.8717,2 -2,2 -1.1283,0 -2,-0.8717 -2,-2 0,-1.1283 0.8717,-2 2,-2 z m 28,0 c 1.1283,0 2,0.8717 2,2 0,1.1283 -0.8717,2 -2,2 -1.1283,0 -2,-0.8717 -2,-2 0,-1.1283 0.8717,-2 2,-2 z m -52,24 76,0 c 1.1425,0 2,0.8575 2,2 l 0,8 c 0,1.1425 -0.8575,2 -2,2 l -76,0 c -1.1425,0 -2,-0.8575 -2,-2 l 0,-8 c 0,-1.1425 0.8575,-2 2,-2 z m 3.5312,16.00001 12.8126,0 6.25,34 -11.0313,0 -8.0313,-34 z m 16.875,0 15.5938,0 0,34 -9.3438,0 -6.25,-34 z m 19.5938,0 15.5938,0 -6.25,34 -9.3438,0 0,-34 z m 19.6562,0 12.8126,0 -2.8438,12.0938 c -0.4974,-0.1542 -1.0895,-0.087 -1.3125,0 l -11,4 c -0.2789,0.102 -0.5136,0.2862 -0.7187,0.5 l 3.0624,-16.5938 z m 9.3438,16.125 9,3.2812 0,11.25 c 0,1.5287 -0.9691,3.0017 -2.875,4.6563 -1.618,1.4047 -3.9027,2.8273 -6.125,4.25 -2.2223,-1.4227 -4.507,-2.8453 -6.125,-4.25 -1.9059,-1.6546 -2.875,-3.1276 -2.875,-4.6563 l 0,-11.25 9,-3.2812 z m -13,3.75 0,10.7812 c 0,1.2089 0.3069,2.3212 0.7812,3.3438 l -3.375,0 2.5938,-14.125 z"
        fill-opacity="1" stroke="none" marker="none" visibility="visible" display="inline"
        overflow="visible" />
    </g>
</svg>