<svg xmlns="http://www.w3.org/2000/svg" data-name="Layer 1" viewBox="0 0 100 100"
x="0px" y="0px">
    <path d="M87.5,31.7H77.21v-18A12.22,12.22,0,0,0,65,1.5H14A12.22,12.22,0,0,0,1.75,13.71V55A12.22,12.22,0,0,0,14,67.19h6.13v14a2.5,2.5,0,0,0,4.27,1.77L40.1,67.19h3v6.58A10.76,10.76,0,0,0,53.8,84.52H66.14L79.41,97.77A2.5,2.5,0,0,0,83.68,96V84.52H87.5A10.76,10.76,0,0,0,98.25,73.77V42.45A10.76,10.76,0,0,0,87.5,31.7ZM39.06,62.19a2.5,2.5,0,0,0-1.77.73L25.09,75.11V64.69a2.5,2.5,0,0,0-2.5-2.5H14A7.21,7.21,0,0,1,6.75,55V13.71A7.21,7.21,0,0,1,14,6.5H65a7.21,7.21,0,0,1,7.21,7.21V55A7.21,7.21,0,0,1,65,62.19ZM93.25,73.77a5.75,5.75,0,0,1-5.75,5.75H81.18a2.5,2.5,0,0,0-2.5,2.5v8l-9.74-9.72a2.5,2.5,0,0,0-1.77-.73H53.8A5.75,5.75,0,0,1,48,73.77V67.19H65A12.22,12.22,0,0,0,77.21,55V36.7H87.5a5.75,5.75,0,0,1,5.75,5.75Z"
    />
    <path d="M53.72,19.4H31.34v-1a6,6,0,0,0-6-6H23.38a2.5,2.5,0,0,0,0,5h1.95a1,1,0,0,1,1,1V39a7.21,7.21,0,0,0,7.21,7.21H51.85a2.5,2.5,0,0,0,0-5H33.54A2.21,2.21,0,0,1,31.34,39V36.65H50.75a5.47,5.47,0,0,0,5.47-5.47V21.9A2.5,2.5,0,0,0,53.72,19.4Zm-2.5,11.79a.47.47,0,0,1-.47.47H31.34V24.4H51.22Z"
    />
    <circle cx="34.69" cy="52.53" r="2.93" />
    <circle cx="48.03" cy="52.53" r="2.93" />
</svg>