<?xml version="1.0" encoding="UTF-8" ?>
<svg width="94px" height="95px" viewBox="0 0 94 95" version="1.1" xmlns="http://www.w3.org/2000/svg">
    <g id="Page-1" stroke="none" stroke-width="1" fill-rule="evenodd">
        <g id="community" transform="translate(-3.000000, 0.000000)" fill-rule="nonzero">
            <g id="Group" transform="translate(3.000000, 0.000000)">
                <path d="M85.2,13.8 L93.6,32.6 C93.6,33.6 92.9,34.5 91.9,34.5 L86.6,34.5 L86.6,50.1 L84.6,50.1 L84.6,49.6 L76.7,37.1 C76.4,35.7 75,34.7 73.4,34.7 L41.8,34.7 L39.2,34.7 L36.6,34.7 L36.4,34.5 L31.1,30.4 L22.3,23.5 L4.1,39 L7,39 L7,40.7 L7,74.9 L10.6,74.9 C10.5,75.4 10.4,75.8 10.3,76.3 L10.3,76.5 C10.2,77 10.1,77.6 10.1,78.1 L6.6,78.1 C5.1,78.1 3.8,76.9 3.8,75.4 L3.8,42.2 L2.7,42.2 C1.2,42.2 0,40.8 0,39 L0,38.3 L22.2,19.4 L32.4,27.4 L38.5,13.8 C38.5,12.8 39.3,11.9 40.2,11.9 L61.9,0.9 L83.6,11.9 C84.5,11.9 85.2,12.8 85.2,13.8 Z"
                id="Shape"></path>
                <path d="M86.7,50.1 L86.7,77.1 C86.7,77.8 85.9,78.4 85,78.4 L78.9,78.4 L78.9,53.1 L81.4,53.1 C83.2,53.1 84.7,51.7 84.7,50.1 L86.7,50.1 Z"
                id="Shape"></path>
                <path d="M32.8,70.7 L32.8,70.7 L32.8,70.6 C32.8,70.6 32.8,70.6 32.8,70.5 C32.8,70.5 32.8,70.5 32.8,70.4 C32.8,70.4 32.8,70.3 32.7,70.3 C32.4,69.6 32,69 31.5,68.4 L31.5,68.4 C31.2,67.9 31,67.2 30.8,66.5 C30.7,66.2 30.7,65.9 30.6,65.5 C30.6,65.2 30.5,64.8 30.5,64.4 C30.5,62.9 31.6,60 31.6,60 L31.6,57 L31.6,49.5 L26.4,49.5 L33.5,38.2 L35.6,38.2 L40.4,38.2 L43.7,38.2 L73.4,38.2 L80.5,49.5 L75.3,49.5 L75.3,78.3 L52.9,78.3 L52.9,78.3 C53.1,78.7 53.2,79.1 53.4,79.5 C53.5,79.7 53.5,79.9 53.6,80 C53.7,80.4 53.9,80.9 54,81.3 L52.4,81.7 L51.8,81.7 L50.8,82 C50.7,81.5 50.5,81 50.3,80.5 C50.2,80.3 50.2,80.1 50.1,79.9 C50,79.6 49.8,79.2 49.6,78.9 C49.5,78.7 49.4,78.4 49.3,78.2 C48.2,76.1 46.9,74.4 45.3,73.2 L45.2,73.1 C42.9,71.1 44.1,69.1 44.9,68 C45.5,67 46.2,66 46.2,64.2 C46.2,60.8 43.6,58 40.2,57.9 C40.2,57.9 40.2,57.9 40.1,57.9 L40.1,57.9 L40,57.9 L39.9,57.9 C39.9,57.9 39.9,57.9 39.8,57.9 C38.7,58 37.6,58.3 36.6,59 C36.3,59.2 36,59.4 35.7,59.7 C34.5,60.9 33.9,62.5 33.7,64.3 C33.6,65.9 33.9,66.5 35,68.1 C35.2,68.4 35.5,68.8 35.7,69.2 C36.1,70 36.3,71 35.7,72 C35.5,72.5 35.2,72.8 34.7,73.2 L33.2,71.6 L33.2,71.6 L33.2,71.6 L31.8,71.5 C32,71.3 32.2,71.2 32.4,71 C32.5,71 32.5,70.9 32.6,70.9 L32.6,70.9 C32.7,70.8 32.8,70.7 32.8,70.7 Z M47.2,71.1 L47.4,70.9 L47.4,70.9 L47.2,71.1 Z"
                id="Shape"></path>
                <path d="M55,89.3 L55,89.6 C54.2,93.5 44.3,94.1 39.1,94.1 C33.9,94 25.8,93.3 25,89.6 L25,89.3 C25,87.7 25.1,86.2 25.4,84.7 C25.5,84.3 25.5,83.9 25.6,83.5 C25.6,83.3 25.7,83.2 25.7,83 C25.8,82.7 25.8,82.5 25.9,82.2 C25.1,82.3 24.2,82.3 23.3,82.3 L23,82.3 C16.2,82.3 12.8,81.1 12.4,80.4 C12.4,79.1 12.5,77.8 12.8,76.5 L12.8,76.3 C13.6,72 15.5,68.4 18.2,66.3 L18.3,66.2 C20.2,64.5 19.2,63 18.5,61.9 C17.9,61 17.3,60 17.3,58.4 C17.3,55.7 19.1,53.4 21.7,52.7 L23.1,52.5 L23.1,52.5 L24.1,52.6 C24.4,52.8 24.8,52.9 25.2,52.9 C26.4,53.4 27.5,54.3 28.1,55.5 C28.1,55.5 29.3,58.3 27.6,61.8 C27.1,62.9 25.9,64.4 27.8,66.1 L27.9,66.2 L28,66.3 C28.3,66.5 28.6,66.8 28.9,67.1 C29.2,67.4 29.5,67.7 29.8,68.1 C30.5,69 31.2,70.1 31.8,71.3 L33.2,71.4 L33.2,71.4 L33.2,71.4 L34.7,73 L34.6,73.1 L34.5,73.2 C34.3,73.3 34.1,73.5 34,73.7 C33.2,74.4 32.5,75.2 31.9,76.2 C31.7,76.5 31.5,76.7 31.3,77 L31.2,77.1 C30.8,77.8 30.4,78.6 30,79.4 C29.5,80.5 29.1,81.7 28.8,82.9 C28.8,83.1 28.7,83.2 28.7,83.4 C28.3,85.1 28.1,86.9 28.1,88.7 C28.6,89.2 31.8,90.5 38.9,90.6 L39,90.6 C46.5,90.6 51.1,89.3 51.7,88.7 C51.7,86.3 51.3,84 50.7,81.9 L51.7,81.6 L52.3,81.6 L53.9,81.2 C53.9,81.3 54,81.5 54,81.6 C54.7,84.2 55,86.7 55,89.3 Z"
                id="Shape"></path>
                <polygon id="Shape" points="47.4 70.9 47.2 71.1 47.3 70.9"></polygon>
                <path d="M32.6,70.3 C32.5,70.2 32.4,70 32.3,69.9 C32,69.5 31.7,69 31.4,68.4 C31.9,69 32.3,69.7 32.6,70.3 Z"
                id="Shape"></path>
            </g>
        </g>
    </g>
</svg>