<svg xmlns="http://www.w3.org/2000/svg" version="1.1" x="0px" y="0px"
viewBox="0 0 100 100">
    <g transform="translate(0,-952.36218)">
        <path style="text-indent:0;text-transform:none;direction:ltr;block-progression:tb;baseline-shift:baseline;color:#000000;enable-background:accumulate;"
        d="m 34,958.36217 c -3.29,0 -6,2.71 -6,6 0,1.6134 0.6665,3.0732 1.7188,4.1562 l -6.4688,13.8438 -13.25,0 c -3.2894,0 -6,2.71062 -6,6.00002 l 0,8 c 0,3.1043 2.4011,5.68711 5.4375,5.96881 l 8.625,36.4687 A 2.0002,2.0002 0 0 0 20,1040.3622 l 47.5312,0 c 2.9368,3.6483 7.439,6 12.4688,6 8.8129,0 16,-7.1871 16,-16 0,-7.5664 -5.299,-13.9437 -12.375,-15.5938 l 2.9375,-12.4374 C 89.599,1002.0488 92,999.46649 92,996.36219 l 0,-8 c 0,-3.2894 -2.7106,-6.00002 -6,-6.00002 l -13.25,0 -6.4688,-13.8438 c 1.0523,-1.0831 1.7188,-2.5428 1.7188,-4.1562 0,-3.29 -2.71,-6 -6,-6 -3.29,0 -6,2.71 -6,6 0,3.29 2.71,6 6,6 0.239,0 0.4866,-2e-4 0.7188,-0.031 l 5.5937,12.0312 -40.625,0 5.5937,-12.0312 c 0.232,0.028 0.4798,0.031 0.7188,0.031 3.29,0 6,-2.71 6,-6 0,-3.29 -2.71,-6 -6,-6 z m 0,4 c 1.1283,0 2,0.8717 2,2 0,1.1283 -0.8717,2 -2,2 -1.1283,0 -2,-0.8717 -2,-2 0,-1.1283 0.8717,-2 2,-2 z m 28,0 c 1.1283,0 2,0.8717 2,2 0,1.1283 -0.8717,2 -2,2 -1.1283,0 -2,-0.8717 -2,-2 0,-1.1283 0.8717,-2 2,-2 z m -52,24.00002 76,0 c 1.1425,0 2,0.8575 2,2 l 0,8 c 0,1.1425 -0.8575,2 -2,2 l -76,0 c -1.1425,0 -2,-0.8575 -2,-2 l 0,-8 c 0,-1.1425 0.8575,-2 2,-2 z m 3.5312,16.00001 12.8126,0 6.25,34 -11.0313,0 -8.0313,-34 z m 16.875,0 15.5938,0 0,34 -9.3438,0 -6.25,-34 z m 19.5938,0 15.5938,0 -6.25,34 -9.3438,0 0,-34 z m 19.6562,0 12.8126,0 -2.8438,12.0312 c -5.9335,0.1398 -11.0744,3.5093 -13.7188,8.4376 l 3.75,-20.4688 z m 10.3438,16 c 6.6511,0 12,5.3489 12,12 0,6.6511 -5.3489,12 -12,12 -6.6511,0 -12,-5.3489 -12,-12 0,-6.6511 5.3489,-12 12,-12 z m 0,2 c -1.1046,0 -2,0.8954 -2,2 l 0,8 c 0,1.1046 0.8954,2 2,2 l 7,0 c 1.1046,0 2,-0.8954 2,-2 0,-1.1046 -0.8954,-2 -2,-2 l -5,0 0,-6 c 0,-1.1046 -0.8954,-2 -2,-2 z m -15.8438,12 c 0.1759,1.3921 0.4883,2.7416 1,4 l -1.75,0 0.75,-4 z"
        fill-opacity="1" stroke="none" marker="none" visibility="visible" display="inline"
        overflow="visible" />
    </g>
</svg>