<svg xmlns="http://www.w3.org/2000/svg" version="1.1" x="0px" y="0px"
viewBox="0 0 100 100">
    <g transform="translate(0,-952.36218)">
        <path style="text-indent:0;text-transform:none;direction:ltr;block-progression:tb;baseline-shift:baseline;color:#000000;enable-background:accumulate;"
        d="m 36,961.36217 c -3.29002,0 -6,2.71 -6,6 0,1.6134 0.66655,3.073 1.71875,4.1562 l -6.46875,13.8438 -13.25,0 c -3.28936,0 -6,2.7106 -6,6 l 0,8 c 0,3.10433 2.40105,5.68733 5.4375,5.96883 l 8.625,36.4687 A 2.0002,2.0002 0 0 0 22,1043.3622 l 56,0 a 2.0002,2.0002 0 0 0 1.9375,-1.5625 l 8.625,-36.4687 C 91.59895,1005.0495 94,1002.4665 94,999.36217 l 0,-8 c 0,-3.2894 -2.71064,-6 -6,-6 l -13.25,0 -6.46875,-13.8438 c 1.0522,-1.0832 1.71875,-2.5428 1.71875,-4.1562 0,-3.29 -2.70998,-6 -6,-6 -3.29002,0 -6,2.71 -6,6 0,3.29 2.70998,6 6,6 0.23897,0 0.48672,0 0.71875,-0.031 l 5.59375,12.0312 -40.625,0 5.59375,-12.0312 c 0.23203,0.028 0.47978,0.031 0.71875,0.031 3.29002,0 6,-2.71 6,-6 0,-3.29 -2.70998,-6 -6,-6 z m 0,4 c 1.12826,0 2,0.8717 2,2 0,1.1283 -0.87174,2 -2,2 -1.12826,0 -2,-0.8717 -2,-2 0,-1.1283 0.87174,-2 2,-2 z m 28,0 c 1.12826,0 2,0.8717 2,2 0,1.1283 -0.87174,2 -2,2 -1.12826,0 -2,-0.8717 -2,-2 0,-1.1283 0.87174,-2 2,-2 z m -52,24 76,0 c 1.14254,0 2,0.8575 2,2 l 0,8 c 0,1.14253 -0.85746,2.00003 -2,2.00003 l -76,0 c -1.14254,0 -2,-0.8575 -2,-2.00003 l 0,-8 c 0,-1.1425 0.85746,-2 2,-2 z m 3.53125,16.00003 12.8125,0 6.25,34 -11.03125,0 -8.03125,-34 z m 16.875,0 15.59375,0 0,34 -9.34375,0 -6.25,-34 z m 19.59375,0 15.59375,0 -6.25,34 -9.34375,0 0,-34 z m 19.65625,0 12.8125,0 -8.03125,34 -11.03125,0 6.25,-34 z"
        fill-opacity="1" stroke="none" marker="none" visibility="visible" display="inline"
        overflow="visible" />
    </g>
</svg>