<svg xmlns="http://www.w3.org/2000/svg" version="1.1" x="0px" y="0px"
viewBox="0 0 100 100">
    <g transform="translate(0,-952.36218)">
        <path style="text-indent:0;text-transform:none;direction:ltr;block-progression:tb;baseline-shift:baseline;color:#000000;enable-background:accumulate;"
        d="m 34,958.36217 c -3.29,0 -6,2.71 -6,6 0,1.6134 0.6664,3.0731 1.7188,4.1562 l -6.4688,13.8438 -13.25,0 c -3.2894,0 -6,2.7106 -6,6 l 0,8 c 0,3.1043 2.4011,5.68723 5.4375,5.96883 l 8.625,36.4687 A 2.0002,2.0002 0 0 0 20,1040.3622 l 50,0 0,4 c 1e-4,1.0472 0.9528,1.9999 2,2 l 22,0 c 1.0472,-10e-5 1.9999,-0.9528 2,-2 l 0,-16 c -1e-4,-1.0472 -0.9528,-1.9999 -2,-2 l -2,0 0,-3 c 0,-2.6856 -0.9817,-5.042 -2.6562,-6.625 -1.5027,-1.4204 -3.5109,-2.1978 -5.625,-2.3438 l 2.8437,-12.0624 C 89.599,1002.0494 92,999.46647 92,996.36217 l 0,-8 c 0,-3.2894 -2.7106,-6 -6,-6 l -13.25,0 -6.4688,-13.8438 c 1.0524,-1.0831 1.7188,-2.5428 1.7188,-4.1562 0,-3.29 -2.71,-6 -6,-6 -3.29,0 -6,2.71 -6,6 0,3.29 2.71,6 6,6 0.239,0 0.4866,-4e-4 0.7188,-0.031 l 5.5937,12.0312 -40.625,0 5.5937,-12.0312 c 0.232,0.028 0.4798,0.031 0.7188,0.031 3.29,0 6,-2.71 6,-6 0,-3.29 -2.71,-6 -6,-6 z m 0,4 c 1.1283,0 2,0.8717 2,2 0,1.1283 -0.8717,2 -2,2 -1.1283,0 -2,-0.8717 -2,-2 0,-1.1283 0.8717,-2 2,-2 z m 28,0 c 1.1283,0 2,0.8717 2,2 0,1.1283 -0.8717,2 -2,2 -1.1283,0 -2,-0.8717 -2,-2 0,-1.1283 0.8717,-2 2,-2 z m -52,24 76,0 c 1.1425,0 2,0.8575 2,2 l 0,8 c 0,1.1425 -0.8575,2 -2,2 l -76,0 c -1.1425,0 -2,-0.8575 -2,-2 l 0,-8 c 0,-1.1425 0.8575,-2 2,-2 z m 3.5312,16.00003 12.8126,0 6.25,34 -11.0313,0 -8.0313,-34 z m 16.875,0 15.5938,0 0,34 -9.3438,0 -6.25,-34 z m 19.5938,0 15.5938,0 -6.25,34 -9.3438,0 0,-34 z m 19.6562,0 12.8126,0 -3,12.625 c -1.043,0.3955 -1.9994,0.9813 -2.8126,1.75 -1.6747,1.583 -2.6562,3.9394 -2.6562,6.625 l 0,3 c -0.72,-10e-5 -1.4828,0 -2.1875,0 -0.9832,0.093 -1.8168,1.0125 -1.8125,2 l 0,8 -6.5938,0 6.25,-34 z m 13.3438,16 c 1.4975,0 2.7378,0.4723 3.5938,1.2812 0.8557,0.8092 1.4062,1.9724 1.4062,3.7188 l 0,3 -10,0 0,-3 c 0,-1.7464 0.5503,-2.9096 1.4062,-3.7188 0.8558,-0.8089 2.0963,-1.2812 3.5938,-1.2812 z m -9,12 18,0 0,12 -18,0 0,-12 z"
        fill-opacity="1" stroke="none" marker="none" visibility="visible" display="inline"
        overflow="visible" />
    </g>
</svg>