<svg xmlns="http://www.w3.org/2000/svg" version="1.0" x="0px" y="0px"
viewBox="0 0 100 100" enable-background="new 0 0 100 100">
    <g>
        <path d="M92,24H60V8c0-2.21-1.79-4-4-4H8C5.79,4,4,5.79,4,8v84c0,2.21,1.79,4,4,4h48c2.21,0,4-1.79,4-4V71.98h32c2.21,0,4-1.79,4-4   V28C96,25.79,94.21,24,92,24z M56,92H8V8h48v16h-2V14c0-2.21-1.79-4-4-4H14c-2.21,0-4,1.79-4,4v62c0,2.21,1.79,4,4,4h36   c2.21,0,4-1.79,4-4v-4.02h2V92z M21.41,71.98H50V76H14V14h36v10H21.41c-2.21,0-4,1.79-4,4v39.98   C17.41,70.19,19.2,71.98,21.41,71.98z M92,67.98H60h-4h-2h-4H21.41V28H50h4h2h4h32V67.98z"
        />
        <path d="M75.5,65.14c1.24,0,2.41-0.33,3.41-0.92c0,0,0,0,0,0c1.007,0.585,2.174,0.925,3.422,0.925c3.774,0,6.834-3.06,6.834-6.834   s-3.06-6.834-6.834-6.834c-1.248,0-2.414,0.34-3.421,0.924c-0.001,0-0.001-0.001-0.002-0.001c-1-0.59-2.17-0.92-3.41-0.92   c-3.78,0-6.83,3.06-6.83,6.83C68.67,62.09,71.72,65.14,75.5,65.14z M75.5,55.48c0.2,0,0.4,0.02,0.589,0.06   c-0.377,0.848-0.591,1.784-0.591,2.771c0,0.987,0.213,1.922,0.59,2.769c-0.19,0.04-0.389,0.06-0.589,0.06   c-1.56,0-2.83-1.27-2.83-2.83S73.94,55.48,75.5,55.48z"
        />
        <path d="M54,55c-0.17-0.07-0.37-0.11-0.57-0.11H50H25.81c-0.86,0-1.56,0.7-1.56,1.57v0.29c0,0.86,0.7,1.56,1.56,1.56H50h3.43   c0.2,0,0.4-0.04,0.57-0.11c0.59-0.22,1-0.79,1-1.45v-0.29C55,55.79,54.59,55.23,54,55z"
        />
        <path d="M36.348,61.728H25.811c-0.864,0-1.565,0.701-1.565,1.565v0.286c0,0.864,0.701,1.565,1.565,1.565h10.537   c0.864,0,1.565-0.701,1.565-1.565v-0.286C37.914,62.428,37.213,61.728,36.348,61.728z"
        />
        <path d="M37.91,30.83H24.25V44.5h13.66V30.83z M33.91,40.5h-5.66v-5.67h5.66V40.5z"
        />
        <circle cx="32" cy="86" r="4" />
    </g>
</svg>