<?xml version="1.0" encoding="UTF-8" ?>
<svg width="376px" height="512px" viewBox="0 0 376 512" version="1.1"
xmlns="http://www.w3.org/2000/svg">
    <g id="Page-1" stroke="none" stroke-width="1" fill-rule="evenodd">
        <g id="conversion" transform="translate(-71.000000, 0.000000)" fill-rule="nonzero">
            <g id="Group" transform="translate(71.000000, 0.000000)">
                <path d="M260.238,144.007 C258.027,144.007 256.199,142.218 256.199,140.007 C256.199,137.797 257.949,136.007 260.152,136.007 L260.238,136.007 C262.441,136.007 264.238,137.796 264.238,140.007 C264.238,142.218 262.441,144.007 260.238,144.007 Z"
                id="Shape"></path>
                <path d="M356.232,24.014 C354.021,24.014 352.193,22.225 352.193,20.014 C352.193,17.803 353.943,16.014 356.146,16.014 L356.232,16.014 C358.435,16.014 360.232,17.803 360.232,20.014 C360.232,22.225 358.436,24.014 356.232,24.014 Z"
                id="Shape"></path>
                <path d="M100.248,8.015 C98.037,8.015 96.209,6.226 96.209,4.015 C96.209,1.804 97.959,0.015 100.162,0.015 L100.248,0.015 C102.451,0.015 104.248,1.804 104.248,4.015 C104.248,6.226 102.451,8.015 100.248,8.015 Z"
                id="Shape"></path>
                <path d="M132.246,56.004 C130.035,56.004 128.207,54.215 128.207,52.004 C128.207,49.793 129.957,48.004 132.16,48.004 L132.246,48.004 C134.449,48.004 136.246,49.793 136.246,52.004 C136.246,54.215 134.449,56.004 132.246,56.004 Z"
                id="Shape"></path>
                <path d="M204.242,96.002 C202.031,96.002 200.203,94.213 200.203,92.002 C200.203,89.792 201.953,88.002 204.156,88.002 L204.242,88.002 C206.444,88.002 208.241,89.791 208.241,92.002 C208.241,94.213 206.444,96.002 204.242,96.002 Z"
                id="Shape"></path>
                <g transform="translate(80.000000, 80.000000)" id="Shape">
                    <path d="M28.005,56.007 C12.568,56.007 0.006,43.445 0.006,28.008 C0.006,12.571 12.568,0.01 28.005,0.01 C43.442,0.01 56.004,12.572 56.004,28.008 C56.004,43.444 43.441,56.007 28.005,56.007 Z M28.005,8.01 C16.974,8.01 8.006,16.982 8.006,28.009 C8.006,39.036 16.974,48.008 28.005,48.008 C39.036,48.008 48.004,39.036 48.004,28.009 C48.003,16.982 39.036,8.01 28.005,8.01 Z"></path>
                    <path d="M28.005,72.006 C12.568,72.006 0.006,59.444 0.006,44.007 C0.006,41.797 1.795,40.007 4.006,40.007 C6.217,40.007 8.006,41.796 8.006,44.007 C8.006,55.034 16.974,64.006 28.005,64.006 C39.036,64.006 48.004,55.034 48.004,44.007 C48.004,41.797 49.793,40.007 52.004,40.007 C54.215,40.007 56.004,41.796 56.004,44.007 C56.003,59.444 43.441,72.006 28.005,72.006 Z"></path>
                    <path d="M28.005,40.008 C25.795,40.008 24.005,38.219 24.005,36.008 L24.005,20.01 C24.005,17.799 25.794,16.01 28.005,16.01 C30.216,16.01 32.005,17.799 32.005,20.01 L32.005,36.009 C32.004,38.219 30.215,40.008 28.005,40.008 Z"></path>
                    <path d="M4.006,48.008 C1.795,48.008 0.006,46.219 0.006,44.008 L0.006,28.009 C0.006,25.799 1.795,24.009 4.006,24.009 C6.217,24.009 8.006,25.798 8.006,28.009 L8.006,44.008 C8.006,46.219 6.217,48.008 4.006,48.008 Z"></path>
                    <path d="M52.003,48.008 C49.792,48.008 48.003,46.219 48.003,44.008 L48.003,28.009 C48.003,25.799 49.792,24.009 52.003,24.009 C54.214,24.009 56.003,25.798 56.003,28.009 L56.003,44.008 C56.003,46.219 54.214,48.008 52.003,48.008 Z"></path>
                </g>
                <g transform="translate(311.000000, 48.000000)" id="Shape">
                    <path d="M24.991,48.01 C11.758,48.01 0.993,37.245 0.993,24.011 C0.993,10.777 11.758,0.012 24.991,0.012 C38.224,0.012 48.99,10.777 48.99,24.011 C48.99,37.245 38.225,48.01 24.991,48.01 Z M24.991,8.012 C16.172,8.012 8.992,15.187 8.992,24.011 C8.992,32.835 16.172,40.01 24.991,40.01 C33.811,40.01 40.99,32.835 40.99,24.011 C40.99,15.187 33.812,8.012 24.991,8.012 Z"></path>
                    <path d="M24.991,64.009 C11.758,64.009 0.993,53.244 0.993,40.01 C0.993,37.8 2.782,36.01 4.992,36.01 C7.203,36.01 8.992,37.799 8.992,40.01 C8.992,48.834 16.172,56.009 24.991,56.009 C33.811,56.009 40.99,48.834 40.99,40.01 C40.99,37.8 42.779,36.01 44.99,36.01 C47.201,36.01 48.99,37.799 48.99,40.01 C48.99,53.244 38.225,64.009 24.991,64.009 Z"></path>
                    <path d="M4.992,43.01 C2.782,43.01 0.993,41.221 0.993,39.01 L0.993,24.011 C0.993,21.801 2.782,20.011 4.992,20.011 C7.203,20.011 8.992,21.8 8.992,24.011 L8.992,39.01 C8.992,41.221 7.203,43.01 4.992,43.01 Z"></path>
                    <path d="M44.99,43.635 C42.779,43.635 40.99,41.846 40.99,39.635 L40.99,24.011 C40.99,21.801 42.779,20.011 44.99,20.011 C47.201,20.011 48.99,21.8 48.99,24.011 L48.99,39.635 C48.99,41.846 47.201,43.635 44.99,43.635 Z"></path>
                    <path d="M24.991,32.011 C22.781,32.011 20.992,30.222 20.992,28.011 L20.992,20.012 C20.992,17.801 22.781,16.012 24.991,16.012 C27.202,16.012 28.991,17.801 28.991,20.012 L28.991,28.011 C28.991,30.222 27.202,32.011 24.991,32.011 Z"></path>
                </g>
                <path d="M188,391.992 C163.064,391.992 154.111,383.758 153.174,382.82 C152.424,382.07 152.002,381.054 152.002,379.992 L152.002,337.557 L0.871,146.487 C-0.496,144.757 -0.199,142.241 1.527,140.87 C3.253,139.499 5.777,139.784 7.152,141.526 L159.142,333.682 C159.697,334.393 160.001,335.26 160.001,336.166 L160.001,378.015 C162.845,379.843 171.141,383.992 188,383.992 C204.812,383.992 213.116,379.867 215.999,378.008 L215.999,336.167 C215.999,335.261 216.304,334.394 216.858,333.683 L368.848,141.527 C370.223,139.785 372.746,139.5 374.473,140.871 C376.2,142.242 376.496,144.758 375.129,146.488 L223.997,337.558 L223.997,379.993 C223.997,381.055 223.575,382.071 222.825,382.821 C221.889,383.758 212.937,391.992 188,391.992 Z"
                id="Shape"></path>
                <path d="M172.001,367.993 C169.791,367.993 168.001,366.204 168.001,363.993 L168.001,323.996 C168.001,321.785 169.79,319.996 172.001,319.996 C174.212,319.996 176.001,321.785 176.001,323.996 L176.001,363.993 C176,366.204 174.211,367.993 172.001,367.993 Z"
                id="Shape"></path>
                <path d="M171.829,328.121 C170.657,328.121 169.494,327.605 168.704,326.613 L53.36,181.896 C51.977,180.169 52.266,177.654 53.993,176.275 C55.712,174.912 58.235,175.181 59.61,176.912 L174.954,321.63 C176.337,323.357 176.048,325.872 174.321,327.247 C173.587,327.84 172.704,328.121 171.829,328.121 Z"
                id="Shape"></path>
                <path d="M188,168.005 C168.759,168.005 0.011,167.333 0.011,144.006 C0.011,141.795 1.8,140.006 4.011,140.006 C6.027,140.006 7.699,141.498 7.972,143.44 C13.878,150.279 80.592,160.005 188,160.005 C190.211,160.005 192,161.794 192,164.005 C192,166.216 190.211,168.005 188,168.005 Z"
                id="Shape"></path>
                <path d="M188,168.005 C185.79,168.005 184,166.216 184,164.005 C184,161.794 185.789,160.005 188,160.005 C296.377,160.005 363.326,150.099 368.177,143.256 C368.177,141.045 369.872,139.631 372.083,139.631 C374.294,139.631 375.989,141.795 375.989,144.006 C375.989,167.333 207.241,168.005 188,168.005 Z"
                id="Shape"></path>
                <path d="M148.002,128.484 C145.838,128.484 144.057,126.757 144.002,124.582 C143.947,122.371 145.697,120.54 147.908,120.485 C160.813,120.173 174.234,120.008 187.999,120.008 C190.21,120.008 191.999,121.797 191.999,124.008 C191.999,126.219 190.21,128.008 187.999,128.008 C174.296,128.008 160.938,128.172 148.095,128.485 C148.065,128.484 148.034,128.484 148.002,128.484 Z"
                id="Shape"></path>
                <path d="M3.917,148.382 C1.706,148.382 0.011,146.218 0.011,144.007 C0.011,139.843 0.011,131.184 67.632,124.86 C69.952,124.684 71.788,126.27 71.991,128.473 C72.194,130.672 70.577,132.621 68.382,132.828 C13.214,137.984 8.019,144.483 7.823,144.757 C7.824,146.968 6.128,148.382 3.917,148.382 Z"
                id="Shape"></path>
                <path d="M371.989,148.007 C369.973,148.007 368.301,146.515 368.028,144.573 C362.123,137.734 295.408,128.008 188,128.008 C185.79,128.008 184,126.219 184,124.008 C184,121.798 185.789,120.008 188,120.008 C207.241,120.008 375.989,120.68 375.989,144.007 C375.989,146.218 374.2,148.007 371.989,148.007 Z"
                id="Shape"></path>
                <path d="M188,495.985 C154.916,495.985 128.003,469.073 128.003,435.989 C128.003,433.778 129.792,431.989 132.003,431.989 C134.214,431.989 136.003,433.778 136.003,435.989 C136.003,464.659 159.329,487.986 188,487.986 C216.671,487.986 239.997,464.659 239.997,435.989 C239.997,433.778 241.786,431.989 243.997,431.989 C246.208,431.989 247.997,433.778 247.997,435.989 C247.997,469.073 221.084,495.985 188,495.985 Z"
                id="Shape"></path>
                <path d="M188,511.984 C154.916,511.984 128.003,485.072 128.003,451.988 C128.003,449.777 129.792,447.988 132.003,447.988 C134.214,447.988 136.003,449.777 136.003,451.988 C136.003,480.658 159.329,503.984 188,503.984 C216.671,503.984 239.997,480.658 239.997,451.988 C239.997,449.777 241.786,447.988 243.997,447.988 C246.208,447.988 247.997,449.777 247.997,451.988 C247.997,485.072 221.084,511.984 188,511.984 Z"
                id="Shape"></path>
                <path d="M132.003,439.988 C129.792,439.988 128.003,438.199 128.003,435.989 C128.003,419.709 134.394,404.491 146.002,393.133 C147.58,391.594 150.127,391.617 151.658,393.195 C153.205,394.772 153.174,397.303 151.596,398.85 C141.542,408.693 136.003,421.88 136.003,435.989 C136.003,438.199 134.214,439.988 132.003,439.988 Z"
                id="Shape"></path>
                <path d="M243.997,439.988 C241.786,439.988 239.997,438.199 239.997,435.989 C239.997,421.896 234.459,408.701 224.404,398.85 C222.826,397.303 222.795,394.772 224.342,393.195 C225.904,391.633 228.436,391.586 229.998,393.133 C241.606,404.507 247.997,419.725 247.997,435.989 C247.997,438.199 246.208,439.988 243.997,439.988 Z"
                id="Shape"></path>
                <path d="M243.997,455.988 C241.786,455.988 239.997,454.199 239.997,451.988 L239.997,435.989 C239.997,433.778 241.786,431.989 243.997,431.989 C246.208,431.989 247.997,433.778 247.997,435.989 L247.997,451.988 C247.997,454.199 246.208,455.988 243.997,455.988 Z"
                id="Shape"></path>
                <path d="M132.003,455.988 C129.792,455.988 128.003,454.199 128.003,451.988 L128.003,435.989 C128.003,433.778 129.792,431.989 132.003,431.989 C134.214,431.989 136.003,433.778 136.003,435.989 L136.003,451.988 C136.003,454.199 134.214,455.988 132.003,455.988 Z"
                id="Shape"></path>
                <path d="M188,511.984 C185.79,511.984 184,510.195 184,507.984 L184,491.985 C184,489.775 185.789,487.986 188,487.986 C190.211,487.986 192,489.775 192,491.985 L192,507.984 C192,510.195 190.211,511.984 188,511.984 Z"
                id="Shape"></path>
                <path d="M219.998,501.938 C217.788,501.938 215.999,500.149 215.999,497.938 L215.999,481.947 C215.999,479.736 217.788,477.947 219.998,477.947 C222.209,477.947 223.998,479.736 223.998,481.947 L223.998,497.938 C223.998,500.149 222.209,501.938 219.998,501.938 Z"
                id="Shape"></path>
                <path d="M156.002,501.946 C153.792,501.946 152.002,500.157 152.002,497.946 L152.002,481.947 C152.002,479.736 153.791,477.947 156.002,477.947 C158.213,477.947 160.002,479.736 160.002,481.947 L160.002,497.946 C160.001,500.157 158.212,501.946 156.002,501.946 Z"
                id="Shape"></path>
                <path d="M188,463.987 C185.79,463.987 184,462.198 184,459.987 L184,411.99 C184,409.779 185.789,407.99 188,407.99 C190.211,407.99 192,409.779 192,411.99 L192,459.987 C192,462.198 190.211,463.987 188,463.987 Z"
                id="Shape"></path>
                <path d="M204,156.006 C201.789,156.006 200,154.217 200,152.006 C200,147.596 196.414,144.006 192,144.006 C187.586,144.006 184,147.596 184,152.006 C184,154.216 182.211,156.006 180,156.006 C177.789,156.006 176,154.217 176,152.006 C176,143.182 183.18,136.007 192,136.007 C200.82,136.007 207.999,143.182 207.999,152.006 C207.999,154.217 206.21,156.006 204,156.006 Z"
                id="Shape"></path>
                <path d="M60.008,56.012 C53.391,56.012 48.008,50.63 48.008,44.012 C48.008,37.396 53.391,32.013 60.008,32.013 C66.625,32.013 72.008,37.396 72.008,44.012 C72.007,50.63 66.625,56.012 60.008,56.012 Z M60.008,40.013 C57.805,40.013 56.008,41.806 56.008,44.013 C56.008,46.22 57.805,48.013 60.008,48.013 C62.211,48.013 64.008,46.22 64.008,44.013 C64.007,41.806 62.21,40.013 60.008,40.013 Z"
                id="Shape"></path>
                <path d="M275.995,24.014 C269.379,24.014 263.996,18.632 263.996,12.014 C263.996,5.398 269.379,0.015 275.995,0.015 C282.611,0.015 287.994,5.398 287.994,12.014 C287.994,18.632 282.611,24.014 275.995,24.014 Z M275.995,8.015 C273.792,8.015 271.995,9.808 271.995,12.015 C271.995,14.222 273.792,16.015 275.995,16.015 C278.198,16.015 279.995,14.222 279.995,12.015 C279.995,9.808 278.198,8.015 275.995,8.015 Z"
                id="Shape"></path>
                <path d="M247.997,96.002 C239.177,96.002 231.998,88.827 231.998,80.003 C231.998,71.179 239.177,64.004 247.997,64.004 C256.816,64.004 263.996,71.179 263.996,80.003 C263.996,88.827 256.816,96.002 247.997,96.002 Z M247.997,72.003 C243.583,72.003 239.997,75.592 239.997,80.003 C239.997,84.414 243.583,88.003 247.997,88.003 C252.41,88.003 255.996,84.414 255.996,80.003 C255.996,75.592 252.41,72.003 247.997,72.003 Z"
                id="Shape"></path>
                <path d="M24.01,112.001 C15.19,112.001 8.011,104.826 8.011,96.002 C8.011,87.178 15.19,80.003 24.01,80.003 C32.829,80.003 40.009,87.178 40.009,96.002 C40.009,104.826 32.83,112.001 24.01,112.001 Z M24.01,88.002 C19.596,88.002 16.01,91.591 16.01,96.002 C16.01,100.413 19.596,104.002 24.01,104.002 C28.424,104.002 32.009,100.413 32.009,96.002 C32.009,91.591 28.424,88.002 24.01,88.002 Z"
                id="Shape"></path>
                <path d="M188,48.013 C176.969,48.013 168.001,39.041 168.001,28.014 C168.001,16.988 176.969,8.015 188,8.015 C199.031,8.015 207.999,16.987 207.999,28.014 C207.999,39.041 199.031,48.013 188,48.013 Z M188,16.015 C181.383,16.015 176,21.398 176,28.014 C176,34.631 181.383,40.014 188,40.014 C194.617,40.014 200,34.632 200,28.014 C200,21.397 194.617,16.015 188,16.015 Z"
                id="Shape"></path>
                <path d="M188,64.012 C176.969,64.012 168.001,55.04 168.001,44.013 C168.001,41.803 169.79,40.013 172.001,40.013 C174.212,40.013 176.001,41.802 176.001,44.013 C176.001,50.63 181.384,56.013 188.001,56.013 C194.618,56.013 200.001,50.631 200.001,44.013 C200.001,41.803 201.79,40.013 204.001,40.013 C206.211,40.013 208,41.802 208,44.013 C207.999,55.04 199.031,64.012 188,64.012 Z"
                id="Shape"></path>
                <path d="M172.001,48.013 C169.791,48.013 168.001,46.224 168.001,44.013 L168.001,28.014 C168.001,25.804 169.79,24.014 172.001,24.014 C174.212,24.014 176.001,25.803 176.001,28.014 L176.001,44.013 C176,46.224 174.211,48.013 172.001,48.013 Z"
                id="Shape"></path>
                <path d="M204,48.013 C201.789,48.013 200,46.224 200,44.013 L200,28.014 C200,25.804 201.789,24.014 204,24.014 C206.21,24.014 207.999,25.803 207.999,28.014 L207.999,44.013 C207.999,46.224 206.21,48.013 204,48.013 Z"
                id="Shape"></path>
                <path d="M188,36.014 C185.79,36.014 184,34.225 184,32.014 L184,24.014 C184,21.804 185.789,20.014 188,20.014 C190.211,20.014 192,21.803 192,24.014 L192,32.014 C192,34.225 190.211,36.014 188,36.014 Z"
                id="Shape"></path>
            </g>
        </g>
    </g>
</svg>