<?xml version="1.0" encoding="UTF-8" ?>
<svg width="80px" height="50px" viewBox="0 0 80 50" version="1.1" xmlns="http://www.w3.org/2000/svg">
    <g id="Page-1" stroke="none" stroke-width="1" fill-rule="evenodd">
        <g id="cultureEagle" fill-rule="nonzero">
            <path d="M78.732,34.68 L71.634,30.334 C77.192,28.63 78.961,23.29 79.076,20.282 C79.089,19.944 78.961,19.615 78.722,19.376 C78.483,19.136 78.155,19.007 77.816,19.019 L69.047,19.327 C69.861,18.819 70.519,18.402 71.292,17.794 C76.704,13.532 74.028,6.977 71.857,4.107 C71.46,3.582 70.717,3.467 70.179,3.85 L61.959,9.702 C62.295,3.84 58.526,0.819 58.344,0.677 C57.892,0.324 57.248,0.358 56.836,0.758 L48.439,8.884 C48.258,4.9 45.72,2.913 44.089,2.373 C43.698,2.244 43.268,2.333 42.961,2.607 L33.702,10.88 C33.643,10.846 33.587,10.808 33.526,10.775 C30.692,9.241 27.101,9.354 24.988,11.044 C22.923,12.695 22.358,14.548 22.248,15.812 C22.222,16.115 22.226,16.419 22.246,16.721 C20.977,16.459 19.187,16.204 17.199,16.274 C17.188,16.274 17.176,16.275 17.164,16.275 C12.017,16.456 8.083,18.682 5.783,22.527 C3.323,26.639 3.378,30.853 5.928,33.941 C6.404,34.518 6.957,35.032 7.548,35.468 C7.318,35.569 7.085,35.673 6.848,35.778 C5.553,36.355 4.085,37.008 3.329,37.153 C2.226,37.364 1.454,37.84 1.034,38.567 C0.672,39.193 0.615,39.949 0.874,40.696 C1.283,41.878 3.269,43.291 7.158,43.154 C7.931,43.127 8.78,43.038 9.707,42.874 C10.37,42.757 11.085,42.6 11.969,42.201 C12.056,42.483 12.174,42.76 12.322,43.025 C14.309,46.579 21.013,46.622 28.775,46.671 C33.125,46.699 36.377,46.672 38.981,46.58 C40.573,46.524 41.923,46.444 43.133,46.337 C43.619,46.294 44.116,46.231 44.612,46.143 C45.452,46.432 47.898,47.168 50.767,47.067 C52.547,47.004 54.017,46.608 55.216,45.852 C59.445,48.856 63.105,49.658 65.94,49.558 C69.799,49.422 72.131,47.629 72.298,47.496 C72.543,47.302 72.698,47.016 72.728,46.705 C72.758,46.394 72.66,46.084 72.457,45.847 L67.909,40.528 C68.885,40.702 69.799,40.767 70.644,40.737 C76.327,40.537 79.065,36.332 79.101,36.275 C79.265,36.015 79.318,35.699 79.248,35.399 C79.182,35.101 78.995,34.841 78.732,34.68 Z M12.463,33.401 C12.341,32.468 12.752,31.397 13.684,30.216 C14.215,29.543 14.949,29.169 15.927,29.071 C18.432,28.818 22.011,30.469 24.518,32.33 C21.593,32.231 17.279,32.422 12.54,33.756 C12.506,33.644 12.479,33.527 12.463,33.401 Z M9.31,40.61 C5.133,41.347 3.321,40.255 3.039,39.898 C3.015,39.808 3.019,39.741 3.031,39.72 C3.061,39.669 3.251,39.514 3.766,39.414 C4.783,39.219 6.31,38.539 7.788,37.882 C8.709,37.472 9.656,37.051 10.294,36.836 C11.258,37.103 12.183,37.131 12.931,36.859 C13.328,36.715 13.614,36.364 13.676,35.946 C13.682,35.908 13.676,35.87 13.677,35.832 C20.317,34.079 26.091,34.686 27.579,34.891 C28.74,35.869 29.983,36.864 31.293,37.729 C24.432,37.525 15.53,37.344 14.27,37.727 C13.283,38.027 12.533,38.656 12.128,39.504 C10.9,40.274 10.118,40.467 9.31,40.61 Z M42.934,44.045 C39.822,44.319 35.725,44.414 28.793,44.37 C22.34,44.329 15.668,44.287 14.334,41.902 C14.085,41.457 14.023,40.924 14.176,40.544 C14.295,40.249 14.545,40.047 14.925,39.931 C16.153,39.632 27.666,39.873 37.877,40.25 C38.51,40.273 39.038,39.785 39.069,39.156 C39.099,38.526 38.617,37.989 37.988,37.952 C34.941,37.77 31.807,35.436 29.106,33.167 C28.992,33 28.833,32.866 28.645,32.778 C28.334,32.513 28.028,32.25 27.73,31.995 C27.428,31.735 27.135,31.483 26.851,31.241 C24.821,29.516 19.881,26.366 15.698,26.78 C14.088,26.94 12.802,27.616 11.876,28.789 C10.545,30.475 9.974,32.127 10.18,33.698 C10.214,33.958 10.267,34.2 10.335,34.426 C9.467,34.068 8.485,33.415 7.705,32.472 C6.593,31.125 5.121,28.201 7.763,23.784 C11.802,17.031 20.85,18.81 23.005,19.347 C23.238,19.778 23.516,20.189 23.846,20.564 C25.206,22.107 26.94,22.609 28.449,22.556 C28.958,22.538 29.441,22.457 29.876,22.331 C31.25,21.933 32.374,20.633 32.672,19.097 C32.943,17.697 32.462,16.357 31.384,15.512 C30.884,15.121 30.161,15.208 29.768,15.708 C29.376,16.208 29.464,16.931 29.964,17.324 C30.471,17.722 30.488,18.27 30.412,18.659 C30.281,19.336 29.775,19.964 29.236,20.12 C28.729,20.267 26.968,20.622 25.573,19.041 C25.311,18.743 25.097,18.413 24.931,18.065 C24.9,17.939 24.849,17.82 24.782,17.71 C24.581,17.164 24.494,16.585 24.544,16.012 C24.646,14.842 25.297,13.746 26.428,12.842 C27.635,11.877 30.211,11.597 32.433,12.799 C32.598,12.888 32.757,12.985 32.91,13.086 C32.918,13.095 32.922,13.105 32.93,13.114 C33.049,13.247 33.194,13.343 33.349,13.407 C35.229,14.909 36.087,17.447 35.775,20.684 C35.772,20.713 35.776,20.741 35.775,20.769 C34.77,22.321 34.204,24.194 34.276,26.23 C34.46,31.461 38.849,35.552 44.08,35.368 C45.016,35.335 45.914,35.166 46.759,34.883 C46.838,34.93 48.678,36.062 48.793,39.321 C48.898,42.316 46.845,43.391 44.58,43.824 C44.531,43.83 44.482,43.838 44.435,43.851 C43.935,43.941 43.429,44.002 42.934,44.045 Z M43.999,33.069 C40.045,33.208 36.715,30.104 36.576,26.15 C36.437,22.196 39.541,18.866 43.495,18.727 C47.449,18.588 50.779,21.692 50.918,25.646 C51.057,29.6 47.953,32.93 43.999,33.069 Z M48.538,44.672 C50.108,43.599 51.187,41.901 51.093,39.241 C50.994,36.437 49.881,34.723 48.994,33.791 C50.056,33.084 50.963,32.168 51.664,31.105 C51.776,31.17 51.899,31.22 52.033,31.245 C53.084,31.435 54.72,32.389 55.83,34.034 C56.509,35.041 57.226,36.691 56.78,38.83 C55.783,43.616 53.624,44.665 50.69,44.768 C49.932,44.794 49.204,44.751 48.538,44.672 Z M65.065,37.265 C64.48,37.015 63.804,37.286 63.554,37.869 C63.457,38.096 63.44,38.337 63.488,38.562 C63.508,38.793 63.595,39.021 63.757,39.211 L69.826,46.309 C67.855,47.259 63.24,48.529 56.959,44.261 C57.914,43.037 58.594,41.401 59.032,39.299 C59.514,36.984 59.066,34.718 57.737,32.747 C56.502,30.916 54.502,29.455 52.689,29.034 C53.069,27.951 53.26,26.782 53.217,25.566 C53.033,20.335 48.644,16.244 43.413,16.428 C41.443,16.497 39.598,17.182 38.086,18.308 C37.881,15.878 37.008,13.823 35.551,12.316 L43.916,4.841 C44.267,5.057 44.728,5.409 45.135,5.943 C46.192,7.328 46.432,9.269 45.846,11.713 C45.698,12.331 46.079,12.952 46.697,13.1 C46.801,13.125 46.905,13.135 47.006,13.131 C47.404,13.117 47.766,12.894 47.962,12.548 L57.624,3.198 C58.667,4.428 60.405,7.264 59.341,11.703 C59.193,12.321 59.574,12.942 60.192,13.09 C60.296,13.115 60.4,13.125 60.501,13.121 C60.515,13.121 60.528,13.117 60.541,13.116 C60.89,13.221 61.28,13.175 61.599,12.947 L70.556,6.57 C71.689,8.523 73.561,12.905 69.783,15.88 C69.082,16.432 68.481,16.807 67.65,17.326 C66.784,17.867 65.706,18.54 64.043,19.697 C63.6,20.006 63.412,20.569 63.583,21.082 C63.754,21.594 64.242,21.933 64.781,21.914 L76.454,21.504 C75.974,23.785 74.271,28.22 68.264,28.431 C67.592,28.455 67.066,29.019 67.09,29.691 C67.11,30.254 67.51,30.709 68.034,30.83 L76.399,35.953 C74.936,37.436 71.307,39.941 65.065,37.265 Z M43.719,21.51 C41.295,21.595 39.393,23.636 39.478,26.06 C39.563,28.484 41.604,30.386 44.028,30.301 C46.452,30.216 48.354,28.175 48.269,25.751 C48.184,23.327 46.143,21.425 43.719,21.51 Z M43.947,28.001 C42.791,28.042 41.818,27.135 41.778,25.979 C41.737,24.823 42.644,23.85 43.8,23.81 C44.956,23.769 45.929,24.676 45.969,25.832 C46.01,26.987 45.103,27.961 43.947,28.001 Z"
            id="Shape"></path>
        </g>
    </g>
</svg>