<?xml version="1.0" encoding="UTF-8" ?>
<svg width="78px" height="62px" viewBox="0 0 78 62" version="1.1" xmlns="http://www.w3.org/2000/svg">
    <g id="Page-1" stroke="none" stroke-width="1" fill-rule="evenodd">
        <g id="cultureSkull" transform="translate(-1.000000, 0.000000)" fill-rule="nonzero">
            <path d="M40.075,23.078 C40.075,25.285 41.871,27.081 44.078,27.081 C46.285,27.081 48.081,25.285 48.081,23.078 C48.081,20.871 46.285,19.075 44.078,19.075 C41.871,19.075 40.075,20.871 40.075,23.078 Z M46.002,23.078 C46.002,24.139 45.139,25.002 44.078,25.002 C43.017,25.002 42.154,24.139 42.154,23.078 C42.154,22.017 43.017,21.154 44.078,21.154 C45.139,21.154 46.002,22.017 46.002,23.078 Z M76.794,48.273 C76.378,47.7 75.983,46.545 76.072,45.532 C76.15,44.639 75.849,43.772 75.223,43.089 C74.544,42.348 73.576,41.923 72.567,41.923 C71.316,41.923 70.217,42.581 69.596,43.569 C69.286,43.09 68.963,42.614 68.645,42.177 C67.949,41.223 67.17,40.763 66.46,40.584 C66.564,38.818 66.2,36.132 66.004,34.861 C65.598,32.222 65.138,30.852 64.863,30.034 L64.815,29.891 C64.485,28.902 63.515,28.844 63.049,28.816 C62.339,28.774 61.265,28.709 59.73,26.827 C57.398,23.967 57.118,21.457 56.871,19.244 C56.85,19.057 56.83,18.874 56.808,18.696 C56.567,16.662 56.099,14.726 54.605,11.889 C53.354,9.514 51.64,6.262 47.671,3.853 C43.114,1.087 36.765,0.151 28.259,0.99 C19.083,1.896 12.099,5.011 7.5,10.251 C3.523,14.783 1.448,20.893 1.501,27.923 C1.535,32.49 2.133,36.682 3.278,40.382 C4.276,43.606 5.689,46.466 7.477,48.883 C9,50.941 10.752,52.63 12.686,53.905 C14.302,54.97 16.018,55.703 17.521,55.97 L17.87,56.032 C19.859,56.385 21.172,56.618 21.746,56.912 C21.943,57.013 22.002,57.043 21.968,57.684 C21.947,58.091 22.049,58.706 22.657,59.325 C23.912,60.602 26.757,61.31 30.554,61.31 C30.925,61.31 31.304,61.303 31.693,61.29 C33.912,61.212 35.766,61.062 37.091,60.09 C45.704,61.136 61.091,58.822 63.27,58.242 C64.559,57.899 65.413,56.475 65.962,53.689 C66.102,54.002 66.251,54.286 66.409,54.53 C66.475,54.632 66.574,54.811 66.678,55.001 C67.421,56.353 69.053,59.325 72.472,59.325 C72.882,59.325 73.319,59.282 73.782,59.189 C75.846,58.772 77.369,57.549 78.072,55.745 C78.952,53.484 78.45,50.552 76.794,48.273 Z M4.434,35.343 C7.357,35.351 11.845,35.208 16.036,34.446 C18.138,34.064 20.882,33.081 22.019,30.571 C23.005,28.394 22.369,25.978 21.524,24.571 C20.668,23.144 18.95,22.471 17.347,22.936 C15.963,23.337 15.09,24.484 15.122,25.859 C15.127,26.052 15.149,26.27 15.173,26.5 C15.369,28.391 15.116,28.948 13.992,29.094 C13.542,29.152 13.197,29.073 12.906,28.845 C12.373,28.426 11.974,27.452 11.839,26.239 C11.426,22.526 13.584,20.49 15.74,19.823 C19.52,18.653 23.086,20.292 24.613,23.9 C25.672,26.403 25.652,29.181 24.559,31.522 C23.567,33.646 21.806,35.187 19.601,35.861 C15.883,36.997 11.078,37.62 4.937,37.76 C4.745,36.974 4.578,36.168 4.434,35.343 Z M36.044,57.959 C36.018,57.99 35.99,58.02 35.961,58.049 C35.947,58.062 35.933,58.075 35.92,58.089 C35.217,58.75 33.84,58.924 31.613,59.002 C26.476,59.181 24.559,58.06 24.257,57.69 C24.296,56.671 24.127,55.56 22.787,54.874 C21.908,54.424 20.615,54.195 18.268,53.778 L17.92,53.716 C15.682,53.318 12.247,51.482 9.315,47.52 C7.701,45.34 6.428,42.751 5.511,39.825 C11.66,39.658 16.359,39.025 20.207,37.849 C22.983,37.001 25.197,35.066 26.442,32.401 C27.784,29.527 27.816,26.132 26.527,23.088 C24.593,18.517 19.904,16.357 15.125,17.835 C11.418,18.982 9.317,22.37 9.772,26.467 C9.888,27.514 10.283,29.428 11.621,30.478 C12.349,31.05 13.261,31.283 14.258,31.154 C16.118,30.913 16.84,29.81 17.119,28.928 C17.416,27.987 17.314,27.002 17.239,26.283 C17.219,26.095 17.201,25.918 17.198,25.807 C17.184,25.232 17.646,25.011 17.923,24.931 C18.493,24.766 19.305,24.917 19.738,25.639 C20.21,26.425 20.821,28.167 20.122,29.712 C19.507,31.069 18.007,31.973 15.661,32.399 C11.472,33.161 6.947,33.279 4.123,33.261 C3.914,31.547 3.8,29.759 3.786,27.903 C3.74,21.445 5.618,15.862 9.219,11.758 C13.422,6.969 19.904,4.112 28.483,3.265 C36.366,2.487 42.422,3.342 46.483,5.807 C47.929,6.685 49.91,7.887 52.58,12.954 C54.059,15.761 54.365,17.528 54.536,18.964 C54.557,19.137 54.576,19.315 54.597,19.496 C54.851,21.772 55.199,24.889 57.957,28.271 C60.043,30.83 61.864,31.032 62.805,31.091 C62.964,31.577 63.164,32.237 63.371,33.182 C62.878,33.03 62.319,32.963 61.692,33.03 C60.534,33.153 59.886,33.507 59.326,34.093 C58.745,33.622 57.95,33.251 56.96,33.28 C55.846,33.313 55.097,33.718 54.565,34.248 C53.946,33.763 53.109,33.383 52.086,33.434 C51.34,33.472 50.625,33.772 49.952,34.331 C49.418,33.813 48.66,33.395 47.656,33.395 L47.598,33.395 C46.563,33.412 45.702,33.754 44.993,34.436 C44.111,33.813 42.629,32.911 40.737,32.297 C37.854,31.362 33.449,30.94 28.836,34.243 C26.642,35.814 25.162,38.049 24.556,40.706 C24.005,43.121 24.228,45.763 25.182,48.146 C26.137,50.529 27.722,52.475 29.768,53.772 C31.542,54.897 33.596,55.473 35.789,55.473 C36.119,55.473 36.453,55.459 36.789,55.432 C36.701,56.601 36.47,57.461 36.044,57.959 Z M27.207,47.336 C26.416,45.362 26.23,43.18 26.683,41.194 C27.169,39.065 28.352,37.276 30.105,36.021 C33.191,33.811 36.517,33.25 39.988,34.353 C42.652,35.199 44.422,36.753 44.438,36.767 C44.677,36.981 44.999,37.08 45.317,37.035 C45.635,36.991 45.918,36.808 46.089,36.537 C46.638,35.669 47.172,35.588 47.63,35.581 L47.649,35.581 C48.414,35.581 48.741,36.318 48.789,36.434 C48.918,36.815 49.241,37.081 49.637,37.148 C50.036,37.215 50.434,37.043 50.68,36.722 C51.224,36.012 51.734,35.64 52.194,35.617 C53.112,35.569 53.664,36.44 53.715,36.525 C53.906,36.881 54.272,37.09 54.678,37.09 C55.084,37.088 55.45,36.85 55.636,36.489 C56.08,35.628 56.408,35.482 57.022,35.464 C57.883,35.442 58.341,36.224 58.388,36.309 C58.554,36.658 58.887,36.881 59.272,36.915 C59.66,36.948 60.03,36.762 60.254,36.444 C60.995,35.391 61.088,35.291 61.92,35.203 C63.104,35.077 63.695,35.888 63.887,36.226 C64.172,38.37 64.227,39.906 64.17,40.614 C64.026,40.131 63.846,39.541 63.741,39.245 C63.557,38.726 62.978,38.416 62.193,38.416 C62.015,38.416 61.83,38.432 61.644,38.463 C60.593,38.638 59.914,39.198 59.913,39.89 C59.913,40.24 59.939,40.973 59.961,41.5 C59.827,41.519 59.691,41.539 59.553,41.558 C59.396,40.999 59.175,40.228 59.051,39.863 C58.863,39.307 58.239,38.976 57.381,38.976 C57.204,38.976 57.02,38.99 56.835,39.018 C55.713,39.189 54.981,39.766 54.97,40.49 C54.965,40.842 54.979,41.549 54.993,42.11 C54.864,42.123 54.735,42.137 54.605,42.15 C54.53,41.589 54.431,40.875 54.366,40.522 C54.237,39.822 53.435,39.369 52.324,39.369 L52.293,39.369 C51.158,39.378 50.351,39.846 50.237,40.56 C50.165,41.01 50.042,42.052 49.977,42.609 C49.844,42.626 49.713,42.643 49.586,42.659 C49.548,42.162 49.468,41.164 49.412,40.736 C49.322,40.053 48.581,39.581 47.522,39.535 C46.443,39.487 45.676,39.896 45.532,40.571 C45.497,40.736 45.449,40.991 45.399,41.268 C44.586,39.042 42.367,36.324 39.414,35.136 C37.559,34.39 34.637,33.951 31.249,36.098 C27.953,38.187 26.569,42.804 28.03,46.837 C28.702,48.69 29.901,50.187 31.499,51.165 C33.003,52.085 34.77,52.511 36.768,52.434 C36.785,52.713 36.798,52.982 36.808,53.244 C31.686,53.74 28.498,50.559 27.207,47.336 Z M62.777,41.029 C62.378,41.109 61.919,41.191 61.41,41.275 C61.394,40.867 61.377,40.385 61.372,40.066 C61.46,40.014 61.627,39.94 61.885,39.897 C61.993,39.879 62.097,39.87 62.195,39.87 C62.297,39.87 62.374,39.88 62.426,39.891 C62.523,40.188 62.661,40.641 62.777,41.029 Z M58.096,41.75 C57.564,41.817 57.013,41.884 56.446,41.949 C56.435,41.502 56.425,40.993 56.425,40.664 C56.519,40.603 56.722,40.505 57.055,40.455 C57.168,40.438 57.278,40.429 57.382,40.429 C57.542,40.429 57.653,40.449 57.719,40.468 C57.822,40.792 57.971,41.308 58.096,41.75 Z M53.156,42.29 C52.717,42.331 52.276,42.37 51.833,42.408 C51.708,42.419 51.585,42.43 51.463,42.441 C51.521,41.954 51.597,41.323 51.652,40.941 C51.754,40.894 51.969,40.826 52.305,40.824 L52.324,40.824 C52.651,40.824 52.861,40.888 52.961,40.932 C53.018,41.276 53.094,41.826 53.156,42.29 Z M48.102,42.354 C47.943,42.364 47.763,42.372 47.57,42.372 C47.256,42.372 46.961,42.352 46.695,42.313 C46.766,41.896 46.857,41.38 46.922,41.047 C47.007,41.019 47.154,40.987 47.365,40.987 C47.396,40.987 47.427,40.988 47.459,40.989 C47.722,41.001 47.897,41.055 47.99,41.096 C48.025,41.425 48.068,41.936 48.102,42.354 Z M62.666,56.034 C60.674,56.555 46.978,58.591 38.63,57.941 C39.131,56.51 39.231,54.438 38.967,51.181 C38.966,51.137 38.963,51.092 38.957,51.047 C38.956,51.039 38.955,51.032 38.954,51.024 C38.872,50.04 38.757,48.95 38.612,47.739 L38.612,47.739 C38.581,47.491 38.437,46.988 37.791,46.6 C37.283,46.295 36.534,46.104 35.501,46.014 C35.033,45.973 34.666,45.758 34.381,45.355 C33.946,44.741 33.782,43.771 33.982,42.997 C34.181,42.228 34.631,41.676 35.286,41.4 C36.218,41.007 37.468,41.19 38.715,41.902 C39.913,42.587 40.49,43.894 41.048,45.158 C41.486,46.151 41.935,47.168 42.709,47.806 C43.26,50.162 43.728,51.609 44.623,53.021 C45.449,54.322 46.587,54.959 48.094,54.959 C48.231,54.959 48.371,54.954 48.515,54.943 C49.538,54.868 50.304,54.38 50.823,53.842 C51.615,54.427 52.54,54.707 53.442,54.611 C54.53,54.495 55.284,53.928 55.778,53.355 C56.484,53.993 57.362,54.299 58.317,54.218 C59.354,54.129 60.085,53.661 60.572,53.115 C61.234,53.665 62.021,53.916 62.954,53.88 C63.183,53.871 63.398,53.839 63.601,53.79 C63.171,55.636 62.722,55.995 62.666,56.034 Z M64.006,51.413 C63.73,51.722 63.355,51.992 62.879,52.011 C62.248,52.037 61.75,51.877 61.218,51.008 C61.021,50.686 60.65,50.515 60.276,50.572 C59.903,50.63 59.601,50.906 59.511,51.273 C59.509,51.283 59.256,52.259 58.157,52.354 C57.479,52.411 56.926,52.051 56.514,51.282 C56.339,50.955 55.988,50.757 55.618,50.787 C55.248,50.816 54.931,51.057 54.808,51.408 C54.79,51.458 54.345,52.634 53.243,52.751 C53.009,52.776 52.182,52.783 51.407,51.83 C51.2,51.576 50.875,51.449 50.551,51.494 C50.226,51.54 49.949,51.752 49.821,52.054 C49.817,52.063 49.389,53.003 48.378,53.078 C47.345,53.154 46.736,52.857 46.204,52.02 C45.623,51.104 45.247,50.19 44.806,48.493 C45.019,48.504 45.251,48.508 45.5,48.507 C45.649,48.945 46.001,49.972 46.165,50.392 C46.357,50.884 46.89,51.166 47.629,51.166 C47.843,51.166 48.068,51.142 48.296,51.094 C49.333,50.878 49.989,50.293 49.968,49.604 C49.958,49.293 49.913,48.688 49.873,48.188 C50.071,48.166 50.272,48.144 50.478,48.12 C50.595,48.635 50.732,49.227 50.814,49.534 C50.977,50.145 51.671,50.524 52.624,50.524 C52.741,50.524 52.861,50.518 52.982,50.507 C54.105,50.4 54.868,49.866 54.926,49.147 C54.954,48.801 54.978,48.117 54.994,47.56 C55.152,47.54 55.307,47.52 55.46,47.5 C55.53,48 55.609,48.551 55.662,48.845 C55.786,49.547 56.585,50 57.697,50 L57.738,50 C58.866,49.988 59.672,49.521 59.79,48.809 C59.855,48.414 59.954,47.571 60.02,46.991 C60.14,46.979 60.26,46.968 60.38,46.957 C60.411,47.486 60.458,48.252 60.494,48.611 C60.563,49.299 61.294,49.79 62.357,49.861 C62.436,49.866 62.515,49.869 62.592,49.869 L62.592,49.869 C63.349,49.869 63.936,49.624 64.217,49.211 C64.17,49.88 64.102,50.64 64.006,51.413 Z M47.03,48.483 C47.082,48.466 47.135,48.451 47.188,48.436 C47.576,48.409 47.988,48.375 48.423,48.335 C48.455,48.728 48.489,49.176 48.504,49.477 C48.419,49.532 48.255,49.614 47.997,49.668 C47.867,49.695 47.742,49.709 47.628,49.709 C47.557,49.709 47.5,49.703 47.458,49.696 C47.34,49.379 47.168,48.883 47.03,48.483 Z M51.93,47.948 C52.445,47.885 52.979,47.818 53.53,47.748 C53.517,48.156 53.501,48.592 53.483,48.883 C53.387,48.939 53.178,49.026 52.842,49.058 C52.767,49.065 52.694,49.069 52.623,49.069 C52.408,49.069 52.261,49.037 52.181,49.009 C52.111,48.736 52.017,48.333 51.93,47.948 Z M56.903,47.319 C57.511,47.245 58.046,47.184 58.482,47.143 C58.501,47.141 58.52,47.139 58.538,47.138 C58.486,47.585 58.425,48.098 58.377,48.424 C58.276,48.472 58.062,48.541 57.723,48.544 L57.697,48.544 C57.375,48.544 57.168,48.482 57.068,48.438 C57.021,48.151 56.959,47.722 56.903,47.319 Z M61.841,47.008 C61.897,47.006 61.954,47.005 62.012,47.005 C62.462,47.005 62.903,47.062 63.244,47.124 C63.164,47.535 63.065,48.038 62.992,48.362 C62.913,48.387 62.78,48.414 62.591,48.414 C62.546,48.414 62.5,48.412 62.453,48.409 C62.192,48.392 62.019,48.334 61.926,48.291 C61.899,47.953 61.866,47.43 61.841,47.008 Z M59.108,44.783 C58.823,44.812 58.543,44.84 58.268,44.866 C57.319,44.955 55.968,45.129 54.402,45.331 C51.114,45.755 45.611,46.465 44.362,46.144 C43.935,46.034 43.531,45.12 43.141,44.235 C42.5,42.783 41.702,40.975 39.85,39.916 C37.979,38.847 35.991,38.619 34.396,39.292 C33.079,39.848 32.145,40.96 31.767,42.424 C31.399,43.846 31.692,45.515 32.513,46.675 C33.181,47.62 34.172,48.194 35.303,48.292 C35.863,48.341 36.202,48.416 36.395,48.475 C36.462,49.051 36.524,49.607 36.578,50.142 C34.565,50.179 31.468,49.609 30.181,46.055 C29.661,44.619 29.599,43.009 30.006,41.522 C30.419,40.015 31.295,38.774 32.473,38.028 C34.536,36.721 36.583,36.461 38.559,37.256 C41.238,38.334 43.021,41.011 43.382,42.481 C43.746,43.96 44.545,44.819 45.827,45.106 C46.823,45.329 48.006,45.173 49.503,44.974 C50.248,44.875 51.094,44.763 52.023,44.685 C54.19,44.502 57.496,44.163 60.278,43.763 C61.785,43.546 62.994,43.332 63.87,43.126 C64.78,42.913 65.429,42.702 65.837,42.359 C66.164,42.397 66.632,42.596 67.131,43.279 C67.89,44.319 68.699,45.642 69.264,46.605 C69.398,46.975 69.595,47.329 69.853,47.656 C69.869,47.676 69.886,47.698 69.903,47.721 C69.965,47.832 70.001,47.897 70.003,47.901 C70.071,48.025 70.163,48.126 70.27,48.205 C70.794,48.906 71.514,49.894 71.699,50.148 C72.064,50.826 72.468,51.6 72.726,52.317 C73.073,53.28 72.958,53.598 72.944,53.631 C72.931,53.661 72.843,53.696 72.761,53.718 C72.568,53.77 72.209,53.867 71.57,53.025 C70.989,52.259 70.456,51.063 69.94,49.906 C69.507,48.935 69.06,47.931 68.554,47.109 C66.656,44.021 62.471,44.444 59.108,44.783 Z M75.941,54.912 C75.519,55.996 74.64,56.68 73.329,56.945 C70.859,57.443 69.68,55.714 68.683,53.899 C68.553,53.662 68.44,53.457 68.329,53.286 C67.762,52.411 67.285,50.535 66.968,48.95 C67.264,49.517 67.552,50.165 67.853,50.84 C68.421,52.115 69.009,53.434 69.75,54.41 C70.466,55.354 71.674,56.385 73.359,55.93 C74.378,55.655 74.839,55.021 75.047,54.538 C75.71,52.995 74.734,50.955 73.677,48.998 C73.653,48.953 73.626,48.911 73.596,48.87 C73.537,48.789 72.157,46.888 71.65,46.244 C71.511,46.067 71.344,45.783 71.344,45.434 C71.344,44.76 71.892,44.212 72.566,44.212 C72.93,44.212 73.292,44.37 73.535,44.635 C73.667,44.78 73.82,45.018 73.792,45.333 C73.646,46.999 74.264,48.685 74.942,49.618 C76.135,51.257 76.536,53.385 75.941,54.912 Z M31.214,27.136 C33.059,28.461 35.226,29.154 37.453,29.154 C38.006,29.154 38.563,29.11 39.12,29.023 C40.465,30.146 42.194,30.824 44.079,30.824 C48.35,30.824 51.825,27.349 51.825,23.078 C51.825,20.246 50.297,17.766 48.023,16.415 C46.944,10.719 41.491,6.88 35.739,7.823 C32.909,8.287 30.43,9.825 28.757,12.154 C27.084,14.483 26.419,17.324 26.883,20.153 C27.347,22.983 28.885,25.463 31.214,27.136 Z M49.537,23.078 C49.537,26.088 47.088,28.537 44.078,28.537 C41.068,28.537 38.619,26.088 38.619,23.078 C38.619,20.068 41.068,17.619 44.078,17.619 C47.088,17.619 49.537,20.068 49.537,23.078 Z M30.615,13.489 C31.931,11.656 33.882,10.446 36.109,10.081 C40.147,9.418 43.996,11.751 45.383,15.444 C44.959,15.372 44.523,15.332 44.078,15.332 C39.807,15.332 36.332,18.807 36.332,23.078 C36.332,24.452 36.693,25.743 37.323,26.863 C35.617,26.836 33.962,26.294 32.548,25.278 C30.715,23.962 29.505,22.011 29.14,19.784 C28.775,17.557 29.299,15.321 30.615,13.489 Z"
            id="Shape"></path>
        </g>
    </g>
</svg>