<?xml version="1.0" encoding="UTF-8" ?>
<svg width="64px" height="60px" viewBox="0 0 64 60" version="1.1" xmlns="http://www.w3.org/2000/svg">
    <g id="Page-1" stroke="none" stroke-width="1" fill-rule="evenodd">
        <g id="cultureMonkey" transform="translate(-8.000000, 0.000000)" fill-rule="nonzero">
            <path d="M51.763,29.061 C51.763,25.504 48.879,22.62 45.322,22.62 C41.765,22.62 38.881,25.504 38.881,29.061 C38.881,32.618 41.765,35.502 45.322,35.502 C48.879,35.502 51.763,32.618 51.763,29.061 Z M40.802,29.061 C40.802,26.569 42.829,24.542 45.321,24.542 C47.813,24.542 49.84,26.569 49.84,29.061 C49.84,31.553 47.813,33.58 45.321,33.58 C42.829,33.58 40.802,31.553 40.802,29.061 Z M47.945,28.755 C47.945,27.313 46.772,26.14 45.33,26.14 C43.888,26.14 42.715,27.313 42.715,28.755 C42.715,30.197 43.888,31.37 45.33,31.37 C46.772,31.37 47.945,30.197 47.945,28.755 Z M44.349,28.755 C44.349,28.214 44.789,27.774 45.331,27.774 C45.872,27.774 46.312,28.214 46.312,28.755 C46.312,29.296 45.872,29.737 45.331,29.737 C44.789,29.737 44.349,29.296 44.349,28.755 Z M69.268,39.903 C69.467,39.72 69.659,39.519 69.843,39.295 C70.905,38.001 71.41,36.332 71.229,34.715 C71.09,33.478 70.488,31.664 68.405,30.047 C66.067,28.232 63.199,28.207 57.725,28.338 C58.085,27.645 58.609,26.424 58.831,24.848 C59.149,22.591 58.891,19.142 55.86,15.532 C55.577,15.195 55.272,14.873 54.957,14.559 C56.141,11.933 58.731,10.013 61.992,9.377 C62.513,9.276 62.853,8.771 62.751,8.25 C62.649,7.729 62.143,7.387 61.624,7.491 C57.961,8.205 54.998,10.318 53.465,13.241 C53.137,12.984 52.801,12.737 52.453,12.502 C53.494,9.905 55.943,7.903 59.05,7.131 C59.565,7.003 59.879,6.481 59.751,5.967 C59.623,5.452 59.1,5.139 58.587,5.266 C54.991,6.16 52.117,8.472 50.788,11.503 C50.579,11.392 50.367,11.287 50.154,11.183 C50.986,8.581 53.193,6.43 56.139,5.383 C56.639,5.205 56.9,4.656 56.723,4.156 C56.545,3.656 55.995,3.395 55.496,3.572 C52.046,4.798 49.432,7.332 48.378,10.426 C48.144,10.339 47.908,10.256 47.67,10.178 C47.675,10.155 47.683,10.134 47.687,10.111 C48.079,7.516 49.782,5.177 52.36,3.694 C52.82,3.429 52.978,2.842 52.714,2.382 C52.449,1.922 51.862,1.764 51.402,2.028 C48.364,3.775 46.338,6.554 45.815,9.668 C45.543,9.607 45.269,9.549 44.994,9.5 C45.092,6.942 46.448,4.427 48.742,2.652 C49.162,2.327 49.239,1.73 48.914,1.31 C48.589,0.89 47.986,0.826 47.566,1.151 C44.868,3.239 43.253,6.089 43.082,9.157 C42.716,9.127 42.351,9 41.986,9 L41.89,9 C41.634,7 42.586,4.009 44.537,1.936 C44.901,1.55 44.882,0.991 44.496,0.628 C44.109,0.264 43.5,0.308 43.138,0.694 C40.834,3.143 39.695,6.247 39.966,9.261 C39.484,9.305 39.008,9.378 38.538,9.46 C38.606,6.958 39.477,4.215 40.94,1.966 C41.229,1.521 41.104,0.928 40.659,0.638 C40.215,0.349 39.619,0.475 39.329,0.92 C37.555,3.645 36.578,6.9 36.611,9.917 C36.321,10.003 36.033,10.098 35.748,10.199 C35.536,7.679 36.125,4.809 37.371,2.388 C37.614,1.916 37.428,1.337 36.956,1.094 C36.485,0.851 35.905,1.036 35.661,1.509 C34.131,4.481 33.493,7.924 33.899,10.982 C33.55,11.156 33.209,11.346 32.871,11.544 C32.348,8.949 32.631,5.947 33.671,3.336 C33.868,2.843 33.627,2.284 33.134,2.088 C32.64,1.891 32.082,2.132 31.886,2.625 C30.609,5.829 30.346,9.568 31.165,12.69 C30.603,13.118 30.062,13.581 29.546,14.082 C28.715,11.179 28.852,7.713 29.963,4.898 C30.158,4.404 29.915,3.846 29.422,3.652 C28.928,3.457 28.37,3.699 28.175,4.193 C26.775,7.741 26.742,12.206 28.063,15.704 C27.788,16.041 27.516,16.393 27.249,16.756 C25.865,13.806 25.498,10.041 26.361,6.983 C26.505,6.472 26.208,5.941 25.697,5.797 C25.187,5.654 24.655,5.95 24.511,6.461 C23.433,10.279 24.043,15.063 26.013,18.536 C25.689,19.029 25.381,19.518 25.091,19.991 C23.134,17.193 22.124,13.244 22.608,9.996 C22.686,9.471 22.324,8.982 21.799,8.904 C21.275,8.823 20.785,9.188 20.707,9.713 C20.104,13.753 21.438,18.541 24.034,21.785 C23.806,22.186 23.606,22.549 23.438,22.856 C23.405,22.803 23.366,22.752 23.321,22.705 C21.112,20.371 19.642,15.997 19.576,12.626 C19.57,12.098 19.142,11 18.619,11 L18.6,11 C18.069,11 17.648,12.128 17.658,12.659 C17.716,15.637 18.695,19.074 20.301,21.573 C19.994,21.528 19.679,21.676 19.363,21.66 C18.343,20.308 17.554,18.724 17.079,16.89 C16.946,16.376 16.421,16.113 15.908,16.244 C15.394,16.377 15.085,16.923 15.219,17.437 C15.644,19.077 16.294,20.622 17.126,21.96 C15.77,22.204 14.437,22.754 13.292,23.679 C11.039,25.5 8.817,29.332 11.027,37.236 C11.059,37.349 11.092,37.461 11.124,37.571 C11.391,38.466 11.601,39.173 10.795,41.274 C10.73,41.444 10.512,41.892 10.321,42.288 C9.943,43.066 9.688,43.601 9.587,43.918 C8.735,46.591 7.762,51.544 10.81,54.688 C12.161,56.081 14.088,56.826 16.162,56.826 C16.981,56.826 17.823,56.71 18.66,56.471 C20.473,55.954 21.997,54.371 22.952,52.013 C23.117,51.606 23.26,51.187 23.384,50.761 C29.229,53.842 34.461,55.473 39.764,55.872 C39.789,55.874 39.813,55.875 39.837,55.875 C39.961,55.875 40.08,55.851 40.19,55.807 C43.227,57.779 47.019,58.419 48.801,58.718 C51.632,59.193 54.573,59.618 57.155,59.618 C60.595,59.618 63.399,58.864 64.458,56.472 C65.325,54.512 64.854,53.088 64.305,52.238 C63.173,50.484 60.601,49.462 57.248,49.435 C54.918,49.416 54.553,48.832 54.519,48.766 C54.41,48.552 54.586,48.141 54.746,47.916 C54.824,47.807 55.682,46.886 61.78,48.228 C65.046,48.947 67.7,48.563 69.25,47.146 C70.23,46.251 70.673,45.001 70.499,43.626 C70.274,41.838 69.719,40.629 69.268,39.903 Z M41.949,11.121 C46.774,11.214 51.54,13.378 54.387,16.768 C57.165,20.076 57.269,23.158 56.82,25.237 C55.126,20.456 50.561,17.021 45.207,17.021 C38.415,17.021 32.889,22.547 32.889,29.339 C32.889,34.018 35.512,38.095 39.364,40.18 C39.059,40.373 38.737,40.609 38.414,40.901 C37.657,41.586 36.809,42.668 36.282,44.314 C33.009,43.692 29.691,42.561 26.177,40.864 C26.228,40.554 26.263,40.233 26.262,39.889 C26.255,37.914 25.713,36.725 25.213,36.046 C26.394,34.33 26.939,31.456 26.553,28.626 C26.309,26.836 25.727,25.349 24.867,24.261 C25.645,22.802 27.947,18.646 30.181,16.185 C34.081,11.887 38.731,11.058 41.949,11.121 Z M34.811,29.339 C34.811,23.606 39.475,18.943 45.207,18.943 C50.939,18.943 55.603,23.607 55.603,29.339 C55.603,35.071 50.939,39.735 45.207,39.735 C39.475,39.735 34.811,35.071 34.811,29.339 Z M23.81,44.742 C24.332,44.326 25.032,43.648 25.552,42.695 C29.124,44.401 32.517,45.551 35.876,46.193 C35.81,46.712 35.77,47.267 35.77,47.87 C35.77,48.379 35.807,48.863 35.871,49.325 C32.009,48.543 28.144,47.074 23.81,44.742 Z M18.134,54.623 C15.858,55.271 13.581,54.784 12.19,53.35 C10.447,51.552 10.173,48.41 11.418,44.501 C11.485,44.292 11.825,43.591 12.05,43.127 C12.289,42.635 12.495,42.21 12.589,41.964 C13.63,39.252 13.277,38.068 12.965,37.023 C12.935,36.924 12.906,36.823 12.877,36.721 C11.35,31.262 11.911,27.27 14.499,25.179 C16.809,23.312 20.228,23.448 22.272,24.524 C23.491,25.165 24.357,26.755 24.647,28.885 C25,31.474 24.392,34.334 23.263,35.397 C22.17,36.425 21.273,36.64 19.71,36.246 C19.037,36.077 18.452,35.386 18.254,34.526 C18.157,34.104 18.028,33.04 18.929,32.281 C19.335,31.939 19.387,31.333 19.045,30.927 C18.703,30.521 18.097,30.469 17.691,30.811 C16.503,31.812 16.013,33.362 16.381,34.958 C16.743,36.526 17.865,37.764 19.241,38.11 C21.069,38.57 22.486,38.366 23.815,37.424 C24.063,37.865 24.334,38.633 24.338,39.895 C24.343,41.326 23.591,42.337 22.967,42.931 C21.825,41.149 20.337,40.393 18.314,40.561 C16.901,40.678 15.591,41.715 14.978,43.203 C14.354,44.717 14.584,46.327 15.593,47.509 C15.938,47.913 16.545,47.961 16.948,47.616 C17.352,47.271 17.4,46.664 17.055,46.261 C16.29,45.364 16.591,44.336 16.756,43.936 C17.092,43.121 17.782,42.534 18.473,42.477 C19.881,42.36 20.704,42.834 21.507,44.226 C21.672,44.512 21.799,44.901 21.886,45.359 C21.89,45.44 21.903,45.52 21.927,45.598 C22.16,47.127 21.967,49.328 21.171,51.292 C20.75,52.333 19.795,54.15 18.134,54.623 Z M23.945,46.986 C28.286,49.223 32.212,50.619 36.181,51.343 C36.239,51.354 36.297,51.359 36.354,51.359 C36.368,51.359 36.382,51.356 36.396,51.355 C36.747,52.252 37.229,53.037 37.805,53.727 C33.332,53.094 28.818,51.502 23.807,48.807 C23.895,48.188 23.942,47.577 23.945,46.986 Z M67.956,45.727 C66.911,46.682 64.757,46.915 62.195,46.351 C56.996,45.207 54.217,45.347 53.181,46.803 C52.668,47.523 52.301,48.647 52.808,49.641 C53.388,50.777 54.836,51.339 57.234,51.358 C59.888,51.379 61.928,52.098 62.691,53.281 C63.115,53.939 63.119,54.751 62.701,55.695 C61.296,58.868 53.073,57.487 49.12,56.823 C41.323,55.514 37.691,52.669 37.691,47.869 C37.691,42.174 41.395,41.317 41.572,41.28 C41.666,41.261 41.751,41.226 41.832,41.183 C42.905,41.489 44.036,41.657 45.206,41.657 C51.686,41.657 57.009,36.627 57.486,30.267 C62.845,30.136 65.374,30.128 67.226,31.566 C68.455,32.52 69.179,33.684 69.318,34.93 C69.442,36.034 69.092,37.181 68.357,38.076 C66.935,39.809 65.049,39.497 64.505,39.359 C63.879,39.201 63.298,38.538 63.123,37.781 C63.021,37.337 63.019,36.707 63.592,36.224 C63.998,35.882 64.05,35.276 63.708,34.87 C63.366,34.463 62.759,34.412 62.354,34.754 C61.342,35.607 60.94,36.867 61.25,38.213 C61.588,39.679 62.707,40.888 64.035,41.222 C64.462,41.329 64.935,41.392 65.43,41.392 C66.145,41.392 66.908,41.261 67.649,40.949 C67.97,41.48 68.41,42.43 68.592,43.868 C68.69,44.627 68.475,45.253 67.956,45.727 Z"
            id="Shape"></path>
        </g>
    </g>
</svg>