<?xml version="1.0" encoding="UTF-8" ?>
<svg width="74px" height="68px" viewBox="0 0 74 68" version="1.1" xmlns="http://www.w3.org/2000/svg">
    <g id="Page-1" stroke="none" stroke-width="1" fill-rule="evenodd">
        <g id="cultureRabbit" transform="translate(-3.000000, 0.000000)" fill-rule="nonzero">
            <path d="M75.747,44.429 C75.04,43.37 73.946,42.704 72.562,41.861 C70.998,40.908 69.051,39.722 66.587,37.423 C66.415,37.263 66.234,37.088 66.042,36.903 C63.752,34.695 59.935,31.019 51.474,30.738 C53.863,24.414 55.67,13.23 46.355,1.132 C45.992,0.661 45.325,0.55 44.829,0.879 C44.661,0.99 40.695,3.666 37.517,9.268 C34.75,14.147 32.12,22.221 34.741,33.446 C33.224,32.784 31.442,32.15 29.435,31.682 C23.305,30.254 13.866,30.187 3.725,37.996 C3.316,38.311 3.171,38.862 3.373,39.338 C3.594,39.859 8.569,51.017 27.412,51.016 C28.624,51.016 29.896,50.97 31.225,50.871 C30.398,52.876 29.444,56.525 29.444,62.684 C29.444,63.221 29.821,63.685 30.348,63.794 C30.646,63.856 36.272,65.004 42.882,65.004 C44.696,65.004 46.585,64.918 48.457,64.699 C48.523,64.691 48.586,64.675 48.648,64.657 C49.232,65.076 49.897,65.456 50.656,65.787 C52.983,66.8 56.044,67.31 59.127,67.31 C62.079,67.31 65.052,66.818 67.422,65.88 C71.085,64.43 72.286,63 72.554,61 L72.566,61 C73.229,61 73,60.513 73,59.85 L73,53.112 C75,52.266 75.873,50.901 76.29,49.362 C76.601,48.211 77.077,46.42 75.747,44.429 Z M45.235,3.423 C53.166,14.348 51.753,24.25 49.001,30.82 C48.561,30.872 48.111,30.95 47.649,31.059 C49.758,25.172 51.237,15.274 44.119,4.42 C44.547,4.012 44.927,3.679 45.235,3.423 Z M37.392,34.681 C34.862,25.544 35.548,17.404 39.433,10.487 C40.426,8.719 41.512,7.264 42.514,6.109 C49.16,16.558 47.491,25.914 44.836,32.011 C44.82,32.048 44.811,32.087 44.799,32.125 C43.222,32.937 41.504,34.196 39.597,36.122 C39.083,35.766 38.344,35.288 37.405,34.765 C37.401,34.737 37.4,34.709 37.392,34.681 Z M10.9,44.342 C8.068,42.411 6.542,40.312 5.876,39.217 C6.384,38.844 6.895,38.493 7.407,38.155 C10.638,42.813 17.518,46.538 26.985,46.538 C29.196,46.538 31.551,46.331 34.032,45.889 C33.446,46.807 32.955,47.683 32.55,48.475 C23.662,49.366 16.184,47.946 10.9,44.342 Z M31.719,61.743 C31.766,59.039 32.014,56.909 32.333,55.257 C33.668,55.492 37.517,56.103 41.517,56.103 C42.737,56.103 43.97,56.042 45.15,55.9 C45.074,57.521 45.357,59.439 46.239,61.696 C46.361,62.007 46.517,62.303 46.691,62.591 C40.383,63.085 34.031,62.144 31.719,61.743 Z M63.607,57.406 C64.357,57 64.938,56.75 66,55.594 L66,59 L63,59 L63,57.75 C63,57.75 63.579,57.422 63.607,57.406 Z M68,53.478 C69,53.77 69.53,53.961 70.352,53.96 C70.532,53.96 71,53.95 71,53.931 L71,59 L68,59 L68,53.478 Z M74.484,48.77 C74.195,49.838 73.358,50.821 72.3,51.336 C70.507,52.21 69.099,51.257 68.711,50.945 C68.522,50.793 68.378,50.554 68.288,50.28 C68.289,50.266 68.297,50.249 68.291,50.237 C68.165,49.97 68.124,49.654 68.224,49.258 C68.314,48.899 68.508,48.431 69.085,48.272 C69.689,48.105 70.042,47.48 69.876,46.877 C69.709,46.273 69.085,45.922 68.481,46.086 C67.208,46.438 66.281,47.453 66.003,48.8 C65.887,49.361 65.919,50.07 65.923,50.624 C65.936,52.135 63.277,56.195 58.686,56.201 C57.93,56.202 56.939,56.499 56.752,57.187 C56.612,57.7 56.69,58.406 57.351,58.693 C57.586,58.795 58.034,58.81 58.038,58.81 C59.39,58.81 60.155,58.76 61.002,58.405 L61.002,59.849 C61.002,60.512 61.905,60.999 62.568,60.999 L70.2,60.999 C69.665,62.999 67.789,63.294 66.587,63.77 C62.305,65.465 55.564,65.437 51.561,63.694 C49.881,62.962 48.801,62.014 48.351,60.864 C45.568,53.743 49.747,51.001 50.438,50.605 C51.593,51.465 53.018,51.982 54.565,51.982 C58.388,51.982 61.499,48.872 61.499,45.049 C61.499,41.226 58.388,38.115 54.565,38.115 C50.742,38.115 47.631,41.226 47.631,45.049 C47.631,46.497 48.079,47.842 48.841,48.956 C47.937,49.604 46.36,51.022 45.587,53.421 C41.094,54.134 35.197,53.298 33.095,52.95 C33.121,52.898 33.143,52.844 33.161,52.787 C33.173,52.748 34.42,48.809 37.521,44.886 C37.535,44.869 37.543,44.85 37.555,44.832 C37.578,44.799 37.601,44.765 37.62,44.729 C37.637,44.698 37.652,44.666 37.666,44.633 C37.681,44.599 37.695,44.564 37.706,44.528 C37.717,44.493 37.726,44.459 37.734,44.423 C37.742,44.387 37.749,44.351 37.753,44.314 C37.757,44.277 37.759,44.241 37.76,44.205 C37.761,44.169 37.761,44.133 37.758,44.096 C37.755,44.056 37.749,44.017 37.741,43.977 C37.737,43.956 37.737,43.934 37.732,43.913 C37.729,43.901 37.723,43.89 37.72,43.878 C37.709,43.838 37.694,43.8 37.679,43.762 C37.666,43.73 37.654,43.698 37.639,43.668 C37.622,43.635 37.602,43.605 37.582,43.573 C37.561,43.541 37.541,43.508 37.517,43.478 C37.497,43.453 37.474,43.43 37.452,43.406 C37.422,43.374 37.392,43.344 37.359,43.316 C37.35,43.308 37.343,43.299 37.334,43.292 C37.318,43.28 37.3,43.272 37.284,43.26 C37.249,43.235 37.213,43.211 37.175,43.19 C37.146,43.174 37.116,43.16 37.086,43.147 C37.05,43.131 37.013,43.116 36.975,43.104 C36.942,43.094 36.909,43.085 36.876,43.078 C36.838,43.07 36.801,43.063 36.762,43.058 C36.727,43.054 36.691,43.052 36.656,43.051 C36.619,43.05 36.583,43.05 36.546,43.053 C36.506,43.056 36.467,43.062 36.427,43.07 C36.406,43.074 36.385,43.074 36.363,43.079 C26.929,45.381 14.576,44.411 9.349,36.964 C15.621,33.385 22.153,32.336 28.826,33.868 C34.981,35.28 38.971,38.469 39.011,38.501 C39.031,38.517 39.053,38.527 39.073,38.542 C39.105,38.565 39.137,38.587 39.171,38.606 C39.204,38.624 39.237,38.639 39.271,38.654 C39.305,38.669 39.338,38.683 39.373,38.695 C39.409,38.707 39.446,38.715 39.483,38.723 C39.517,38.73 39.551,38.738 39.585,38.742 C39.623,38.747 39.661,38.748 39.7,38.749 C39.734,38.75 39.768,38.75 39.802,38.748 C39.84,38.745 39.878,38.74 39.916,38.733 C39.95,38.727 39.983,38.722 40.016,38.713 C40.053,38.703 40.089,38.69 40.125,38.677 C40.158,38.665 40.19,38.653 40.221,38.637 C40.256,38.62 40.289,38.6 40.322,38.58 C40.352,38.561 40.382,38.543 40.411,38.521 C40.442,38.497 40.471,38.471 40.5,38.444 C40.518,38.427 40.539,38.413 40.557,38.394 C45.316,33.298 48.487,32.935 51.101,32.992 C58.905,33.168 62.253,36.397 64.469,38.534 C64.671,38.729 64.861,38.912 65.042,39.08 C67.675,41.537 69.819,42.842 71.384,43.796 C72.574,44.521 73.434,45.045 73.864,45.687 C74.549,46.719 74.759,47.755 74.484,48.77 Z M49.9,45.05 C49.9,42.477 51.993,40.384 54.566,40.384 C57.139,40.384 59.232,42.477 59.232,45.05 C59.232,47.623 57.139,49.716 54.566,49.716 C51.993,49.716 49.9,47.623 49.9,45.05 Z M54.629,48.316 C56.374,48.316 57.793,46.897 57.793,45.152 C57.793,43.407 56.374,41.988 54.629,41.988 C52.884,41.988 51.465,43.407 51.465,45.152 C51.466,46.897 52.885,48.316 54.629,48.316 Z M54.629,43.916 C55.311,43.916 55.865,44.471 55.865,45.152 C55.865,45.833 55.31,46.388 54.629,46.388 C53.948,46.388 53.393,45.833 53.393,45.152 C53.393,44.471 53.948,43.916 54.629,43.916 Z"
            id="Shape"></path>
        </g>
    </g>
</svg>