<?xml version="1.0" encoding="UTF-8" ?>
<svg width="60px" height="60px" viewBox="0 0 60 60" version="1.1" xmlns="http://www.w3.org/2000/svg">
    <g id="Page-1" stroke="none" stroke-width="1" fill-rule="evenodd">
        <g id="dataMining" transform="translate(-2.000000, 0.000000)" fill-rule="nonzero">
            <g id="Group" transform="translate(2.000000, 0.000000)">
                <path d="M10,24 L20,24 C20.552,24 21,23.552 21,23 L21,1 C21,0.448 20.552,0 20,0 L10,0 C9.448,0 9,0.448 9,1 L9,12 L9,23 C9,23.552 9.448,24 10,24 Z M11,2 L19,2 L19,22 L11,22 L11,2 Z"
                id="Shape"></path>
                <rect id="Rectangle-path" x="4" y="46" width="6" height="2"></rect>
                <rect id="Rectangle-path" x="4" y="50" width="6" height="2"></rect>
                <rect id="Rectangle-path" x="4" y="54" width="6" height="2"></rect>
                <path d="M1,60 L13,60 C13.552,60 14,59.552 14,59 L14,43 C14,42.448 13.552,42 13,42 L8,42 L8,30 C8,29.448 7.552,29 7,29 L2,29 L2,13 L5.586,13 L4.293,14.293 L5.707,15.707 L8.707,12.707 C8.902,12.512 9,12.256 9,12 C9,11.744 8.902,11.488 8.707,11.293 L5.707,8.293 L4.293,9.707 L5.586,11 L1,11 C0.448,11 0,11.448 0,12 L0,30 C0,30.552 0.448,31 1,31 L6,31 L6,42 L1,42 C0.448,42 0,42.448 0,43 L0,59 C0,59.552 0.448,60 1,60 Z M2,44 L12,44 L12,58 L2,58 L2,44 Z"
                id="Shape"></path>
                <path d="M48,44 L48,59 C48,59.552 48.448,60 49,60 L59,60 C59.552,60 60,59.552 60,59 L60,44 C60,43.448 59.552,43 59,43 L54,43 L49,43 C48.448,43 48,43.448 48,44 Z M50,50 L58,50 L58,53 L50,53 L50,50 Z M50,58 L50,55 L58,55 L58,58 L50,58 Z M58,45 L58,48 L50,48 L50,45 L58,45 Z"
                id="Shape"></path>
                <rect id="Rectangle-path" x="14" y="18" width="2" height="2"></rect>
                <rect id="Rectangle-path" x="13" y="4" width="4" height="2"></rect>
                <rect id="Rectangle-path" x="13" y="8" width="4" height="2"></rect>
                <path d="M31,12 L35,12 L35,15 C35,15.552 35.448,16 36,16 L44,16 C44.552,16 45,15.552 45,15 L45,9 C45,8.448 44.552,8 44,8 L40,8 L40,5 C40,4.448 39.552,4 39,4 L31,4 C30.448,4 30,4.448 30,5 L30,11 C30,11.552 30.448,12 31,12 Z M43,14 L37,14 L37,10 L43,10 L43,14 Z M32,6 L38,6 L38,8 L36,8 C35.448,8 35,8.448 35,9 L35,10 L32,10 L32,6 Z"
                id="Shape"></path>
                <path d="M59,11 L51,11 L51,1 C51,0.448 50.552,0 50,0 L24,0 C23.448,0 23,0.448 23,1 L23,19 C23,19.552 23.448,20 24,20 L34,20 L34,22 L30,22 L30,24 L35,24 L39,24 L44,24 L44,22 L40,22 L40,20 L50,20 C50.552,20 51,19.552 51,19 L51,13 L58,13 L58,29 L54,29 C53.735,29 53.48,29.105 53.293,29.293 C53.106,29.481 53,29.735 53,30 L53,39.586 L51.707,38.293 L50.293,39.707 L53.293,42.707 C53.488,42.902 53.744,43 54,43 C54.256,43 54.512,42.902 54.707,42.707 L57.707,39.707 L56.293,38.293 L55,39.586 L55,31 L59,31 C59.265,31 59.52,30.895 59.707,30.707 C59.894,30.519 60,30.266 60,30 L60,12 C60,11.448 59.552,11 59,11 Z M38,22 L36,22 L36,20 L38,20 L38,22 Z M49,18 L39,18 L35,18 L25,18 L25,2 L49,2 L49,18 Z"
                id="Shape"></path>
                <path d="M23.156,38.463 L16.156,49.463 C15.905,49.859 15.961,50.376 16.293,50.707 L18.293,52.707 C18.488,52.902 18.744,53 19,53 C19.256,53 19.512,52.902 19.707,52.707 L27.361,45.053 L40.25,59.662 C40.433,59.869 40.693,59.991 40.969,60 L41,60 C41.265,60 41.52,59.895 41.707,59.707 L45.707,55.707 C45.902,55.512 46.008,55.245 45.999,54.969 C45.99,54.693 45.868,54.433 45.661,54.25 L31.054,41.361 L37.708,34.707 C38.099,34.316 38.099,33.684 37.708,33.293 L33.708,29.293 C33.317,28.902 32.685,28.902 32.294,29.293 L23.294,38.293 C23.241,38.345 23.195,38.401 23.156,38.463 Z M41.045,57.54 L28.778,43.637 L29.637,42.778 L43.54,55.045 L41.045,57.54 Z M33,31.414 L35.586,34 L28.887,40.699 L26.699,42.887 L19,50.586 L18.274,49.86 L24.784,39.629 L33,31.414 Z"
                id="Shape"></path>
                <rect id="Rectangle-path" transform="translate(19.999600, 33.999900) rotate(-45.000000) translate(-19.999600, -33.999900) "
                x="18.9996096" y="32.5859136" width="1.99998082" height="2.82797288"></rect>
                <rect id="Rectangle-path" x="24" y="30" width="2" height="3"></rect>
                <rect id="Rectangle-path" x="16" y="38" width="3" height="2"></rect>
            </g>
        </g>
    </g>
</svg>