<?xml version="1.0" encoding="UTF-8" ?>
<svg width="215px" height="208px" viewBox="0 0 215 208" version="1.1"
xmlns="http://www.w3.org/2000/svg">
    <g id="Page-1" stroke="none" stroke-width="1" fill-rule="evenodd">
        <g id="dataAnalytics" transform="translate(-20.000000, 0.000000)" fill-rule="nonzero">
            <g id="Group-2" transform="translate(20.000000, 0.000000)">
                <path d="M42.6,82 C41,82 39.7,80.8 39.6,79.2 C39.5,78.1 39.5,77 39.5,75.9 C39.5,72.9 39.8,69.9 40.3,67 C40.6,65.4 42.2,64.3 43.8,64.6 C45.4,64.9 46.5,66.5 46.2,68.1 C45.7,70.7 45.5,73.3 45.5,76 C45.5,77 45.5,78 45.6,78.9 C45.7,80.6 44.5,82 42.8,82.1 C42.7,82 42.7,82 42.6,82 Z"
                id="Shape"></path>
                <path d="M47,58.9 C46.6,58.9 46.1,58.8 45.7,58.6 C44.2,57.9 43.6,56.1 44.3,54.6 C52.5,37.4 70.1,26.3 89.1,26.3 C90.8,26.3 92.5,26.4 94.2,26.6 C95.8,26.8 97,28.2 96.9,29.9 C96.7,31.5 95.3,32.7 93.6,32.6 C92.1,32.5 90.6,32.4 89.1,32.4 C72.4,32.4 56.9,42.2 49.7,57.3 C49.2,58.2 48.1,58.9 47,58.9 Z"
                id="Shape"></path>
                <path d="M213.4,43.2 C212.2,42 210.4,42 209.2,43.1 L192,59.7 C191.5,59.6 191,59.5 190.4,59.5 C190.1,59.5 189.9,59.5 189.6,59.6 L187,56.3 C187.2,55.7 187.4,55 187.4,54.3 C187.4,51.1 184.8,48.4 181.5,48.4 C178.2,48.4 175.6,51 175.6,54.3 C175.6,54.8 175.7,55.3 175.8,55.8 L170,61.6 C168.8,62.8 168.8,64.7 170,65.8 C170.6,66.4 171.4,66.7 172.1,66.7 C172.8,66.7 173.6,66.4 174.2,65.8 L180,60 C180.5,60.1 181,60.2 181.5,60.2 C181.8,60.2 182.1,60.2 182.4,60.1 L184.9,63.3 C184.7,63.9 184.5,64.6 184.5,65.4 C184.5,68.6 187.1,71.3 190.4,71.3 C193.7,71.3 196.3,68.7 196.3,65.4 C196.3,64.9 196.2,64.5 196.1,64.1 L213.3,47.5 C214.6,46.3 214.6,44.4 213.4,43.2 Z"
                id="Shape"></path>
                <g id="Group" transform="translate(28.000000, 15.000000)">
                    <path d="M61.3,0.9 C27.5,0.9 0.1,28.4 0.1,62.1 C0.1,95.9 27.6,123.3 61.3,123.3 C95,123.3 122.5,95.8 122.5,62.1 C122.6,28.4 95.1,0.9 61.3,0.9 Z M61.3,117.4 C30.8,117.4 6.1,92.6 6.1,62.2 C6.1,31.8 30.9,7 61.3,7 C91.8,7 116.5,31.8 116.5,62.2 C116.5,92.6 91.8,117.4 61.3,117.4 Z"
                    id="Shape"></path>
                    <path d="M94.2,28.1 L81.8,42.4 C77.2,39.5 71.7,37.8 65.8,37.8 C49.1,37.8 35.4,51.4 35.4,68.2 C35.4,77.1 39.3,85.2 45.4,90.7 L37.6,100.9 C36.6,102.2 36.8,104.1 38.2,105.1 C38.7,105.5 39.4,105.7 40,105.7 C40.9,105.7 41.8,105.3 42.4,104.5 L50.2,94.3 C54.7,97 60,98.6 65.7,98.6 C82.4,98.6 96.1,85 96.1,68.2 C96.1,59.5 92.4,51.6 86.5,46.1 L98.7,32 C99.8,30.7 99.6,28.9 98.4,27.8 C97.2,26.7 95.3,26.9 94.2,28.1 Z M90.2,68.2 C90.2,81.6 79.3,92.6 65.8,92.6 C52.4,92.6 41.4,81.7 41.4,68.2 C41.4,54.7 52.3,43.8 65.8,43.8 C79.3,43.9 90.2,54.8 90.2,68.2 Z"
                    id="Shape"></path>
                    <path d="M76.4,61 L62.3,75.1 L56.7,69.5 C55.5,68.3 53.6,68.3 52.5,69.5 C51.3,70.7 51.3,72.6 52.5,73.7 L60.2,81.4 C60.8,82 61.5,82.3 62.3,82.3 C63.1,82.3 63.9,82 64.4,81.4 L80.7,65.1 C81.9,63.9 81.9,62 80.7,60.9 C79.5,59.8 77.6,59.8 76.4,61 Z"
                    id="Shape"></path>
                </g>
                <path d="M68.1,154.5 C66.8,153.5 64.9,153.8 63.9,155.1 L43.2,183.2 C42.7,183.2 42.2,183.3 41.8,183.4 L36.8,178.4 C36.9,177.9 37,177.4 37,176.9 C37,173.7 34.4,171 31.1,171 C27.8,171 25.2,173.6 25.2,176.9 C25.2,177.5 25.3,178 25.4,178.5 L17.9,186.5 C16.2,185.5 14.3,185 12.2,185 C5.9,185 0.7,190.1 0.7,196.5 C0.7,202.8 5.8,208 12.2,208 C18.6,208 23.7,202.9 23.7,196.5 C23.7,194.4 23.1,192.4 22.1,190.8 L29.7,182.7 C30.1,182.8 30.5,182.8 31,182.8 C31.5,182.8 32,182.7 32.5,182.6 L37.5,187.6 C37.4,188.1 37.3,188.6 37.3,189.1 C37.3,192.3 39.9,195 43.2,195 C46.5,195 49.1,192.4 49.1,189.1 C49.1,188.1 48.8,187.1 48.4,186.3 L68.7,158.8 C69.7,157.4 69.4,155.5 68.1,154.5 Z M12.3,202 C9.3,202 6.8,199.5 6.8,196.5 C6.8,193.5 9.3,191 12.3,191 C15.3,191 17.8,193.5 17.8,196.5 C17.8,199.5 15.3,202 12.3,202 Z"
                id="Shape"></path>
                <path d="M209.9,176.8 L152.7,119.6 C160.9,107.5 165.6,92.9 165.6,77.2 C165.6,35.1 131.4,0.9 89.3,0.9 C47.2,0.9 13,35.1 13,77.1 C13,119.2 47.2,153.4 89.3,153.4 C105,153.4 119.6,148.6 131.7,140.5 L146.6,155.4 L146.6,155.4 L146.6,155.4 L188.9,197.7 C191.8,200.6 195.6,202 199.4,202 C203.2,202 207,200.6 209.9,197.7 C215.7,192 215.7,182.6 209.9,176.8 Z M89.3,147.5 C50.5,147.5 19,115.9 19,77.2 C19,38.4 50.6,6.9 89.3,6.9 C128,6.9 159.6,38.5 159.6,77.2 C159.7,115.9 128.1,147.5 89.3,147.5 Z M136.7,137 C141.3,133.3 145.5,129.1 149.2,124.5 L154.1,129.4 L141.6,141.9 L136.7,137 Z M145.8,146.1 L158.3,133.6 L161.3,136.6 L148.8,149.1 L145.8,146.1 Z M205.7,193.5 C202.3,196.9 196.7,196.9 193.2,193.5 L153,153.3 L165.5,140.8 L205.7,181 C209.1,184.5 209.1,190.1 205.7,193.5 Z"
                id="Shape"></path>
            </g>
        </g>
    </g>
</svg>