<?xml version="1.0" encoding="UTF-8" ?>
<svg width="64px" height="67px" viewBox="0 0 64 67" version="1.1" xmlns="http://www.w3.org/2000/svg">
    <g id="Page-1" stroke="none" stroke-width="1" fill-rule="evenodd">
        <g id="dataEncryption" fill-rule="nonzero">
            <g id="Group">
                <path d="M45.2,23.2 L45.2,22.9 C45.2,10.7 35.2,0.8 23,0.8 C10.8,0.8 0.9,10.7 0.9,22.9 L0.9,22.9 L0.9,22.9 L1.6,22.9 L1.6,23.6 L1.6,22.9 L2.1,22.9 L2.3,22.9 L2.3,22.9 L2.3,22.9 L2.3,22.8 C2.5,11.4 11.7,2.3 23,2.3 C34.4,2.3 43.6,11.6 43.6,22.9 L43.6,23 L42.4,23 C41.5,23 40.6,23.1 39.8,23.2 L39.8,22.9 C39.8,13.6 32.3,6.1 23,6.1 C13.7,6.1 6.2,13.6 6.2,22.9 C6.2,25.4 4.1,27.5 1.6,27.5 L1.6,29 C5,29 7.7,26.3 7.7,22.9 C7.7,14.5 14.6,7.6 23,7.6 C31.4,7.6 38.3,14.5 38.3,22.9 L38.3,23.4 C37,23.7 35.7,24 34.5,24.5 L34.5,22.9 C34.5,16.6 29.4,11.5 23.1,11.5 C16.8,11.5 11.7,16.6 11.7,22.9 L11.7,23.4 C11.4,28.7 7.1,32.9 1.8,32.9 L1.8,34.4 C7.9,34.4 12.9,29.6 13.2,23.5 L13.2,22.9 C13.2,17.4 17.7,13 23.1,13 C28.6,13 33,17.5 33,22.9 L33,25.2 C31.6,25.9 30.3,26.7 29.2,27.6 L29.2,22.9 C29.2,19.5 26.5,16.8 23.1,16.8 C19.7,16.8 17,19.5 17,22.9 L17,22.9 L17,24 C16.5,32 9.8,38.2 1.7,38.2 L1.7,39.7 C10.5,39.7 17.8,32.8 18.5,24.1 L18.5,23 L17.8,23 L18.6,23 C18.6,20.5 20.7,18.4 23.2,18.4 C25.7,18.4 27.8,20.5 27.8,23 L27.8,29 C24.8,31.8 22.6,35.5 21.6,39.7 C16.9,45.2 10.2,48.6 3.1,48.9 L3,50.3 C9.7,50 16.2,47.1 21,42.3 C20.9,43.1 20.9,43.8 20.9,44.6 C20.9,45.5 21,46.5 21.1,47.4 C16.5,51 11.2,53.2 5.6,54 L5.8,55.5 C11.4,54.8 16.8,52.6 21.3,49.1 C21.6,50.4 22,51.7 22.5,53 C18.7,55.7 14.5,57.6 10,58.7 L10.3,60.2 C14.9,59.1 19.2,57.2 23,54.5 C23.6,55.7 24.3,56.7 25,57.8 C22.4,59.6 19.6,61.1 16.6,62.3 L17.2,63.7 C20.3,62.5 23.2,60.9 26,59 C30,63.6 35.8,66.5 42.4,66.5 C54.3,66.5 64,56.8 64,44.9 C64.1,33.6 55.8,24.5 45.2,23.2 Z M42.5,64.8 C31.4,64.8 22.4,55.8 22.4,44.7 C22.4,33.6 31.4,24.6 42.5,24.6 C53.6,24.6 62.6,33.6 62.6,44.7 C62.6,55.8 53.6,64.8 42.5,64.8 Z"
                id="Shape"></path>
                <path d="M30.1,41.9 C28.6,41.9 27.4,43.1 27.4,44.6 C27.4,46.1 28.6,47.3 30.1,47.3 C31.6,47.3 32.8,46.1 32.8,44.6 C32.8,43.1 31.6,41.9 30.1,41.9 Z M30.1,45.8 C29.5,45.8 28.9,45.3 28.9,44.6 C28.9,44 29.4,43.4 30.1,43.4 C30.7,43.4 31.3,43.9 31.3,44.6 C31.3,45.3 30.8,45.8 30.1,45.8 Z"
                id="Shape"></path>
                <path d="M59.6,42.4 L40.6,42.4 C39.6,39 36.5,36.5 32.8,36.5 C28.3,36.5 24.7,40.1 24.7,44.6 C24.7,49.1 28.3,52.7 32.8,52.7 C36.5,52.7 39.6,50.2 40.6,46.8 L49.5,46.8 L49.5,50.2 L51,50.2 L51,46.8 L52,46.8 L52,51.2 L53.5,51.2 L53.5,46.8 L54.6,46.8 L54.6,49.1 L56.1,49.1 L56.1,46.8 L58,46.8 L58,45.3 L40.8,45.3 L40.8,44.5 L40.8,43.7 L59.5,43.7 L59.5,42.4 L59.6,42.4 Z M32.7,51.3 C29,51.3 26.1,48.3 26.1,44.7 C26.1,41 29.1,38.1 32.7,38.1 C36.4,38.1 39.3,41.1 39.3,44.7 C39.4,48.3 36.4,51.3 32.7,51.3 Z"
                id="Shape"></path>
                <path d="M23.7,24.2 L23.7,23.1 L22.2,23 L22.2,24.1 C21.5,35 12.5,43.5 1.7,43.5 L1.7,45 C13.3,45 22.9,35.9 23.7,24.2 Z"
                id="Shape"></path>
            </g>
        </g>
    </g>
</svg>