<?xml version="1.0" encoding="UTF-8" ?>
<svg width="100px" height="94px" viewBox="0 0 100 94" version="1.1" xmlns="http://www.w3.org/2000/svg">
    <g id="Page-1" stroke="none" stroke-width="1" fill-rule="evenodd">
        <g id="design" transform="translate(0.000000, -1.000000)" fill-rule="nonzero">
            <g id="Group">
                <path d="M99.76,19.89 C99.5170327,19.5113364 99.1169266,19.2617288 98.67,19.21 L21.48,10.21 C20.7854703,10.1379246 20.1321062,10.5514463 19.9,11.21 L16.63,20 C16.4742912,20.4298469 16.5231154,20.9072396 16.7626137,21.2966676 C17.0021119,21.6860956 17.4061354,21.9450407 17.86,22 L87.65,30.29 L86.76,33 L16.76,23.67 C16.0479293,23.5729831 15.366144,23.9912563 15.13,24.67 L0.07,72 C-0.0639256344,72.4223743 -0.00425518993,72.8823499 0.233009048,73.2565716 C0.470273286,73.6307932 0.860851754,73.8809663 1.3,73.94 L73.53,83.55 L73.53,83.55 C73.9869038,83.6479066 74.4527277,83.6981753 74.92,83.7 C77.8477032,83.6896291 80.433883,81.7904033 81.32,79 L81.32,79 L96.32,31.7 C96.3442978,31.6149765 96.3610296,31.527971 96.37,31.44 C96.4504345,31.3262254 96.5143994,31.2016623 96.56,31.07 L99.84,21.16 C100.003118,20.7457704 99.9738089,20.2804861 99.76,19.89 L99.76,19.89 Z M20.1,19.22 L22.3,13.28 L96.5,22 L95.28,25.7 C94.2950432,24.407973 92.8729829,23.5191853 91.28,23.2 C90.5303445,23.0439357 89.7825508,23.4737022 89.54,24.2 L88.54,27.37 L20.1,19.22 Z M77,80.1 C76.1740175,80.6413268 75.1666838,80.8320007 74.2,80.63 L74.08,80.63 L3.47,71.21 L17.57,26.86 L85.84,35.95 L74.57,71.4 C74.4423025,71.8036706 74.4911466,72.2425077 74.704479,72.6082206 C74.9178115,72.9739334 75.275762,73.2324584 75.69,73.32 C77.1756344,73.6167726 78.3341887,74.7826522 78.6215917,76.2701276 C78.9089948,77.7576029 78.2681477,79.2711545 77,80.1 L77,80.1 Z M80.2,72.8 C79.5797047,72.0115923 78.7902849,71.3725382 77.89,70.93 L92,26.62 C93.3040152,27.4576254 93.956295,29.012756 93.64,30.53 C93.6355207,30.5965914 93.6355207,30.6634086 93.64,30.73 L93.64,30.8 L80.2,72.8 Z"
                id="Shape"></path>
                <path d="M75.49,48.89 C75.4529602,48.1681818 74.9064416,47.5754193 74.19,47.48 L69,46.79 C68.2862133,46.6847165 67.5995521,47.105981 67.37,47.79 L66.37,51.01 L64.17,50.72 L64.97,48.2 C65.1039256,47.7776257 65.0442552,47.3176501 64.806991,46.9434284 C64.5697267,46.5692068 64.1791482,46.3190337 63.74,46.26 L58.86,45.61 L59.86,41.61 C59.9633947,41.1967719 59.8862231,40.7590716 59.6477423,40.40612 C59.4092615,40.0531684 59.0319647,39.8182556 58.61,39.76 L47.34,38.27 L47.79,36.87 L56.79,38.08 L57,38.08 C57.8284271,38.1352284 58.5447715,37.5084271 58.5999999,36.68 C58.6552284,35.8515729 58.0284271,35.1352285 57.2,35.08 L36.66,32.35 C36.1241016,32.2785469 35.5907913,32.4984199 35.2609619,32.9267949 C34.9311325,33.35517 34.8548929,33.9269667 35.0609619,34.4267949 C35.2670309,34.9266231 35.7241016,35.2785469 36.26,35.35 L44.77,36.49 L44.32,37.89 L33.42,36.43 C32.7062133,36.3247165 32.0195521,36.745981 31.79,37.43 L31.29,39 L26.36,38.57 C25.6725576,38.5075883 25.0303102,38.9192853 24.8,39.57 L21.88,48.75 L19.47,48.43 L22.47,39.03 C22.7212896,38.2402328 22.2847672,37.3962896 21.495,37.145 C20.7052328,36.8937104 19.8612896,37.3302328 19.61,38.12 L12.55,60.37 C12.2987104,61.1597672 12.7352328,62.0037104 13.525,62.255 C14.3147672,62.5062896 15.1587104,62.0697672 15.41,61.28 L18.56,51.38 L20.97,51.7 L18.4,59.78 C18.2661652,60.1978844 18.3220192,60.653417 18.5528474,61.0265893 C18.7836755,61.3997615 19.1663294,61.6531498 19.6,61.72 L26.21,62.72 L31.64,70.28 C31.876883,70.6104606 32.2377693,70.8306013 32.64,70.89 L54.99,73.89 L55.19,73.89 C55.8314593,73.8967388 56.4062038,73.4948195 56.62,72.89 L58.2,68 L60.68,68.33 L59.73,71.33 C59.6165934,71.7504522 59.6915074,72.199435 59.9352774,72.5602914 C60.1790474,72.9211477 60.5676074,73.1582525 61,73.21 L66.15,73.9 C66.728193,73.9811621 67.3000677,73.7148095 67.61,73.22 C70.1217197,69.1868262 72.1776595,64.8871282 73.74,60.4 C74.9515178,56.6854841 75.542769,52.7967403 75.49,48.89 L75.49,48.89 Z M70.89,59.49 C69.5087697,63.4325138 67.7190366,67.2197769 65.55,70.79 L63.14,70.47 L64.09,67.47 C64.2239256,67.0476257 64.1642552,66.5876501 63.926991,66.2134284 C63.6897267,65.8392068 63.2991482,65.5890337 62.86,65.53 L57.36,64.79 C56.6462133,64.6847165 55.9595521,65.105981 55.73,65.79 L54.16,70.72 L33.69,68 L28.28,60.5 C28.043117,60.1695394 27.6822307,59.9493987 27.28,59.89 L21.78,59 L27.3,41.68 L32.23,42.11 C32.9183383,42.1760972 33.5626647,41.7630675 33.79,41.11 L34.27,39.59 L56.56,42.59 L55.56,46.59 C55.4566053,47.0032281 55.5337769,47.4409284 55.7722577,47.79388 C56.0107385,48.1468316 56.3880353,48.3817444 56.81,48.44 L61.58,49.08 L60.78,51.6 C60.6666209,52.0128928 60.7350976,52.4545575 60.9681803,52.8137341 C61.2012629,53.1729106 61.576731,53.4153576 62,53.48 L67.22,54.18 C67.9337867,54.2852835 68.6204479,53.864019 68.85,53.18 L69.85,49.96 L72.45,50.31 C72.3414321,53.4266342 71.8133463,56.5144226 70.88,59.49 L70.89,59.49 Z"
                id="Shape"></path>
                <path d="M32,48.47 C31.5498879,47.7741212 30.6208788,47.5748879 29.925,48.025 C29.2291212,48.4751121 29.0298879,49.4041212 29.48,50.1 L35.28,59 C35.7301121,59.6958787 36.6591212,59.895112 37.355,59.445 C38.0508787,58.9948879 38.250112,58.0658788 37.8,57.37 L32,48.47 Z"
                id="Shape"></path>
                <path d="M39,49.4 C38.5346301,48.7615601 37.6538265,48.5935273 36.9861014,49.015804 C36.3183762,49.4380808 36.0926529,50.3058936 36.47,51 L42.23,59.9 C42.6801121,60.5958787 43.6091212,60.795112 44.305,60.345 C45.0008787,59.8948879 45.200112,58.9658788 44.75,58.27 L39,49.4 Z"
                id="Shape"></path>
                <path d="M45.94,50.33 C45.4788422,49.6341212 44.5408788,49.4438422 43.845,49.905 C43.1491212,50.3661578 42.9588422,51.3041212 43.42,52 L49.17,60.89 C49.4611714,61.3401547 49.9703796,61.6007767 50.5058107,61.5736921 C51.0412419,61.5466076 51.5215512,61.2359313 51.7658108,60.7586921 C52.0100704,60.2814528 51.9811715,59.7101546 51.69,59.26 L45.94,50.33 Z"
                id="Shape"></path>
                <path d="M55.62,49.37 C53.3346671,49.1072928 51.173306,50.4664564 50.42,52.64 C50.064478,53.70562 50.2000011,54.8740486 50.79,55.83 C51.4150514,56.7895897 52.433008,57.4230663 53.57,57.56 C53.7664667,57.5725433 53.9635333,57.5725433 54.16,57.56 C56.2432695,57.54641 58.0911641,56.2196137 58.77,54.25 C59.1241138,53.1842345 58.9886614,52.0164154 58.4,51.06 C57.7666239,50.1155991 56.7499511,49.4975498 55.62,49.37 Z M55.91,53.37 C55.6087141,54.1494854 54.8334857,54.6405987 54,54.58 C53.7408121,54.5618417 53.5028966,54.4300731 53.35,54.22 C53.2474558,54.0049311 53.2474558,53.7550689 53.35,53.54 C53.6193585,52.8512385 54.2621255,52.3798761 55,52.33 L55.2,52.33 C55.4591879,52.3481583 55.6971034,52.4799269 55.85,52.69 C55.9751296,52.8985075 55.9972614,53.1530237 55.91,53.38 L55.91,53.37 Z"
                id="Shape"></path>
                <path d="M32.15,5.75 L36.15,6.22 L36.15,6.59 C36.1020333,6.98521332 36.2131454,7.38328395 36.4588599,7.69652307 C36.7045744,8.00976219 37.0647336,8.21247248 37.46,8.26 L42.29,8.83 C42.3002036,9.5793802 42.8654363,10.2045618 43.61,10.29 L82.28,14.87 L82.46,14.87 C83.1457869,14.8719066 83.7443085,14.4054725 83.91,13.74 L88.74,14.31 L88.92,14.31 C89.6374012,14.2628723 90.2204796,13.7133523 90.31,13 L90.75,9.28 C90.7979667,8.88478668 90.6868546,8.48671605 90.4411401,8.17347693 C90.1954256,7.86023781 89.8352664,7.65752752 89.44,7.61 L84.61,7 C84.5997964,6.2506198 84.0345637,5.62543822 83.29,5.54 L44.62,1 C43.8708746,0.908535329 43.1729106,1.39538679 43,2.13 L38.16,1.56 C37.7658912,1.51213822 37.368978,1.62353622 37.0573281,1.86947683 C36.7456782,2.11541744 36.5450647,2.47556162 36.5,2.87 L36.5,3.24 L32.5,2.77 C31.6715729,2.67335017 30.9216498,3.26657288 30.825,4.095 C30.7283502,4.92342712 31.3215729,5.67335017 32.15,5.77 L32.15,5.75 Z M87.51,11.17 L84.19,10.78 L84.28,10 L87.6,10.39 L87.51,11.17 Z M81.06,11.71 L45.36,7.49 L45.49,6.38 L45.75,4.17 L81.45,8.39 L81.06,11.71 Z M42.62,5.1 L42.62,5.47 L42.62,5.84 L39.3,5.45 L39.39,4.7 L42.62,5.1 Z"
                id="Shape"></path>
                <path d="M60.41,84.86 L21.8,79.86 L21.8,79.86 L17.52,79.3 C17.1372577,79.2488697 16.7496883,79.3493507 16.44,79.58 L16.34,79.58 L5.78,81 C5.11044823,81.093482 4.58616879,81.6233005 4.49972838,82.2937977 C4.41328797,82.964295 4.78605004,83.6097599 5.41,83.87 L15.24,87.97 L15.33,87.97 C15.5771276,88.2787858 15.9368822,88.4766508 16.33,88.52 L54.94,93.52 L54.94,93.52 L59.23,94.08 L59.42,94.08 C60.1757618,94.0810489 60.8142708,93.5196752 60.91,92.77 L61.73,86.48 C61.8003885,85.6719218 61.2156406,84.9542767 60.41,84.86 L60.41,84.86 Z M53.81,90.4 L22.46,86.3 L22.9,83 L54.25,87.1 L53.81,90.4 Z M15.55,82.68 L15.28,84.68 L11.66,83.17 L15.55,82.68 Z M18.61,82.43 L19.93,82.6 L19.5,85.92 L18.18,85.75 L18.61,82.43 Z M58.1,91 L56.78,90.83 L57.21,87.51 L58.53,87.68 L58.1,91 Z"
                id="Shape"></path>
            </g>
        </g>
    </g>
</svg>