<?xml version="1.0" encoding="UTF-8" ?>
<svg width="44px" height="84px" viewBox="0 0 44 84" version="1.1" xmlns="http://www.w3.org/2000/svg">
    <g id="Page-1" stroke="none" stroke-width="1" fill-rule="evenodd">
        <g id="dna" transform="translate(-28.000000, 0.000000)" fill-rule="nonzero">
            <g id="Group" transform="translate(28.000000, 0.000000)">
                <path d="M37.213,55.094 L28.059,45.94 C27.473,45.354 26.524,45.354 25.938,45.94 C25.352,46.526 25.352,47.475 25.938,48.061 L35.092,57.215 C38.577,60.701 40.498,65.366 40.5,70.352 L40.502,82.004 C40.502,84.007 43.502,83.976 43.502,82.003 L43.498,70.352 C43.498,64.565 41.266,59.146 37.213,55.094 Z"
                id="Shape"></path>
                <path d="M6.787,28.906 L15.941,38.06 C16.454,38.573 17.446,38.676 18.062,38.06 C18.648,37.475 18.648,36.524 18.062,35.939 L8.908,26.785 C5.422,23.299 3.502,18.634 3.5,13.648 L3.498,1.996 C3.498,-0.015 0.498,-0.015 0.498,1.997 L0.502,13.648 C0.502,19.434 2.734,24.853 6.787,28.906 Z"
                id="Shape"></path>
                <path d="M42.002,0.5 C41.174,0.5 40.502,1.171 40.502,2 L40.502,10.504 L6.998,10.504 C6.169,10.504 5.498,11.175 5.498,12.004 C5.498,12.833 6.169,13.504 6.998,13.504 L40.502,13.504 L40.502,13.649 C40.502,16.042 40.05,18.353 39.208,20.499 L11.998,20.499 C11.169,20.499 10.498,21.17 10.498,21.999 C10.498,22.828 11.169,23.499 11.998,23.499 L37.691,23.499 C36.945,24.693 36.073,25.818 35.05,26.831 L31.382,30.499 L21.997,30.499 C21.168,30.499 20.497,31.17 20.497,31.999 C20.497,32.828 21.168,33.499 21.997,33.499 L28.382,33.499 L20.948,40.933 C20.945,40.936 20.94,40.937 20.936,40.941 L6.833,55.044 C2.748,59.091 0.498,64.527 0.498,70.352 L0.498,82 C0.498,82.828 1.169,83.5 1.998,83.5 C2.827,83.5 3.498,82.828 3.498,82 L3.498,73.5 L36.998,73.5 C37.826,73.5 38.498,72.828 38.498,72 C38.498,71.172 37.826,70.5 36.998,70.5 L3.498,70.5 L3.498,70.352 C3.498,67.959 3.95,65.649 4.792,63.502 L32,63.502 C32.828,63.502 33.5,62.83 33.5,62.002 C33.5,61.174 32.828,60.502 32,60.502 L6.308,60.502 C7.055,59.308 7.926,58.184 8.949,57.17 L12.619,53.5 L21.998,53.5 C22.826,53.5 23.498,52.828 23.498,52 C23.498,51.172 22.826,50.5 21.998,50.5 L15.619,50.5 L23.051,43.068 C23.055,43.064 23.059,43.064 23.063,43.06 L37.167,28.956 C41.252,24.909 43.502,19.473 43.502,13.648 L43.502,2 C43.502,1.171 42.83,0.5 42.002,0.5 Z"
                id="Shape"></path>
            </g>
        </g>
    </g>
</svg>