<?xml version="1.0" encoding="UTF-8" ?>
<svg width="90px" height="79px" viewBox="0 0 90 79" version="1.1" xmlns="http://www.w3.org/2000/svg">
    <g id="Page-1" stroke="none" stroke-width="1" fill-rule="evenodd">
        <g id="donate" transform="translate(-7.000000, 0.000000)" fill-rule="nonzero">
            <g id="Group" transform="translate(7.000000, 0.000000)">
                <path d="M43.9,50.5 C43.9,39 52.6,29.4 63.8,28.1 C65.1,27.9 66.5,27.7 67.8,27.7 C72.2,27.9 76.1,29.1 79.5,31.2 C81.3,26.3 81.3,21.2 78.4,16.1 C75.2,10.8 69.1,7.5 62.2,7.5 C55.9,7.5 50.1,10.3 46.9,15.1 L43.9,19.3 L41.1,15.1 C37.9,10.3 32.1,7.5 25.8,7.5 C18.9,7.5 12.8,10.8 9.6,16.1 C2.6,27.8 11.7,39.3 22.7,50 C27.2,54.5 38.6,64.4 44,68.9 C45.4,67.8 47.1,66.2 49.1,64.5 C45.8,60.8 43.9,55.9 43.9,50.5 Z M54.4,69.5 C50.3,73 46.9,75.9 46.2,76.5 L43.9,78.5 L41.8,76.5 C38.4,73.7 23.2,60.7 17.7,55.4 C10.2,48.1 -7.4,30.8 3.5,12.7 C8,5.1 16.3,0.6 25.7,0.6 C32.7,0.6 39.4,3.3 44,7.8 C48.6,3.1 55.3,0.6 62.3,0.6 C71.7,0.6 79.9,5.1 84.6,12.7 C89.5,21 88.6,29.2 85.2,36.2 C88.3,40 90,44.8 90,50 C90,57.6 86.1,64.4 80.3,68.4 L80.2,68.5 C76.4,71.4 71.7,73.1 66.6,73.1 C62,73.1 57.9,71.8 54.4,69.5 Z M66.9,67.1 C76.3,67.1 83.9,59.5 83.9,50.1 C83.9,40.8 76.4,33.2 67,33.1 L66.9,33.1 C57.6,33.1 49.9,40.7 49.9,50.1 C49.9,59.4 57.4,67 66.7,67.1 L66.9,67.1 Z"
                id="Shape"></path>
                <path d="M66.4,47.7 L66.4,46.2 L66.4,45.7 L66.4,44.3 C65.5,44.5 64.9,45 64.9,46.1 C64.9,47.1 65.6,47.6 66.4,47.7 Z M69.5,54.6 C69.5,54.2 69.4,53.9 69.3,53.7 C69.1,53.2 68.6,52.9 68,52.7 L68,56.4 C68.6,56.4 69.1,56 69.3,55.4 C69.5,55.1 69.5,54.8 69.5,54.6 Z M66.4,40.7 L66.4,39.5 C66.4,39 66.7,38.8 67.1,38.8 C67.7,38.8 67.8,39.1 67.8,39.5 L67.8,40.7 C69.5,40.7 72.6,41.3 72.6,43.5 C72.6,44.5 71.8,45.4 70.8,45.4 C69.8,45.4 69,44.4 67.8,44.4 L67.8,48.1 C70.8,49 73.9,50.3 73.9,54 C73.9,58.2 70.5,60.1 67.8,60.3 L67.8,61.5 C67.8,61.9 67.5,62.2 67.1,62.2 C66.5,62.2 66.4,61.9 66.4,61.5 L66.4,60.5 C64.6,60.3 60.3,59.9 60.3,57.4 C60.3,56.2 61.2,55.2 62.2,55.2 C63.1,55.2 64.4,56.4 66.4,56.4 L66.4,52.2 C61.9,50.9 60.4,49.2 60.4,46.8 C60.4,43.3 63.1,41 66.4,40.7 Z"
                id="Shape"></path>
                <path d="M65.8,45.8 L65.8,46.3 L65.8,46.1 C65.7,46 65.7,45.9 65.8,45.8 Z"
                id="Shape"></path>
            </g>
        </g>
    </g>
</svg>