<?xml version="1.0" encoding="UTF-8" ?>
<svg width="88px" height="88px" viewBox="0 0 88 88" version="1.1" xmlns="http://www.w3.org/2000/svg">
    <g id="Page-1" stroke="none" stroke-width="1" fill-rule="evenodd">
        <g id="drame" transform="translate(-6.000000, -1.000000)" fill-rule="nonzero">
            <g id="Group" transform="translate(6.000000, 0.637820)">
                <path d="M13.53125,0.38117 C12.686805,0.36927 11.875515,0.39707 11.09375,0.50614 C9.530219,0.7243 8.093517,1.20954 6.8125,1.97457 C4.250467,3.50464 2.5113255,6.12618 1.46875,9.47295 C0.4261745,12.81973 0,16.94341 0,22.03274 C0,32.32922 3.0182684,41.78717 8,48.777 C12.981732,55.7669 20.054002,60.3682 28,60.3682 C29.680448,60.3682 31.309882,60.1368 32.90625,59.7434 C34.154414,66.2152 36.634799,72.0493 40,76.7709 C44.981731,83.7608 52.054,88.3622 60,88.3622 C67.946,88.3622 75.018269,83.7608 80,76.7709 C84.981731,69.7811 88,60.3233 88,50.0267 C88,44.9374 87.573826,40.81369 86.53125,37.46691 C85.488674,34.12014 83.749533,31.49859 81.1875,29.96853 C78.625467,28.43847 75.455568,28.06618 71.84375,28.56258 C68.439081,29.03051 64.507757,30.32371 60,32.1868 C58.356121,31.50738 56.805474,30.95264 55.3125,30.43718 C55.759584,27.72989 56,24.90433 56,22.03274 C56,16.94341 55.573825,12.81973 54.53125,9.47295 C53.488675,6.12618 51.749533,3.50464 49.1875,1.97457 C46.625467,0.4445 43.455568,0.07222 39.84375,0.56863 C36.439081,1.03655 32.507757,2.32976 28,4.19284 C23.492243,2.32976 19.560919,1.03655 16.15625,0.56863 C15.253296,0.44453 14.375695,0.39303 13.53125,0.38117 Z M13.5,4.3803 C14.15457,4.3904 14.861978,4.4316 15.625,4.53652 C18.677086,4.95599 22.541835,6.17961 27.21875,8.16074 C27.718042,8.37253823 28.281958,8.37253823 28.78125,8.16074 C33.458165,6.17961 37.322914,4.95599 40.375,4.53652 C43.427086,4.11705 45.572239,4.48402 47.125,5.41133 C48.677761,6.33865 49.867832,7.92866 50.71875,10.6602 C51.569668,13.39174 52,17.17515 52,22.03274 C52,24.48618 51.791351,26.90021 51.4375,29.21869 C50.298359,28.92922 49.195781,28.70545 48.15625,28.56258 C46.350341,28.31439 44.657281,28.28194 43.09375,28.50008 C41.530219,28.71824 40.093517,29.20348 38.8125,29.96851 C36.358089,31.4343 34.680057,33.91353 33.625,37.06073 C31.918715,36.50835 30.029169,36.37338 28,36.37338 C21.266437,36.37338 17.5016,40.01079 15.34375,43.24688 C14.8742857,43.8365779 14.7763174,44.6400819 15.09034,45.3252663 C15.4043626,46.0104508 16.077032,46.4609209 16.8303026,46.4904766 C17.5835732,46.5200323 18.2894843,46.1236527 18.65625,45.46518 C20.4984,42.70248 22.583299,40.37252 28,40.37252 C29.978699,40.37252 31.556013,40.56525 32.65625,40.96614 C32.203175,43.5916 32,46.5691 32,50.0267 C32,51.968 32.104986,53.9047 32.3125,55.7755 C30.909408,56.1492 29.474911,56.3691 28,56.3691 C21.586597,56.3691 15.678418,52.6784 11.25,46.465 C6.821582,40.25142 4,31.54607 4,22.03274 C4,17.17515 4.430332,13.39174 5.28125,10.6602 C6.132168,7.92866 7.322239,6.33865 8.875,5.41133 C10.039571,4.71584 11.536291,4.35002 13.5,4.3803 Z M20.9375,14.3469 C20.8213126,14.3576689 20.7062906,14.378582 20.59375,14.4094 L10.59375,16.40897 C9.85098438,16.5078909 9.22581983,17.0135796 8.97399548,17.7191716 C8.72217112,18.4247635 8.88593033,19.211896 9.39828332,19.7585731 C9.9106363,20.3052501 10.6856362,20.5197669 11.40625,20.31437 L21.40625,18.31481 C22.461796,18.1416766 23.1942881,17.1689036 23.0688229,16.1068597 C22.9433578,15.0448158 22.0043451,14.2694218 20.9375,14.34691 L20.9375,14.3469 Z M35,14.3469 C33.9529949,14.3174252 33.0605576,15.1004893 32.9538988,16.1422399 C32.8472401,17.1839905 33.5624855,18.1315848 34.59375,18.3148 L44.59375,20.31436 C45.3143638,20.5197569 46.0893637,20.3052401 46.6017167,19.7585631 C47.1140697,19.211886 47.2778289,18.4247535 47.0260045,17.7191616 C46.7741802,17.0135696 46.1490156,16.5078809 45.40625,16.40896 L35.40625,14.40939 C35.273339,14.3746677 35.1372037,14.3537271 35,14.3469 L35,14.3469 Z M45.5,32.37426 C46.154788,32.38226 46.861978,32.42556 47.625,32.53048 C50.677086,32.94995 54.541835,34.17357 59.21875,36.1547 C59.718042,36.3664982 60.281958,36.3664982 60.78125,36.1547 C65.458165,34.17357 69.322914,32.94995 72.375,32.53048 C75.427086,32.11101 77.572239,32.47798 79.125,33.40529 C80.677761,34.33261 81.867832,35.92262 82.71875,38.65416 C83.569668,41.3857 84,45.1692 84,50.0267 C84,59.5401 81.178418,68.2454 76.75,74.4589 C72.321582,80.6724 66.413401,84.363 60,84.363 C53.586599,84.363 47.678418,80.6724 43.25,74.4589 C38.821582,68.2454 36,59.5401 36,50.0267 C36,45.1692 36.430332,41.3857 37.28125,38.65416 C38.132168,35.92262 39.322239,34.33261 40.875,33.40529 C41.651381,32.94163 42.576844,32.61973 43.6875,32.46799 C44.242828,32.39209 44.845212,32.36589 45.5,32.37429 L45.5,32.37426 Z M49,44.3717 C46.940777,44.3717 45.2055,45.0262 43.9375,46.0276 C42.6695,47.029 41.857513,48.2884 41.25,49.4018 C40.8324897,50.0318325 40.8059062,50.8433658 41.1812899,51.4993601 C41.5566736,52.1553544 42.2698888,52.5437306 43.0247285,52.5031914 C43.7795683,52.4626522 44.4470653,52.0001239 44.75,51.3077 C45.233396,50.4217 45.775404,49.6813 46.40625,49.1831 C47.037096,48.6849 47.745515,48.3708 49,48.3708 C50.254486,48.3708 50.962904,48.6849 51.59375,49.1831 C52.224596,49.6813 52.766604,50.4217 53.25,51.3077 C53.5529347,52.0001239 54.2204317,52.4626522 54.9752715,52.5031914 C55.7301112,52.5437306 56.4433264,52.1553544 56.8187101,51.4993601 C57.1940938,50.8433658 57.1675103,50.0318325 56.75,49.4018 C56.142487,48.2884 55.3305,47.029 54.0625,46.0276 C52.7945,45.0262 51.059223,44.3717 49,44.3717 L49,44.3717 Z M71,44.3717 C68.940777,44.3717 67.2055,45.0262 65.9375,46.0276 C64.6695,47.029 63.857513,48.2884 63.25,49.4018 C62.8324897,50.0318325 62.8059062,50.8433658 63.1812899,51.4993601 C63.5566736,52.1553544 64.2698888,52.5437306 65.0247285,52.5031914 C65.7795683,52.4626522 66.4470653,52.0001239 66.75,51.3077 C67.233396,50.4217 67.775404,49.6813 68.40625,49.1831 C69.037096,48.6849 69.745514,48.3708 71,48.3708 C72.254485,48.3708 72.962904,48.6849 73.59375,49.1831 C74.224596,49.6813 74.766604,50.4217 75.25,51.3077 C75.5529347,52.0001239 76.2204317,52.4626522 76.9752715,52.5031914 C77.7301112,52.5437306 78.4433264,52.1553544 78.8187101,51.4993601 C79.1940938,50.8433658 79.1675103,50.0318325 78.75,49.4018 C78.142487,48.2884 77.3305,47.029 76.0625,46.0276 C74.7945,45.0262 73.059223,44.3717 71,44.3717 L71,44.3717 Z M69.78125,67.2417 C69.1738739,67.3364153 68.6437921,67.7050942 68.34375,68.2415 C66.501605,71.0041 64.41671,73.3654 59,73.3654 C53.58329,73.3654 51.498396,71.0041 49.65625,68.2415 C49.2501814,67.6123754 48.5266124,67.2627468 47.78125,67.3355 C47.079236,67.409238 46.4680739,67.8474586 46.1730817,68.4886024 C45.8780894,69.1297463 45.9429496,69.8788726 46.34375,70.4598 C48.501604,73.6958 52.266446,77.3646 59,77.3646 C65.733554,77.3646 69.498397,73.6958 71.65625,70.4598 C72.167584,69.814744 72.23138,68.922343 71.8170023,68.2111382 C71.4026246,67.4999335 70.5947186,67.1152035 69.78125,67.2417 L69.78125,67.2417 Z"
                id="Shape"></path>
            </g>
        </g>
    </g>
</svg>