<?xml version="1.0" encoding="UTF-8" ?>
<svg width="20px" height="20px" viewBox="0 0 20 20" version="1.1" xmlns="http://www.w3.org/2000/svg">
    <g id="Page-1" stroke="none" stroke-width="1" fill-rule="evenodd">
        <g id="earth" fill-rule="nonzero">
            <path d="M19.7,10 C19.7,15.4 15.3,19.7 10,19.7 C4.7,19.7 0.3,15.4 0.3,10 C0.3,4.6 4.6,0.3 10,0.3 C15.4,0.3 19.7,4.6 19.7,10 Z M9.9,14.6 C9.9,14.4 9.8,14.3 9.6,14.2 C9,14 8.4,14 7.9,13.5 C7.8,13.3 7.8,13.1 7.7,12.9 C7.5,12.7 7,12.6 6.7,12.5 L5.4,12.5 L4.7,12.5 C4.4,12.4 4.2,12 4,11.7 C4,11.6 4,11.4 3.8,11.4 C3.6,11.3 3.4,11.5 3.2,11.4 C3.1,11.3 3.1,11.2 3.1,11.1 C3.1,10.8 3.3,10.5 3.5,10.3 C3.8,10.1 4.1,10.4 4.4,10.4 C4.5,10.4 4.5,10.4 4.6,10.5 C4.9,10.6 5,11 5,11.3 L5,11.5 C5,11.6 5.1,11.6 5.2,11.6 C5.3,11.1 5.3,10.6 5.4,10.1 C5.4,9.5 6,8.9 6.5,8.7 C6.7,8.6 6.8,8.8 7,8.7 C7.6,8.5 9.1,7.9 8.8,7.1 C8.6,6.4 8,5.7 7.2,5.8 C7,5.9 6.9,6 6.7,6.1 C6.4,6.3 5.8,6.9 5.5,6.9 C5,6.8 5,6.1 5.1,5.8 C5.2,5.4 6.1,4.1 6.7,4.3 C6.8,4.4 7,4.6 7.1,4.7 C7.3,4.8 7.6,4.8 7.9,4.8 C8,4.8 8.1,4.8 8.2,4.7 C8.3,4.6 8.3,4.6 8.3,4.5 C8.3,4.2 8,3.9 7.8,3.7 C7.6,3.5 7.3,3.3 7,3.2 C6,2.9 4.4,3.3 3.6,4 C2.8,4.7 2.2,5.9 1.8,6.9 C1.6,7.5 1.4,8.3 1.3,9 C1.2,9.5 1.1,9.9 1.4,10.4 C1.7,11 2.3,11.6 2.9,12 C3.3,12.3 4.1,12.3 4.5,12.8 C4.8,13.2 4.7,13.7 4.7,14.2 C4.7,14.8 5.1,15.3 5.3,15.8 C5.4,16.1 5.5,16.5 5.6,16.8 C5.6,16.9 5.7,17.5 5.7,17.6 C6.3,17.9 6.8,18.2 7.5,18.4 C7.6,18.4 8,17.8 8,17.7 C8.3,17.4 8.5,17 8.8,16.8 C9,16.7 9.2,16.6 9.4,16.4 C9.6,16.2 9.7,15.8 9.8,15.5 C9.9,15.3 10,14.9 9.9,14.6 Z M10.1,5.4 C10.2,5.4 10.3,5.3 10.5,5.2 C10.8,5 11.1,4.7 11.4,4.5 C11.7,4.3 12,4 12.2,3.8 C12.5,3.6 12.7,3.2 12.8,2.9 C12.9,2.7 13.2,2.3 13.1,2 C13,1.8 12.5,1.7 12.3,1.6 C11.5,1.4 10.8,1.3 10,1.3 C9.7,1.3 9.3,1.4 9.2,1.7 C9.1,2.2 9.5,2.1 9.9,2.2 C9.9,2.2 10,3 10,3.1 C10.1,3.6 9.8,3.9 9.8,4.4 C9.8,4.7 9.8,5.2 10,5.4 C10,5.4 10.1,5.4 10.1,5.4 Z M18.5,12.4 C18.6,12.2 18.6,11.9 18.7,11.7 C18.8,11.2 18.8,10.7 18.8,10.2 C18.8,9.2 18.7,8.2 18.4,7.3 C18.2,7 18.1,6.7 18,6.4 C17.8,5.9 17.5,5.4 17.1,5 C16.7,4.5 16.2,3.1 15.3,3.5 C15,3.6 14.8,4 14.6,4.2 C14.4,4.5 14.2,4.8 14,5.1 C13.9,5.2 13.8,5.4 13.9,5.5 C13.9,5.6 14,5.6 14.1,5.6 C14.3,5.7 14.4,5.7 14.6,5.8 C14.7,5.8 14.8,5.9 14.7,6 C14.7,6 14.7,6.1 14.6,6.1 C14.1,6.6 13.6,7 13.1,7.5 C13,7.6 12.9,7.8 12.9,7.9 C12.9,8 13,8 13,8.1 C13,8.2 12.9,8.2 12.8,8.3 C12.6,8.4 12.4,8.5 12.3,8.6 C12.2,8.8 12.3,9.1 12.2,9.3 C12.1,9.8 11.8,10.2 11.6,10.7 C11.4,11 11.3,11.3 11.1,11.6 C11.1,12 11,12.3 11.2,12.6 C11.7,13.3 12.6,12.9 13.3,13.2 C13.5,13.3 13.7,13.3 13.8,13.5 C14.1,13.8 14.1,14.3 14.2,14.6 C14.3,15 14.4,15.4 14.6,15.8 C14.7,16.3 14.9,16.8 15,17.2 C15.9,16.5 16.7,15.7 17.3,14.7 C17.9,14 18.2,13.2 18.5,12.4 Z"
            id="Shape"></path>
            <path d="M10,0 C4.5,0 0,4.5 0,10 C0,15.5 4.5,20 10,20 C15.5,20 20,15.5 20,10 C20,4.5 15.5,0 10,0 Z M10,18.4 C5.4,18.4 1.6,14.6 1.6,10 C1.6,5.4 5.4,1.6 10,1.6 C14.6,1.6 18.4,5.4 18.4,10 C18.4,14.6 14.6,18.4 10,18.4 Z"
            id="Shape"></path>
        </g>
    </g>
</svg>