<svg xmlns="http://www.w3.org/2000/svg" version="1.1" x="0px" y="0px"
viewBox="0 0 64 80" style="enable-background:new 0 0 64 64;">
    <path d="M61,2H45H35H19c-0.553,0-1,0.448-1,1v6v13h-3.026C15.609,21.162,16,20.13,16,19c0-2.757-2.243-5-5-5s-5,2.243-5,5  c0,1.13,0.391,2.162,1.026,3H7c-2.757,0-5,2.243-5,5v6c0,0.552,0.447,1,1,1h3v8c0,0.552,0.447,1,1,1h8c0.553,0,1-0.448,1-1V28h2v3  c0,0.552,0.447,1,1,1h17h8h17c0.553,0,1-0.448,1-1V3C62,2.448,61.553,2,61,2z M60,8h-6c-0.334,0-0.646,0.167-0.832,0.445L51.465,11  h-3.484C47.416,10.25,46.75,9.584,46,9.019V4h14V8z M47.923,18.049c-0.012,0.093-0.027,0.185-0.042,0.277  c-0.05,0.301-0.116,0.599-0.2,0.892c-0.013,0.044-0.021,0.09-0.035,0.134c-0.099,0.321-0.224,0.634-0.364,0.941  c-0.04,0.089-0.084,0.176-0.127,0.263c-0.136,0.273-0.286,0.541-0.454,0.8c-0.785,1.203-1.885,2.179-3.182,2.818  c-0.255,0.125-0.515,0.236-0.778,0.333c-0.027,0.01-0.054,0.02-0.082,0.03c-0.265,0.094-0.533,0.173-0.804,0.238  c-0.021,0.005-0.042,0.011-0.063,0.016c-1.18,0.273-2.406,0.273-3.586,0c-0.021-0.005-0.042-0.011-0.063-0.016  c-0.271-0.065-0.539-0.144-0.804-0.238c-0.027-0.01-0.054-0.02-0.082-0.03c-0.263-0.097-0.523-0.207-0.778-0.333  c-1.297-0.639-2.397-1.614-3.182-2.817c-0.169-0.259-0.318-0.527-0.455-0.8c-0.043-0.087-0.086-0.174-0.127-0.262  c-0.139-0.307-0.265-0.62-0.364-0.942c-0.014-0.044-0.022-0.09-0.035-0.134c-0.084-0.293-0.15-0.591-0.2-0.892  c-0.015-0.091-0.03-0.183-0.042-0.275C32.031,17.703,32,17.354,32,17s0.031-0.703,0.077-1.05c0.012-0.092,0.027-0.184,0.042-0.275  c0.05-0.302,0.116-0.6,0.2-0.892c0.013-0.044,0.021-0.09,0.035-0.134c0.099-0.322,0.224-0.635,0.364-0.942  c0.04-0.089,0.083-0.175,0.127-0.262c0.137-0.274,0.286-0.542,0.455-0.8c0.608-0.932,1.403-1.729,2.333-2.338  c0.284-0.185,0.578-0.35,0.881-0.495c0.043-0.021,0.085-0.042,0.129-0.062c2.108-0.96,4.608-0.96,6.716,0  c0.043,0.02,0.086,0.041,0.129,0.062c0.303,0.145,0.598,0.31,0.881,0.495c0.931,0.609,1.726,1.406,2.333,2.338  c0.169,0.258,0.318,0.526,0.454,0.8c0.044,0.087,0.087,0.174,0.127,0.263c0.139,0.307,0.265,0.62,0.364,0.941  c0.014,0.044,0.022,0.09,0.035,0.134c0.084,0.292,0.15,0.59,0.2,0.892c0.015,0.092,0.03,0.184,0.042,0.277  C47.969,16.297,48,16.647,48,17S47.969,17.703,47.923,18.049z M30.805,13.074c-0.059,0.138-0.106,0.281-0.159,0.422  c-0.063,0.169-0.132,0.336-0.186,0.508c-0.053,0.17-0.092,0.345-0.136,0.519c-0.038,0.15-0.084,0.297-0.116,0.449  c-0.046,0.222-0.074,0.449-0.105,0.676c-0.015,0.109-0.039,0.216-0.05,0.325c-0.001,0.009-0.001,0.018-0.002,0.027H20v-6h5.465  l1.703,2.555C27.354,12.833,27.666,13,28,13h2.833C30.822,13.024,30.815,13.05,30.805,13.074z M49.195,20.927  c0.06-0.139,0.107-0.284,0.16-0.426c0.063-0.168,0.131-0.334,0.185-0.505c0.053-0.17,0.092-0.345,0.136-0.519  c0.038-0.15,0.084-0.297,0.116-0.449c0.046-0.222,0.074-0.449,0.105-0.676c0.015-0.109,0.039-0.216,0.05-0.325  c0.001-0.009,0.001-0.018,0.002-0.027H60v6h-5.465l-1.703-2.555C52.646,21.167,52.334,21,52,21h-2.833  C49.177,20.976,49.184,20.951,49.195,20.927z M49.949,16c-0.001-0.009-0.001-0.018-0.002-0.027c-0.011-0.109-0.035-0.216-0.05-0.325  c-0.031-0.227-0.059-0.454-0.105-0.676c-0.031-0.152-0.077-0.299-0.116-0.449c-0.044-0.173-0.083-0.349-0.136-0.519  c-0.054-0.171-0.122-0.337-0.185-0.505c-0.053-0.142-0.101-0.287-0.16-0.426c-0.01-0.024-0.017-0.049-0.028-0.073H52  c0.334,0,0.646-0.167,0.832-0.445L54.535,10H60v6H49.949z M44,7.833c-0.023-0.01-0.047-0.016-0.069-0.026  c-0.152-0.065-0.31-0.118-0.465-0.176c-0.156-0.058-0.309-0.122-0.467-0.171c-0.183-0.058-0.372-0.1-0.559-0.147  c-0.137-0.034-0.271-0.077-0.409-0.106c-0.236-0.049-0.479-0.08-0.721-0.112c-0.094-0.012-0.186-0.033-0.281-0.043  C41.019,7.052,41.009,7.052,41,7.051V4h3V7.833z M39,4v3.051c-0.009,0.001-0.019,0.001-0.028,0.002  c-0.094,0.01-0.185,0.03-0.278,0.043c-0.243,0.032-0.487,0.063-0.724,0.113c-0.138,0.028-0.272,0.071-0.408,0.105  c-0.188,0.047-0.377,0.09-0.561,0.148c-0.158,0.05-0.311,0.114-0.467,0.171c-0.156,0.058-0.313,0.11-0.465,0.175  c-0.023,0.01-0.047,0.016-0.07,0.026V4H39z M34,4v5.019C33.25,9.584,32.584,10.25,32.019,11h-3.484l-1.703-2.555  C26.646,8.167,26.334,8,26,8h-6V4H34z M20,18h10.051c0.001,0.009,0.001,0.018,0.002,0.027c0.011,0.109,0.035,0.216,0.05,0.325  c0.031,0.227,0.059,0.454,0.105,0.676c0.031,0.152,0.077,0.299,0.116,0.449c0.044,0.173,0.083,0.349,0.136,0.519  c0.054,0.172,0.123,0.339,0.186,0.508c0.053,0.141,0.1,0.284,0.159,0.422c0.01,0.024,0.017,0.05,0.028,0.074H28  c-0.334,0-0.646,0.167-0.832,0.445L26,23.197V23c0-0.552-0.447-1-1-1h-5V18z M8,19c0-1.654,1.346-3,3-3s3,1.346,3,3s-1.346,3-3,3  S8,20.654,8,19z M15,26c-0.553,0-1,0.448-1,1v14h-2v-8h-2v8H8v-8v-6H6v5H4v-5c0-1.654,1.346-3,3-3h12h5v1v1h-5H15z M20,28h5  c0.553,0,1-0.448,1-1v-1c0.334,0,0.646-0.167,0.832-0.445L28.535,23h3.484c0.806,1.069,1.818,1.972,2.981,2.647V30H20V28z   M37,26.539c0.117,0.037,0.238,0.062,0.356,0.095c0.161,0.045,0.321,0.089,0.484,0.125c0.126,0.028,0.254,0.051,0.382,0.074  c0.178,0.032,0.356,0.059,0.535,0.082c0.082,0.01,0.161,0.027,0.243,0.035V30h-2V26.539z M41,30v-3.051  c0.082-0.008,0.162-0.025,0.243-0.035c0.179-0.022,0.357-0.05,0.535-0.082c0.128-0.023,0.255-0.046,0.382-0.074  c0.163-0.036,0.323-0.08,0.484-0.125c0.118-0.033,0.239-0.058,0.356-0.095V30H41z M45,30v-4.353  c1.163-0.675,2.175-1.578,2.981-2.647h3.484l1.703,2.555C53.354,25.833,53.666,26,54,26h6v4H45z"
    />
    <path d="M40,14c0.552,0,1,0.449,1,1h2c0-1.302-0.839-2.402-2-2.816V11h-2v1.184c-1.161,0.414-2,1.514-2,2.816  c0,0.265,0.105,0.52,0.293,0.707l3.644,3.644C40.794,19.729,40.428,20,40,20c-0.552,0-1-0.449-1-1h-2c0,1.302,0.839,2.402,2,2.816  V23h2v-1.184c1.161-0.414,2-1.514,2-2.816c0-0.265-0.105-0.52-0.293-0.707l-3.644-3.644C39.206,14.271,39.572,14,40,14z"
    />
    <path d="M10,57v4c0,0.552,0.447,1,1,1h14c0.553,0,1-0.448,1-1v-4c0-2.449-1.773-4.483-4.101-4.909C22.578,51.237,23,50.172,23,49  c0-2.757-2.243-5-5-5s-5,2.243-5,5c0,1.172,0.422,2.237,1.101,3.091C11.773,52.517,10,54.551,10,57z M18,46c1.654,0,3,1.346,3,3  s-1.346,3-3,3s-3-1.346-3-3S16.346,46,18,46z M12,57c0-1.654,1.346-3,3-3h6c1.654,0,3,1.346,3,3v3H12V57z"
    />
    <path d="M28,57v4c0,0.552,0.447,1,1,1h14c0.553,0,1-0.448,1-1v-4c0-2.449-1.773-4.483-4.101-4.909C40.578,51.237,41,50.172,41,49  c0-2.757-2.243-5-5-5s-5,2.243-5,5c0,1.172,0.422,2.237,1.101,3.091C29.773,52.517,28,54.551,28,57z M36,46c1.654,0,3,1.346,3,3  s-1.346,3-3,3s-3-1.346-3-3S34.346,46,36,46z M30,57c0-1.654,1.346-3,3-3h6c1.654,0,3,1.346,3,3v3H30V57z"
    />
    <path d="M57.899,52.091C58.578,51.237,59,50.172,59,49c0-2.757-2.243-5-5-5s-5,2.243-5,5c0,1.172,0.422,2.237,1.101,3.091  C47.773,52.517,46,54.551,46,57v4c0,0.552,0.447,1,1,1h14c0.553,0,1-0.448,1-1v-4C62,54.551,60.227,52.517,57.899,52.091z M54,46  c1.654,0,3,1.346,3,3s-1.346,3-3,3s-3-1.346-3-3S52.346,46,54,46z M60,60H48v-3c0-1.654,1.346-3,3-3h6c1.654,0,3,1.346,3,3V60z"
    />
</svg>