<svg xmlns="http://www.w3.org/2000/svg" version="1.1" x="0px" y="0px"
viewBox="0 0 64 64" style="enable-background:new 0 0 64 64;">
    <path d="M53.882,33.528C53.708,33.203,53.369,33,53,33H43c-0.297,0-0.578,0.132-0.768,0.359L37.531,39H30V23c0-2.757-2.243-5-5-5H7  c-2.757,0-5,2.243-5,5v34c0,2.757,2.243,5,5,5h18c2.757,0,5-2.243,5-5V41h7.531l4.701,5.641C42.422,46.868,42.703,47,43,47h10  c0.369,0,0.708-0.203,0.882-0.528c0.174-0.325,0.155-0.72-0.05-1.026L50.202,40l3.63-5.445  C54.037,34.248,54.056,33.854,53.882,33.528z M7,20h18c1.654,0,3,1.346,3,3v1H4v-1C4,21.346,5.346,20,7,20z M25,60H7  c-1.654,0-3-1.346-3-3v-1h24v1C28,58.654,26.654,60,25,60z M28,54H4V26h24v13h-2.051c-0.503-5.046-4.773-9-9.949-9  c-5.514,0-10,4.486-10,10s4.486,10,10,10c5.177,0,9.446-3.954,9.949-9H28V54z M20.899,39c-0.465-2.279-2.484-4-4.899-4  c-2.757,0-5,2.243-5,5s2.243,5,5,5c2.414,0,4.434-1.721,4.899-4h3.032c-0.495,3.94-3.859,7-7.931,7c-4.411,0-8-3.589-8-8  s3.589-8,8-8c4.072,0,7.436,3.06,7.931,7H20.899z M18.816,41c-0.414,1.161-1.514,2-2.816,2c-1.654,0-3-1.346-3-3s1.346-3,3-3  c1.302,0,2.402,0.839,2.816,2H16v2H18.816z M48.168,39.445c-0.224,0.336-0.224,0.773,0,1.109L51.131,45h-7.663l-4.167-5l4.167-5  h7.663L48.168,39.445z"
    />
    <path d="M60,17V7c0-2.757-2.243-5-5-5H37c-2.757,0-5,2.243-5,5v10c0,2.757,2.243,5,5,5h5l0,6c0,0.393,0.229,0.748,0.587,0.91  C42.719,28.971,42.859,29,43,29c0.238,0,0.473-0.085,0.659-0.247L51.375,22H55C57.757,22,60,19.757,60,17z M58,17  c0,1.654-1.346,3-3,3h-4c-0.242,0-0.476,0.088-0.659,0.247L44,25.796L44,21c0-0.266-0.105-0.52-0.293-0.707S43.265,20,43,20h-6  c-1.654,0-3-1.346-3-3V7c0-1.654,1.346-3,3-3h18c1.654,0,3,1.346,3,3V17z"
    />
    <path d="M47.293,7.293L46,8.586l-1.293-1.293c-1.492-1.492-3.922-1.492-5.414,0c-1.493,1.492-1.493,3.922,0,5.414l6,6  C45.488,18.902,45.744,19,46,19s0.512-0.098,0.707-0.293l6-6c1.493-1.492,1.493-3.922,0-5.414  C51.215,5.801,48.785,5.801,47.293,7.293z M51.293,11.293L46,16.586l-5.293-5.293c-0.713-0.713-0.713-1.873,0-2.586  C41.063,8.351,41.532,8.173,42,8.173s0.937,0.178,1.293,0.534l2,2c0.391,0.391,1.023,0.391,1.414,0l2-2  c0.713-0.713,1.873-0.713,2.586,0S52.006,10.58,51.293,11.293z"
    />
    <rect x="56" y="33" />
    <rect x="56" y="39" />
    <rect x="56" y="45" />
</svg>