<svg xmlns="http://www.w3.org/2000/svg" version="1.1" x="0px" y="0px"
viewBox="0 0 64 80" style="enable-background:new 0 0 64 64;">
    <path d="M20,23v4c0,0.553,0.448,1,1,1h22c0.552,0,1-0.447,1-1v-4c0-4.379-3.145-8.033-7.294-8.833C38.111,12.886,39,11.047,39,9  c0-3.859-3.14-7-7-7s-7,3.141-7,7c0,2.047,0.889,3.886,2.294,5.167C23.145,14.967,20,18.621,20,23z M27,9c0-2.757,2.243-5,5-5  s5,2.243,5,5s-2.243,5-5,5S27,11.757,27,9z M29,16h6c3.86,0,7,3.141,7,7v3H22v-3C22,19.141,25.14,16,29,16z"
    />
    <path d="M3,62h22c0.552,0,1-0.447,1-1v-4c0-4.379-3.145-8.033-7.294-8.833C20.111,46.886,21,45.047,21,43c0-3.859-3.14-7-7-7  s-7,3.141-7,7c0,2.047,0.889,3.886,2.294,5.167C5.145,48.967,2,52.621,2,57v4C2,61.553,2.448,62,3,62z M9,43c0-2.757,2.243-5,5-5  s5,2.243,5,5s-2.243,5-5,5S9,45.757,9,43z M4,57c0-3.859,3.14-7,7-7h6c3.86,0,7,3.141,7,7v3H4V57z"
    />
    <path d="M54.706,48.167C56.111,46.886,57,45.047,57,43c0-3.859-3.14-7-7-7s-7,3.141-7,7c0,2.047,0.889,3.886,2.294,5.167  C41.145,48.967,38,52.621,38,57v4c0,0.553,0.448,1,1,1h22c0.552,0,1-0.447,1-1v-4C62,52.621,58.855,48.967,54.706,48.167z M45,43  c0-2.757,2.243-5,5-5s5,2.243,5,5s-2.243,5-5,5S45,45.757,45,43z M60,60H40v-3c0-3.859,3.14-7,7-7h6c3.86,0,7,3.141,7,7V60z"
    />
    <path d="M6.021,34.046c0.027,0.689,0.082,1.387,0.164,2.073l1.986-0.238c-0.076-0.633-0.127-1.277-0.152-1.913L6.021,34.046z"
    />
    <path d="M6.021,31.969l1.998,0.078c0.025-0.64,0.076-1.283,0.151-1.914l-1.986-0.236C6.103,30.579,6.047,31.276,6.021,31.969z"
    />
    <path d="M16.239,12.318c-0.547,0.417-1.086,0.863-1.603,1.327l1.337,1.488c0.476-0.428,0.973-0.84,1.478-1.224L16.239,12.318z"
    />
    <path d="M7.657,23.848l1.872,0.703c0.225-0.598,0.476-1.192,0.747-1.767l-1.809-0.854C8.173,22.555,7.901,23.199,7.657,23.848z"
    />
    <path d="M6.511,27.843l1.961,0.395c0.126-0.625,0.278-1.253,0.454-1.864l-1.923-0.551C6.813,26.484,6.648,27.165,6.511,27.843z"
    />
    <path d="M14.597,16.474l-1.45-1.377c-0.479,0.504-0.939,1.029-1.371,1.562l1.555,1.258C13.729,17.425,14.155,16.939,14.597,16.474z"
    />
    <path d="M17.939,11.126l1.084,1.682c0.54-0.349,1.096-0.676,1.652-0.973l-0.942-1.764C19.128,10.394,18.525,10.749,17.939,11.126z"
    />
    <path d="M9.428,20.087l1.735,0.994c0.316-0.552,0.66-1.099,1.021-1.625l-1.65-1.131C10.143,18.896,9.771,19.488,9.428,20.087z"
    />
    <path d="M27.262,56.532l-0.395,1.961c0.673,0.136,1.365,0.245,2.056,0.326l0.232-1.986C28.52,56.758,27.882,56.657,27.262,56.532z"
    />
    <path d="M36.801,56.52c-0.621,0.126-1.258,0.229-1.896,0.307l0.241,1.986c0.69-0.084,1.38-0.196,2.052-0.332L36.801,56.52z"
    />
    <path d="M33.073,58.978l-0.08-1.998c-0.639,0.025-1.285,0.028-1.92,0.003l-0.079,1.998c0.333,0.014,0.669,0.02,1.009,0.02  C32.361,58.999,32.718,58.992,33.073,58.978z"
    />
    <path d="M48.032,15.141c0.476,0.428,0.938,0.878,1.375,1.338l1.452-1.375c-0.474-0.5-0.975-0.988-1.491-1.451L48.032,15.141z"
    />
    <path d="M50.673,17.923c0.399,0.493,0.785,1.012,1.147,1.54l1.649-1.131c-0.392-0.571-0.809-1.132-1.241-1.667L50.673,17.923z"
    />
    <path d="M57.979,34.049C57.993,33.701,58,33.351,58,32.998c0-0.343-0.007-0.686-0.021-1.026l-1.998,0.078  C55.994,32.365,56,32.683,56,33c0,0.325-0.006,0.648-0.019,0.971L57.979,34.049z"
    />
    <path d="M52.84,21.087c0.317,0.553,0.615,1.126,0.887,1.702l1.809-0.854c-0.294-0.624-0.617-1.244-0.96-1.843L52.84,21.087z"
    />
    <path d="M54.473,24.556c0.224,0.596,0.426,1.209,0.602,1.821l1.923-0.551c-0.19-0.664-0.41-1.328-0.653-1.974L54.473,24.556z"
    />
    <path d="M55.528,28.241c0.126,0.626,0.228,1.264,0.302,1.896l1.986-0.236c-0.081-0.684-0.191-1.375-0.328-2.054L55.528,28.241z"
    />
    <path d="M47.769,12.325c-0.551-0.421-1.123-0.822-1.702-1.195l-1.083,1.682c0.534,0.344,1.062,0.715,1.571,1.104L47.769,12.325z"
    />
    <path d="M42.404,9.166l-0.801,1.832c0.583,0.255,1.163,0.537,1.726,0.839l0.946-1.762C43.666,9.747,43.036,9.441,42.404,9.166z"
    />
</svg>