<svg xmlns="http://www.w3.org/2000/svg" version="1.1" x="0px" y="0px"
viewBox="0 0 64 80" style="enable-background:new 0 0 64 64;">
    <path d="M15,40c4.411,0,8-3.589,8-8c0-1.328-0.33-2.578-0.905-3.681l1.612-1.612l-1.414-1.414l-1.36,1.36  C19.468,25.029,17.354,24,15,24c-4.411,0-8,3.589-8,8S10.589,40,15,40z M15,26c1.803,0,3.419,0.803,4.52,2.066L15,32.586  l-2.293-2.293l-1.414,1.414l3,3C14.488,34.902,14.744,35,15,35s0.512-0.098,0.707-0.293l4.88-4.88C20.85,30.502,21,31.233,21,32  c0,3.309-2.691,6-6,6s-6-2.691-6-6S11.691,26,15,26z"
    />
    <path d="M59,24H41c-1.654,0-3,1.346-3,3v4H28v-7h6c0.552,0,1-0.448,1-1V13h5.051c0.503,5.046,4.773,9,9.949,9  c5.514,0,10-4.486,10-10S55.514,2,50,2c-5.177,0-9.446,3.954-9.949,9H34c-0.552,0-1,0.448-1,1v10h-5v-5v-2c0-2.757-2.243-5-5-5H7  c-2.757,0-5,2.243-5,5v2v30v2c0,2.757,2.243,5,5,5h16c2.757,0,5-2.243,5-5v-2v-4h5v10c0,0.552,0.448,1,1,1h4v3c0,2.757,2.243,5,5,5  h14c2.757,0,5-2.243,5-5V45c0-0.005-0.003-0.009-0.003-0.013c-0.001-0.108-0.018-0.217-0.055-0.323  c-0.004-0.011-0.012-0.018-0.016-0.029c-0.012-0.031-0.032-0.057-0.047-0.087c-0.04-0.077-0.086-0.148-0.143-0.211  c-0.026-0.029-0.054-0.054-0.083-0.08c-0.062-0.055-0.129-0.099-0.203-0.137c-0.033-0.017-0.063-0.035-0.098-0.049  C61.241,44.029,61.124,44,61,44H39c-0.124,0-0.241,0.029-0.353,0.071c-0.035,0.013-0.065,0.032-0.098,0.049  c-0.074,0.038-0.141,0.082-0.203,0.137c-0.029,0.026-0.057,0.051-0.083,0.08c-0.057,0.063-0.103,0.134-0.143,0.211  c-0.015,0.03-0.035,0.055-0.047,0.087c-0.004,0.01-0.012,0.018-0.016,0.029c-0.038,0.106-0.054,0.215-0.055,0.323  C38.003,44.991,38,44.995,38,45v7h-3V42c0-0.552-0.448-1-1-1h-6v-8h10v4c0,1.654,1.346,3,3,3h18c1.654,0,3-1.346,3-3V27  C62,25.346,60.654,24,59,24z M50,4c4.411,0,8,3.589,8,8s-3.589,8-8,8s-8-3.589-8-8S45.589,4,50,4z M57,60H43c-1.654,0-3-1.346-3-3  v-9.89l9.367,7.664C49.551,54.925,49.775,55,50,55s0.449-0.075,0.633-0.226L60,47.11V57C60,58.654,58.654,60,57,60z M58.199,46  L50,52.708L41.801,46H58.199z M7,12h16c1.654,0,3,1.346,3,3v1H4v-1C4,13.346,5.346,12,7,12z M26,46H4V18h22V46z M23,52H7  c-1.654,0-3-1.346-3-3v-1h22v1C26,50.654,24.654,52,23,52z M41,26h18c0.551,0,1,0.449,1,1v2H40v-2C40,26.449,40.449,26,41,26z   M59,38H41c-0.551,0-1-0.449-1-1v-6h20v6C60,37.551,59.551,38,59,38z"
    />
    <path d="M50,15c-0.551,0-1-0.449-1-1h-2c0,1.302,0.839,2.402,2,2.816V18h2v-1.184c1.161-0.414,2-1.514,2-2.816  c0-0.265-0.105-0.52-0.293-0.707l-3.644-3.644C49.206,9.271,49.572,9,50,9c0.551,0,1,0.449,1,1h2c0-1.302-0.839-2.402-2-2.816V6h-2  v1.184C47.839,7.598,47,8.698,47,10c0,0.265,0.105,0.52,0.293,0.707l3.644,3.644C50.794,14.729,50.428,15,50,15z"
    />
</svg>