<?xml version="1.0" encoding="UTF-8" ?>
<svg width="60px" height="60px" viewBox="0 0 60 60" version="1.1" xmlns="http://www.w3.org/2000/svg">
    <g id="Page-1" stroke="none" stroke-width="1" fill-rule="evenodd">
        <g id="familyTree" fill-rule="nonzero">
            <g id="Group">
                <g id="Shape">
                    <g>
                        <path d="M19.0159,2.0003 C15.1559,2.0003 12.0159,5.1403 12.0159,9.0003 C12.0159,12.8603 15.1559,16.0003 19.0159,16.0003 C22.8759,16.0003 26.0159,12.8603 26.0159,9.0003 C26.0159,5.1403 22.8759,2.0003 19.0159,2.0003 M19.0159,18.0003 C14.0539,18.0003 10.0159,13.9623 10.0159,9.0003 C10.0159,4.0383 14.0539,0.0003 19.0159,0.0003 C23.9779,0.0003 28.0159,4.0383 28.0159,9.0003 C28.0159,13.9623 23.9779,18.0003 19.0159,18.0003"></path>
                        <path d="M23.2771,16.2191 C23.1291,16.2191 22.9771,16.1861 22.8351,16.1151 L20.5271,14.9751 C19.8831,14.6561 19.4841,14.0141 19.4841,13.3001 L19.4841,12.4051 C19.4841,12.1591 19.5741,11.9221 19.7381,11.7391 C19.7831,11.6881 19.8341,11.6231 19.8881,11.5461 C20.1361,11.2001 20.3311,10.8111 20.4691,10.3881 C20.5481,10.1461 20.7151,9.9461 20.9331,9.8241 L20.9331,9.1831 C20.7781,9.0031 20.6921,8.7721 20.6921,8.5321 L20.6921,7.1501 C20.6921,7.1061 20.6951,7.0621 20.7011,7.0181 L20.7011,7.0181 C20.7001,7.0181 20.7251,6.6731 20.4901,6.4161 C20.2401,6.1441 19.7371,6.0001 19.0351,6.0001 C18.3211,6.0001 17.8141,6.1491 17.5681,6.4291 C17.3491,6.6801 17.3681,7.0151 17.3691,7.0181 C17.3751,7.0621 17.3781,7.1061 17.3781,7.1501 L17.3781,8.5321 C17.3781,8.7721 17.2911,9.0031 17.1361,9.1831 L17.1361,9.8711 C17.2891,10.0081 17.3971,10.1891 17.4441,10.3911 C17.6231,11.1601 18.1031,11.7531 18.1081,11.7591 C18.2601,11.9391 18.3441,12.1681 18.3441,12.4051 L18.3441,13.2781 C18.3441,13.9651 17.9661,14.5951 17.3601,14.9221 L15.2051,16.0841 C14.7181,16.3451 14.1121,16.1651 13.8501,15.6781 C13.5881,15.1931 13.7691,14.5861 14.2561,14.3231 L16.3441,13.1981 L16.3441,12.7361 C16.1201,12.4101 15.7931,11.8591 15.5831,11.1671 C15.2981,10.8551 15.1361,10.4481 15.1361,10.0161 L15.1361,9.0611 C15.1361,8.7521 15.2211,8.4511 15.3781,8.1901 L15.3781,7.1961 C15.3541,6.8911 15.3471,5.9301 16.0631,5.1121 C16.7091,4.3741 17.7091,4.0001 19.0351,4.0001 C20.3611,4.0001 21.3601,4.3741 22.0061,5.1121 C22.7231,5.9301 22.7151,6.8911 22.6921,7.1961 L22.6921,8.1901 C22.8481,8.4521 22.9331,8.7531 22.9331,9.0611 L22.9331,10.0161 C22.9331,10.5761 22.6651,11.0811 22.2301,11.3971 C22.0431,11.8671 21.8031,12.3071 21.5151,12.7101 C21.5051,12.7241 21.4941,12.7391 21.4841,12.7531 L21.4841,13.2171 L23.7211,14.3231 C24.2161,14.5671 24.4191,15.1671 24.1741,15.6621 C24.0001,16.0151 23.6461,16.2191 23.2771,16.2191"></path>
                        <path d="M41.0159,2.0003 C37.1559,2.0003 34.0159,5.1403 34.0159,9.0003 C34.0159,12.8603 37.1559,16.0003 41.0159,16.0003 C44.8759,16.0003 48.0159,12.8603 48.0159,9.0003 C48.0159,5.1403 44.8759,2.0003 41.0159,2.0003 M41.0159,18.0003 C36.0539,18.0003 32.0159,13.9623 32.0159,9.0003 C32.0159,4.0383 36.0539,0.0003 41.0159,0.0003 C45.9779,0.0003 50.0159,4.0383 50.0159,9.0003 C50.0159,13.9623 45.9779,18.0003 41.0159,18.0003"></path>
                        <path d="M45.2771,16.2191 C45.1291,16.2191 44.9771,16.1861 44.8351,16.1151 L42.5271,14.9751 C41.8831,14.6561 41.4841,14.0141 41.4841,13.3001 L41.4841,12.4051 C41.4841,12.1591 41.5741,11.9221 41.7381,11.7391 C41.7831,11.6881 41.8341,11.6231 41.8881,11.5461 C42.1361,11.2001 42.3311,10.8111 42.4691,10.3881 C42.5481,10.1461 42.7151,9.9461 42.9331,9.8241 L42.9331,9.1831 C42.7781,9.0031 42.6921,8.7721 42.6921,8.5321 L42.6921,7.1501 C42.6921,7.1061 42.6951,7.0621 42.7011,7.0181 L42.7011,7.0181 C42.7001,7.0181 42.7251,6.6731 42.4901,6.4161 C42.2401,6.1441 41.7371,6.0001 41.0351,6.0001 C40.3211,6.0001 39.8141,6.1491 39.5681,6.4291 C39.3491,6.6801 39.3681,7.0151 39.3691,7.0181 C39.3751,7.0621 39.3781,7.1061 39.3781,7.1501 L39.3781,8.5321 C39.3781,8.7721 39.2911,9.0031 39.1361,9.1831 L39.1361,9.8711 C39.2891,10.0081 39.3971,10.1891 39.4441,10.3911 C39.6231,11.1601 40.1031,11.7531 40.1081,11.7591 C40.2601,11.9391 40.3441,12.1681 40.3441,12.4051 L40.3441,13.2781 C40.3441,13.9651 39.9661,14.5951 39.3601,14.9221 L37.2051,16.0841 C36.7191,16.3451 36.1121,16.1651 35.8501,15.6781 C35.5881,15.1931 35.7691,14.5861 36.2561,14.3231 L38.3441,13.1981 L38.3441,12.7361 C38.1201,12.4101 37.7931,11.8591 37.5831,11.1671 C37.2981,10.8551 37.1361,10.4481 37.1361,10.0161 L37.1361,9.0611 C37.1361,8.7521 37.2211,8.4511 37.3781,8.1901 L37.3781,7.1961 C37.3541,6.8911 37.3471,5.9301 38.0631,5.1121 C38.7091,4.3741 39.7091,4.0001 41.0351,4.0001 C42.3611,4.0001 43.3601,4.3741 44.0061,5.1121 C44.7231,5.9301 44.7151,6.8911 44.6921,7.1961 L44.6921,8.1901 C44.8481,8.4521 44.9331,8.7531 44.9331,9.0611 L44.9331,10.0161 C44.9331,10.5761 44.6651,11.0811 44.2301,11.3971 C44.0431,11.8671 43.8031,12.3071 43.5151,12.7101 C43.5051,12.7241 43.4941,12.7391 43.4841,12.7531 L43.4841,13.2171 L45.7211,14.3231 C46.2161,14.5671 46.4191,15.1671 46.1741,15.6621 C46.0001,16.0151 45.6461,16.2191 45.2771,16.2191"></path>
                        <path d="M9.0159,23.0003 C5.1559,23.0003 2.0159,26.1403 2.0159,30.0003 C2.0159,33.8603 5.1559,37.0003 9.0159,37.0003 C12.8759,37.0003 16.0159,33.8603 16.0159,30.0003 C16.0159,26.1403 12.8759,23.0003 9.0159,23.0003 M9.0159,39.0003 C4.0539,39.0003 0.0159,34.9623 0.0159,30.0003 C0.0159,25.0383 4.0539,21.0003 9.0159,21.0003 C13.9779,21.0003 18.0159,25.0383 18.0159,30.0003 C18.0159,34.9623 13.9779,39.0003 9.0159,39.0003"></path>
                        <path d="M13.2771,37.2191 C13.1291,37.2191 12.9771,37.1861 12.8351,37.1151 L10.5271,35.9751 C9.8831,35.6561 9.4841,35.0141 9.4841,34.3001 L9.4841,33.4051 C9.4841,33.1591 9.5741,32.9221 9.7381,32.7391 C9.7831,32.6881 9.8341,32.6231 9.8881,32.5461 C10.1361,32.2001 10.3311,31.8111 10.4691,31.3881 C10.5481,31.1461 10.7151,30.9461 10.9331,30.8241 L10.9331,30.1831 C10.7781,30.0031 10.6921,29.7721 10.6921,29.5321 L10.6921,28.1501 C10.6921,28.1061 10.6951,28.0621 10.7011,28.0181 L10.7011,28.0181 C10.7001,28.0181 10.7251,27.6731 10.4901,27.4161 C10.2401,27.1441 9.7371,27.0001 9.0351,27.0001 C8.3211,27.0001 7.8141,27.1491 7.5681,27.4291 C7.3491,27.6801 7.3681,28.0151 7.3691,28.0181 C7.3751,28.0621 7.3781,28.1061 7.3781,28.1501 L7.3781,29.5321 C7.3781,29.7721 7.2911,30.0031 7.1361,30.1831 L7.1361,30.8711 C7.2891,31.0081 7.3971,31.1891 7.4441,31.3911 C7.6231,32.1601 8.1031,32.7531 8.1081,32.7591 C8.2601,32.9391 8.3441,33.1681 8.3441,33.4051 L8.3441,34.2781 C8.3441,34.9651 7.9661,35.5951 7.3601,35.9221 L5.2051,37.0841 C4.7181,37.3451 4.1121,37.1651 3.8501,36.6781 C3.5881,36.1931 3.7691,35.5861 4.2561,35.3231 L6.3441,34.1981 L6.3441,33.7361 C6.1201,33.4101 5.7931,32.8591 5.5831,32.1671 C5.2981,31.8551 5.1361,31.4481 5.1361,31.0161 L5.1361,30.0611 C5.1361,29.7521 5.2211,29.4511 5.3781,29.1901 L5.3781,28.1961 C5.3541,27.8911 5.3471,26.9301 6.0631,26.1121 C6.7091,25.3741 7.7091,25.0001 9.0351,25.0001 C10.3611,25.0001 11.3601,25.3741 12.0061,26.1121 C12.7231,26.9301 12.7151,27.8911 12.6921,28.1961 L12.6921,29.1901 C12.8481,29.4521 12.9331,29.7531 12.9331,30.0611 L12.9331,31.0161 C12.9331,31.5761 12.6651,32.0811 12.2301,32.3971 C12.0431,32.8671 11.8031,33.3071 11.5151,33.7101 C11.5051,33.7241 11.4941,33.7391 11.4841,33.7531 L11.4841,34.2171 L13.7211,35.3231 C14.2161,35.5671 14.4191,36.1671 14.1741,36.6621 C14.0001,37.0151 13.6461,37.2191 13.2771,37.2191"></path>
                        <path d="M30.0159,23.0003 C26.1559,23.0003 23.0159,26.1403 23.0159,30.0003 C23.0159,33.8603 26.1559,37.0003 30.0159,37.0003 C33.8759,37.0003 37.0159,33.8603 37.0159,30.0003 C37.0159,26.1403 33.8759,23.0003 30.0159,23.0003 M30.0159,39.0003 C25.0539,39.0003 21.0159,34.9623 21.0159,30.0003 C21.0159,25.0383 25.0539,21.0003 30.0159,21.0003 C34.9779,21.0003 39.0159,25.0383 39.0159,30.0003 C39.0159,34.9623 34.9779,39.0003 30.0159,39.0003"></path>
                        <path d="M34.2771,37.2191 C34.1291,37.2191 33.9771,37.1861 33.8351,37.1151 L31.5271,35.9751 C30.8831,35.6561 30.4841,35.0141 30.4841,34.3001 L30.4841,33.4051 C30.4841,33.1591 30.5741,32.9221 30.7381,32.7391 C30.7831,32.6881 30.8341,32.6231 30.8881,32.5461 C31.1361,32.2001 31.3311,31.8111 31.4691,31.3881 C31.5481,31.1461 31.7151,30.9461 31.9331,30.8241 L31.9331,30.1831 C31.7781,30.0031 31.6921,29.7721 31.6921,29.5321 L31.6921,28.1501 C31.6921,28.1061 31.6951,28.0621 31.7011,28.0181 L31.7011,28.0181 C31.7001,28.0181 31.7251,27.6731 31.4901,27.4161 C31.2401,27.1441 30.7371,27.0001 30.0351,27.0001 C29.3211,27.0001 28.8141,27.1491 28.5681,27.4291 C28.3491,27.6801 28.3681,28.0151 28.3691,28.0181 C28.3751,28.0621 28.3781,28.1061 28.3781,28.1501 L28.3781,29.5321 C28.3781,29.7721 28.2911,30.0031 28.1361,30.1831 L28.1361,30.8711 C28.2891,31.0081 28.3971,31.1891 28.4441,31.3911 C28.6231,32.1601 29.1031,32.7531 29.1081,32.7591 C29.2601,32.9391 29.3441,33.1681 29.3441,33.4051 L29.3441,34.2781 C29.3441,34.9651 28.9661,35.5951 28.3601,35.9221 L26.2051,37.0841 C25.7181,37.3451 25.1121,37.1651 24.8501,36.6781 C24.5881,36.1931 24.7691,35.5861 25.2561,35.3231 L27.3441,34.1981 L27.3441,33.7361 C27.1201,33.4101 26.7931,32.8591 26.5831,32.1671 C26.2981,31.8551 26.1361,31.4481 26.1361,31.0161 L26.1361,30.0611 C26.1361,29.7521 26.2211,29.4511 26.3781,29.1901 L26.3781,28.1961 C26.3541,27.8911 26.3471,26.9301 27.0631,26.1121 C27.7091,25.3741 28.7091,25.0001 30.0351,25.0001 C31.3611,25.0001 32.3601,25.3741 33.0061,26.1121 C33.7231,26.9301 33.7151,27.8911 33.6921,28.1961 L33.6921,29.1901 C33.8481,29.4521 33.9331,29.7531 33.9331,30.0611 L33.9331,31.0161 C33.9331,31.5761 33.6651,32.0811 33.2301,32.3971 C33.0431,32.8671 32.8031,33.3071 32.5151,33.7101 C32.5051,33.7241 32.4941,33.7391 32.4841,33.7531 L32.4841,34.2171 L34.7211,35.3231 C35.2161,35.5671 35.4191,36.1671 35.1741,36.6621 C35.0001,37.0151 34.6461,37.2191 34.2771,37.2191"></path>
                        <path d="M51.0159,23.0003 C47.1559,23.0003 44.0159,26.1403 44.0159,30.0003 C44.0159,33.8603 47.1559,37.0003 51.0159,37.0003 C54.8759,37.0003 58.0159,33.8603 58.0159,30.0003 C58.0159,26.1403 54.8759,23.0003 51.0159,23.0003 M51.0159,39.0003 C46.0539,39.0003 42.0159,34.9623 42.0159,30.0003 C42.0159,25.0383 46.0539,21.0003 51.0159,21.0003 C55.9779,21.0003 60.0159,25.0383 60.0159,30.0003 C60.0159,34.9623 55.9779,39.0003 51.0159,39.0003"></path>
                        <path d="M55.2771,37.2191 C55.1291,37.2191 54.9771,37.1861 54.8351,37.1151 L52.5271,35.9751 C51.8831,35.6561 51.4841,35.0141 51.4841,34.3001 L51.4841,33.4051 C51.4841,33.1591 51.5741,32.9221 51.7381,32.7391 C51.7831,32.6881 51.8341,32.6231 51.8881,32.5461 C52.1361,32.2001 52.3311,31.8111 52.4691,31.3881 C52.5481,31.1461 52.7151,30.9461 52.9331,30.8241 L52.9331,30.1831 C52.7781,30.0031 52.6921,29.7721 52.6921,29.5321 L52.6921,28.1501 C52.6921,28.1061 52.6951,28.0621 52.7011,28.0181 L52.7011,28.0181 C52.7001,28.0181 52.7251,27.6731 52.4901,27.4161 C52.2401,27.1441 51.7371,27.0001 51.0351,27.0001 C50.3211,27.0001 49.8141,27.1491 49.5681,27.4291 C49.3491,27.6801 49.3681,28.0151 49.3691,28.0181 C49.3751,28.0621 49.3781,28.1061 49.3781,28.1501 L49.3781,29.5321 C49.3781,29.7721 49.2911,30.0031 49.1361,30.1831 L49.1361,30.8711 C49.2891,31.0081 49.3971,31.1891 49.4441,31.3911 C49.6231,32.1601 50.1031,32.7531 50.1081,32.7591 C50.2601,32.9391 50.3441,33.1681 50.3441,33.4051 L50.3441,34.2781 C50.3441,34.9651 49.9661,35.5951 49.3601,35.9221 L47.2051,37.0841 C46.7181,37.3451 46.1121,37.1651 45.8501,36.6781 C45.5881,36.1931 45.7691,35.5861 46.2561,35.3231 L48.3441,34.1981 L48.3441,33.7361 C48.1201,33.4101 47.7931,32.8591 47.5831,32.1671 C47.2981,31.8551 47.1361,31.4481 47.1361,31.0161 L47.1361,30.0611 C47.1361,29.7521 47.2211,29.4511 47.3781,29.1901 L47.3781,28.1961 C47.3541,27.8911 47.3471,26.9301 48.0631,26.1121 C48.7091,25.3741 49.7091,25.0001 51.0351,25.0001 C52.3611,25.0001 53.3601,25.3741 54.0061,26.1121 C54.7231,26.9301 54.7151,27.8911 54.6921,28.1961 L54.6921,29.1901 C54.8481,29.4521 54.9331,29.7531 54.9331,30.0611 L54.9331,31.0161 C54.9331,31.5761 54.6651,32.0811 54.2301,32.3971 C54.0431,32.8671 53.8031,33.3071 53.5151,33.7101 C53.5051,33.7241 53.4941,33.7391 53.4841,33.7531 L53.4841,34.2171 L55.7211,35.3231 C56.2161,35.5671 56.4191,36.1671 56.1741,36.6621 C56.0001,37.0151 55.6461,37.2191 55.2771,37.2191"></path>
                        <path d="M19.0159,44.0003 C15.1559,44.0003 12.0159,47.1403 12.0159,51.0003 C12.0159,54.8603 15.1559,58.0003 19.0159,58.0003 C22.8759,58.0003 26.0159,54.8603 26.0159,51.0003 C26.0159,47.1403 22.8759,44.0003 19.0159,44.0003 M19.0159,60.0003 C14.0539,60.0003 10.0159,55.9623 10.0159,51.0003 C10.0159,46.0383 14.0539,42.0003 19.0159,42.0003 C23.9779,42.0003 28.0159,46.0383 28.0159,51.0003 C28.0159,55.9623 23.9779,60.0003 19.0159,60.0003"></path>
                        <path d="M23.2771,58.2191 C23.1291,58.2191 22.9771,58.1861 22.8351,58.1151 L20.5271,56.9751 C19.8831,56.6561 19.4841,56.0141 19.4841,55.3001 L19.4841,54.4051 C19.4841,54.1591 19.5741,53.9221 19.7381,53.7391 C19.7831,53.6881 19.8341,53.6231 19.8881,53.5461 C20.1361,53.2001 20.3311,52.8111 20.4691,52.3881 C20.5481,52.1461 20.7151,51.9461 20.9331,51.8241 L20.9331,51.1831 C20.7781,51.0031 20.6921,50.7721 20.6921,50.5321 L20.6921,49.1501 C20.6921,49.1061 20.6951,49.0621 20.7011,49.0181 L20.7011,49.0181 C20.7001,49.0181 20.7251,48.6731 20.4901,48.4161 C20.2401,48.1441 19.7371,48.0001 19.0351,48.0001 C18.3211,48.0001 17.8141,48.1491 17.5681,48.4291 C17.3491,48.6801 17.3681,49.0151 17.3691,49.0181 C17.3751,49.0621 17.3781,49.1061 17.3781,49.1501 L17.3781,50.5321 C17.3781,50.7721 17.2911,51.0031 17.1361,51.1831 L17.1361,51.8711 C17.2891,52.0081 17.3971,52.1891 17.4441,52.3911 C17.6231,53.1601 18.1031,53.7531 18.1081,53.7591 C18.2601,53.9391 18.3441,54.1681 18.3441,54.4051 L18.3441,55.2781 C18.3441,55.9651 17.9661,56.5951 17.3601,56.9221 L15.2051,58.0841 C14.7181,58.3451 14.1121,58.1651 13.8501,57.6781 C13.5881,57.1931 13.7691,56.5861 14.2561,56.3231 L16.3441,55.1981 L16.3441,54.7361 C16.1201,54.4101 15.7931,53.8591 15.5831,53.1671 C15.2981,52.8551 15.1361,52.4481 15.1361,52.0161 L15.1361,51.0611 C15.1361,50.7521 15.2211,50.4511 15.3781,50.1901 L15.3781,49.1961 C15.3541,48.8911 15.3471,47.9301 16.0631,47.1121 C16.7091,46.3741 17.7091,46.0001 19.0351,46.0001 C20.3611,46.0001 21.3601,46.3741 22.0061,47.1121 C22.7231,47.9301 22.7151,48.8911 22.6921,49.1961 L22.6921,50.1901 C22.8481,50.4521 22.9331,50.7531 22.9331,51.0611 L22.9331,52.0161 C22.9331,52.5761 22.6651,53.0811 22.2301,53.3971 C22.0431,53.8671 21.8031,54.3071 21.5151,54.7101 C21.5051,54.7241 21.4941,54.7391 21.4841,54.7531 L21.4841,55.2171 L23.7211,56.3231 C24.2161,56.5671 24.4191,57.1671 24.1741,57.6621 C24.0001,58.0151 23.6461,58.2191 23.2771,58.2191"></path>
                        <path d="M41.0159,44.0003 C37.1559,44.0003 34.0159,47.1403 34.0159,51.0003 C34.0159,54.8603 37.1559,58.0003 41.0159,58.0003 C44.8759,58.0003 48.0159,54.8603 48.0159,51.0003 C48.0159,47.1403 44.8759,44.0003 41.0159,44.0003 M41.0159,60.0003 C36.0539,60.0003 32.0159,55.9623 32.0159,51.0003 C32.0159,46.0383 36.0539,42.0003 41.0159,42.0003 C45.9779,42.0003 50.0159,46.0383 50.0159,51.0003 C50.0159,55.9623 45.9779,60.0003 41.0159,60.0003"></path>
                        <path d="M45.2771,58.2191 C45.1291,58.2191 44.9771,58.1861 44.8351,58.1151 L42.5271,56.9751 C41.8831,56.6561 41.4841,56.0141 41.4841,55.3001 L41.4841,54.4051 C41.4841,54.1591 41.5741,53.9221 41.7381,53.7391 C41.7831,53.6881 41.8341,53.6231 41.8881,53.5461 C42.1361,53.2001 42.3311,52.8111 42.4691,52.3881 C42.5481,52.1461 42.7151,51.9461 42.9331,51.8241 L42.9331,51.1831 C42.7781,51.0031 42.6921,50.7721 42.6921,50.5321 L42.6921,49.1501 C42.6921,49.1061 42.6951,49.0621 42.7011,49.0181 L42.7011,49.0181 C42.7001,49.0181 42.7251,48.6731 42.4901,48.4161 C42.2401,48.1441 41.7371,48.0001 41.0351,48.0001 C40.3211,48.0001 39.8141,48.1491 39.5681,48.4291 C39.3491,48.6801 39.3681,49.0151 39.3691,49.0181 C39.3751,49.0621 39.3781,49.1061 39.3781,49.1501 L39.3781,50.5321 C39.3781,50.7721 39.2911,51.0031 39.1361,51.1831 L39.1361,51.8711 C39.2891,52.0081 39.3971,52.1891 39.4441,52.3911 C39.6231,53.1601 40.1031,53.7531 40.1081,53.7591 C40.2601,53.9391 40.3441,54.1681 40.3441,54.4051 L40.3441,55.2781 C40.3441,55.9651 39.9661,56.5951 39.3601,56.9221 L37.2051,58.0841 C36.7191,58.3451 36.1121,58.1651 35.8501,57.6781 C35.5881,57.1931 35.7691,56.5861 36.2561,56.3231 L38.3441,55.1981 L38.3441,54.7361 C38.1201,54.4101 37.7931,53.8591 37.5831,53.1671 C37.2981,52.8551 37.1361,52.4481 37.1361,52.0161 L37.1361,51.0611 C37.1361,50.7521 37.2211,50.4511 37.3781,50.1901 L37.3781,49.1961 C37.3541,48.8911 37.3471,47.9301 38.0631,47.1121 C38.7091,46.3741 39.7091,46.0001 41.0351,46.0001 C42.3611,46.0001 43.3601,46.3741 44.0061,47.1121 C44.7231,47.9301 44.7151,48.8911 44.6921,49.1961 L44.6921,50.1901 C44.8481,50.4521 44.9331,50.7531 44.9331,51.0611 L44.9331,52.0161 C44.9331,52.5761 44.6651,53.0811 44.2301,53.3971 C44.0431,53.8671 43.8031,54.3071 43.5151,54.7101 C43.5051,54.7241 43.4941,54.7391 43.4841,54.7531 L43.4841,55.2171 L45.7211,56.3231 C46.2161,56.5671 46.4191,57.1671 46.1741,57.6621 C46.0001,58.0151 45.6461,58.2191 45.2771,58.2191"></path>
                        <path d="M9.0169,23.0003 C8.6499,23.0003 8.2969,22.7983 8.1209,22.4473 C7.8739,21.9533 8.0749,21.3533 8.5689,21.1053 L18.5689,16.1053 C19.0639,15.8583 19.6629,16.0603 19.9109,16.5533 C20.1579,17.0473 19.9569,17.6473 19.4629,17.8953 L9.4629,22.8953 C9.3199,22.9663 9.1669,23.0003 9.0169,23.0003"></path>
                        <path d="M29.0149,23.0003 C28.8649,23.0003 28.7119,22.9663 28.5689,22.8953 L18.5689,17.8953 C18.0749,17.6473 17.8739,17.0473 18.1209,16.5533 C18.3679,16.0603 18.9679,15.8583 19.4629,16.1053 L29.4629,21.1053 C29.9569,21.3533 30.1579,21.9533 29.9109,22.4473 C29.7349,22.7983 29.3819,23.0003 29.0149,23.0003"></path>
                        <path d="M16.0149,44.0003 C15.8139,44.0003 15.6109,43.9393 15.4349,43.8143 L8.4349,38.8143 C7.9849,38.4933 7.8809,37.8683 8.2019,37.4193 C8.5229,36.9693 9.1489,36.8653 9.5969,37.1863 L16.5969,42.1863 C17.0469,42.5073 17.1509,43.1323 16.8299,43.5813 C16.6349,43.8543 16.3269,44.0003 16.0149,44.0003"></path>
                        <path d="M22.0169,44.0003 C21.7049,44.0003 21.3969,43.8543 21.2019,43.5813 C20.8809,43.1323 20.9849,42.5073 21.4349,42.1863 L28.4349,37.1863 C28.8829,36.8653 29.5089,36.9693 29.8299,37.4193 C30.1509,37.8683 30.0469,38.4933 29.5969,38.8143 L22.5969,43.8143 C22.4209,43.9393 22.2179,44.0003 22.0169,44.0003"></path>
                        <path d="M38.0149,44.0003 C37.8139,44.0003 37.6109,43.9393 37.4349,43.8143 L30.4349,38.8143 C29.9849,38.4933 29.8809,37.8683 30.2019,37.4193 C30.5219,36.9693 31.1479,36.8653 31.5969,37.1863 L38.5969,42.1863 C39.0469,42.5073 39.1509,43.1323 38.8299,43.5813 C38.6349,43.8543 38.3269,44.0003 38.0149,44.0003"></path>
                        <path d="M44.0169,44.0003 C43.6839,44.0003 43.3579,43.8333 43.1679,43.5303 C42.8749,43.0623 43.0169,42.4453 43.4859,42.1523 L51.4859,37.1523 C51.9549,36.8593 52.5709,37.0013 52.8639,37.4703 C53.1569,37.9383 53.0149,38.5553 52.5459,38.8483 L44.5459,43.8483 C44.3809,43.9513 44.1979,44.0003 44.0169,44.0003"></path>
                        <path d="M31.0169,23.0003 C30.6499,23.0003 30.2969,22.7983 30.1209,22.4473 C29.8739,21.9533 30.0749,21.3533 30.5689,21.1053 L40.5689,16.1053 C41.0649,15.8583 41.6639,16.0603 41.9109,16.5533 C42.1579,17.0473 41.9569,17.6473 41.4629,17.8953 L31.4629,22.8953 C31.3199,22.9663 31.1669,23.0003 31.0169,23.0003"></path>
                        <path d="M51.0149,23.0003 C50.8649,23.0003 50.7119,22.9663 50.5689,22.8953 L40.5689,17.8953 C40.0749,17.6473 39.8739,17.0473 40.1209,16.5533 C40.3689,16.0603 40.9689,15.8583 41.4629,16.1053 L51.4629,21.1053 C51.9569,21.3533 52.1579,21.9533 51.9109,22.4473 C51.7349,22.7983 51.3819,23.0003 51.0149,23.0003"></path>
                    </g>
                </g>
            </g>
        </g>
    </g>
</svg>