<?xml version="1.0" encoding="UTF-8" ?>
<svg width="67px" height="57px" viewBox="0 0 67 57" version="1.1" xmlns="http://www.w3.org/2000/svg">
    <g id="Page-1" stroke="none" stroke-width="1" fill-rule="evenodd">
        <g id="financialFolder" fill-rule="nonzero">
            <g id="Group">
                <path d="M40.9,37.8 C41.3,37.4 42.1,37.4 42.6,37.8 C42.7,37.9 42.9,38.1 42.9,38.4 L44.4,38.4 C44.4,37.8 44.1,37.1 43.6,36.7 C43.3,36.4 42.9,36.3 42.5,36.2 L42.5,35.1 L41,35.1 L41,36.2 C40.6,36.3 40.2,36.5 39.9,36.7 C39.4,37.1 39.1,37.8 39.1,38.4 C39.1,39 39.4,39.7 39.9,40.1 C40.4,40.5 41,40.8 41.7,40.8 C42,40.8 42.3,40.9 42.5,41.1 C42.6,41.2 42.8,41.4 42.8,41.7 C42.8,42 42.6,42.2 42.5,42.3 C42.1,42.7 41.3,42.7 40.8,42.3 C40.7,42.2 40.5,42 40.5,41.7 L39,41.7 C39,42.4 39.3,43 39.8,43.4 C40.1,43.7 40.5,43.8 40.9,44 L40.9,45 L42.4,45 L42.4,43.9 C42.8,43.8 43.2,43.6 43.5,43.3 C44,42.8 44.3,42.2 44.3,41.6 C44.3,40.9 44,40.3 43.5,39.9 C43,39.5 42.4,39.2 41.7,39.2 C41.4,39.2 41.1,39.1 40.9,38.9 C40.8,38.8 40.6,38.6 40.6,38.3 C40.6,38.1 40.8,37.9 40.9,37.8 Z"
                id="Shape"></path>
                <path d="M61.9,31.7 L61.9,27.8 L59.2,27.8 L62.7,15.8 C62.8,15.6 62.7,15.3 62.6,15.1 C62.5,14.9 62.2,14.8 62,14.8 L52.9,14.8 L52.9,7.2 C52.9,6.8 52.6,6.4 52.1,6.4 L31,6.4 L24.3,0.4 C24.2,0.3 24,0.2 23.8,0.2 L1.5,0.2 C1.1,0.2 0.8,0.6 0.8,1 L0.8,47.9 C0.8,47.9 0.8,47.9 0.8,48 L0.8,48.1 C0.8,48.2 0.8,48.2 0.9,48.3 C0.9,48.3 0.9,48.3 0.9,48.4 L0.9,48.4 C0.9,48.5 1,48.5 1.1,48.5 C1.1,48.5 1.1,48.5 1.2,48.6 C1.3,48.6 1.4,48.7 1.5,48.7 L21.6,48.7 L21.6,52.4 L25.5,52.4 L25.5,56.8 L66.2,56.8 L66.2,31.7 L61.9,31.7 Z M23.5,1.7 L30.2,7.7 C30.3,7.8 30.5,7.9 30.7,7.9 L51.4,7.9 L51.4,14.7 L11,14.7 C10.7,14.7 10.4,14.9 10.3,15.2 L2.3,42.7 L2.3,1.7 L23.5,1.7 L23.5,1.7 Z M2.5,47.1 L11.6,16.2 L61,16.2 L57.6,27.7 L21.6,27.7 L21.6,47.1 L2.5,47.1 Z M23.1,29.2 L60.4,29.2 L60.4,50.9 L23.1,50.9 L23.1,29.2 Z M64.8,55.3 L27,55.3 L27,52.4 L61.8,52.4 L61.8,33.2 L64.7,33.2 L64.7,55.3 L64.8,55.3 Z"
                id="Shape"></path>
                <path d="M54.3,33 L54.3,32.2 L29.2,32.2 L29.2,33 C29.2,34.2 28.2,35.3 26.9,35.3 L26.1,35.3 L26.1,44.8 L26.9,44.8 C28.1,44.8 29.2,45.8 29.2,47.1 L29.2,47.9 L54.3,47.9 L54.3,47.1 C54.3,45.9 55.3,44.8 56.6,44.8 L57.4,44.8 L57.4,35.3 L56.6,35.3 C55.3,35.3 54.3,34.3 54.3,33 Z M55.8,43.4 C54.3,43.7 53.2,44.9 52.9,46.3 L30.6,46.3 C30.3,44.8 29.1,43.7 27.7,43.4 L27.7,36.7 C29.2,36.4 30.3,35.2 30.6,33.8 L52.9,33.8 C53.2,35.3 54.4,36.4 55.8,36.7 L55.8,43.4 L55.8,43.4 Z"
                id="Shape"></path>
                <rect id="Rectangle-path" x="30.8" y="20.6" width="1.5" height="1.5"></rect>
                <rect id="Rectangle-path" x="26.8" y="20.6" width="1.5" height="1.5"></rect>
                <rect id="Rectangle-path" x="22.8" y="20.6" width="1.5" height="1.5"></rect>
                <rect id="Rectangle-path" x="18.8" y="20.6" width="1.5" height="1.5"></rect>
                <rect id="Rectangle-path" x="14.8" y="20.6" width="1.5" height="1.5"></rect>
            </g>
        </g>
    </g>
</svg>