<?xml version="1.0" encoding="UTF-8"?>
<svg viewBox="0 0 525 751" version="1.1" xmlns="http://www.w3.org/2000/svg" >
    <g id="Page-1" stroke="none" stroke-  fill-rule="evenodd">
        <g id="flask" transform="translate(-138.000000, 0.000000)" fill-rule="nonzero" >
            <g id="Group" transform="translate(138.000000, 0.000000)">
                <path d="M238.8,750 C118.6,739.6 20,646.6 3.1,527.2 C-16.2,397.2 63.2,277 184.2,239.3 L184.2,70.2 C184.2,67.8 183.4,65.4 182.6,63 L162.6,22.9 C158.6,14.9 161.8,6.1 169.8,2.1 C177.8,-1.9 186.6,1.3 190.6,9.3 L213.8,55.8 C214.6,58.2 215.4,60.6 215.4,63 L215.4,263.4 L204.2,266.6 C90.4,297.1 14.2,409.3 35.9,530.3 C52.7,631.3 137.7,709.1 240.3,718.7 C377.4,730.7 492.8,623.3 492.8,488.6 C492.8,383.6 422.3,292.2 320.5,265.8 L309.3,262.6 L309.3,62.2 C309.3,59.8 310.1,57.4 310.9,55 L334.1,9.3 C338.1,1.3 346.9,-1.1 354.9,2.1 C362.9,6.1 365.3,14.9 362.1,22.9 L342.1,63 C341.3,65.4 340.5,67.8 340.5,70.2 L340.5,239.3 C449.6,273 524.1,374 524.1,489.4 C524.1,640.9 393.5,763.6 238.8,750 Z" id="Shape"></path>
                <path d="M456.8,491.8 L67.2,491.8 C67.2,600 154.6,687.4 262,687.4 C271.6,687.4 281.2,686.6 290.1,685 C280.5,681 273.3,671.4 273.3,659.3 L273.3,659.3 C267.7,664.1 261.3,667.3 253.3,667.3 C236.5,667.3 222.8,653.7 222.8,636.8 C222.8,620 236.4,606.3 253.3,606.3 C254.9,606.3 256.5,606.3 258.1,607.1 C255.7,603.9 253.3,599.9 253.3,595.1 C253.3,584.7 261.3,576.7 271.7,576.7 C282.1,576.7 290.1,584.7 290.1,595.1 C290.1,605.5 282.1,613.5 271.7,613.5 C278.1,619.1 282.9,627.1 282.9,636.7 L282.9,638.3 C287.7,634.3 294.1,631.9 300.5,631.9 C315.7,631.9 327.8,643.9 327.8,659.2 C327.8,666.4 325.4,672.8 320.6,677.6 C399.9,653 456.8,579.2 456.8,491.8 Z M229.9,566.4 C221.1,566.4 213.9,559.2 213.9,550.4 C213.9,541.6 221.1,534.4 229.9,534.4 C238.7,534.4 245.9,541.6 245.9,550.4 C245.9,559.2 238.8,566.4 229.9,566.4 Z M238.8,519.1 C234,519.1 230,515.1 230,510.3 C230,505.5 234,501.5 238.8,501.5 C243.6,501.5 247.6,505.5 247.6,510.3 C247.6,515.1 243.6,519.1 238.8,519.1 Z M273.2,550.4 C266.8,550.4 262,545.6 262,539.2 C262,532.8 266.8,528 273.2,528 C279.6,528 284.4,532.8 284.4,539.2 C284.4,545.6 279.6,550.4 273.2,550.4 Z" id="Shape"></path>
            </g>
        </g>
    </g>
</svg>