<?xml version="1.0" encoding="UTF-8" ?>
<svg width="400px" height="401px" viewBox="0 0 400 401" version="1.1"
xmlns="http://www.w3.org/2000/svg">
    <g id="Page-1" stroke="none" stroke-width="1" fill-rule="evenodd">
        <g id="flowChartShapes" transform="translate(-56.000000, 0.000000)" fill-rule="nonzero">
            <g id="Group" transform="translate(56.000000, 0.000000)">
                <path d="M400,401 L224,401 L224,257 L400,257 L400,401 Z M240,385 L384,385 L384,273 L240,273 L240,385 Z"
                id="Shape"></path>
                <path d="M88,401 C39.477,401 0,368.701 0,329 C0,289.299 39.477,257 88,257 C136.523,257 176,289.299 176,329 C176,368.701 136.523,401 88,401 Z M88,273 C48.299,273 16,298.122 16,329 C16,359.878 48.299,385 88,385 C127.701,385 160,359.878 160,329 C160,298.122 127.701,273 88,273 Z"
                id="Shape"></path>
                <path d="M200,145.944 L54.111,73 L200,0.056 L345.889,73 L200,145.944 Z M89.889,73 L200,128.056 L310.111,73 L200,17.944 L89.889,73 Z"
                id="Shape"></path>
                <polygon id="Shape" points="320 233 304 233 304 209 96 209 96 233 80 233 80 193 320 193"></polygon>
                <rect id="Rectangle-path" x="192" y="169" width="16" height="32"></rect>
            </g>
        </g>
    </g>
</svg>