<?xml version="1.0" encoding="UTF-8" ?>
<svg width="400px" height="368px" viewBox="0 0 400 368" version="1.1"
xmlns="http://www.w3.org/2000/svg">
    <g id="Page-1" stroke="none" stroke-width="1" fill-rule="evenodd">
        <g id="flowChartSimple" transform="translate(-56.000000, 0.000000)" fill-rule="nonzero">
            <g id="Group" transform="translate(56.000000, 0.000000)">
                <path d="M152,112 L24,112 C10.767,112 0,101.233 0,88 L0,24 C0,10.767 10.767,0 24,0 L152,0 C165.233,0 176,10.767 176,24 L176,88 C176,101.233 165.233,112 152,112 Z M24,16 C19.589,16 16,19.589 16,24 L16,88 C16,92.411 19.589,96 24,96 L152,96 C156.411,96 160,92.411 160,88 L160,24 C160,19.589 156.411,16 152,16 L24,16 Z"
                id="Shape"></path>
                <path d="M376,112 L248,112 C234.767,112 224,101.233 224,88 L224,24 C224,10.767 234.767,0 248,0 L376,0 C389.233,0 400,10.767 400,24 L400,88 C400,101.233 389.233,112 376,112 Z M248,16 C243.589,16 240,19.589 240,24 L240,88 C240,92.411 243.589,96 248,96 L376,96 C380.411,96 384,92.411 384,88 L384,24 C384,19.589 380.411,16 376,16 L248,16 Z"
                id="Shape"></path>
                <path d="M280,368 L120,368 C106.767,368 96,357.233 96,344 L96,280 C96,266.767 106.767,256 120,256 L280,256 C293.233,256 304,266.767 304,280 L304,344 C304,357.233 293.233,368 280,368 Z M120,272 C115.589,272 112,275.589 112,280 L112,344 C112,348.411 115.589,352 120,352 L280,352 C284.411,352 288,348.411 288,344 L288,280 C288,275.589 284.411,272 280,272 L120,272 Z"
                id="Shape"></path>
                <path d="M192,232 L176,232 L176,216 C176,215.979 175.888,209.389 172.637,203.171 C168.707,195.654 161.957,192 152,192 L120,192 C103.915,192 91.429,184.747 84.845,171.578 C80.136,162.161 80,153.012 80,152 L80,136 L96,136 L96,152 C96,152.021 96.112,158.611 99.363,164.829 C103.293,172.346 110.043,176 120,176 L152,176 C168.085,176 180.571,183.253 187.155,196.422 C191.864,205.839 192,214.988 192,216 L192,232 Z"
                id="Shape"></path>
                <path d="M224,232 L208,232 L208,216 C208,214.988 208.136,205.839 212.845,196.422 C219.429,183.253 231.915,176 248,176 L280,176 C289.957,176 296.707,172.346 300.637,164.829 C303.888,158.611 304,152.022 304,151.956 L304,136 L320,136 L320,152 C320,153.012 319.864,162.161 315.155,171.578 C308.571,184.747 296.085,192 280,192 L248,192 C238.043,192 231.293,195.654 227.363,203.171 C224.112,209.389 224,215.978 224,216.044 L224,232 Z"
                id="Shape"></path>
            </g>
        </g>
    </g>
</svg>