<?xml version="1.0" encoding="UTF-8" ?>
<svg width="65px" height="80px" viewBox="0 0 65 80" version="1.1" xmlns="http://www.w3.org/2000/svg">
    <g id="Page-1" stroke="none" stroke-width="1" fill-rule="evenodd">
        <g id="flowChartComplex" transform="translate(-17.000000, 0.000000)" fill-rule="nonzero">
            <g id="Group" transform="translate(17.000000, 0.000000)">
                <path d="M59.41,0 L8.59,0 C5.50501096,0.00550400785 3.00550401,2.50501096 3,5.59 L3,9.67 L1.39,10.67 C0.920557963,10.9627109 0.777289083,11.580558 1.07,12.05 C1.36271092,12.519442 1.98055796,12.6627109 2.45,12.37 L3,12 L3,21.64 L1.39,22.64 C1.08632423,22.8293508 0.906733682,23.1663272 0.918878373,23.5239935 C0.931023063,23.8816598 1.13305793,24.205678 1.44887838,24.3739935 C1.76469884,24.542309 2.14632425,24.5293508 2.45,24.34 L3,24 L3,33.64 L1.39,34.64 C0.920557963,34.9327109 0.777289083,35.550558 1.07,36.02 C1.36271092,36.489442 1.98055796,36.6327109 2.45,36.34 L3,36 L3,45.64 L1.39,46.64 C0.920557963,46.9327109 0.777289083,47.550558 1.07,48.02 C1.36271092,48.489442 1.98055796,48.6327109 2.45,48.34 L3,48 L3,57.64 L1.39,58.64 C1.08632425,58.8293508 0.906733712,59.1663272 0.918878407,59.5239935 C0.931023102,59.8816598 1.13305796,60.2056779 1.44887841,60.3739935 C1.76469885,60.542309 2.14632425,60.5293508 2.45,60.34 L3,60 L3,69.64 L1.39,70.64 C1.08632421,70.8293507 0.906733647,71.1663272 0.918878332,71.5239935 C0.931023017,71.8816598 1.13305789,72.205678 1.44887836,72.3739935 C1.76469883,72.5423091 2.14632425,72.5293508 2.45,72.34 L3,72 L3,74.38 C2.9946871,75.8669433 3.58096656,77.2949511 4.62958336,78.3491956 C5.67820016,79.40344 7.10304959,79.9973542 8.59,80 L59.41,80 C62.494989,79.994496 64.994496,77.494989 65,74.41 L65,5.59 C64.994496,2.50501096 62.494989,0.00550400785 59.41,-1.77635684e-15 L59.41,0 Z M63,74.41 C62.9945064,76.3904223 61.3904223,77.9945064 59.41,78 L8.59,78 C6.60957772,77.9945064 5.00549357,76.3904223 5,74.41 L5,70.78 L7.33,69.33 C7.79944204,69.0372891 7.94271092,68.419442 7.65,67.95 C7.35728908,67.480558 6.73944204,67.3372891 6.27,67.63 L5,68.42 L5,58.78 L7.33,57.33 C7.63367579,57.1406493 7.81326635,56.8036728 7.80112167,56.4460065 C7.78897698,56.0883402 7.58694211,55.764322 7.27112164,55.5960065 C6.95530117,55.4276909 6.57367575,55.4406492 6.27,55.63 L5,56.42 L5,46.78 L7.33,45.33 C7.63367575,45.1406492 7.81326629,44.8036728 7.80112159,44.4460065 C7.7889769,44.0883402 7.58694204,43.7643221 7.27112159,43.5960065 C6.95530115,43.427691 6.57367575,43.4406492 6.27,43.63 L5,44.42 L5,34.78 L7.33,33.33 C7.63367575,33.1406492 7.81326629,32.8036728 7.80112159,32.4460065 C7.7889769,32.0883402 7.58694204,31.7643221 7.27112159,31.5960065 C6.95530115,31.427691 6.57367575,31.4406492 6.27,31.63 L5,32.42 L5,22.78 L7.33,21.33 C7.63367577,21.1406492 7.81326632,20.8036728 7.80112163,20.4460065 C7.78897694,20.0883402 7.58694207,19.764322 7.27112162,19.5960065 C6.95530116,19.427691 6.57367575,19.4406492 6.27,19.63 L5,20.42 L5,10.78 L7.33,9.33 C7.63367577,9.14064924 7.81326632,8.80367283 7.80112163,8.44600653 C7.78897694,8.08834022 7.58694207,7.76432204 7.27112162,7.59600651 C6.95530116,7.42769097 6.57367575,7.44064922 6.27,7.63 L5,8.42 L5,5.59 C5.00549357,3.60957772 6.60957772,2.00549357 8.59,2 L59.41,2 C61.3904223,2.00549357 62.9945064,3.60957772 63,5.59 L63,74.41 Z"
                id="Shape"></path>
                <path d="M55,43.1 L55,43 L55,40 L55,40 C55.5522847,40 56,39.5522847 56,39 L56,32 C56,31.4477153 55.5522847,31 55,31 L51,31 L51,28 C51,27.4477153 50.5522847,27 50,27 L45,27 L45,26 L45,25.91 C47.3541225,25.4572008 49.0555954,23.3972735 49.0555954,21 C49.0555954,18.6027265 47.3541225,16.5427992 45,16.09 L45,12 L55,12 C55.5522847,12 56,11.5522847 56,11 L56,7 C56,6.44771525 55.5522847,6 55,6 L15,6 C14.4477153,6 14,6.44771525 14,7 L14,11 C14,11.5522847 14.4477153,12 15,12 L25,12 L25,16.12 C22.7143234,16.6299928 21.0888526,18.6581183 21.0888526,21 C21.0888526,23.3418817 22.7143234,25.3700072 25,25.88 C24.9974442,25.9199592 24.9974442,25.9600408 25,26 L25,27 L20,27 C19.4477153,27 19,27.4477153 19,28 L19,31 L15,31 C14.4477153,31 14,31.4477153 14,32 L14,39 C14,39.5522847 14.4477153,40 15,40 L15,40 L15,43 C15,43 15.06,43.06 15.06,43.1 C12.7524469,43.5921951 11.1030244,45.6305388 11.1030244,47.99 C11.1030244,50.3494612 12.7524469,52.3878049 15.06,52.88 C15.0371062,52.9184864 15.0170528,52.9585931 15,53 L15,62 C15,62.5522847 15.4477153,63 16,63 L21,63 L21,67 L15,67 C14.4477153,67 14,67.4477153 14,68 L14,75 C14,75.5522847 14.4477153,76 15,76 L32,76 C32.5522847,76 33,75.5522847 33,75 L33,68 C33,67.4477153 32.5522847,67 32,67 L23,67 L23,62 C23,61.4477153 22.5522847,61 22,61 L17,61 L17,53 L17,52.91 C19.3420852,52.4468169 21.0299613,50.3924466 21.0299613,48.005 C21.0299613,45.6175534 19.3420852,43.5631831 17,43.1 L17,43 L17,40 L27,40 L27,43 C27,43 27.06,43.06 27.06,43.1 C24.7078188,43.5502324 23.0051956,45.6051224 23,48 C23.1024636,50.3383944 24.7294594,52.3314643 27,52.9 L27,56 L27,56 C26.4477153,56 26,56.4477153 26,57 L26,64 C26,64.5522847 26.4477153,65 27,65 L43,65 C43.5522847,65 44,64.5522847 44,64 L44,57 C44,56.48 44,56.06 43,56 L43,52.9 C45.2595035,52.3141632 46.8783759,50.3310445 47,48 C47.000485,45.6236569 45.3283313,43.5752686 43,43.1 C43.0018129,43.0666913 43.0018129,43.0333087 43,43 L43,40 L53,40 L53,43 C53,43 53.06,43.06 53.06,43.1 C50.7524469,43.5921951 49.1030244,45.6305388 49.1030244,47.99 C49.1030244,50.3494612 50.7524469,52.3878049 53.06,52.88 C53.0371062,52.9184864 53.0170528,52.9585931 53,53 L53,61 L48,61 C47.4477153,61 47,61.4477153 47,62 L47,67 L38,67 C37.4477153,67 37,67.4477153 37,68 L37,75 C37,75.5522847 37.4477153,76 38,76 L55,76 C55.5522847,76 56,75.5522847 56,75 L56,68 C56,67.4477153 55.5522847,67 55,67 L49,67 L49,63 L54,63 C54.5522847,63 55,62.5522847 55,62 L55,53 L55,52.91 C57.3420852,52.4468169 59.0299613,50.3924466 59.0299613,48.005 C59.0299613,45.6175534 57.3420852,43.5631831 55,43.1 L55,43.1 Z M31,69 L31,74 L16,74 L16,69 L31,69 Z M19.08,48 C19.08,49.6568542 17.7368542,51 16.08,51 C14.4231458,51 13.08,49.6568542 13.08,48 C13.08,46.3431458 14.4231458,45 16.08,45 C17.7368542,45 19.08,46.3431458 19.08,48 Z M54,69 L54,74 L39,74 L39,69 L54,69 Z M47.08,21 C47.08,22.6568542 45.7368542,24 44.08,24 C42.4231458,24 41.08,22.6568542 41.08,21 C41.08,19.3431458 42.4231458,18 44.08,18 C45.7368542,18 47.08,19.3431458 47.08,21 L47.08,21 Z M16,10 L16,8 L54,8 L54,10 L16,10 Z M23.08,21 C23.08,19.3431458 24.4231458,18 26.08,18 C27.7368542,18 29.08,19.3431458 29.08,21 C29.08,22.6568542 27.7368542,24 26.08,24 C24.4231458,24 23.08,22.6568542 23.08,21 L23.08,21 Z M16,38 L16,33 L31,33 L31,38 L16,38 Z M25.08,48 C25.08,46.3431458 26.4231458,45 28.08,45 C29.7368542,45 31.08,46.3431458 31.08,48 C31.08,49.6568542 29.7368542,51 28.08,51 C26.4231458,51 25.08,49.6568542 25.08,48 Z M42,63 L28,63 L28,58 L42,58 L42,63 Z M45.08,48 C45.08,49.6568542 43.7368542,51 42.08,51 C40.4231458,51 39.08,49.6568542 39.08,48 C39.08,46.3431458 40.4231458,45 42.08,45 C43.7368542,45 45.08,46.3431458 45.08,48 Z M41.08,43.1 C38.7198704,43.5417965 37.0070282,45.5988864 37,48 C37.1024636,50.3383944 38.7294594,52.3314643 41,52.9 L41,56 L29,56 L29,52.9 C31.2595035,52.3141632 32.8783759,50.3310445 33,48 C33.000485,45.6236569 31.3283313,43.5752686 29,43.1 C29.0018129,43.0666913 29.0018129,43.0333087 29,43 L29,40 L32,40 C32.5522847,40 33,39.5522847 33,39 L33,32 C33,31.4477153 32.5522847,31 32,31 L21,31 L21,29 L26,29 C26.5522847,29 27,28.5522847 27,28 L27,26 L27,25.91 C29.3541225,25.4572008 31.0555954,23.3972735 31.0555954,21 C31.0555954,18.6027265 29.3541225,16.5427992 27,16.09 L27,12 L43,12 L43,16.12 C40.7143234,16.6299928 39.0888526,18.6581183 39.0888526,21 C39.0888526,23.3418817 40.7143234,25.3700072 43,25.88 C42.9974442,25.9199592 42.9974442,25.9600408 43,26 L43,28 C43,28.5522847 43.4477153,29 44,29 L49,29 L49,31 L38,31 C37.4477153,31 37,31.4477153 37,32 L37,39 C37,39.5522847 37.4477153,40 38,40 L41,40 L41,43 C41,43 41.06,43.06 41.06,43.1 L41.08,43.1 Z M39,38 L39,33 L54,33 L54,38 L39,38 Z M54.08,51 C52.4231458,51 51.08,49.6568542 51.08,48 C51.08,46.3431458 52.4231458,45 54.08,45 C55.7368542,45 57.08,46.3431458 57.08,48 C57.08,49.6568542 55.7368542,51 54.08,51 Z"
                id="Shape"></path>
            </g>
        </g>
    </g>
</svg>