<?xml version="1.0" encoding="UTF-8" ?>
<svg width="305px" height="565px" viewBox="0 0 305 565" version="1.1"
xmlns="http://www.w3.org/2000/svg">
    <g id="Page-1" stroke="none" stroke-width="1" fill-rule="evenodd">
        <g id="flowChart" fill-rule="nonzero">
            <path d="M26.025,85.128 C41.679,97.288 64.969,105.192 97.261,109.169 C97.323,128.23 98.86,150.586 116.727,168.536 C139.059,190.972 182.079,201.421 252.112,201.421 L304.778,201.421 L304.778,175.421 L252.112,175.421 C191.167,175.421 151.817,166.933 135.155,150.194 C124.837,139.828 123.415,126.622 123.273,111.424 C133.127,111.966 143.64,112.237 154.853,112.237 L207.519,112.237 L207.519,86.237 L154.853,86.237 C93.908,86.237 54.558,77.749 37.895,61.01 C27.831,50.9 26.23,38.087 26.025,23.362 L26.025,0 L0.025,0 L0.025,10.054 C0.025,11.476 0.018,12.905 0.012,14.34 C8.69096461e-16,17.103 -0.012,19.959 0.025,22.88 L0.025,190.901 C0.025,192.323 0.018,193.752 0.012,195.187 C-0.001,197.949 -0.012,200.806 0.025,203.727 L0.025,372.834 C0.025,374.256 0.018,375.686 0.012,377.12 C-0.001,379.882 -0.012,382.739 0.025,385.66 L0.025,564.201 L26.025,564.201 L26.025,447.908 C41.679,460.068 64.969,467.972 97.261,471.949 C97.323,491.011 98.86,513.366 116.727,531.316 C139.059,553.752 182.079,564.201 252.112,564.201 L304.778,564.201 L304.778,538.201 L252.112,538.201 C191.167,538.201 151.817,529.714 135.155,512.973 C124.837,502.608 123.415,489.401 123.273,474.203 C133.127,474.745 143.64,475.016 154.853,475.016 L207.519,475.016 L207.519,449.016 L154.853,449.016 C93.908,449.016 54.558,440.529 37.895,423.788 C27.832,413.679 26.231,400.865 26.026,386.14 L26.026,265.975 C41.68,278.135 64.97,286.039 97.262,290.016 C97.324,309.078 98.861,331.433 116.728,349.383 C139.06,371.819 182.08,382.268 252.113,382.268 L304.779,382.268 L304.779,356.268 L252.113,356.268 C191.168,356.268 151.818,347.781 135.156,331.04 C124.838,320.675 123.416,307.468 123.274,292.27 C133.128,292.812 143.641,293.083 154.854,293.083 L207.52,293.083 L207.52,267.083 L154.854,267.083 C93.909,267.083 54.559,258.595 37.896,241.856 C27.833,231.746 26.232,218.933 26.027,204.208 L26.027,85.128 L26.025,85.128 Z"
            id="Shape"></path>
        </g>
    </g>
</svg>