<?xml version="1.0" encoding="UTF-8" ?>
<svg width="48px" height="48px" viewBox="0 0 48 48" version="1.1" xmlns="http://www.w3.org/2000/svg">
    <g id="Page-1" stroke="none" stroke-width="1" fill-rule="evenodd">
        <g id="flowChartCircle" transform="translate(0.000000, -1.000000)" fill-rule="nonzero">
            <g id="Group" transform="translate(0.000000, 0.637800)">
                <path d="M24,0.3622 C10.751089,0.3622 0,11.1133 0,24.3622 C0,37.6111 10.751089,48.3622 24,48.3622 C37.248912,48.3622 48,37.6111 48,24.3622 C48,11.1133 37.248912,0.3622 24,0.3622 Z M24,1.3622 C36.708472,1.3622 47,11.6537 47,24.3622 C47,37.0707 36.708472,47.3622 24,47.3622 C11.291529,47.3622 1,37.0707 1,24.3622 C1,11.6537 11.291529,1.3622 24,1.3622 Z M26.517578,11.3622 L21.517578,11.364153 C20.303236,11.364153 19.287196,12.238344 19.064453,13.389544 L13.517578,13.389544 L13.517578,19.432512 L13.517578,19.448138 L12.957031,18.889544 L12.25,19.596575 L13.984375,21.33095 C13.863635,21.34095 13.749831,21.388028 13.664062,21.473528 L10.128906,25.010638 C9.933722,25.205838 9.933722,25.522469 10.128906,25.717669 L13.664062,29.252825 C13.754933,29.343825 13.877332,29.398162 14.005859,29.401262 L12.25,31.157122 L12.957031,31.864153 L13.517578,31.303606 L13.517578,31.323138 L13.517578,35.364153 L19.068359,35.364153 C19.30225,36.501253 20.313271,37.3622 21.517578,37.3622 L26.517578,37.3622 C27.721885,37.3622 28.732906,36.4993 28.966797,35.3622 L34.017578,35.3622 L34.017578,29.801653 L34.578125,30.3622 L35.285156,29.655169 L33.517578,27.887591 L31.75,29.655169 L32.457031,30.3622 L33.017578,29.801653 L33.017578,34.3622 L28.966797,34.3622 C28.734356,33.2233 27.723206,32.3622 26.517578,32.3622 L21.517578,32.3622 C20.311951,32.3622 19.3008,33.2233 19.068359,34.3622 L14.517578,34.3622 L14.517578,31.321184 L14.517578,31.301653 L15.078125,31.8622 L15.785156,31.155169 L14.029297,29.399309 C14.157824,29.399309 14.280228,29.344325 14.371094,29.252825 L17.90625,25.715716 C18.101435,25.520516 18.101435,25.203884 17.90625,25.008684 L14.371094,21.473528 C14.285324,21.388528 14.171522,21.336797 14.050781,21.328997 L15.785156,19.594622 L15.078125,18.887591 L14.517578,19.448138 L14.517578,19.430559 L14.517578,14.387591 L19.076172,14.387591 C19.319437,15.512591 20.321924,16.3622 21.517578,16.3622 L26.517578,16.3622 C27.713232,16.3622 28.715719,15.512591 28.958984,14.387591 L33.017578,14.387591 L33.017578,19.430559 L33.017578,20.948138 L32.457031,20.387591 L31.75,21.094622 L33.517578,22.8622 L35.285156,21.094622 L34.578125,20.387591 L34.017578,20.948138 L34.017578,19.430559 L34.017578,13.387591 L28.970703,13.387591 C28.74796,12.236391 27.73192,11.3622 26.517578,11.3622 Z M21.517578,12.364153 L26.517578,12.364153 C27.357227,12.364153 28.017578,13.024553 28.017578,13.864153 C28.017578,14.703853 27.357227,15.364153 26.517578,15.364153 L21.517578,15.364153 C20.677929,15.364153 20.017578,14.703853 20.017578,13.864153 C20.017578,13.024553 20.677929,12.364153 21.517578,12.364153 Z M14.017578,22.536028 L16.845703,25.364153 L14.017578,28.194231 L11.189453,25.364153 L14.017578,22.536028 Z M29.517578,22.864153 C29.241447,22.864153 29.017606,23.088053 29.017578,23.364153 L29.017578,27.852434 L29.517578,27.864153 L37.517578,27.864153 C37.793709,27.864153 38.01755,27.640253 38.017578,27.364153 L38.017578,23.364153 C38.01755,23.088053 37.793709,22.864153 37.517578,22.864153 L33.517578,22.864153 L29.517578,22.864153 Z M30.017578,23.864153 L37.017578,23.864153 L37.017578,26.864153 L30.017578,26.864153 L30.017578,23.864153 Z M21.517578,33.364153 L26.517578,33.364153 C27.357227,33.364153 28.017578,34.024553 28.017578,34.864153 C28.017578,35.703853 27.357227,36.364153 26.517578,36.364153 L21.517578,36.364153 C20.677929,36.364153 20.017578,35.703853 20.017578,34.864153 C20.017578,34.024553 20.677929,33.364153 21.517578,33.364153 Z"
                id="Shape"></path>
            </g>
        </g>
    </g>
</svg>