<?xml version="1.0" encoding="UTF-8" ?>
<svg width="63px" height="63px" viewBox="0 0 63 63" version="1.1" xmlns="http://www.w3.org/2000/svg">
    <g id="Page-1" stroke="none" stroke-width="1" fill-rule="evenodd">
        <g id="folderLinked" fill-rule="nonzero">
            <g id="Group">
                <path d="M54.5,20.5 L56.5,20.5 C56.5,16.1 52.9,12.5 48.5,12.5 L48.5,14.5 C51.8,14.5 54.5,17.2 54.5,20.5 Z"
                id="Shape"></path>
                <path d="M11.8,13.6 C10,8.8 15.2,2.9 21.1,6.6 C21.1,6.6 25.1,2.4 31.5,2.4 C40.7,2.4 44.6,9.8 45.3,11.4 C52.5,7.8 60.7,14.4 58,22.5 C58,22.5 60.5,24.7 60.5,28.4 C60.5,32.8 56.9,36.4 52.5,36.4 L37.5,36.4 L37.5,38.4 L52.5,38.4 C58,38.4 62.5,33.9 62.5,28.4 C62.5,26.1 61.7,23.8 60.2,22 C62.1,15.2 56.1,6.2 46.2,8.9 C43.2,3.6 37.6,0.4 31.5,0.4 C27.6,0.4 23.9,1.7 20.9,4.2 C17.2,2.1 9.2,4.4 9.5,12.3 C5.9,13.9 3.5,17.4 3.5,21.4 C1.6,23.3 0.5,25.9 0.5,28.5 C0.5,34 5.3,39 11.5,38.5 L11.5,36.5 C6.3,36.9 2.5,32.9 2.5,28.5 C2.5,24.5 5.5,22.2 5.5,22.2 C5.5,22.2 4.6,15.9 11.8,13.6 Z"
                id="Shape"></path>
                <path d="M57.5,46.5 L55.5,46.5 L55.5,44.5 C55.5,42.8 54.2,41.5 52.5,41.5 L42.5,41.5 C40.8,41.5 39.5,42.8 39.5,44.5 L39.5,54.5 C39.5,55.1 39.1,55.5 38.5,55.5 L26.5,55.5 C25.9,55.5 25.5,55.1 25.5,54.5 L25.5,47.5 L36.5,47.5 L36.5,25.5 L22.5,25.5 L22.5,21.5 L12.5,21.5 L12.5,47.5 L23.5,47.5 L23.5,54.5 C23.5,56.2 24.8,57.5 26.5,57.5 L38.5,57.5 C40.2,57.5 41.5,56.2 41.5,54.5 L41.5,44.5 C41.5,43.9 41.9,43.5 42.5,43.5 L52.5,43.5 C53.1,43.5 53.5,43.9 53.5,44.5 L53.5,46.5 L51.5,46.5 C49.8,46.5 48.5,47.8 48.5,49.5 L48.5,59.5 C48.5,61.2 49.8,62.5 51.5,62.5 L57.5,62.5 C59.2,62.5 60.5,61.2 60.5,59.5 L60.5,49.5 C60.5,47.8 59.2,46.5 57.5,46.5 Z M14.5,23.5 L20.5,23.5 L20.5,25.5 L14.5,25.5 L14.5,23.5 Z M34.5,27.5 L34.5,29.5 L14.5,29.5 L14.5,27.5 L34.5,27.5 Z M14.5,31.5 L34.5,31.5 L34.5,45.5 L14.5,45.5 L14.5,31.5 Z M57.5,48.5 C58.1,48.5 58.5,48.9 58.5,49.5 L58.5,51.5 L55.5,51.5 L55.5,48.5 L57.5,48.5 Z M51.5,48.5 L53.5,48.5 L53.5,51.5 L50.5,51.5 L50.5,49.5 C50.5,48.9 50.9,48.5 51.5,48.5 Z M57.5,60.5 L51.5,60.5 C50.9,60.5 50.5,60.1 50.5,59.5 L50.5,53.5 L58.5,53.5 L58.5,59.5 C58.5,60.1 58.1,60.5 57.5,60.5 Z"
                id="Shape"></path>
            </g>
        </g>
    </g>
</svg>