<?xml version="1.0" encoding="UTF-8" ?>
<svg width="90px" height="79px" viewBox="0 0 90 79" version="1.1" xmlns="http://www.w3.org/2000/svg">
    <g id="Page-1" stroke="none" stroke-width="1" fill-rule="evenodd">
        <g id="garage" transform="translate(0.000000, -1.000000)" fill-rule="nonzero">
            <g id="Group">
                <path d="M88.28,35.04 L88.28,35.04 L47.28,2.04 C45.5705742,0.648931505 43.1194258,0.648931505 41.41,2.04 L1.67,35.15 C0.39813446,36.2092925 -0.211991953,37.8666513 0.069449482,39.4977654 C0.350890917,41.1288794 1.48114255,42.4859438 3.03444952,43.0577654 C4.58775649,43.629587 6.3281345,43.3292925 7.6,42.27 L44.46,11.62 L82.46,42.26 C83.7497288,43.2996429 85.4961302,43.5722505 87.0413518,42.975134 C88.5865733,42.3780176 89.6958591,41.0018933 89.9513518,39.365134 C90.2068446,37.7283746 89.5697288,36.0796428 88.28,35.04 L88.28,35.04 Z M87.71,40.53 C87.210208,41.1494894 86.484715,41.5449657 85.693238,41.6293649 C84.901761,41.7137641 84.1091866,41.480167 83.49,40.98 L45,9.92 C44.7052349,9.69323076 44.2947651,9.69323076 44,9.92 L6.55,41.02 C5.27422223,42.0776253 3.3826253,41.9007778 2.325,40.625 C1.2673747,39.3492222 1.44422223,37.4576253 2.72,36.4 L42.5,3.32 C43.6052014,2.41551647 45.1947986,2.41551647 46.3,3.32 L87.3,36.32 L87.3,36.32 C88.5679344,37.3747911 88.7466051,39.2553002 87.7,40.53 L87.71,40.53 Z"
                id="Shape"></path>
                <path d="M28,48.11 L61.25,48.11 C61.8690072,48.1011964 62.4490451,47.8062343 62.8207999,47.3112134 C63.1925547,46.8161925 63.3141161,46.1769198 63.15,45.58 L60.92,37.95 C60.6674567,37.1006292 59.8861191,36.5186955 59,36.52 L30.65,36.52 C29.8116089,36.5245532 29.0650448,37.0515396 28.78,37.84 L26.1,45.47 C25.8935328,46.0812762 25.9946401,46.7546123 26.3715309,47.2782921 C26.7484217,47.801972 27.3547989,48.1116669 28,48.11 Z M27.68,46.02 L30.33,38.4 C30.3768302,38.2630308 30.5052481,38.1707304 30.65,38.17 L59,38.17 C59.1527776,38.1723673 59.2863624,38.273568 59.33,38.42 L61.56,46.05 C61.5920109,46.1539804 61.5723278,46.2670005 61.50705,46.3540375 C61.4417723,46.4410745 61.3387843,46.4916159 61.23,46.49 L28,46.49 C27.8880382,46.4906199 27.7829481,46.4360786 27.7190097,46.3441671 C27.6550713,46.2522557 27.6404817,46.1347575 27.68,46.03 L27.68,46.02 Z"
                id="Shape"></path>
                <path d="M31.35,58.12 L26.88,55.2 C26.4517945,54.9201874 25.9515216,54.7708004 25.44,54.77 L21.86,54.77 C20.4081211,54.7754376 19.2309475,55.9481522 19.22,57.4 L19.22,60.32 C19.2254831,61.7757545 20.4042455,62.9545169 21.86,62.96 L29.91,62.96 C31.083353,62.9650366 32.1192201,62.1950365 32.4525591,61.0700175 C32.7858981,59.9449985 32.3367031,58.73498 31.35,58.1 L31.35,58.12 Z M29.91,61.34 L21.86,61.34 C21.3077153,61.34 20.86,60.8922847 20.86,60.34 L20.86,57.4 C20.86,56.8477153 21.3077153,56.4 21.86,56.4 L25.43,56.4 C25.6250127,56.3985624 25.8161902,56.4541777 25.98,56.56 L30.46,59.48 C30.8437343,59.7175347 31.0208141,60.1826597 30.892206,60.6152504 C30.7635979,61.0478412 30.361177,61.3406822 29.91,61.33 L29.91,61.34 Z"
                id="Shape"></path>
                <path d="M67.17,54.78 L63.6,54.78 C63.0883937,54.7802229 62.5879596,54.929658 62.16,55.21 L57.68,58.13 C56.6932969,58.76498 56.2441019,59.9749985 56.5774409,61.1000175 C56.9107799,62.2250365 57.946647,62.9950366 59.12,62.99 L67.17,62.99 C68.6257545,62.9845169 69.8045169,61.8057545 69.81,60.35 L69.81,57.4 C69.7936172,55.9520619 68.6180208,54.7853716 67.17,54.78 L67.17,54.78 Z M68.17,60.34 C68.17,60.8922847 67.7222847,61.34 67.17,61.34 L59.12,61.34 C58.668823,61.3506822 58.2664021,61.0578412 58.137794,60.6252504 C58.0091859,60.1926597 58.1862657,59.7275347 58.57,59.49 L63,56.57 C63.1767661,56.4508259 63.3869921,56.3912619 63.6,56.4 L67.17,56.4 C67.7222847,56.4 68.17,56.8477153 68.17,57.4 L68.17,60.34 Z"
                id="Shape"></path>
                <path d="M71.88,40.11 L71.23,40.11 C69.5930872,40.1075001 68.1654326,41.2215659 67.77,42.81 L67.55,43.71 L64.55,35.56 C63.9400335,33.9451788 62.3961759,32.8748239 60.67,32.87 L28.7,32.87 C26.9738241,32.8748239 25.4299665,33.9451788 24.82,35.56 L21.76,43.73 L21.64,43.9 L21.34,42.69 C20.9445674,41.1015659 19.5169128,39.9875001 17.88,39.99 L17.23,39.99 C15.3680363,40.0066736 13.8315927,41.4516313 13.7007872,43.3090695 C13.5699817,45.1665078 14.8887502,46.8125367 16.73,47.09 L18.21,47.3 L18.56,48.2 L16.56,50.93 C15.4652044,52.0776565 14.8561357,53.6039112 14.86,55.19 L14.86,68.12 C14.8618085,69.7164238 15.8363817,71.1505518 17.32,71.74 L17.32,77.54 C17.32,78.7936864 18.3363136,79.81 19.59,79.81 L25.71,79.81 C26.3154992,79.815335 26.8980339,79.5785322 27.328077,79.152245 C27.75812,78.7259579 28.0000235,78.1455227 28,77.54 L28,72.01 L61.1,72.01 L61.1,77.53 C61.1,78.7836864 62.1163136,79.8 63.37,79.8 L69.49,79.8 C70.7436864,79.8 71.76,78.7836864 71.76,77.53 L71.76,71.81 C73.3445307,71.2753936 74.4136628,69.7922743 74.42,68.12 L74.42,55.19 C74.4238643,53.6039112 73.8147956,52.0776565 72.72,50.93 L70.66,48.07 L70.91,47.43 L72.39,47.22 C74.2312498,46.9425367 75.5500183,45.2965078 75.4192128,43.4390695 C75.2884073,41.5816313 73.7519637,40.1366736 71.89,40.12 L71.88,40.11 Z M17,45.47 C15.9997983,45.3249248 15.2809052,44.4327974 15.3517928,43.4246182 C15.4226804,42.416439 16.2593385,41.6336864 17.27,41.63 L17.92,41.63 C18.8041746,41.6308694 19.5746832,42.2324429 19.79,43.09 L20.43,45.65 L19.74,46.65 L19.6,46.29 C19.4910615,46.0152935 19.2427366,45.8204539 18.95,45.78 L17,45.47 Z M25.79,78.17 L19.63,78.17 C19.2820606,78.17 19,77.8879394 19,77.54 L19,72.23 L26.39,72.23 L26.39,77.54 C26.39,77.8879394 26.1079394,78.17 25.76,78.17 L25.79,78.17 Z M69.52,78.17 L63.36,78.17 C63.0120606,78.17 62.73,77.8879394 62.73,77.54 L62.73,72.23 L70.12,72.23 L70.12,77.54 C70.12,77.7070864 70.0536252,77.8673294 69.9354773,77.9854773 C69.8173294,78.1036252 69.6570864,78.17 69.49,78.17 L69.52,78.17 Z M71.45,51.93 L71.53,52.02 C72.355224,52.8683416 72.8147988,54.0065072 72.81,55.19 L72.81,68.12 C72.8074678,69.2656682 71.9480645,70.2281999 70.81,70.36 C70.6311673,70.3860237 70.4659402,70.470395 70.34,70.6 L62.48,70.6 C62.3310192,70.4598549 62.1345344,70.381261 61.93,70.38 L27.19,70.38 C26.9889307,70.3837558 26.7964483,70.4621746 26.65,70.6 L18.82,70.6 C18.7021587,70.4668339 18.5442231,70.3755822 18.37,70.34 C17.3069293,70.1339709 16.5393847,69.2028513 16.54,68.12 L16.54,55.19 C16.5352012,54.0065072 16.994776,52.8683416 17.82,52.02 L17.9,51.93 L20.15,48.79 L21.94,46.3 L23.16,44.61 C23.2015167,44.5513233 23.2351382,44.4874425 23.26,44.42 L26.35,36.14 C26.7156267,35.1632988 27.6471154,34.5144413 28.69,34.51 L60.63,34.51 C61.6838574,34.5019 62.6305403,35.1529941 63,36.14 L66,44.3 C66.0244861,44.4119829 66.0721787,44.5175879 66.14,44.61 L67.23,46.13 L69.05,48.66 L71.45,51.93 Z M72.19,45.59 L70.19,45.87 C69.8972634,45.9104539 69.6489385,46.1052935 69.54,46.38 L69.54,46.49 L68.82,45.49 L69.39,43.22 C69.6053168,42.3624429 70.3758254,41.7608694 71.26,41.76 L71.91,41.76 C72.9206615,41.7636864 73.7573196,42.546439 73.8282072,43.5546182 C73.8990948,44.5627974 73.1802017,45.4549248 72.18,45.6 L72.19,45.59 Z"
                id="Shape"></path>
            </g>
        </g>
    </g>
</svg>