<?xml version="1.0" encoding="UTF-8" ?>
<svg width="88px" height="101px" viewBox="0 0 88 101" version="1.1" xmlns="http://www.w3.org/2000/svg">
    <g id="Page-1" stroke="none" stroke-width="1" fill-rule="evenodd">
        <g id="congress" fill-rule="nonzero">
            <g id="Group">
                <polygon id="Shape" points="87.661 100.025 0.534 100.025 4.854 92.389 82.252 92.389"></polygon>
                <path d="M78.768,87.476 L80.977,90.594 L70.389,90.594 L43.114,79.291 L43.114,79.291 L18.727,89.314 L18.732,89.319 L15.632,90.593 L5.866,90.593 L7.692,87.368 L15.179,87.002 L15.179,70.464 C20.732,65.902 35.621,63.856 42.971,63.945 L42.971,63.967 L43.384,63.95 L43.432,63.95 L43.857,63.967 L43.857,63.945 C50.649,63.861 64.748,65.729 70.847,69.87 L70.984,87.158 L78.768,87.476 Z M66.494,81.965 L66.494,72.539 C66.494,72.221 66.34,71.935 66.076,71.726 C65.823,71.515 65.465,71.39 65.07,71.39 C64.285,71.39 63.652,71.906 63.652,72.539 L63.652,81.965 C63.652,82.283 63.812,82.569 64.063,82.778 C64.321,82.982 64.674,83.112 65.07,83.112 C65.86,83.112 66.494,82.599 66.494,81.965 Z M59.163,79.847 L59.163,69.647 C59.163,69.306 59.003,68.996 58.751,68.774 C58.495,68.545 58.141,68.409 57.746,68.409 C56.955,68.409 56.32,68.967 56.32,69.647 L56.32,79.847 C56.32,80.194 56.476,80.504 56.74,80.725 C56.991,80.954 57.351,81.09 57.746,81.09 C58.527,81.092 59.163,80.534 59.163,79.847 Z M51.832,78.248 L51.832,68.052 C51.832,67.711 51.677,67.398 51.414,67.171 C51.163,66.944 50.803,66.807 50.409,66.807 C49.625,66.807 48.989,67.364 48.989,68.053 L48.989,78.249 C48.989,78.59 49.151,78.901 49.402,79.122 C49.659,79.351 50.013,79.488 50.408,79.488 C51.199,79.487 51.832,78.93 51.832,78.248 Z M44.502,77.441 L44.502,67.698 C44.502,67.371 44.34,67.07 44.089,66.854 C43.832,66.638 43.478,66.506 43.084,66.506 C42.294,66.506 41.661,67.04 41.661,67.697 L41.661,77.44 C41.661,77.761 41.816,78.06 42.08,78.277 C42.331,78.493 42.691,78.625 43.085,78.625 C43.867,78.626 44.502,78.092 44.502,77.441 Z M37.171,78.398 L37.171,68.198 C37.171,67.851 37.016,67.541 36.752,67.321 C36.501,67.092 36.142,66.956 35.747,66.956 C34.963,66.956 34.329,67.512 34.329,68.2 L34.329,78.399 C34.329,78.741 34.49,79.051 34.742,79.272 C35,79.501 35.353,79.638 35.747,79.638 C36.536,79.638 37.171,79.08 37.171,78.398 Z M29.84,79.847 L29.84,69.647 C29.84,69.306 29.678,68.996 29.426,68.774 C29.169,68.545 28.816,68.409 28.421,68.409 C27.631,68.409 26.997,68.967 26.997,69.647 L26.997,79.847 C26.997,80.194 27.152,80.504 27.416,80.725 C27.667,80.954 28.025,81.09 28.421,81.09 C29.206,81.092 29.84,80.534 29.84,79.847 Z M22.509,81.965 L22.509,72.539 C22.509,72.221 22.352,71.935 22.09,71.726 C21.839,71.515 21.479,71.39 21.085,71.39 C20.301,71.39 19.667,71.906 19.667,72.539 L19.667,81.965 C19.667,82.283 19.828,82.569 20.08,82.778 C20.337,82.982 20.689,83.112 21.085,83.112 C21.874,83.112 22.509,82.599 22.509,81.965 Z"
                id="Shape"></path>
                <path d="M73.269,66.278 C73.767,67.745 73.592,68.942 73.382,69.605 C73.053,69.289 72.681,68.978 72.269,68.676 C65.658,63.819 50.026,62 43.431,62.155 L43.383,62.155 C36.25,62 19.75,63.997 13.717,69.347 C13.717,69.347 12.943,67.86 13.555,66.283 C14.728,65.261 16.379,64.292 18.48,63.399 C25.889,60.245 37.42,58.76 43.142,58.869 L43.142,58.881 C43.22,58.875 43.298,58.875 43.4,58.875 L43.436,58.875 C43.525,58.875 43.603,58.875 43.681,58.881 L43.681,58.87 C48.468,58.779 58.355,59.833 66.06,62.522 C69.264,63.641 71.694,64.904 73.269,66.278 Z"
                id="Shape"></path>
                <path d="M68.296,53.28 C63.275,47.667 49.44,45.209 42.82,45.41 L42.797,45.41 C36.716,45.237 22.574,47.416 17.356,53.258 C17.35,53.27 17.337,53.274 17.332,53.286 C16.983,50.506 18.032,49.145 18.032,49.145 C19.391,47.827 21.324,46.619 23.788,45.536 C30.3,42.687 38.576,41.562 42.598,41.658 L42.598,41.677 C42.663,41.671 42.723,41.665 42.813,41.665 L42.843,41.665 C42.908,41.665 42.968,41.671 43.029,41.677 L43.029,41.658 C46.973,41.563 55.213,42.663 61.73,45.488 C64.602,46.734 66.763,48.152 68.138,49.7 C68.675,51.181 68.415,52.717 68.296,53.28 Z"
                id="Shape"></path>
                <path d="M67.098,54.641 L67.098,60.984 C66.948,60.928 66.8,60.877 66.649,60.823 C64.938,60.225 63.119,59.71 61.276,59.261 C61.288,59.23 61.295,59.2 61.295,59.164 L61.295,54.137 C61.295,53.796 60.793,53.528 60.177,53.528 C59.554,53.528 59.051,53.797 59.051,54.137 L59.051,58.764 C57.847,58.514 56.644,58.291 55.465,58.106 C55.49,58.058 55.502,58.009 55.502,57.956 L55.502,52.486 C55.502,52.122 55,51.821 54.383,51.821 C53.761,51.821 53.258,52.122 53.258,52.486 L53.258,57.777 C52.025,57.603 50.827,57.465 49.696,57.356 C49.708,57.321 49.716,57.286 49.716,57.25 L49.716,51.429 C49.716,51.033 49.213,50.714 48.589,50.714 C47.974,50.714 47.47,51.033 47.47,51.429 L47.47,57.185 C46.12,57.1 44.915,57.065 43.909,57.079 C43.921,57.047 43.921,57.016 43.921,56.986 L43.921,50.935 C43.921,50.528 43.419,50.2 42.802,50.2 C42.18,50.2 41.676,50.528 41.676,50.935 L41.676,56.986 C41.676,57.015 41.682,57.052 41.695,57.083 C40.63,57.101 39.433,57.167 38.134,57.27 L38.134,51.514 C38.134,51.118 37.632,50.8 37.008,50.8 C36.386,50.8 35.884,51.118 35.884,51.514 L35.884,57.342 C35.884,57.388 35.889,57.432 35.907,57.48 C34.764,57.605 33.568,57.761 32.341,57.946 L32.341,52.489 C32.341,52.124 31.838,51.825 31.216,51.825 C30.6,51.825 30.097,52.124 30.097,52.489 L30.097,57.959 C30.097,58.079 30.152,58.193 30.253,58.287 C29.02,58.502 27.782,58.755 26.549,59.029 L26.549,54.139 C26.549,53.798 26.047,53.53 25.43,53.53 C24.808,53.53 24.305,53.799 24.305,54.139 L24.305,59.166 C24.305,59.299 24.383,59.424 24.521,59.52 C22.571,60.022 20.673,60.616 18.919,61.291 L18.919,54.221 C23.641,49.308 36.28,47.1 42.451,47.203 L42.451,47.222 C42.547,47.216 42.643,47.21 42.762,47.21 L42.828,47.21 L43.187,47.228 L43.187,47.205 C49.547,47.105 62.754,49.487 67.098,54.641 Z"
                id="Shape"></path>
                <polygon id="Shape" points="65.674 90.594 20.36 90.594 43.048 81.258"></polygon>
                <path d="M47.05,24.101 C53.412,26.4 58.428,33.33 60.929,43.222 C54.904,40.93 47.26,39.726 42.898,39.871 L42.844,39.871 L42.814,39.871 C39.037,39.745 31.198,40.722 24.604,43.27 C26.818,33.108 32.067,25.909 38.829,23.868 C41.526,23.047 44.37,23.132 47.05,24.101 Z"
                id="Shape"></path>
                <path d="M46.602,13.73 L46.602,22.073 C44.239,21.402 41.791,21.329 39.415,21.857 L39.415,13.952 C39.911,13.503 40.439,13.156 40.983,12.928 C42.186,12.407 43.503,12.389 44.903,12.875 C45.621,13.125 46.208,13.466 46.602,13.73 Z"
                id="Shape"></path>
                <path d="M42.838,0.025 C43.227,0.971 43.957,3.747 44.178,11.444 C43.275,11.277 42.389,11.287 41.55,11.491 C41.503,5.172 42.258,1.331 42.838,0.025 Z"
                id="Shape"></path>
            </g>
        </g>
    </g>
</svg>