<?xml version="1.0" encoding="UTF-8" ?>
<svg width="82px" height="82px" viewBox="0 0 82 82" version="1.1" xmlns="http://www.w3.org/2000/svg">
    <g id="Page-1" stroke="none" stroke-width="1" fill-rule="evenodd">
        <g id="graphVisualisation" transform="translate(-9.000000, 0.000000)"
        fill-rule="nonzero">
            <g id="Group" transform="translate(9.000000, 0.000000)">
                <path d="M80.5,81.5 L0.5,81.5 L0.5,1 C0.5,0.44771525 0.94771525,0 1.5,0 C2.05228475,0 2.5,0.44771525 2.5,1 L2.5,79.5 L80.5,79.5 C81.0522847,79.5 81.5,79.9477153 81.5,80.5 C81.5,81.0522847 81.0522847,81.5 80.5,81.5 Z"
                id="Shape"></path>
                <path d="M71.17,35.44 C70.2359192,33.3425913 67.8725979,32.2847441 65.6860975,32.9853481 C63.499597,33.6859521 62.1911723,35.9203095 62.65,38.17 L56.26,41.75 C55.2599316,40.5251401 53.6871461,39.9197934 52.1239314,40.1580758 C50.5607167,40.3963582 49.2397161,41.4428076 48.65,42.91 L45,42.17 C45.2599568,39.3403246 43.6345832,36.6747119 41,35.61 C40.6755589,35.4799052 40.3411377,35.3762347 40,35.3 L40,28.59 C41.3861227,28.7779036 42.7799282,28.3031185 43.7631131,27.3081354 C44.7462979,26.3131524 45.2044239,24.9137827 45,23.53 L52.76,20 C52.84,20.11 52.91,20.21 53,20.31 C54.4555295,22.0311893 56.9599733,22.4099191 58.8593486,21.1960691 C60.7587239,19.982219 61.466963,17.5503324 60.5163312,15.5064739 C59.5656993,13.4626154 57.2495217,12.4374342 55.0974466,13.1079797 C52.9453715,13.7785252 51.6214391,15.9378951 52,18.16 L44.31,21.68 C43.697992,20.7688787 42.7728024,20.1141292 41.71,19.84 L42.24,12.27 C42.95322,12.2007222 43.6392472,11.9606127 44.24,11.57 C46.3164891,10.2084667 46.8977246,7.4223094 45.5388191,5.34409963 C44.1799137,3.26588986 41.3944939,2.68113026 39.3145668,4.03740563 C37.2346396,5.39368099 36.6463569,8.17835879 38,10.26 C38.1123071,10.4313743 38.2359145,10.5950706 38.37,10.75 C38.8676242,11.3157141 39.5007372,11.745818 40.21,12 L39.67,19.71 C38.1954054,19.993907 36.9596005,20.994662 36.3753388,22.3780168 C35.7910772,23.7613717 35.935361,25.3450088 36.76,26.6 C36.8723071,26.7713743 36.9959145,26.9350706 37.13,27.09 C37.38875,27.3808134 37.6846198,27.6363374 38.01,27.85 C38.0026674,27.8996528 37.9993234,27.9498132 38,28 L38,35.16 C35.5628271,35.3547521 33.450426,36.9231016 32.5589292,39.1997162 C31.6674325,41.4763308 32.153139,44.0620701 33.81,45.86 L28.24,52.36 L28.24,52.36 C26.658376,51.6714195 24.8214855,51.9566505 23.5231468,53.0924295 C22.224808,54.2282086 21.6978502,56.010858 22.17,57.67 L15.95,59.89 C14.8670853,57.9168603 12.4836855,57.0598112 10.3921931,57.8914626 C8.30070067,58.7231141 7.15662934,60.9828107 7.72435383,63.1608082 C8.29207832,65.3388058 10.3936629,66.7524784 12.625001,66.4573257 C14.856339,66.162173 16.5180866,64.2507016 16.5,62 L16.5,61.82 L23.14,59.45 C23.9252029,60.3649502 25.0467182,60.9239048 26.25,61 L26.69,68.11 C24.4174845,68.5069001 22.8062064,70.5482001 22.9479346,72.8507574 C23.0896627,75.1533146 24.9391233,76.9815975 27.24316,77.0967993 C29.5471967,77.2120011 31.5698055,75.5773217 31.9405083,73.300386 C32.3112111,71.0234504 30.9115903,68.8316054 28.69,68.21 L28.22,60.68 C29.5637571,60.1284105 30.5557038,58.9582783 30.8798564,57.5423478 C31.2040091,56.1264172 30.8199422,54.6412707 29.85,53.56 L35.36,47.13 C37.0874904,48.1569711 39.2012896,48.2981387 41.05,47.51 C42.5796463,46.8681868 43.7991736,45.6558332 44.45,44.13 L48.32,44.9 C48.3470871,45.4307106 48.4690122,45.9522792 48.68,46.44 C49.2055026,47.6273513 50.2192821,48.529073 51.4598088,48.9125434 C52.7003356,49.2960138 54.046126,49.1236801 55.15,48.44 L59.83,53.34 C58.7063807,55.2447195 59.1406908,57.6843738 60.8526083,59.0843078 C62.5645259,60.4842418 65.0418427,60.4255933 66.6855948,58.9462164 C68.3293468,57.4668395 68.6477212,55.009366 67.4352257,53.1599522 C66.2227302,51.3105383 63.8421452,50.6225315 61.83,51.54 L61.83,51.54 C61.607134,51.6422044 61.3930754,51.7626123 61.19,51.9 L56.58,47 C57.2523252,45.9577137 57.4657257,44.6845448 57.17,43.48 L63.49,40 C64.2334464,40.9712424 65.3409434,41.5971538 66.5564909,41.7330535 C67.7720384,41.8689532 68.9904184,41.5030778 69.93,40.72 C71.4736535,39.4329082 71.9793341,37.2796873 71.17,35.44 L71.17,35.44 Z M55,15.22 C55.8455948,14.6652269 56.9421413,14.6745642 57.7781662,15.2436567 C58.614191,15.8127491 59.0249913,16.8294815 58.8189532,17.8196088 C58.6129152,18.8097361 57.8306298,19.5781962 56.8369864,19.7665485 C55.843343,19.9549007 54.8340965,19.5260383 54.28,18.68 C53.9115288,18.1271996 53.7802574,17.4496743 53.9156041,16.7992586 C54.0509507,16.148843 54.4415975,15.5799249 55,15.22 Z M12,64.5 C10.6192881,64.5 9.5,63.3807119 9.5,62 C9.5,60.6192881 10.6192881,59.5 12,59.5 C13.3807119,59.5 14.5,60.6192881 14.5,62 C14.5,63.3807119 13.3807119,64.5 12,64.5 Z M39.66,9.16 C39.0021502,8.16451288 39.139499,6.84288602 39.9879901,6.0039439 C40.8364811,5.16500179 42.1595778,5.04261908 43.147556,5.71169297 C44.1355343,6.38076686 44.5129722,7.6547774 44.048881,8.7540409 C43.5847897,9.8533044 42.4085456,10.4713755 41.24,10.23 C40.5917033,10.0983382 40.022878,9.71312115 39.66,9.16 L39.66,9.16 Z M38.08,23.64 C38.3212119,22.4720375 39.3538294,21.6370806 40.5464086,21.6457039 C41.7389878,21.6543272 42.7594231,22.5041294 42.98372,23.6754579 C43.2080169,24.8467864 42.573714,26.0134533 41.4686864,26.4620439 C40.3636588,26.9106344 39.0956311,26.5162266 38.44,25.52 C38.0732479,24.9667608 37.9435773,24.2895918 38.08,23.64 L38.08,23.64 Z M30,72.5 C30,73.8807119 28.8807119,75 27.5,75 C26.1192881,75 25,73.8807119 25,72.5 C25,71.1192881 26.1192881,70 27.5,70 C28.8807119,70 30,71.1192881 30,72.5 Z M26.5,59 C25.1192881,59 24,57.8807119 24,56.5 C24,55.1192881 25.1192881,54 26.5,54 C27.8807119,54 29,55.1192881 29,56.5 C29,57.8807119 27.8807119,59 26.5,59 Z M42.67,43.24 C41.8613367,45.1926741 39.785899,46.3021593 37.7129971,45.8899092 C35.6400952,45.477659 34.1470946,43.6584977 34.1470946,41.545 C34.1470946,39.4315023 35.6400952,37.612341 37.7129971,37.2000908 C39.785899,36.7878407 41.8613367,37.8973259 42.67,39.85 C43.1227792,40.934644 43.1227792,42.155356 42.67,43.24 Z M53.81,46.9 C52.6685859,47.4074409 51.3277873,46.9945161 50.6696083,45.9328557 C50.0114293,44.8711953 50.2378814,43.4866494 51.2,42.69 C51.3812819,42.5386153 51.5833391,42.4140133 51.8,42.32 L51.8,42.32 C53.0539464,41.8177126 54.4801119,42.402345 55.0206891,43.6402668 C55.5612663,44.8781886 55.0207284,46.3216434 53.8,46.9 L53.81,46.9 Z M62.08,53.75 C62.2612819,53.5986153 62.4633391,53.4740133 62.68,53.38 C63.8828129,52.8556021 65.2863674,53.3503608 65.8944544,54.5131086 C66.5025415,55.6758563 66.1082058,57.1108653 64.9913372,57.7996009 C63.8744686,58.4883365 62.4151805,58.1963956 61.6492401,57.1309907 C60.8832998,56.0655859 61.0713861,54.5893153 62.08,53.75 L62.08,53.75 Z M68.08,39.54 C67.2611536,39.9657081 66.2743741,39.9056629 65.5131864,39.3838103 C64.7519987,38.8619577 64.3402283,37.9631894 64.4420879,37.0459319 C64.5439476,36.1286743 65.1428675,35.3421413 66,35 L66,35 C67.2539464,34.4977126 68.6801119,35.082345 69.2206891,36.3202668 C69.7612663,37.5581886 69.2207284,39.0016434 68,39.58 L68.08,39.54 Z"
                id="Shape"></path>
            </g>
        </g>
    </g>
</svg>