<?xml version="1.0" encoding="UTF-8" ?>
<svg width="83px" height="47px" viewBox="0 0 83 47" version="1.1" xmlns="http://www.w3.org/2000/svg">
    <g id="Page-1" stroke="none" stroke-width="1" fill-rule="evenodd">
        <g id="growUp" transform="translate(-12.000000, 0.000000)" fill-rule="nonzero">
            <g id="Group" transform="translate(12.000000, 0.000000)">
                <path d="M14.5,27.4 L14.5,22.9 C14.5,22.3 14,21.8 13.4,21.8 L5.8,21.8 C5.2,21.8 4.7,22.3 4.7,22.9 L4.7,36.5 L4.7,36.6 L4.7,40.6 L2.6,44 C2.3,44.5 2.4,45.2 2.9,45.5 C3.1,45.6 3.3,45.7 3.5,45.7 C3.9,45.7 4.2,45.5 4.4,45.2 L6.7,41.5 C6.8,41.3 6.9,41.1 6.9,40.9 L6.9,37.7 L13.1,37.7 L15.6,40.1 L15.6,44.6 C15.6,45.2 16.1,45.7 16.7,45.7 C17.3,45.7 17.8,45.2 17.8,44.6 L17.8,39.6 C17.8,39.3 17.7,39 17.5,38.8 L14.5,36 L14.5,30.3 L16.9,32.7 C17.1,32.9 17.4,33 17.7,33 C18,33 18.2,32.9 18.5,32.7 C18.9,32.3 18.9,31.6 18.5,31.2 L14.5,27.4 Z M6.9,35.5 L6.9,24 L12.4,24 L12.4,27.8 L12.4,27.8 L12.4,35.5 L6.9,35.5 Z"
                id="Shape"></path>
                <path d="M9.6,19 C11.8,19 13.6,17.2 13.6,15 C13.6,12.8 11.8,11 9.6,11 C7.4,11 5.6,12.8 5.6,15 C5.6,17.2 7.4,19 9.6,19 Z M9.6,13.2 C10.6,13.2 11.4,14 11.4,15 C11.4,16 10.6,16.8 9.6,16.8 C8.6,16.8 7.8,16 7.8,15 C7.8,14 8.6,13.2 9.6,13.2 Z"
                id="Shape"></path>
                <path d="M66.7,11.5 C68.9,11.5 70.7,9.7 70.7,7.5 C70.7,5.3 68.9,3.5 66.7,3.5 C64.5,3.5 62.7,5.3 62.7,7.5 C62.7,9.7 64.5,11.5 66.7,11.5 Z M66.7,5.7 C67.7,5.7 68.5,6.5 68.5,7.5 C68.5,8.5 67.7,9.3 66.7,9.3 C65.7,9.3 64.9,8.5 64.9,7.5 C64.9,6.5 65.7,5.7 66.7,5.7 Z"
                id="Shape"></path>
                <path d="M3.1,31.4 L3.1,24.4 C3.1,23.8 2.6,23.3 2,23.3 C1.4,23.3 0.9,23.8 0.9,24.4 L0.9,31.4 C0.9,32 1.4,32.5 2,32.5 C2.6,32.5 3.1,32 3.1,31.4 Z"
                id="Shape"></path>
                <path d="M71.6,19.7 L71.6,15.5 C71.6,14.9 71.1,14.4 70.5,14.4 L62.4,14.4 C61.8,14.4 61.3,14.9 61.3,15.5 L61.3,31.9 L61.3,38.9 L57.9,44.4 C57.6,44.9 57.7,45.6 58.2,45.9 C58.4,46 58.6,46.1 58.8,46.1 C59.2,46.1 59.5,45.9 59.7,45.6 L63.3,39.8 C63.4,39.6 63.5,39.4 63.5,39.2 L63.5,33 L70,33 L73.1,37.9 L73.1,44.6 C73.1,45.2 73.6,45.7 74.2,45.7 C74.8,45.7 75.3,45.2 75.3,44.6 L75.3,37.6 C75.3,37.4 75.2,37.2 75.1,37 L71.7,31.6 L71.7,24.2 L74.8,29.9 C75,30.3 75.4,30.5 75.7,30.5 C75.9,30.5 76,30.5 76.2,30.4 C76.7,30.1 76.9,29.5 76.6,29 L71.6,19.7 Z M69.4,30.8 L63.4,30.8 L63.4,16.6 L69.4,16.6 L69.4,30.8 Z"
                id="Shape"></path>
                <path d="M78.5,28.8 C77.9,28.8 77.4,29.3 77.4,29.9 C77.4,30.5 77.9,31 78.5,31 C79.3,31 79.9,31.6 79.9,32.4 L79.9,45 C79.9,45.6 80.4,46.1 81,46.1 C81.6,46.1 82.1,45.6 82.1,45 L82.1,32.4 C82.1,30.4 80.5,28.8 78.5,28.8 Z"
                id="Shape"></path>
                <path d="M40.7,9 C43.1,9 45,7.1 45,4.7 C45,2.3 43.1,0.4 40.7,0.4 C38.3,0.4 36.4,2.3 36.4,4.7 C36.4,7.1 38.3,9 40.7,9 Z M40.7,2.6 C41.9,2.6 42.8,3.6 42.8,4.7 C42.8,5.8 41.8,6.8 40.7,6.8 C39.6,6.8 38.6,5.8 38.6,4.7 C38.6,3.6 39.5,2.6 40.7,2.6 Z"
                id="Shape"></path>
                <path d="M45.6,19 L45.6,12.4 C45.6,11.8 45.1,11.3 44.5,11.3 L36.4,11.3 L36.3,11.3 L36.1,11.3 C36,11.3 36,11.3 35.9,11.4 C35.8,11.4 35.8,11.5 35.7,11.5 C35.6,11.5 35.6,11.6 35.5,11.6 C35.5,11.6 35.4,11.6 35.4,11.7 L31.8,17 C31.7,17.2 31.6,17.4 31.6,17.6 L31.6,24.3 L26.1,24.3 C25.5,24.3 25,24.8 25,25.4 L25,32.6 C25,33.2 25.5,33.7 26.1,33.7 L35.2,33.7 L35.2,37.2 L31.2,44 C30.9,44.5 31.1,45.2 31.6,45.5 C31.8,45.6 32,45.7 32.1,45.7 C32.5,45.7 32.8,45.5 33,45.2 L37.3,38.1 C37.4,37.9 37.5,37.7 37.5,37.5 L37.5,33.7 L39.2,33.7 C39.8,33.7 40.3,33.2 40.3,32.6 L40.3,29.6 L44,29.6 L47.8,35.6 L47.8,44.5 C47.8,45.1 48.3,45.6 48.9,45.6 C49.5,45.6 50,45.1 50,44.5 L50,35.3 C50,35.1 49.9,34.9 49.8,34.7 L45.7,28.2 L45.7,23.3 L48.9,29 C49.1,29.3 49.5,29.5 49.8,29.5 C50,29.5 50.2,29.5 50.3,29.4 C50.8,29.1 51,28.5 50.7,28 L45.6,19 Z M33.9,18 L35.4,15.8 L35.4,24.3 L33.9,24.3 L33.9,18 Z M38.1,31.6 L27.3,31.6 L27.3,26.5 L38.1,26.5 L38.1,31.6 L38.1,31.6 Z M43.4,27.5 L40.2,27.5 L40.2,25.4 C40.2,24.8 39.7,24.3 39.1,24.3 L37.4,24.3 L37.4,13.5 L43.4,13.5 L43.4,27.5 L43.4,27.5 Z"
                id="Shape"></path>
            </g>
        </g>
    </g>
</svg>