<?xml version="1.0" encoding="UTF-8" ?>
<svg width="88px" height="61px" viewBox="0 0 88 61" version="1.1" xmlns="http://www.w3.org/2000/svg">
    <g id="Page-1" stroke="none" stroke-width="1" fill-rule="evenodd">
        <g id="guanine" transform="translate(-7.000000, 0.000000)" fill-rule="nonzero">
            <path d="M94.0837745,53.75 L82.7837745,47.34 L82.7837745,47.34 L82.7837745,25.22 C82.783713,24.8669327 82.597474,24.5400643 82.2937745,24.36 L66.9537745,15.16 L66.9537745,0.5 C66.9537745,0.223857625 66.7299169,0 66.4537745,0 L65.4537745,0 C65.1776322,0 64.9537745,0.223857625 64.9537745,0.5 L64.9537745,13.96 L63.2937745,12.96 C62.9843735,12.7813672 62.6031756,12.7813672 62.2937745,12.96 L60.8337745,13.84 L60.8337745,0.5 C60.8337745,0.223857625 60.6099169,0 60.3337745,0 L59.3337745,0 C59.0576322,0 58.8337745,0.223857625 58.8337745,0.5 L58.8337745,15.04 L43.2437745,24.37 L43.1637745,24.43 L21.9137745,17.86 C21.5129952,17.7365787 21.0777803,17.8763266 20.8237745,18.21 L7.20377453,36.05 C6.93207516,36.4075768 6.93207516,36.9024232 7.20377453,37.26 L20.8237745,55.1 C21.0777803,55.4336734 21.5129952,55.5734213 21.9137745,55.45 L43.1537745,48.88 L43.2337745,48.94 L62.2337745,60.34 C62.5431756,60.5186328 62.9243735,60.5186328 63.2337745,60.34 L81.8937745,49.14 L93.1037745,55.5 C93.3440719,55.6348655 93.6481887,55.5498917 93.7837745,55.31 L94.2737745,54.44 C94.3417534,54.3236845 94.3599169,54.1848581 94.3241503,54.054969 C94.2883837,53.9250799 94.2017141,53.8151206 94.0837745,53.75 L94.0837745,53.75 Z M42.7337745,46.19 C42.7545405,46.6436001 42.4670838,47.0542525 42.0337745,47.19 L22.6537745,53.13 C22.2529952,53.2534213 21.8177803,53.1136734 21.5637745,52.78 L9.71377453,37.26 C9.44207516,36.9024232 9.44207516,36.4075768 9.71377453,36.05 L21.5737745,20.5 C21.8362031,20.1850663 22.2642641,20.0621969 22.6537745,20.19 L42.0237745,26.19 C42.4570838,26.3257475 42.7445405,26.7363999 42.7237745,27.19 L42.7337745,46.19 Z M80.7337745,46.96 C80.733713,47.3130673 80.547474,47.6399357 80.2437745,47.82 L63.2437745,58.02 C62.9343735,58.1986328 62.5531756,58.1986328 62.2437745,58.02 L45.2437745,47.82 C44.9400751,47.6399357 44.7538361,47.3130673 44.7537745,46.96 L44.7537745,26.36 C44.7538361,26.0069327 44.9400751,25.6800643 45.2437745,25.5 L62.2437745,15.3 C62.5531756,15.1213672 62.9343735,15.1213672 63.2437745,15.3 L80.2437745,25.5 C80.547474,25.6800643 80.733713,26.0069327 80.7337745,26.36 L80.7337745,46.96 Z M24.4637745,23.61 C24.5698611,23.6895649 24.6399956,23.8080139 24.6587493,23.9392893 C24.6775029,24.0705648 24.6433395,24.2039134 24.5637745,24.31 L14.3837745,37.92 C14.2180891,38.1409139 13.9046884,38.1856854 13.6837745,38.02 L12.8837745,37.42 C12.7776879,37.3404351 12.7075534,37.2219861 12.6887998,37.0907107 C12.6700461,36.9594352 12.7042096,36.8260866 12.7837745,36.72 L22.9637745,23.11 C23.12946,22.8890861 23.4428606,22.8443146 23.6637745,23.01 L24.4637745,23.61 Z M77.6537745,44.5 C77.5147689,44.2637463 77.2114611,44.1834589 76.9737745,44.32 L62.2537745,52.82 C62.0175208,52.9590056 61.9372335,53.2623134 62.0737745,53.5 L62.5737745,54.37 C62.7127801,54.6062537 63.0160879,54.6865411 63.2537745,54.55 L77.9737745,46.05 C78.2100282,45.9109944 78.2903156,45.6076866 78.1537745,45.37 L77.6537745,44.5 Z M48.9037745,27.66 L47.9037745,27.66 C47.6276322,27.66 47.4037745,27.8838576 47.4037745,28.16 L47.4037745,45.16 C47.4037745,45.4361424 47.6276322,45.66 47.9037745,45.66 L48.9037745,45.66 C49.1799169,45.66 49.4037745,45.4361424 49.4037745,45.16 L49.4037745,28.16 C49.4037745,27.8838576 49.1799169,27.66 48.9037745,27.66 Z"
            id="Shape"></path>
        </g>
    </g>
</svg>