<?xml version="1.0" encoding="UTF-8" ?>
<svg width="88px" height="80px" viewBox="0 0 88 80" version="1.1" xmlns="http://www.w3.org/2000/svg">
    <g id="Page-1" stroke="none" stroke-width="1" fill-rule="evenodd">
        <g id="natural" transform="translate(-7.000000, 0.000000)" fill-rule="nonzero">
            <path d="M92.179,76.179 C91.73,75.381 81.155,56.59 77.954,51.697 C74.324,46.148 65.047,45.866 63.225,45.866 L63.123,45.867 L47.201,45.412 C46.786,45.4 46.39,45.394 46.007,45.394 C44.51,45.394 40.853,45.402 38.241,46.875 C38.426,45.018 38.661,43.271 38.953,41.638 C39.412,41.852 39.879,42.053 40.36,42.231 C40.492,42.278 43.655,43.39 47.958,43.39 C50.502,43.39 52.945,43.006 55.218,42.248 C61.435,40.176 63.828,33.571 65.94,27.744 C66.646,25.794 67.314,23.952 68.091,22.3 C70.424,17.342 80.637,10.85 84.376,8.767 L86.742,7.449 L85.24,5.196 C84.659,4.325 82.056,1.408 72.932,0.448 C70.7,0.213 68.459,0.094 66.271,0.094 C55.693,0.094 46.043,2.793 37.589,8.115 C31.028,12.246 27.575,19.165 28.351,26.623 C28.847,31.392 31.057,35.629 34.446,38.662 C33.524,42.923 32.988,47.856 32.814,53.639 C30.807,52.412 23.835,48.079 20.515,45.128 C19,43.782 16.98,43.041 14.826,43.041 C11.656,43.041 8.949,44.606 7.929,47.029 C7.332,48.447 6.837,51.344 10.225,54.811 C16.126,60.848 27.072,71.07 27.182,71.172 L27.902,71.844 L60.005,71.844 L65.934,79.902 L94.276,79.902 L92.179,76.179 Z M33.323,26.108 C32.749,20.586 35.339,15.441 40.252,12.348 C47.896,7.535 56.649,5.095 66.27,5.095 C68.284,5.095 70.349,5.205 72.408,5.422 C75.039,5.699 76.931,6.147 78.269,6.599 C73.604,9.552 66.026,14.945 63.566,20.172 C62.691,22.033 61.952,24.071 61.238,26.042 C59.345,31.265 57.558,36.199 53.636,37.506 C51.874,38.093 49.963,38.391 47.957,38.391 C44.573,38.391 42.07,37.533 42.068,37.533 C41.054,37.158 40.111,36.663 39.24,36.078 C42.071,26.602 47.365,20.83 55.424,13.64 L53.427,11.402 C45.122,18.812 39.769,24.971 36.772,33.942 C34.869,31.828 33.635,29.113 33.323,26.108 Z M68.46,74.904 L62.531,66.846 L29.874,66.846 C27.346,64.476 18.749,56.382 13.8,51.318 C12.718,50.212 12.387,49.326 12.536,48.971 C12.693,48.597 13.53,48.043 14.825,48.043 C15.753,48.043 16.594,48.336 17.192,48.868 C21.422,52.628 30.412,58.036 30.793,58.264 L31.331,58.587 L60.234,59.985 L60.24,59.985 L60.476,54.99 L41.836,54.088 C40.845,52.922 40.315,51.779 40.391,51.44 C40.398,51.43 41.18,50.393 46.007,50.393 C46.344,50.393 46.693,50.398 47.058,50.409 L63.02,50.865 L63.165,50.866 L63.225,50.865 C66.065,50.865 71.924,51.611 73.77,54.433 C76.032,57.891 82.381,69.019 85.716,74.903 L68.46,74.903 L68.46,74.904 Z"
            id="Shape"></path>
        </g>
    </g>
</svg>