<?xml version="1.0" encoding="UTF-8" ?>
<svg width="84px" height="87px" viewBox="0 0 84 87" version="1.1" xmlns="http://www.w3.org/2000/svg">
    <g id="Page-1" stroke="none" stroke-width="1" fill-rule="evenodd">
        <g id="holePuzzle" transform="translate(-367.000000, 0.000000)" fill-rule="nonzero">
            <g id="Group-2" transform="translate(367.000000, 0.000000)">
                <path d="M83,46.2 C82.8,46.1 82.6,46.1 82.4,46.2 L41.4,69.9 C41.2,70 41.1,70.2 41.1,70.4 L41.1,86.2 C41.1,86.4 41.2,86.6 41.4,86.7 C41.5,86.8 41.6,86.8 41.7,86.8 C41.8,86.8 41.9,86.8 42,86.7 L83,63 C83.2,62.9 83.3,62.7 83.3,62.5 L83.3,46.7 C83.3,46.5 83.2,46.3 83,46.2 Z"
                id="Shape"></path>
                <path d="M41.8,70.9 C41.7,70.9 41.6,70.9 41.5,70.8 L0.5,47.1 C0.3,47 0.2,46.8 0.2,46.6 C0.2,46.4 0.3,46.2 0.5,46.1 L33.2,27.2 C33.4,27.1 33.6,27.1 33.8,27.2 L41.8,31.8 L41.8,23.2 C41.8,23 41.9,22.8 42.1,22.7 C42.3,22.6 42.5,22.6 42.7,22.7 L83,46.2 C83.2,46.3 83.3,46.5 83.3,46.7 C83.3,46.9 83.2,47.1 83,47.2 L42,70.8 C41.9,70.9 41.8,70.9 41.8,70.9 Z M1.9,46.7 L41.8,69.7 L81.7,46.7 L42.8,24.3 L42.8,32.9 C42.8,33.1 42.7,33.3 42.5,33.4 C42.3,33.5 42.1,33.5 41.9,33.4 L33.4,28.5 L1.9,46.7 Z"
                id="Shape"></path>
                <path d="M41.8,86.7 C41.7,86.7 41.6,86.7 41.5,86.6 L0.5,62.9 C0.3,62.8 0.2,62.6 0.2,62.4 L0.2,46.7 C0.2,46.5 0.3,46.3 0.5,46.2 C0.7,46.1 0.9,46.1 1.1,46.2 L42.1,69.9 C42.3,70 42.4,70.2 42.4,70.4 L42.4,86.2 C42.4,86.4 42.3,86.6 42.1,86.7 L41.8,86.7 Z M1.3,62.1 L41.2,85.1 L41.2,70.7 L1.3,47.7 L1.3,62.1 L1.3,62.1 Z"
                id="Shape"></path>
                <path d="M42,38.3 C41.8,38.2 41.6,38.2 41.4,38.3 L27.7,46.2 C27.5,46.3 27.4,46.5 27.4,46.7 C27.4,46.9 27.5,47.1 27.7,47.2 L41.4,55.1 C41.5,55.2 41.6,55.2 41.7,55.2 C41.8,55.2 41.9,55.2 42,55.1 C42.2,55 42.3,54.8 42.3,54.6 L42.3,38.8 C42.3,38.6 42.2,38.4 42,38.3 Z"
                id="Shape"></path>
                <path d="M41.8,55.1 C41.7,55.1 41.6,55.1 41.5,55 C41.3,54.9 41.2,54.7 41.2,54.5 L41.2,38.8 C41.2,38.6 41.3,38.4 41.5,38.3 C41.7,38.2 41.9,38.2 42.1,38.3 L55.8,46.2 C56,46.3 56.1,46.5 56.1,46.7 C56.1,46.9 56,47.1 55.8,47.2 L42,55.1 L41.8,55.1 Z M42.3,39.8 L42.3,53.6 L54.3,46.7 L42.3,39.8 Z"
                id="Shape"></path>
                <path d="M56.2,8.7 C56,8.6 55.8,8.6 55.6,8.7 L42,16.6 C41.8,16.7 41.7,16.9 41.7,17.1 L41.7,32.9 C41.7,33.1 41.8,33.3 42,33.4 C42.1,33.5 42.2,33.5 42.3,33.5 C42.4,33.5 42.5,33.5 42.6,33.4 L56.3,25.5 C56.5,25.4 56.6,25.2 56.6,25 L56.6,9.2 C56.5,9 56.4,8.8 56.2,8.7 Z"
                id="Shape"></path>
                <path d="M42.3,17.7 C42.2,17.7 42.1,17.7 42,17.6 L28.3,9.7 C28.1,9.6 28,9.4 28,9.2 C28,9 28.1,8.8 28.3,8.7 L42,0.8 C42.2,0.7 42.4,0.7 42.6,0.8 L56.3,8.7 C56.5,8.8 56.6,9 56.6,9.2 C56.6,9.4 56.5,9.6 56.3,9.7 L42.6,17.6 C42.5,17.6 42.4,17.7 42.3,17.7 Z M29.7,9.2 L42.2,16.4 L54.7,9.2 L42.3,2 L29.7,9.2 Z"
                id="Shape"></path>
                <path d="M42.3,33.4 C42.2,33.4 42.1,33.4 42,33.3 L28.3,25.4 C28.1,25.4 28,25.2 28,25 L28,9.2 C28,9 28.1,8.8 28.3,8.7 C28.5,8.6 28.7,8.6 28.9,8.7 L42.6,16.6 C42.8,16.7 42.9,16.9 42.9,17.1 L42.9,32.9 C42.9,33.1 42.8,33.3 42.6,33.4 C42.5,33.4 42.4,33.4 42.3,33.4 Z M29.2,24.7 L41.7,31.9 L41.7,17.4 L29.2,10.2 L29.2,24.7 Z"
                id="Shape"></path>
            </g>
        </g>
    </g>
</svg>