<?xml version="1.0" encoding="UTF-8" ?>
<svg width="36px" height="32px" viewBox="0 0 36 32" version="1.1" xmlns="http://www.w3.org/2000/svg">
    <g id="Page-1" stroke="none" stroke-width="1" fill-rule="evenodd">
        <g id="ideaShip" transform="translate(-2.000000, 0.000000)" fill-rule="nonzero">
            <g id="Group" transform="translate(2.000000, 0.000000)">
                <circle id="Oval" cx="19.7" cy="9.8" r="1"></circle>
                <circle id="Oval" cx="27.3" cy="13.8" r="1"></circle>
                <circle id="Oval" cx="25.5" cy="14" r="1"></circle>
                <path d="M22.1,6.6 L21.9,8.9 L21.9,9 L22.1,9.2 C22.2,9.3 22.3,9.3 22.3,9.2 L22.8,8.6 C22.8,8.6 22.9,8.5 23,8.6 L24.7,9.2 C24.8,9.2 24.8,9.3 24.8,9.3 L24.9,10.1 C24.9,10.2 25,10.2 25.1,10.2 L25.4,10.2 C25.4,10.2 25.5,10.2 25.5,10.1 L26.7,8.1 L26.7,7.9 L26.1,6.8 L26.1,6.5 L26.7,5.4 C26.8,5.1 27,4.8 27,4.5 L27.2,4 C27.3,3.3 27.3,2.6 27.1,2 L26.8,0.9 C26.8,0.8 26.7,0.8 26.6,0.8 L25.6,1.5 C25.1,1.9 24.6,2.4 24.3,3.1 L24,3.5 C23.9,3.8 23.8,4.1 23.7,4.4 L23.5,5.7 C23.5,5.8 23.4,5.9 23.3,5.9 L22.2,6.4 C22.2,6.5 22.1,6.5 22.1,6.6 Z M24.7,3.7 C24.9,3.2 25.4,3 25.8,3.1 C26.3,3.3 26.5,3.8 26.4,4.2 C26.2,4.7 25.7,4.9 25.3,4.8 C24.8,4.7 24.6,4.2 24.7,3.7 Z"
                id="Shape"></path>
                <path d="M35.4,15.9 C35.4,14.2 34.4,12.8 32.9,12.1 L32.9,11.8 C32.9,8.8 30.6,6.3 27.6,6 L27.3,7.1 C29.8,7.2 31.8,9.3 31.8,11.8 L31.8,12.1 L31.8,12.9 L32.5,13.2 C33.6,13.7 34.3,14.8 34.3,16 C34.3,16.6 34.1,17.3 33.7,17.8 L33.3,18.3 L33.5,18.8 C33.7,19.4 33.8,20 33.8,20.6 C33.8,23.4 31.6,25.6 28.8,25.6 L28.2,25.6 L27.5,25.5 L27.2,26 C26.3,27.6 24.6,28.6 22.8,28.6 C20.6,28.6 18.6,27.1 18,25 L17.8,24 L16.8,24.2 C16.4,24.3 15.9,24.3 15.5,24.3 C13.5,24.3 11.6,23.5 10.2,22.1 L9.6,21.5 L8.9,21.9 C8.2,22.3 7.4,22.5 6.6,22.5 C3.8,22.5 1.6,20.3 1.6,17.5 C1.6,15.2 3.1,13.2 5.4,12.7 L6.1,12.5 L6.2,11.8 C6.5,9.3 8.6,7.4 11.2,7.4 L11.5,7.4 L12,7.4 L12.3,7 C13.3,5.7 14.7,5 16.1,5 C17,5 17.9,5.3 18.7,5.8 L19.3,6.2 L20,5.8 C20.6,5.3 21.4,5 22.2,5 L22.5,5 L22.8,4 L22.2,4 C21.1,4 20.1,4.3 19.3,4.9 C18.4,4.3 17.3,4 16.1,4 C14.2,4 12.5,4.9 11.5,6.2 L11.2,6.2 C8.1,6.2 5.5,8.5 5.2,11.5 C2.6,12.2 0.6,14.6 0.6,17.4 C0.6,20.8 3.3,23.5 6.7,23.5 C7.7,23.5 8.6,23.3 9.5,22.8 C11,24.4 13.2,25.3 15.5,25.3 C16,25.3 16.5,25.3 17,25.2 C17.7,27.8 20.1,29.6 22.8,29.6 C24.6,29.6 26.3,28.8 27.4,27.5 C27.9,28 28.7,29.2 28.4,31.2 C28.4,31.2 30.4,29.3 29.6,26.5 C32.6,26.2 35,23.6 35,20.5 C35,19.7 34.9,19 34.6,18.4 C35.1,17.7 35.4,16.8 35.4,15.9 Z"
                id="Shape"></path>
                <path d="M29,14.7 C28.2,14.7 27.4,15.1 26.9,15.6 C26.4,15.2 25.8,15 25.1,15 L24.9,15 C24.7,14.5 24.5,14 24.1,13.7 C24,13.2 23.8,12.7 23.4,12.3 L23.8,9.9 C23.8,9.8 23.8,9.7 23.7,9.7 L23.5,9.6 C23.4,9.6 23.3,9.6 23.2,9.7 L22.3,11.8 L22.1,11.8 C21.5,11.8 20.9,12.1 20.5,12.6 C20.1,12.7 19.7,12.9 19.4,13.1 C18.9,12.6 18.2,12.2 17.4,12.2 C17.1,12.2 16.9,12.2 16.6,12.3 L16.6,12.3 C16.2,11.3 15.2,10.6 14,10.6 C13.1,10.6 12.2,11 11.7,11.7 C11.2,11.3 10.6,11.1 10,11.1 C8.5,11.1 7.3,12.2 7.2,13.6 L6.7,13.6 C4.6,13.6 2.9,15.3 2.9,17.4 C2.9,19.5 4.6,21.2 6.7,21.2 C8,21.2 9.1,20.6 9.8,19.6 C10.7,21.7 12.9,23.1 15.5,23.1 C16.7,23.1 17.8,22.8 18.8,22.2 C18.8,22.4 18.7,22.7 18.7,22.9 C18.7,25.2 20.6,27.1 22.9,27.1 C25.1,27.1 26.8,25.5 27.1,23.4 C27.7,23.9 28.5,24.2 29.3,24.2 C31.2,24.2 32.8,22.6 32.8,20.7 C32.8,19.8 32.4,19 31.9,18.3 C32,18 32.1,17.7 32.1,17.3 C31.9,15.9 30.6,14.7 29,14.7 Z M7.4,18.6 C6.9,18.6 6.5,18.2 6.5,17.7 C6.5,17.2 6.9,16.8 7.4,16.8 C7.9,16.8 8.3,17.2 8.3,17.7 C8.3,18.2 7.9,18.6 7.4,18.6 Z M14.3,15.6 C13.6,15.6 13,15 13,14.3 C13,13.6 13.6,13 14.3,13 C15,13 15.6,13.6 15.6,14.3 C15.5,15 15,15.6 14.3,15.6 Z M19,18.6 C18.7,18.6 18.4,18.3 18.4,18 C18.4,17.7 18.7,17.4 19,17.4 C19.3,17.4 19.6,17.7 19.6,18 C19.6,18.4 19.4,18.6 19,18.6 Z M21.7,20.1 C21.6,20.1 21.4,20 21.4,19.8 C21.4,19.7 21.5,19.5 21.7,19.5 C21.8,19.5 22,19.6 22,19.8 C22,20 21.9,20.1 21.7,20.1 Z M22.3,17.6 C21.9,17.6 21.5,17.2 21.5,16.8 C21.5,16.4 21.9,16 22.3,16 C22.7,16 23.1,16.4 23.1,16.8 C23.1,17.2 22.7,17.6 22.3,17.6 Z M26.9,20.9 C26.5,20.9 26.3,20.6 26.3,20.3 C26.3,19.9 26.6,19.7 26.9,19.7 C27.3,19.7 27.5,20 27.5,20.3 C27.5,20.6 27.3,20.9 26.9,20.9 Z"
                id="Shape"></path>
            </g>
        </g>
    </g>
</svg>