<?xml version="1.0" encoding="UTF-8" ?>
<svg width="100px" height="94px" viewBox="0 0 100 94" version="1.1" xmlns="http://www.w3.org/2000/svg">
    <g id="Page-1" stroke="none" stroke-width="1" fill-rule="evenodd">
        <g id="idea" fill-rule="nonzero">
            <g id="Group">
                <path d="M35.125,69.973 C35.125,70.915 35.886,71.678 36.828,71.678 L52.654,71.678 L36.295,77.138 C35.396,77.43 34.914,78.403 35.206,79.291 C35.447,80.013 36.119,80.464 36.828,80.464 C37.006,80.464 37.193,80.432 37.372,80.379 L63.708,71.594 C64.503,71.332 64.996,70.528 64.858,69.7 C64.722,68.875 64.011,68.267 63.174,68.267 L36.827,68.267 C35.886,68.268 35.125,69.029 35.125,69.973 Z"
                id="Shape"></path>
                <path d="M61.959,86.331 C61.93,86.362 57.978,90.221 50.006,90.221 C45.706,90.221 42.58,89.114 40.612,88.077 L63.706,80.379 C64.606,80.076 65.086,79.104 64.795,78.215 C64.489,77.316 63.528,76.833 62.628,77.138 L36.294,85.912 C35.728,86.1 35.3,86.571 35.165,87.145 C35.028,87.722 35.205,88.328 35.624,88.745 C35.823,88.944 40.622,93.632 50.005,93.632 C59.375,93.632 64.177,88.944 64.377,88.745 C65.046,88.077 65.046,86.989 64.377,86.331 C63.707,85.662 62.629,85.662 61.959,86.331 Z"
                id="Shape"></path>
                <path d="M50.006,2.418 C34.535,2.418 21.955,14.999 21.955,30.458 C21.955,38.229 26.137,44.442 29.82,49.914 C32.664,54.127 35.125,57.768 35.125,61.198 C35.125,62.139 35.886,62.902 36.828,62.902 C37.77,62.902 38.544,62.139 38.544,61.198 C38.544,56.722 35.676,52.485 32.654,47.999 C29.067,42.686 25.365,37.195 25.365,30.458 C25.365,16.883 36.42,5.828 50.007,5.828 C63.584,5.828 74.637,16.884 74.637,30.458 C74.637,37.195 70.924,42.685 67.348,47.999 C64.325,52.485 61.47,56.723 61.47,61.198 C61.47,62.139 62.232,62.902 63.174,62.902 C64.115,62.902 64.88,62.139 64.88,61.198 C64.88,57.768 67.337,54.127 70.181,49.914 C73.864,44.442 78.047,38.23 78.047,30.458 C78.047,14.999 65.463,2.418 50.006,2.418 Z"
                id="Shape"></path>
                <path d="M51.71,12.897 C51.71,11.956 50.946,11.192 50.006,11.192 C39.379,11.192 30.73,19.842 30.73,30.457 C30.73,31.41 31.494,32.173 32.434,32.173 C33.386,32.173 34.15,31.41 34.15,30.457 C34.15,21.725 41.262,14.612 50.006,14.612 C50.946,14.612 51.71,13.838 51.71,12.897 Z"
                id="Shape"></path>
                <path d="M20.584,11.203 C20.888,11.422 21.244,11.527 21.589,11.527 C22.122,11.527 22.635,11.287 22.969,10.826 C23.523,10.063 23.355,8.996 22.593,8.441 L11.935,0.691 C11.171,0.137 10.105,0.314 9.55,1.078 C8.996,1.832 9.164,2.897 9.927,3.463 L20.584,11.203 Z"
                id="Shape"></path>
                <path d="M78.412,11.527 C78.759,11.527 79.114,11.422 79.419,11.203 L90.075,3.463 C90.839,2.897 91.007,1.832 90.45,1.078 C89.896,0.314 88.829,0.137 88.065,0.691 L77.407,8.441 C76.645,8.996 76.478,10.063 77.032,10.826 C77.368,11.287 77.88,11.527 78.412,11.527 Z"
                id="Shape"></path>
                <path d="M98.297,28.753 L85.127,28.753 C84.176,28.753 83.413,29.516 83.413,30.457 C83.413,31.41 84.176,32.173 85.127,32.173 L98.297,32.173 C99.236,32.173 100,31.41 100,30.457 C100,29.517 99.236,28.753 98.297,28.753 Z"
                id="Shape"></path>
                <path d="M16.59,30.458 C16.59,29.517 15.826,28.754 14.884,28.754 L1.705,28.754 C0.765,28.753 0,29.517 0,30.458 C0,31.411 0.765,32.174 1.705,32.174 L14.884,32.174 C15.826,32.173 16.59,31.41 16.59,30.458 Z"
                id="Shape"></path>
                <path d="M79.419,49.724 C78.652,49.17 77.585,49.336 77.032,50.101 C76.478,50.865 76.645,51.931 77.407,52.485 L88.065,60.225 C88.37,60.446 88.726,60.56 89.07,60.56 C89.594,60.56 90.117,60.309 90.45,59.849 C91.007,59.085 90.839,58.018 90.075,57.464 L79.419,49.724 Z"
                id="Shape"></path>
                <path d="M20.584,49.724 L9.927,57.464 C9.163,58.018 8.996,59.085 9.55,59.849 C9.887,60.309 10.407,60.56 10.93,60.56 C11.285,60.56 11.631,60.446 11.935,60.225 L22.593,52.485 C23.356,51.931 23.523,50.865 22.969,50.101 C22.414,49.336 21.347,49.17 20.584,49.724 Z"
                id="Shape"></path>
            </g>
        </g>
    </g>
</svg>