<?xml version="1.0" encoding="UTF-8" ?>
<svg width="477px" height="580px" viewBox="0 0 477 580" version="1.1"
xmlns="http://www.w3.org/2000/svg">
    <g id="Page-1" stroke="none" stroke-width="1" fill-rule="evenodd">
        <g id="imageRecognition" transform="translate(-172.000000, 0.000000)"
        fill-rule="nonzero">
            <path d="M634.152,533.821 C634.178,533.546 634.316,533.303 634.316,533.019 L634.316,442.939 L566.697,372.866 C612.114,339.939 641.186,303.632 643.371,300.865 L647.698,295.377 L643.371,289.888 C641.223,287.162 613.012,251.908 568.783,219.392 L630.336,162.737 L630.336,46.619 C639.009,43.029 645.128,34.498 645.128,24.546 C645.128,11.37 634.407,0.653 621.235,0.653 C608.062,0.653 597.341,11.37 597.341,24.546 C597.341,34.289 603.223,42.658 611.601,46.373 L611.601,154.524 L553.031,208.436 C516.184,184.176 470.483,163.941 420.501,163.941 C409.231,163.941 398.172,164.984 387.387,166.855 L387.387,81.823 L409.68,48.417 C409.744,48.421 409.808,48.44 409.881,48.44 C423.053,48.44 433.774,37.723 433.774,24.546 C433.774,11.37 423.053,0.653 409.881,0.653 C396.709,0.653 385.988,11.37 385.988,24.546 C385.988,30.767 388.43,36.388 392.336,40.641 L368.653,76.143 L368.653,171.039 C326.291,182.391 288.886,205.745 259.925,228.829 L259.925,124.043 L212.138,124.043 L212.138,46.509 C220.655,42.855 226.646,34.388 226.646,24.546 C226.646,11.37 215.925,0.653 202.753,0.653 C189.58,0.653 178.859,11.37 178.859,24.546 C178.859,34.407 184.859,42.882 193.404,46.527 L193.404,142.778 L241.191,142.778 L241.191,244.663 C215.12,268.02 199.212,287.871 197.621,289.888 L193.295,295.377 L197.621,300.865 C199.927,303.787 232.144,344.018 281.907,378.234 L186.763,473.386 L186.763,533.577 C178.192,537.209 172.163,545.712 172.163,555.596 C172.163,568.773 182.884,579.49 196.057,579.49 C209.23,579.49 219.951,568.773 219.951,555.596 C219.951,545.772 213.987,537.324 205.498,533.656 L205.498,481.144 L297.97,388.667 C327.763,406.843 362.671,421.676 400.514,425.687 L400.514,533.02 C400.514,533.212 400.615,533.373 400.623,533.566 C392.034,537.192 385.988,545.7 385.988,555.597 C385.988,568.774 396.709,579.491 409.881,579.491 C423.053,579.491 433.774,568.774 433.774,555.597 C433.774,545.7 427.728,537.192 419.138,533.566 C419.147,533.373 419.248,533.212 419.248,533.02 L419.248,426.776 C419.669,426.776 420.08,426.813 420.501,426.813 C469.586,426.813 514.538,407.291 551.036,383.618 L615.581,450.505 L615.581,533.02 C615.581,533.158 615.654,533.273 615.654,533.409 C606.809,536.913 600.515,545.513 600.515,555.597 C600.515,568.774 611.237,579.491 624.408,579.491 C637.581,579.491 648.303,568.774 648.303,555.597 C648.302,545.896 642.475,537.567 634.152,533.821 Z M418.305,225.499 C447.633,225.499 471.397,249.264 471.397,278.582 C471.397,307.909 447.632,331.665 418.305,331.665 C388.996,331.665 365.231,307.908 365.231,278.582 C365.232,249.263 388.997,225.499 418.305,225.499 Z M216.155,295.377 C231.056,278.202 280.672,225.298 345.162,198.212 C323.308,218.107 309.505,246.693 309.505,278.582 C309.505,338.673 358.224,387.382 418.305,387.382 C478.404,387.382 527.106,338.673 527.106,278.582 C527.106,244.883 511.784,214.778 487.725,194.823 C556.176,220.71 609.333,277.498 624.837,295.382 C604.548,318.813 519.888,409.095 420.5,409.095 C321.25,409.095 236.471,318.804 216.155,295.377 Z"
            id="Shape"></path>
        </g>
    </g>
</svg>