<?xml version="1.0" encoding="UTF-8" ?>
<svg width="90px" height="64px" viewBox="0 0 90 64" version="1.1" xmlns="http://www.w3.org/2000/svg">
    <g id="Page-1" stroke="none" stroke-width="1" fill-rule="evenodd">
        <g id="industrialDesign" transform="translate(-5.000000, 0.000000)" fill-rule="nonzero">
            <g id="Group" transform="translate(5.000000, 0.000000)">
                <path d="M89.692,48.25 C89.682,48.231 89.67,48.216 89.658,48.199 C89.624,48.149 89.584,48.108 89.535,48.073 C89.524,48.065 89.519,48.051 89.506,48.044 L66.365,34.265 L65.611,30.466 L65.695,12.586 C65.695,12.586 65.695,12.586 65.695,12.585 L65.695,12.583 C65.695,9.449 63.719,6.593 60.497,4.415 L63,2.98 C63.109,2.92 63.2,2.81 63.229,2.68 C63.269,2.55 63.25,2.42 63.179,2.3 C63.049,2.07 62.729,1.98 62.499,2.12 L59.548,3.804 C55.833,1.609 50.741,0.25 45.127,0.25 C39.435,0.25 34.277,1.645 30.549,3.894 L27.89,2.31 C27.66,2.18 27.34,2.26 27.21,2.49 C27.14,2.6 27.12,2.74 27.15,2.87 C27.18,3 27.26,3.1 27.38,3.17 L29.624,4.505 C26.481,6.672 24.562,9.493 24.562,12.583 C24.562,12.668 24.579,12.751 24.582,12.836 C24.581,12.839 24.579,12.841 24.578,12.845 L19.872,31.159 L13.617,34.587 L7.363,31.058 C7.201,30.967 7.002,30.973 6.846,31.074 L0.479,35.19 C0.415,35.232 0.366,35.287 0.329,35.348 C0.319,35.364 0.316,35.381 0.308,35.397 C0.281,35.453 0.265,35.511 0.261,35.573 C0.26,35.586 0.251,35.596 0.251,35.609 L0.251,44.356 C0.251,44.534 0.346,44.699 0.5,44.789 L27.506,60.478 L27.506,60.478 L27.506,60.478 L27.513,60.482 C27.52,60.486 27.53,60.485 27.537,60.488 C27.605,60.524 27.68,60.548 27.762,60.549 L27.763,60.549 L27.763,60.549 L27.763,60.549 C27.844,60.549 27.917,60.526 27.984,60.492 C27.992,60.488 28.001,60.487 28.009,60.483 C28.01,60.482 28.012,60.483 28.013,60.482 L32.823,57.697 L32.823,57.697 L37.789,54.822 C37.792,54.82 37.793,54.817 37.795,54.816 L41.229,52.77 C41.349,52.701 41.429,52.59 41.459,52.46 C41.489,52.33 41.469,52.2 41.399,52.09 C41.269,51.86 40.949,51.77 40.719,51.91 L38.026,53.515 L37.919,45.988 C38.043,45.908 38.167,45.828 38.298,45.752 C40.214,44.636 42.746,44.022 45.428,44.022 C47.863,44.022 50.182,44.548 52.025,45.485 L51.966,54.015 L49.318,52.373 C49.098,52.232 48.768,52.312 48.638,52.533 C48.568,52.652 48.538,52.783 48.568,52.913 C48.598,53.043 48.678,53.152 48.798,53.223 L52.196,55.332 C52.197,55.332 52.197,55.333 52.197,55.333 L54.848,56.965 C54.849,56.965 54.849,56.966 54.85,56.966 L65.574,63.566 C65.581,63.57 65.589,63.568 65.596,63.572 C65.664,63.61 65.738,63.637 65.821,63.64 L65.836,63.64 C65.918,63.64 65.992,63.615 66.061,63.58 C66.069,63.576 66.078,63.578 66.085,63.574 L76.115,57.806 L82.036,61.506 C82.044,61.511 82.055,61.51 82.064,61.515 C82.121,61.546 82.182,61.565 82.25,61.572 C82.263,61.573 82.275,61.58 82.289,61.58 C82.293,61.58 82.297,61.582 82.301,61.582 C82.378,61.582 82.449,61.561 82.515,61.53 C82.52,61.527 82.527,61.529 82.532,61.526 L89.478,57.923 C89.643,57.836 89.748,57.665 89.748,57.479 L89.748,48.475 C89.75,48.391 89.726,48.318 89.692,48.25 Z M88.247,48.458 L82.324,51.749 L76.66,48.054 C76.652,48.049 76.641,48.05 76.633,48.045 C76.566,48.006 76.492,47.978 76.409,47.974 C76.407,47.974 76.406,47.973 76.404,47.973 C76.403,47.973 76.403,47.972 76.402,47.972 C76.331,47.976 76.264,47.994 76.201,48.021 C76.183,48.028 76.162,48.025 76.145,48.034 L69.799,51.56 L66.629,35.584 L88.247,48.458 Z M63.505,61.113 L53.045,42.66 L53.063,40.012 L65.392,61.303 L65.364,62.257 L63.505,61.113 Z M59.307,58.53 L53.01,47.826 L53.027,45.325 C53.059,45.222 53.063,45.116 53.029,45.018 L53.031,44.662 L61.741,60.029 L59.307,58.53 Z M55.485,56.178 L52.985,51.431 L52.996,49.775 L57.489,57.412 L55.485,56.178 Z M53.92,18.91 C53.931,18.916 53.946,18.915 53.957,18.921 L54.866,19.462 L59.754,27.815 L60.71,32.173 L53.206,19.336 L53.212,18.49 L53.92,18.91 Z M62.381,19.32 L65.433,34.702 C65.433,34.703 65.433,34.704 65.434,34.705 L68.883,52.088 L66.434,53.595 L59.559,22.254 L61.66,23.5 C61.74,23.54 61.819,23.57 61.91,23.57 C62.09,23.57 62.26,23.47 62.34,23.32 C62.41,23.21 62.43,23.07 62.4,22.94 C62.371,22.81 62.281,22.71 62.171,22.64 L59.809,21.24 C60.781,20.647 61.638,20.003 62.381,19.32 Z M62.428,40.003 L53.177,23.54 L53.193,21.293 L61.406,35.342 L62.428,40.003 Z M63.162,43.35 L64.062,47.453 L53.142,28.634 L53.163,25.556 L63.162,43.35 Z M64.765,50.658 L65.594,54.436 L65.574,55.102 L53.11,33.287 L53.128,30.603 L64.765,50.658 Z M53.096,35.28 L65.518,57.02 L65.448,59.403 L53.077,38.039 L53.096,35.28 Z M58.209,21.451 C58.213,21.454 58.215,21.458 58.219,21.46 L58.381,21.556 L59.059,24.647 L56.644,20.52 L58.209,21.451 Z M66.391,61.361 C66.417,61.278 66.418,61.191 66.399,61.105 L66.588,54.674 L69.683,52.77 L69.684,52.77 L75.861,49.337 L75.637,56.926 L66.365,62.257 L66.391,61.361 Z M76.86,49.378 L81.803,52.603 L81.803,60.177 L76.637,56.948 L76.86,49.378 Z M64.635,25.543 L63.23,18.461 C63.818,17.809 64.297,17.124 64.678,16.418 L64.635,25.543 Z M30.545,5.054 L30.69,5.14 C30.77,5.18 30.86,5.21 30.95,5.21 C31.12,5.21 31.29,5.11 31.38,4.96 C31.43,4.88 31.45,4.79 31.45,4.7 C31.45,4.637 31.424,4.579 31.399,4.521 C34.934,2.501 39.783,1.25 45.129,1.25 C50.444,1.25 55.264,2.488 58.793,4.486 C58.78,4.587 58.793,4.692 58.84,4.78 C58.93,4.94 59.1,5.04 59.28,5.04 C59.359,5.04 59.45,5.01 59.53,4.97 L59.556,4.955 C62.736,6.971 64.694,9.644 64.695,12.584 L64.695,12.584 C64.695,15.499 62.767,18.275 59.265,20.401 C59.122,20.488 58.974,20.571 58.826,20.655 L53.674,17.589 C55.539,16.326 56.561,14.71 56.561,12.97 C56.561,11.192 55.442,9.574 53.621,8.346 L55.188,7.45 C55.348,7.36 55.438,7.19 55.438,7.01 C55.438,6.93 55.409,6.84 55.369,6.77 C55.239,6.54 54.919,6.45 54.688,6.59 L52.641,7.758 C50.629,6.691 48.004,6.038 45.127,6.038 C42.112,6.038 39.373,6.754 37.329,7.915 L35.5,6.83 C35.27,6.69 34.95,6.77 34.82,7 C34.75,7.12 34.73,7.25 34.76,7.38 C34.8,7.51 34.88,7.62 35,7.69 L36.386,8.512 C34.71,9.718 33.695,11.273 33.695,12.97 C33.695,14.533 34.54,16.024 36.088,17.231 L35.881,17.349 L35.6,17.51 C35.599,17.51 35.599,17.511 35.598,17.511 L30.78,20.268 C30.74,20.243 30.699,20.218 30.659,20.193 C27.372,18.096 25.562,15.394 25.562,12.583 C25.562,9.692 27.457,7.058 30.545,5.054 Z M29.193,58.644 L36.917,45.819 L36.958,48.706 L32.211,56.897 L29.193,58.644 Z M36.891,43.925 L28.263,58.251 L28.263,55.834 L36.852,41.177 L36.891,43.925 Z M31.232,26.955 L36.529,18.419 L36.567,21.095 L31.215,29.721 L31.232,26.955 Z M36.825,39.246 L31.1,49.017 L31.117,46.186 L36.788,36.637 L36.825,39.246 Z M36.761,34.725 L31.129,44.209 L31.147,41.153 L36.72,31.819 L36.761,34.725 Z M36.693,29.914 L31.159,39.183 L31.175,36.473 L36.656,27.354 L36.693,29.914 Z M36.63,25.457 L31.187,34.511 L31.204,31.636 L36.594,22.949 L36.63,25.457 Z M31.244,25.04 L31.268,21.142 L34.983,19.016 L31.244,25.04 Z M28.263,53.856 L28.263,51.857 L29.985,50.918 L28.263,53.856 Z M29.815,20.822 L27.78,21.98 C27.54,22.12 27.46,22.43 27.6,22.67 C27.69,22.82 27.85,22.92 28.03,22.92 C28.12,22.92 28.21,22.89 28.28,22.85 L30.265,21.712 L30.1,49.105 L29.865,48.954 C26.932,47.073 25.204,43.87 25.245,40.386 L25.525,16.306 C26.393,17.968 27.844,19.505 29.815,20.822 Z M24.327,33.213 L20.882,31.248 L24.514,17.112 L24.327,33.213 Z M7.135,32.077 L13.368,35.595 C13.518,35.679 13.702,35.681 13.854,35.598 L20.298,32.066 L24.314,34.357 L24.244,40.374 C24.2,44.205 26.099,47.728 29.324,49.796 L29.613,49.982 L27.773,50.985 L1.701,35.59 L7.135,32.077 Z M1.25,36.485 L27.263,51.845 L27.263,59.181 L1.25,44.068 L1.25,36.485 Z M33.952,55.889 L36.986,50.653 L37.035,54.104 L33.952,55.889 Z M45.429,43.021 C42.621,43.021 39.956,43.665 37.904,44.83 L37.518,17.561 L39.56,16.39 C39.72,16.3 39.82,16.13 39.82,15.95 C39.81,15.87 39.79,15.78 39.75,15.71 C39.62,15.48 39.3,15.39 39.07,15.53 L37.042,16.687 C35.531,15.627 34.695,14.318 34.695,12.97 C34.695,11.471 35.687,10.103 37.306,9.058 L38.44,9.73 C38.51,9.77 38.6,9.8 38.69,9.8 C38.87,9.8 39.03,9.7 39.12,9.55 C39.17,9.47 39.19,9.38 39.19,9.29 C39.19,9.12 39.09,8.96 38.94,8.87 L38.305,8.493 C40.136,7.589 42.519,7.038 45.129,7.038 C47.586,7.038 49.843,7.526 51.628,8.337 L51.22,8.57 C51.1,8.64 51.02,8.75 50.98,8.88 C50.951,9.01 50.97,9.14 51.031,9.25 C51.121,9.41 51.291,9.51 51.47,9.51 C51.55,9.51 51.64,9.48 51.71,9.44 L52.677,8.887 C54.46,9.952 55.562,11.388 55.562,12.97 C55.562,14.481 54.541,15.911 52.697,17.023 L50.99,16.01 C50.76,15.87 50.439,15.96 50.3,16.18 C50.23,16.3 50.21,16.43 50.25,16.56 C50.28,16.69 50.359,16.8 50.479,16.87 L52.215,17.899 L52.033,44.358 C50.133,43.492 47.822,43.021 45.429,43.021 Z M52.97,53.55 L53.812,55.149 L52.962,54.626 L52.97,53.55 Z M82.804,60.257 L82.804,52.627 L88.75,49.323 L88.75,57.173 L82.804,60.257 Z"
                id="Shape"></path>
                <path d="M44.77,36.64 C44.5,36.64 44.28,36.86 44.28,37.14 L44.28,41.14 C44.28,41.411 44.5,41.64 44.77,41.64 C45.05,41.64 45.27,41.411 45.27,41.14 L45.27,37.14 C45.27,36.859 45.05,36.64 44.77,36.64 Z"
                id="Shape"></path>
                <path d="M44.77,18.64 C44.5,18.64 44.28,18.86 44.28,19.14 L44.28,23.14 C44.28,23.42 44.5,23.64 44.77,23.64 C45.05,23.64 45.27,23.42 45.27,23.14 L45.27,19.14 C45.27,18.86 45.05,18.64 44.77,18.64 Z"
                id="Shape"></path>
                <path d="M44.77,27.64 C44.5,27.64 44.28,27.86 44.28,28.14 L44.28,32.14 C44.28,32.411 44.5,32.64 44.77,32.64 C45.05,32.64 45.27,32.411 45.27,32.14 L45.27,28.14 C45.27,27.86 45.05,27.64 44.77,27.64 Z"
                id="Shape"></path>
                <path d="M46.88,11.06 L45.27,11.979 L45.27,10.14 C45.27,9.86 45.05,9.64 44.77,9.64 C44.5,9.64 44.28,9.86 44.28,10.14 L44.28,12.031 L43.25,11.42 C43.02,11.28 42.69,11.36 42.56,11.59 C42.49,11.71 42.47,11.84 42.51,11.97 C42.54,12.1 42.62,12.21 42.74,12.28 L43.722,12.862 L43.41,13.04 C43.29,13.11 43.21,13.22 43.17,13.34 C43.14,13.47 43.15,13.61 43.22,13.73 C43.31,13.88 43.48,13.98 43.66,13.98 C43.74,13.98 43.83,13.95 43.9,13.91 L44.28,13.692 L44.28,14.14 C44.28,14.41 44.5,14.64 44.77,14.64 C45.05,14.64 45.27,14.41 45.27,14.14 L45.27,13.78 L46.18,14.319 C46.25,14.359 46.34,14.389 46.43,14.389 C46.61,14.389 46.77,14.289 46.86,14.139 C46.911,14.059 46.93,13.969 46.93,13.879 C46.93,13.709 46.83,13.549 46.69,13.459 L45.704,12.874 L47.37,11.919 C47.53,11.829 47.63,11.659 47.63,11.479 C47.62,11.399 47.6,11.309 47.56,11.239 C47.43,11.01 47.109,10.92 46.88,11.06 Z"
                id="Shape"></path>
                <path d="M48.96,48.17 C49.08,48.1 49.16,47.99 49.189,47.859 C49.219,47.729 49.2,47.589 49.139,47.479 C48.999,47.25 48.679,47.169 48.45,47.309 L45.27,49.195 L45.27,46.14 C45.27,45.86 45.05,45.64 44.77,45.64 C44.5,45.64 44.28,45.86 44.28,46.14 L44.28,49.234 L41.68,47.621 C41.45,47.48 41.13,47.56 40.99,47.781 C40.85,48.02 40.92,48.331 41.15,48.47 L44.55,50.58 C44.551,50.581 44.552,50.58 44.553,50.581 C44.594,50.603 44.639,50.613 44.686,50.622 C44.728,50.635 44.767,50.66 44.81,50.66 C44.99,50.66 45.15,50.569 45.24,50.42 C45.267,50.376 45.267,50.326 45.278,50.278 C45.365,50.277 45.452,50.258 45.53,50.21 L48.96,48.17 Z"
                id="Shape"></path>
            </g>
        </g>
    </g>
</svg>