<?xml version="1.0" encoding="UTF-8" ?>
<svg width="78px" height="89px" viewBox="0 0 78 89" version="1.1" xmlns="http://www.w3.org/2000/svg">
    <g id="Page-1" stroke="none" stroke-width="1" fill-rule="evenodd">
        <g id="jacket" transform="translate(-12.000000, 0.000000)" fill-rule="nonzero">
            <path d="M81.7,16.2 L81.6,16.1 L81.5,16 C76.7,11.3 70.2,8.4 63,8.4 L62.8,8.4 L62.8,3.6 C62.8,2.3 62.8,0.2 50.7,0.2 C38.6,0.2 38.6,2.2 38.6,3.6 L38.6,8.4 L38.4,8.4 C31.2,8.4 24.7,11.3 19.9,16 L19.8,16.1 L19.7,16.2 C15,21 12.1,27.5 12.1,34.7 L12.1,74.2 C12.1,75.3 13,76.2 14.1,76.2 L24.4,76.2 L24.4,86.3 C24.4,87.4 25.3,88.3 26.4,88.3 L51,88.3 L75.1,88.3 L75.1,88.3 L75.1,88.3 C76.2,88.3 77.1,87.4 77.1,86.3 L77.1,76.1 L87.3,76.1 C88.4,76.1 89.3,75.2 89.3,74.1 L89.3,34.7 C89.3,27.5 86.4,21 81.7,16.2 Z M85.3,68.3 L77.1,68.3 L77.1,65.9 L85.3,65.9 L85.3,68.3 Z M73.1,73.6 L47.9,73.6 L47.9,58.9 L73.1,58.9 L73.1,73.6 Z M45.6,73.6 L28.4,73.6 L28.4,58.9 L45.6,58.9 L45.6,73.6 L45.6,73.6 Z M28.4,75.9 L45.6,75.9 L45.6,78.3 L28.4,78.3 L28.4,75.9 Z M24.4,68.3 L16.1,68.3 L16.1,65.9 L24.4,65.9 L24.4,68.3 Z M47.9,75.9 L73.1,75.9 L73.1,78.3 L53.6,78.3 L47.9,78.3 L47.9,75.9 Z M77.1,63.6 L77.1,45.1 L85.3,45.1 L85.3,63.5 L77.1,63.5 L77.1,63.6 Z M85.3,42.9 L77.1,42.9 L77.1,40.5 L85.3,40.5 L85.3,42.9 Z M73.1,56.6 L47.9,56.6 L47.9,54.2 L73.1,54.2 L73.1,56.6 Z M47.9,51.9 L47.9,13.5 L50.8,13.5 C54.7,13.5 57.2,13.3 58.9,13 L58.9,14.3 C58.9,15.4 59.8,16.3 60.9,16.3 L63,16.3 L63.4,16.3 L63.4,16.3 L63.5,16.3 L63.5,51.9 L47.9,51.9 Z M68.3,13 L68.3,51.8 L65.9,51.8 L65.9,12.6 C66.7,12.7 67.5,12.8 68.3,13 Z M58.8,10.4 L58.8,10.7 C57.3,11 54.6,11.3 50.7,11.3 C49.7,11.3 48.7,11.3 47.8,11.2 L47.8,6 L50.7,6 C54.6,6 57.1,5.8 58.8,5.5 L58.8,10.4 Z M42.6,5.5 C43.4,5.6 44.4,5.8 45.6,5.9 L45.6,11.1 C44.3,11 43.3,10.9 42.6,10.7 L42.6,5.5 Z M35.6,12.6 L35.6,51.8 L33.2,51.8 L33.2,13 C34,12.8 34.8,12.7 35.6,12.6 Z M37.8,16.3 L37.8,16.3 L37.9,16.3 L38.3,16.3 L40.5,16.3 C41.6,16.3 42.5,15.4 42.5,14.3 L42.5,13 C43.3,13.1 44.3,13.3 45.5,13.4 L45.5,51.9 L37.7,51.9 L37.7,16.3 L37.8,16.3 Z M45.6,54.2 L45.6,56.6 L28.4,56.6 L28.4,54.2 L45.6,54.2 Z M24.4,42.9 L16.1,42.9 L16.1,40.5 L24.4,40.5 L24.4,42.9 Z M24.4,45.1 L24.4,63.5 L16.1,63.5 L16.1,45.1 L24.4,45.1 Z M51,84.3 L47.9,84.3 L47.9,80.6 L52.5,80.6 L52.5,84.3 L51,84.3 Z M85.3,38.2 L77.1,38.2 L77.1,34.7 C77.1,33.6 76.2,32.7 75.1,32.7 C74,32.7 73.1,33.6 73.1,34.7 L73.1,52 L70.5,52 L70.5,18 C72.6,18.9 74.4,20.2 76,21.8 C76.2,22 76.4,22.1 76.7,22.2 C76.9,22.3 77.2,22.3 77.5,22.3 C78,22.3 78.5,22.1 78.9,21.7 L80.2,20.4 C83.4,24.3 85.4,29.3 85.4,34.7 L85.4,38.2 L85.3,38.2 Z M21.3,20.4 L22.6,21.7 C23,22.1 23.5,22.3 24,22.3 C24.5,22.3 25,22.1 25.4,21.7 L25.4,21.7 L25.4,21.7 C27,20.1 28.9,18.8 30.9,17.9 L30.9,51.9 L28.3,51.9 L28.3,34.7 C28.3,33.6 27.4,32.7 26.3,32.7 C25.2,32.7 24.3,33.6 24.3,34.7 L24.3,38.2 L16,38.2 L16,34.7 C16.1,29.3 18,24.3 21.3,20.4 Z"
            id="Shape"></path>
        </g>
    </g>
</svg>