<?xml version="1.0" encoding="UTF-8" ?>
<svg width="100px" height="85px" viewBox="0 0 100 85" version="1.1" xmlns="http://www.w3.org/2000/svg">
    <g id="Page-1" stroke="none" stroke-width="1" fill-rule="evenodd">
        <g id="leaf" fill-rule="nonzero">
            <path d="M97.8,3.2 L97.8,3 L97.8,2.8 C97.8,2.6 97.7,2.5 97.7,2.3 C97.7,2.2 97.7,2.2 97.6,2.2 C97.5,2 97.4,1.8 97.3,1.6 L97.2,1.5 C97.1,1.4 97,1.2 96.9,1.1 L96.8,1 C96.7,0.9 96.6,0.8 96.4,0.7 L96.3,0.6 C96.1,0.5 95.9,0.4 95.7,0.3 L95.5,0.2 L95.2,0.1 L95.1,0.1 L94.9,0 L94.4,0 L94.2,0 L93.6,0 L93.3,0.1 L93,0.1 L92.7,0.2 L92.4,0.3 L92.1,0.5 C92,0.6 91.8,0.7 91.7,0.8 L91.5,1 L91.3,1.2 C80.5,14.4 71.8,14.6 60.8,14.8 C55.1,14.9 49.1,15 42.3,17 C35.2,19.1 30.1,23.5 27.4,29.6 C24.3,36.9 25.1,45 26.8,50.7 C20.4,49.7 12.6,45.6 9.6,43.7 C8.4,42.9 6.8,43 5.6,43.8 C2.9,45.7 -1.2,50.6 0.4,57.1 C3,67.5 11.6,67.5 15.2,67.5 C17.2,67.5 18.8,65.9 18.9,63.9 C2.1,59 8.3,51.5 8.3,51.5 C13.4,54.3 24.5,59.7 32.9,58 C34.9,57.6 36.2,55.7 35.8,53.7 C35.7,53.4 35.6,53.1 35.5,52.8 C33.4,48.7 31.3,39.6 34.3,32.6 C36.1,28.4 39.5,25.6 44.6,24.1 C50.4,22.4 55.8,22.3 61.1,22.2 C69.1,22.1 77.3,21.9 86.1,16.2 C87.1,15.6 88.6,16.7 88.2,18 C81.2,44.6 59.3,48.6 54.1,50.5 C53.5,50.9 53.2,51.6 53.3,52.3 C53.9,53.6 55.2,54.4 56.6,54.4 L57.1,54.4 C72.5,52.4 84.3,43.9 91.3,29.7 C91.5,29.3 92.6,29.8 92.7,31.1 C93.2,50.9 89.9,62.9 78,71.4 C70.9,76.5 59.9,78.3 51.3,75.9 C47.9,75 43.6,73 41.5,68.8 C39.3,68.5 37.1,68.1 34.8,67.7 C34.1,68.7 34,70 34.5,71.1 C36.9,76.7 42.2,81 49.3,83 C52.6,83.9 55.9,84.3 59.3,84.3 C67.5,84.4 75.5,81.9 82.2,77.4 C102.5,62.6 101.7,39.5 97.8,3.2 Z"
            id="Shape"></path>
        </g>
    </g>
</svg>