<?xml version="1.0" encoding="UTF-8" ?>
<svg width="91px" height="83px" viewBox="0 0 91 83" version="1.1" xmlns="http://www.w3.org/2000/svg">
    <g id="Page-1" stroke="none" stroke-width="1" fill-rule="evenodd">
        <g id="management" transform="translate(-4.000000, 0.000000)" fill-rule="nonzero">
            <g id="Group" transform="translate(4.000000, 0.000000)">
                <path d="M46.029,21.505 C42.29,21.505 39.247,18.462 39.247,14.723 C39.247,10.983 42.29,7.94 46.029,7.94 C49.769,7.94 52.812,10.983 52.812,14.723 C52.813,18.462 49.77,21.505 46.029,21.505 Z M46.029,9.939 C43.392,9.939 41.247,12.085 41.247,14.722 C41.247,17.359 43.393,19.504 46.029,19.504 C48.667,19.504 50.812,17.358 50.812,14.722 C50.813,12.085 48.667,9.939 46.029,9.939 Z M45.933,0.663 C35.364,0.663 26.764,9.262 26.764,19.831 C26.764,30.4 35.363,39 45.933,39 C56.503,39 65.102,30.4 65.102,19.831 C65.102,9.262 56.502,0.663 45.933,0.663 Z M41,36.27 L41,30.326 C41,29.752 40.608,29.274 40.066,29.206 C39.25,29.104 38.883,30.051 38.883,30.051 C38.785,30.503 38.666,31.086 38.527,31.767 C38.339,32.685 38.115,33.783 37.856,34.974 C36.972,34.5 36.14,33.944 35.357,33.329 L36.451,28.517 C37.041,25.941 39.227,24 41.537,24 L44.907,24 L43.652,33.771 C43.618,34.071 43.689,34.582 43.994,34.887 L45.396,36.425 C45.615,36.646 45.911,36.947 46.217,36.986 C46.121,36.987 46.028,37 45.933,37 C44.218,37 42.564,36.74 41,36.27 Z M54.021,34.967 C53.855,34.244 53.693,33.543 53.545,32.907 C53.334,31.998 53.149,31.198 52.999,30.537 C52.999,30.537 52.77,28.917 51.755,29.023 C50.854,29.118 50.999,30.9 51,31 C51.016,32.1 51.008,34.881 51.003,36.234 C49.537,36.688 47.984,36.935 46.38,36.977 C46.664,36.92 46.928,36.649 47.13,36.448 L48.529,34.855 C48.957,34.427 48.883,33.744 48.879,33.703 L47.64,24 L50.716,24 C53.021,24 55.209,25.943 55.806,28.513 L56.833,33.085 C55.964,33.801 55.021,34.431 54.021,34.967 Z M46.27,29.058 L46.862,33.694 L46.283,34.269 L45.678,33.648 L46.27,29.058 Z M58.52,31.467 L57.757,28.068 C56.954,24.608 53.928,22 50.717,22 L41.537,22 C38.318,22 35.294,24.61 34.502,28.072 L33.653,31.806 C30.633,28.71 28.764,24.487 28.764,19.831 C28.764,10.364 36.466,2.663 45.933,2.663 C55.4,2.663 63.102,10.364 63.102,19.831 C63.102,24.323 61.354,28.404 58.52,31.467 Z"
                id="Shape"></path>
                <path d="M14.612,68.816 C11.829,68.816 9.564,66.552 9.564,63.769 C9.564,60.986 11.829,58.721 14.612,58.721 C17.395,58.721 19.659,60.986 19.659,63.769 C19.659,66.552 17.396,68.816 14.612,68.816 Z M14.612,60.722 C12.931,60.722 11.564,62.089 11.564,63.77 C11.564,65.45 12.931,66.817 14.612,66.817 C16.292,66.817 17.659,65.45 17.659,63.77 C17.659,62.089 16.292,60.722 14.612,60.722 Z M14.688,53.576 C6.828,53.576 0.432,59.971 0.432,67.831 C0.432,75.691 6.828,82.087 14.688,82.087 C22.548,82.087 28.944,75.691 28.944,67.831 C28.944,59.971 22.549,53.576 14.688,53.576 Z M7.567,77.786 L8.202,74.237 C8.545,72.739 9.861,71 11.47,71 L17.895,71 C19.513,71 20.828,72.682 21.16,74.106 L21.9,77.623 C19.874,79.105 17.386,80.039 14.689,80.039 C12.032,80.039 9.577,79.228 7.567,77.786 Z M23.617,76.2 L23.11,73.668 C22.516,71.115 20.273,69 17.895,69 L11.47,69 C8.765,69 6.764,71.561 6.245,73.826 L5.819,76.17 C3.726,73.97 2.432,71.052 2.432,67.784 C2.432,61.026 7.93,55.553 14.688,55.553 C21.446,55.553 26.944,61.062 26.944,67.82 C26.944,71.056 25.674,74.007 23.617,76.2 Z"
                id="Shape"></path>
                <path d="M45.767,68.816 C42.984,68.816 40.719,66.552 40.719,63.769 C40.719,60.986 42.984,58.721 45.767,58.721 C48.55,58.721 50.814,60.986 50.814,63.769 C50.814,66.552 48.55,68.816 45.767,68.816 Z M45.767,60.722 C44.086,60.722 42.719,62.089 42.719,63.77 C42.719,65.45 44.086,66.817 45.767,66.817 C47.447,66.817 48.814,65.45 48.814,63.77 C48.813,62.089 47.446,60.722 45.767,60.722 Z M45.843,53.576 C37.983,53.576 31.587,59.971 31.587,67.831 C31.587,75.691 37.983,82.087 45.843,82.087 C53.703,82.087 60.099,75.691 60.099,67.831 C60.099,59.971 53.703,53.576 45.843,53.576 Z M38.721,77.786 L39.356,74.237 C39.699,72.739 41.016,71 42.624,71 L49.049,71 C50.667,71 51.982,72.682 52.314,74.106 L53.054,77.623 C51.028,79.105 48.54,80.039 45.843,80.039 C43.186,80.039 40.731,79.228 38.721,77.786 Z M54.772,76.2 L54.265,73.668 C53.67,71.115 51.428,69 49.049,69 L42.624,69 C39.919,69 37.918,71.561 37.399,73.826 L36.973,76.17 C34.88,73.97 33.586,71.052 33.586,67.784 C33.586,61.026 39.084,55.553 45.842,55.553 C52.6,55.553 58.098,61.062 58.098,67.82 C58.099,71.056 56.828,74.007 54.772,76.2 Z"
                id="Shape"></path>
                <path d="M76.101,68.816 C73.318,68.816 71.053,66.552 71.053,63.769 C71.053,60.986 73.318,58.721 76.101,58.721 C78.884,58.721 81.149,60.986 81.149,63.769 C81.149,66.552 78.884,68.816 76.101,68.816 Z M76.101,60.722 C74.42,60.722 73.053,62.089 73.053,63.77 C73.053,65.45 74.42,66.817 76.101,66.817 C77.782,66.817 79.149,65.45 79.149,63.77 C79.148,62.089 77.781,60.722 76.101,60.722 Z M76.177,53.576 C68.317,53.576 61.921,59.971 61.921,67.831 C61.921,75.691 68.317,82.087 76.177,82.087 C84.037,82.087 90.433,75.691 90.433,67.831 C90.433,59.971 84.037,53.576 76.177,53.576 Z M69.055,77.786 L69.691,74.237 C70.034,72.739 71.35,71 72.958,71 L79.384,71 C81.001,71 82.316,72.682 82.648,74.106 L83.388,77.623 C81.362,79.105 78.874,80.039 76.177,80.039 C73.52,80.039 71.065,79.228 69.055,77.786 Z M85.106,76.2 L84.599,73.668 C84.004,71.115 81.762,69 79.384,69 L72.958,69 C70.254,69 68.253,71.561 67.734,73.826 L67.307,76.17 C65.214,73.97 63.92,71.052 63.92,67.783 C63.92,61.025 69.418,55.552 76.176,55.552 C82.934,55.552 88.432,61.061 88.432,67.819 C88.433,71.056 87.162,74.007 85.106,76.2 Z"
                id="Shape"></path>
                <path d="M31.646,37.236 C31.224,36.88 30.594,36.932 30.237,37.354 L22.584,46.398 L21.064,45.111 L20,51 L25.631,48.977 L24.11,47.69 L31.764,38.645 C32.12,38.225 32.067,37.594 31.646,37.236 Z"
                id="Shape"></path>
                <path d="M72,51 L71.151,45.078 L69.585,46.309 L61.786,36.383 C61.445,35.949 60.817,35.872 60.382,36.215 C59.948,36.556 59.872,37.185 60.214,37.619 L68.013,47.545 L66.447,48.776 L72,51 Z"
                id="Shape"></path>
                <path d="M46,47 L46,41 C46,40.447 45.553,40 45,40 C44.447,40 44,40.447 44,41 L44,47 L42.008,47 L45,52.181 L47.992,47 L46,47 Z"
                id="Shape"></path>
            </g>
        </g>
    </g>
</svg>