<?xml version="1.0" encoding="UTF-8"?>
<svg width="92px" height="68px" viewBox="0 0 92 68" version="1.1" xmlns="http://www.w3.org/2000/svg" xmlns:xlink="http://www.w3.org/1999/xlink">
    <g id="Page-1" stroke="none" stroke-width="1" fill="none" fill-rule="evenodd" stroke-linecap="round" stroke-linejoin="round">
        <g id="megaphone" transform="translate(-4.000000, 2.000000)">
            <g id="Group" transform="translate(6.000000, 0.000000)">
                <path d="M33.354,6.628 C33.313,6.623 33.284,6.619 33.284,6.619 C33.312,6.619 33.332,6.625 33.354,6.628 Z" id="Shape" stroke="#FFFFFF" stroke-width="2.9597" fill="#000000" fill-rule="nonzero"></path>
                <ellipse id="Oval" stroke="#000000" stroke-width="3.6127" cx="35.435" cy="30.139" rx="6.267" ry="24.594"></ellipse>
                <path d="M74.287,19.151 L74.287,19.121 C52.586,19.121 43.073,10.49 37.869,6.73 C37.288,6.309 36.818,6.042 36.446,5.866 C39.428,7.764 41.702,17.906 41.702,30.139 C41.702,43.724 38.897,54.735 35.434,54.735 C35.434,54.735 36.253,54.891 37.89,53.708 C43.088,49.948 52.583,41.153 74.286,41.153 C75.613,41.153 76.685,36.229 76.685,30.155 C76.687,24.078 75.614,19.151 74.287,19.151 Z" id="Shape" stroke="#000000" stroke-width="3.6127"></path>
                <path d="M35.507,5.55 C35.463,5.545 35.435,5.545 35.435,5.545 C35.46,5.545 35.482,5.547 35.507,5.55 Z" id="Shape" stroke="#000000" stroke-width="3.6127"></path>
                <path d="M81.008,19.719 L75.431,19.719 C76.183,21.818 76.687,25.701 76.687,30.157 C76.687,34.585 76.186,38.447 75.442,40.55 L75.442,40.558 L81.008,40.558 C84.777,40.558 87.83,35.891 87.83,30.14 C87.83,24.387 84.776,19.719 81.008,19.719 Z" id="Shape" stroke="#000000" stroke-width="3.6127"></path>
                <path d="M70.898,41.419 L64.089,42.316 C64.089,44.044 62.151,44.044 62.151,45.767 C62.151,47.501 64.089,47.501 64.089,49.226 C64.089,50.956 62.151,50.956 62.151,52.688 C62.151,54.412 64.089,54.412 64.089,56.139 C64.089,57.87 62.151,57.87 62.151,59.598 C62.151,60.933 64.089,61.789 64.089,61.789 C64.089,61.789 68.599,64.288 70.729,63.058 C73.694,61.342 70.898,41.419 70.898,41.419 Z" id="Shape" stroke="#000000" stroke-width="3.6127"></path>
                <path d="M19.816,31.069 L0.17,31.069" id="Shape" stroke="#000000" stroke-width="3.6127"></path>
                <path d="M24.331,10.442 L20.781,0.601" id="Shape" stroke="#000000" stroke-width="3.6127"></path>
                <path d="M24.331,51.699 L20.781,61.54" id="Shape" stroke="#000000" stroke-width="3.6127"></path>
                <path d="M20.9,21.583 L9.088,13.995" id="Shape" stroke="#000000" stroke-width="3.6127"></path>
                <path d="M20.9,40.55 L9.058,48.162" id="Shape" stroke="#000000" stroke-width="3.6127"></path>
            </g>
        </g>
    </g>
</svg>