<?xml version="1.0" encoding="UTF-8" ?>
<svg width="87px" height="88px" viewBox="0 0 87 88" version="1.1" xmlns="http://www.w3.org/2000/svg">
    <g id="Page-1" stroke="none" stroke-width="1" fill-rule="evenodd">
        <g id="movie" transform="translate(-6.000000, 0.000000)" fill-rule="nonzero">
            <g id="Group" transform="translate(6.000000, 0.000000)">
                <path d="M0.083,0.75 L0.083,51.766 L86.583,51.766 L86.583,0.75 L0.083,0.75 Z M11.434,25.396 L8.583,25.396 L8.583,22.827 C9.507,22.74 10.403,22.555 11.267,22.285 L11.434,25.396 Z M8.583,20.317 L8.583,16.502 C11.226,14.843 13.314,12.268 14.467,9.25 L18.775,9.25 C18.233,15.055 13.958,19.688 8.583,20.317 Z M8.583,13.431 L8.583,9.25 L11.753,9.25 C10.991,10.869 9.909,12.307 8.583,13.431 Z M8.583,27.896 L11.567,27.896 L12.39,43.266 L8.583,43.266 L8.583,27.896 Z M14.894,43.266 L13.715,21.241 C17.901,18.948 20.862,14.483 21.274,9.25 L65.021,9.25 C65.432,14.483 68.394,18.948 72.58,21.241 L71.4,43.266 L14.894,43.266 Z M78.084,25.396 L74.86,25.396 L75.026,22.285 C76.005,22.591 77.029,22.777 78.084,22.847 L78.084,25.396 Z M78.084,13.588 C76.669,12.441 75.511,10.949 74.709,9.25 L78.084,9.25 L78.084,13.588 Z M71.995,9.25 C73.178,12.346 75.345,14.976 78.084,16.629 L78.084,20.346 C72.537,19.891 68.074,15.188 67.52,9.25 L71.995,9.25 L71.995,9.25 Z M74.727,27.896 L78.084,27.896 L78.084,43.266 L73.903,43.266 L74.727,27.896 Z M78.467,6.75 L7.851,6.75 L4.351,3.25 L82.183,3.25 L78.467,6.75 Z M6.083,8.518 L6.083,43.998 L2.583,47.498 L2.583,5.018 L6.083,8.518 Z M7.851,45.766 L78.816,45.766 L82.316,49.266 L4.351,49.266 L7.851,45.766 Z M80.584,43.998 L80.584,8.191 L84.084,4.895 L84.084,47.498 L80.584,43.998 Z"
                id="Shape"></path>
                <path d="M79.377,59.25 C79.377,55.733 76.517,52.873 73,52.873 C69.483,52.873 66.623,55.733 66.623,59.25 C66.623,61.785 68.113,63.973 70.261,65 L60.589,65 L60.589,77.417 L56.332,77.417 L56.332,65 L45.739,65 C47.886,63.973 49.377,61.785 49.377,59.25 C49.377,55.733 46.517,52.873 43,52.873 C39.484,52.873 36.624,55.733 36.624,59.25 C36.624,61.785 38.114,63.973 40.262,65 L30.337,65 L30.337,77.417 L26.08,77.417 L26.08,65 L15.74,65 C17.887,63.973 19.378,61.785 19.378,59.25 C19.378,55.733 16.518,52.873 13.002,52.873 C9.486,52.873 6.626,55.733 6.626,59.25 C6.626,61.785 8.116,63.973 10.264,65 L0.083,65 L0.083,87.836 L26.079,87.836 L26.079,79.917 L30.336,79.917 L30.336,87.836 L56.332,87.836 L56.332,79.917 L60.589,79.917 L60.589,87.836 L86.584,87.836 L86.584,65 L75.739,65 C77.887,63.973 79.377,61.785 79.377,59.25 Z M69.123,59.25 C69.123,57.112 70.862,55.373 73,55.373 C75.138,55.373 76.877,57.112 76.877,59.25 C76.877,61.388 75.138,63.127 73,63.127 C70.862,63.127 69.123,61.388 69.123,59.25 Z M39.124,59.25 C39.124,57.112 40.863,55.373 43,55.373 C45.137,55.373 46.877,57.112 46.877,59.25 C46.877,61.388 45.138,63.127 43,63.127 C40.862,63.127 39.124,61.388 39.124,59.25 Z M9.124,59.25 C9.124,57.112 10.863,55.373 13,55.373 C15.137,55.373 16.876,57.112 16.876,59.25 C16.876,61.388 15.138,63.127 13,63.127 C10.862,63.127 9.124,61.388 9.124,59.25 Z M23.579,85.336 L2.583,85.336 L2.583,67.5 L23.579,67.5 L23.579,85.336 Z M53.832,85.336 L32.836,85.336 L32.836,67.5 L53.832,67.5 L53.832,85.336 L53.832,85.336 Z M84.084,85.336 L63.089,85.336 L63.089,67.5 L84.084,67.5 L84.084,85.336 Z"
                id="Shape"></path>
                <path d="M53.103,20.606 C53.051,20.571 43.487,16.515 43.487,16.515 C43.167,16.38 42.805,16.384 42.488,16.526 C42.488,16.526 33.502,20.57 33.46,20.598 C33.107,20.829 32.895,21.222 32.895,21.643 L32.895,33.165 C32.895,33.648 33.173,34.087 33.609,34.294 L42.74,38.627 C42.91,38.708 43.093,38.748 43.276,38.748 C43.483,38.748 43.69,38.697 43.876,38.595 L53.006,33.6 C53.407,33.381 53.656,32.96 53.656,32.503 L53.656,21.644 C53.656,21.228 53.448,20.838 53.103,20.606 Z M41.75,35.393 L35.395,32.376 L35.395,23.552 L41.75,26.319 L41.75,35.393 Z M43.015,24.143 L37.235,21.626 L43.015,19.03 L49.154,21.626 L43.015,24.143 Z M51.156,31.764 L44.25,35.542 L44.25,26.339 L51.156,23.507 L51.156,31.764 Z"
                id="Shape"></path>
            </g>
        </g>
    </g>
</svg>