<?xml version="1.0" encoding="UTF-8" ?>
<svg width="87px" height="88px" viewBox="0 0 87 88" version="1.1" xmlns="http://www.w3.org/2000/svg">
    <g id="Page-1" stroke="none" stroke-width="1" fill-rule="evenodd">
        <g id="networkCentral" transform="translate(-6.000000, 0.000000)" fill-rule="nonzero">
            <path d="M86,37.75 C82.475,37.75 79.565,40 79.079,44 L60,44 C60,41 59.38,39.791 58.319,38.204 L74.139,22.259 C74.715,22.49 75.34,22.563 75.999,22.563 C78.761,22.563 80.999,20.293 80.999,17.532 C80.999,14.771 78.761,12.516 75.999,12.516 C73.237,12.516 70.999,14.746 70.999,17.508 C70.999,18.797 71.5,19.956 72.301,20.843 L56.883,36.26 C55.317,34.771 53.274,33.777 51,33.551 L51,14.42 C54.391,13.934 57,11.026 57,7.5 C57,3.634 53.866,0.5 50,0.5 C46.134,0.5 43,3.634 43,7.5 C43,11.026 45.609,13.934 49,14.42 L49,33.55 C46.865,33.762 44.934,34.652 43.408,35.993 L28.489,21.075 C29.419,20.167 30,18.903 30,17.5 C30,14.738 27.762,12.5 25,12.5 C22.238,12.5 20,14.738 20,17.5 C20,20.262 22.238,22.5 25,22.5 C25.619,22.5 26.206,22.373 26.753,22.167 L42.045,37.709 C40.767,39.388 40,41 40,44 L19.92,44 C19.434,40 16.525,37.75 13,37.75 C9.134,37.75 6,40.759 6,44.625 C6,48.492 9.134,51.813 13,51.813 C16.526,51.813 19.434,49 19.92,46 L40.2,46 C40.58,47 41.49,49.3 42.757,50.633 L28.338,64.927 C27.452,64.126 26.289,63.563 25,63.563 C22.238,63.563 20,65.77 20,68.532 C20,71.294 22.238,73.516 25,73.516 C27.762,73.516 30,71.27 30,68.508 C30,67.849 29.865,67.219 29.634,66.644 L44.454,51.822 C45.78,52.708 47.329,53.284 49,53.45 L49,73.58 C45.609,74.066 43,76.976 43,80.501 C43,84.368 46.134,87.501 50,87.501 C53.866,87.501 57,84.368 57,80.501 C57,76.976 54.391,74.066 51,73.58 L51,53.45 C52.887,53.262 54.611,52.544 56.042,51.456 L71.333,66.747 C71.127,67.294 71,67.881 71,68.5 C71,71.262 73.238,73.5 76,73.5 C78.762,73.5 81,71.262 81,68.5 C81,65.738 78.762,63.5 76,63.5 C74.598,63.5 73.334,64.081 72.426,65.011 L57.507,50.342 C58.635,49.059 59.446,47 59.799,46 L79.079,46 C79.565,49 82.475,51.75 86,51.75 C89.866,51.75 93,48.617 93,44.75 C93,40.884 89.866,37.75 86,37.75 Z"
            id="Shape"></path>
        </g>
    </g>
</svg>