<?xml version="1.0" encoding="UTF-8" ?>
<svg width="97px" height="101px" viewBox="0 0 97 101" version="1.1" xmlns="http://www.w3.org/2000/svg">
    <g id="Page-1" stroke="none" stroke-width="1" fill-rule="evenodd">
        <g id="network" transform="translate(-1.000000, 0.000000)" fill-rule="nonzero">
            <path d="M94.273,62.561 L89.862,36.491 C90.977,35.655 91.709,34.335 91.709,32.834 C91.709,30.303 89.657,28.251 87.125,28.251 C86.508,28.251 85.92,28.377 85.383,28.599 L72.105,14.91 C73.212,13.924 73.924,12.503 73.924,10.903 C73.924,7.932 71.519,5.524 68.545,5.524 C66.691,5.524 65.058,6.463 64.088,7.892 L42.86,3.369 C42.501,1.608 40.944,0.283 39.076,0.283 C36.942,0.283 35.214,2.012 35.214,4.145 C35.214,4.821 35.404,5.449 35.71,6.002 L18.896,23.405 C18.657,23.369 18.417,23.332 18.167,23.332 C15.498,23.332 13.334,25.496 13.334,28.166 C13.334,29.954 14.316,31.498 15.76,32.334 L7.01,54.818 C6.787,54.787 6.565,54.75 6.333,54.75 C3.664,54.75 1.5,56.914 1.5,59.584 C1.5,61.6 2.735,63.324 4.488,64.049 L4.162,87.48 C2.32,88.164 1,89.921 1,92.001 C1,94.671 3.164,96.835 5.833,96.835 C8.275,96.835 10.274,95.018 10.599,92.663 L50.677,90.014 C51.382,91.514 52.895,92.559 54.662,92.559 C55.683,92.559 56.609,92.2 57.357,91.618 L77.253,98.331 C77.918,99.493 79.156,100.285 80.591,100.285 C82.724,100.285 84.453,98.556 84.453,96.423 C84.453,96.155 84.427,95.898 84.374,95.646 L94.22,71.253 C96.341,70.931 97.97,69.115 97.97,66.903 C97.973,64.71 96.369,62.904 94.273,62.561 Z M51.657,39.797 L67.333,60 C66.87,60.561 66.521,61.205 66.309,61.918 L36.057,59.846 C35.875,59.401 35.618,58.999 35.319,58.632 L46.687,40.348 C47.284,40.55 47.92,40.665 48.585,40.665 C49.711,40.665 50.762,40.344 51.657,39.797 Z M53.641,37.81 C53.965,37.273 54.199,36.677 54.341,36.047 L82.799,34.284 C82.987,34.846 83.278,35.354 83.653,35.795 L72.047,58.029 C71.887,58.015 71.733,57.98 71.568,57.98 C70.857,57.98 70.183,58.126 69.56,58.371 L53.641,37.81 Z M65.459,15.297 C66.334,15.913 67.397,16.282 68.547,16.282 C68.92,16.282 69.286,16.243 69.639,16.171 L83.263,30.386 C82.993,30.811 82.792,31.282 82.674,31.785 L54.362,33.547 C54.192,32.733 53.867,31.975 53.399,31.32 L65.459,15.297 Z M42.395,6.091 L63.207,10.524 C63.197,10.652 63.168,10.774 63.168,10.903 C63.168,11.716 63.361,12.48 63.686,13.171 L51.354,29.522 C50.673,29.16 49.914,28.928 49.105,28.858 C48.835,28.816 48.56,28.793 48.278,28.793 C48.095,28.793 47.924,28.829 47.747,28.847 L41.208,7.362 C41.698,7.037 42.097,6.598 42.395,6.091 Z M37.964,7.824 C38.137,7.876 38.313,7.92 38.495,7.948 L45.148,29.771 C44.106,30.491 43.349,31.567 42.997,32.814 C42.967,32.9 42.937,32.985 42.911,33.073 L42.911,33.073 L22.92,27.378 C22.736,26.261 22.171,25.283 21.361,24.564 L37.964,7.824 Z M22.583,30.117 L42.761,35.767 C42.985,37.058 43.626,38.203 44.543,39.062 L33.291,57.159 C32.759,56.957 32.187,56.833 31.583,56.833 C31.46,56.833 31.345,56.859 31.225,56.869 L21.117,31.969 C21.746,31.48 22.257,30.853 22.583,30.117 Z M18.184,32.997 C18.402,32.997 18.61,32.962 18.82,32.933 L28.863,57.673 C27.945,58.3 27.274,59.242 26.959,60.336 L11.078,58.699 C10.86,57.523 10.212,56.511 9.311,55.802 L18.184,32.997 Z M8.293,87.859 C7.875,87.611 7.422,87.419 6.935,87.304 L7.236,64.325 C8.937,64.003 10.306,62.789 10.872,61.188 L26.912,62.84 C27.056,63.413 27.292,63.948 27.621,64.42 L8.293,87.859 Z M50.338,87.273 L10.182,89.925 C10.14,89.836 10.09,89.752 10.042,89.666 L29.536,66.028 C30.16,66.322 30.848,66.499 31.583,66.499 C32.021,66.499 32.436,66.422 32.839,66.313 L50.95,85.775 C50.661,86.227 50.446,86.729 50.338,87.273 Z M56.46,84.12 C55.91,83.874 55.305,83.73 54.663,83.73 C54.105,83.73 53.58,83.842 53.09,84.032 L35.199,64.844 C35.746,64.223 36.149,63.473 36.319,62.629 L66.184,64.676 C66.326,65.322 66.581,65.924 66.927,66.463 L56.46,84.12 Z M76.915,95.302 L58.925,89.231 C59.014,88.881 59.075,88.522 59.075,88.145 C59.076,87.358 58.853,86.629 58.492,85.991 L68.96,68.332 C69.74,68.754 70.618,69.016 71.566,69.016 C71.631,69.016 71.695,68.998 71.757,68.996 L78.736,93.052 C77.866,93.533 77.209,94.333 76.915,95.302 Z M82.447,93.052 C82.142,92.885 81.82,92.749 81.472,92.668 L74.412,68.203 C75.663,67.443 76.589,66.215 76.931,64.748 L89.5,68.635 C89.889,69.546 90.585,70.282 91.447,70.757 L82.447,93.052 Z M89.275,65.884 L76.85,61.99 C76.496,60.75 75.739,59.683 74.704,58.968 L85.999,37.261 C84.542,36.75 86.733,37.417 87.126,37.417 C87.161,37.417 87.194,37.407 87.23,37.407 L91.547,62.996 C90.419,63.579 89.575,64.62 89.275,65.884 Z"
            id="Shape"></path>
        </g>
    </g>
</svg>