<?xml version="1.0" encoding="UTF-8" ?>
<svg width="67px" height="65px" viewBox="0 0 67 65" version="1.1" xmlns="http://www.w3.org/2000/svg">
    <g id="Page-1" stroke="none" stroke-width="1" fill-rule="evenodd">
        <g id="networkCloud" fill-rule="nonzero">
            <g id="Group">
                <rect id="Rectangle-path" x="41.2" y="41.1" width="1.5" height="1.5"></rect>
                <rect id="Rectangle-path" x="37.9" y="41.1" width="1.5" height="1.5"></rect>
                <rect id="Rectangle-path" x="34.7" y="41.1" width="1.4" height="1.5"></rect>
                <rect id="Rectangle-path" x="24.5" y="41.1" width="6.9" height="1.5"></rect>
                <rect id="Rectangle-path" x="37.9" y="29.7" width="1.5" height="1.5"></rect>
                <rect id="Rectangle-path" x="41.2" y="29.7" width="1.5" height="1.5"></rect>
                <rect id="Rectangle-path" x="34.7" y="29.7" width="1.4" height="1.5"></rect>
                <rect id="Rectangle-path" x="24.5" y="29.7" width="6.9" height="1.5"></rect>
                <rect id="Rectangle-path" x="53" y="41.1" width="1.4" height="1.5"></rect>
                <rect id="Rectangle-path" x="56.2" y="41.1" width="1.5" height="1.5"></rect>
                <rect id="Rectangle-path" x="59.5" y="41.1" width="1.5" height="1.5"></rect>
                <path d="M66.3,34.6 L66.3,26.6 L57.6,26.6 C58.8,24.7 59.4,22.6 59.4,20.4 C59.4,14 54.2,8.7 47.7,8.7 C47,8.7 46,8.9 45.3,9 C43.9,4.1 39.3,0.6 34.1,0.6 C29.1,0.6 24.7,3.8 23.1,8.4 C22.3,8.1 21.6,8 20.8,8 C14.9,8 13.5,13.1 13.2,14.8 C9.7,15.8 7.2,19 7.2,22.7 C7.2,24.1 7.5,25.4 8.2,26.6 L0.7,26.6 L0.7,34.6 L4,34.6 L4,37.9 L0.7,37.9 L0.7,45.9 L9.2,45.9 L9.2,57.5 C7.6,57.8 6.4,59.3 6.4,60.9 C6.4,62.8 8,64.4 9.9,64.4 C11.6,64.4 13,63.2 13.3,61.6 L29.8,61.6 C30.1,63.2 31.6,64.4 33.2,64.4 C34.9,64.4 36.3,63.2 36.6,61.6 L53.4,61.6 C53.7,63.2 55.2,64.4 56.8,64.4 C58.7,64.4 60.3,62.8 60.3,60.9 C60.3,59.2 59.1,57.8 57.5,57.5 L57.5,45.9 L66,45.9 L66,37.9 L63,37.9 L63,34.6 L66.3,34.6 Z M64.8,33.1 L49.3,33.1 L49.3,28.1 L64.7,28.1 L64.7,33.1 L64.8,33.1 Z M2.3,28 L17.2,28 L17.2,33 L2.3,33 L2.3,28 Z M5.5,34.6 L14.3,34.6 L14.3,37.9 L5.5,37.9 L5.5,34.6 Z M2.3,39.4 L17.2,39.4 L17.2,44.4 L2.3,44.4 L2.3,39.4 Z M10,63 C8.9,63 8,62.1 8,61 C8,59.9 8.9,59 10,59 C11.1,59 12,59.9 12,61 C12,62.1 11.1,63 10,63 Z M33.3,63 C32.2,63 31.3,62.1 31.3,61 C31.3,59.9 32.2,59 33.3,59 C34.4,59 35.3,59.9 35.3,61 C35.3,62.1 34.4,63 33.3,63 Z M22.1,21.7 L22.1,16.7 L44.4,16.7 L44.4,21.7 L22.1,21.7 Z M41.1,23.2 L41.1,26.5 L25.4,26.5 L25.4,23.2 L41.1,23.2 Z M44.5,28 L44.5,33 L22.1,33 L22.1,28 L44.5,28 Z M41.1,34.5 L41.1,37.8 L25.4,37.8 L25.4,34.5 L41.1,34.5 Z M44.5,39.3 L44.5,44.3 L22.1,44.3 L22.1,39.3 L44.5,39.3 Z M59.1,61 C59.1,62.1 58.2,63 57.1,63 C56,63 55.1,62.1 55.1,61 C55.1,59.9 56,59 57.1,59 C58.2,58.9 59.1,59.8 59.1,61 Z M56.3,57.5 C55,57.8 53.9,58.9 53.6,60.2 L36.8,60.2 C36.5,58.9 35.4,57.8 34.1,57.5 L34.1,45.8 L46,45.8 L46,37.8 L42.7,37.8 L42.7,34.5 L46,34.5 L46,26.5 L42.7,26.5 L42.7,23.2 L46,23.2 L46,15.2 L20.6,15.2 L20.6,23.2 L23.9,23.2 L23.9,26.5 L20.6,26.5 L20.6,34.5 L23.9,34.5 L23.9,37.8 L20.6,37.8 L20.6,45.8 L32.5,45.8 L32.5,57.5 C31.2,57.8 30.1,58.9 29.8,60.2 L13.4,60.2 C13.1,58.9 12,57.8 10.7,57.5 L10.7,45.9 L18.7,45.9 L18.7,37.9 L15.9,37.9 L15.9,34.6 L18.7,34.6 L18.7,26.6 L10,26.6 C9.2,25.5 8.7,24.1 8.7,22.7 C8.7,19.6 10.9,16.8 14,16.2 L14.6,16.1 L14.6,15.5 C14.6,15.3 15.1,9.5 20.8,9.5 C21.5,9.5 22.1,9.6 22.7,9.8 C22.5,10.6 22.4,11.4 22.4,12.2 L23.9,12.2 C23.9,11.3 24,10.4 24.2,9.6 C25.5,5.1 29.5,2 34.1,2 C38.8,2 43,5.3 44,9.9 L44.2,10.6 L44.9,10.4 C45.4,10.3 46.9,10 47.7,10 C53.3,10 57.9,14.6 57.9,20.2 C57.9,22.5 57.1,24.7 55.8,26.4 L47.9,26.4 L47.9,34.4 L51.2,34.4 L51.2,37.7 L47.9,37.7 L47.9,45.7 L56.4,45.7 L56.4,57.5 L56.3,57.5 Z M64.8,44.4 L49.3,44.4 L49.3,39.4 L64.7,39.4 L64.7,44.4 L64.8,44.4 Z M61.5,37.9 L52.7,37.9 L52.7,34.6 L61.5,34.6 L61.5,37.9 Z"
                id="Shape"></path>
                <rect id="Rectangle-path" x="59.5" y="29.8" width="1.5" height="1.5"></rect>
                <rect id="Rectangle-path" x="56.2" y="29.8" width="1.5" height="1.5"></rect>
                <rect id="Rectangle-path" x="53" y="29.8" width="1.4" height="1.5"></rect>
                <rect id="Rectangle-path" x="6" y="41.1" width="1.4" height="1.5"></rect>
                <rect id="Rectangle-path" x="12.5" y="41.1" width="1.5" height="1.5"></rect>
                <rect id="Rectangle-path" x="9.2" y="41.1" width="1.5" height="1.5"></rect>
                <rect id="Rectangle-path" x="6" y="29.8" width="1.4" height="1.5"></rect>
                <rect id="Rectangle-path" x="12.5" y="29.8" width="1.5" height="1.5"></rect>
                <rect id="Rectangle-path" x="9.2" y="29.8" width="1.5" height="1.5"></rect>
                <rect id="Rectangle-path" x="37.9" y="18.4" width="1.5" height="1.5"></rect>
                <rect id="Rectangle-path" x="41.2" y="18.4" width="1.5" height="1.5"></rect>
                <rect id="Rectangle-path" x="34.7" y="18.4" width="1.4" height="1.5"></rect>
                <rect id="Rectangle-path" x="24.5" y="18.4" width="6.9" height="1.5"></rect>
            </g>
        </g>
    </g>
</svg>