<?xml version="1.0" encoding="UTF-8" ?>
<svg width="68px" height="76px" viewBox="0 0 68 76" version="1.1" xmlns="http://www.w3.org/2000/svg">
    <g id="Page-1" stroke="none" stroke-width="1" fill-rule="evenodd">
        <g id="openMind" transform="translate(-16.000000, 0.000000)" fill-rule="nonzero">
            <path d="M81.326,31.991 L83.863,16.522 C84.474,12.431 81.273,9.169 78.119,7.113 C73.32,3.983 67.531,2.399 61.933,1.469 C54.874,0.297 47.59,0.199 40.495,1.112 C34.612,1.869 28.579,3.304 23.364,6.219 C19.133,8.583 14.379,12.966 16.647,18.306 L20.176,31.879 C20.244,32.129 21.087,35.024 23.991,38.247 C22.873,41.347 23.113,44.849 24.4,47.855 L28.155,58.271 L46.193,75.5 L50.344,75.5 L52.406,75.5 L56.763,75.5 L74.59,58.473 L74.801,58.273 L79.11,46.318 L79.075,46.305 C80.452,41.585 78.843,37.897 78.721,37.633 L78.231,36.852 C80.418,34.282 81.246,32.202 81.326,31.991 Z M76.807,45.488 L76.791,45.482 L76.17,47.201 C74.994,49.755 72.649,52.586 68.209,55.279 L68.189,56.3 C69.779,55.335 72.416,55.432 73.562,54.431 L72.675,56.89 L55.775,73.035 L53.464,73.035 L56.423,66.167 L59.095,65.986 L58.863,64.984 L57.291,64.013 L58.535,61.079 C60.07,58.552 58.015,57.558 55.406,56.408 L55.205,56.861 C55.801,57.116 56.414,57.633 56.68,58.229 C57.168,59.33 56.053,60.438 55.403,61.203 C54.444,62.333 53.387,63.383 52.294,64.384 C51.36,65.24 50.534,66.177 49.183,65.474 C47.643,64.168 40.461,58.523 45.023,56.864 L44.73,56.197 C43.906,56.56 42.055,55.784 41.421,56.991 C41.421,56.991 37.998,57.103 34.599,55.188 C33.566,54.695 28.011,49.808 26.829,47.317 L26.168,45.483 L26.139,45.492 C25.638,43.738 25.656,42.19 25.829,41.003 C25.804,41.533 25.878,42.068 26.181,42.423 C28.766,46.081 34.133,47.805 38.242,48.726 C39.596,49.03 46.388,50.918 46.479,47.949 C46.516,46.748 45.581,45.533 44.82,44.679 C44.82,44.679 43.721,44.604 42.059,44.418 C25.779,41.925 22.684,31.675 22.561,31.244 L20.378,22.849 C23.954,25.668 28.418,27.317 32.781,28.455 C38.681,29.995 44.827,30.595 50.916,30.523 C56.873,30.454 62.877,29.739 68.607,28.075 C72.847,26.845 77.24,25.084 80.548,22.073 L78.982,31.211 C78.517,32.285 73.89,42.014 58.168,44.419 C56.514,44.605 55.418,44.678 55.418,44.678 C54.656,45.532 53.772,46.823 54.473,47.797 C56.862,51.11 62.135,49.487 63.491,49.184 C67.598,48.263 70.694,46.447 73.28,42.788 C73.676,42.324 74.458,41.186 74.36,40.52 C75.151,39.912 75.86,39.297 76.495,38.69 C76.746,39.256 77.812,41.964 76.807,45.488 Z"
            id="Shape"></path>
        </g>
    </g>
</svg>