<?xml version="1.0" encoding="UTF-8" ?>
<svg width="75px" height="79px" viewBox="0 0 75 79" version="1.1" xmlns="http://www.w3.org/2000/svg">
    <g id="Page-1" stroke="none" stroke-width="1" fill-rule="evenodd">
        <g id="outdoors" transform="translate(-11.000000, 0.000000)" fill-rule="nonzero">
            <g id="Group" transform="translate(11.000000, 0.000000)">
                <path d="M74,43.8 L71.5,43.8 L48.8,7.4 C48.4,6.8 47.5,6.8 47.1,7.4 L41.8,16 L32.2,0.6 C31.8,2.22044605e-15 30.9,2.22044605e-15 30.5,0.6 L3.7,43.8 L1.8,43.8 C1.2,43.8 0.8,44.2 0.8,44.8 C0.8,45.4 1.2,45.8 1.8,45.8 L74,45.8 C74.6,45.8 75,45.4 75,44.8 C75,44.2 74.5,43.8 74,43.8 Z M59.1,43.8 L46.3,23.1 L47.2,21.9 L48.5,23.5 C48.7,23.7 49,23.9 49.3,23.9 C49.6,23.9 49.9,23.8 50.1,23.5 L51.4,21.9 L52.7,23.5 C53.1,24 53.9,24 54.3,23.5 L55.6,21.8 L69.2,43.7 L59.1,43.7 L59.1,43.8 Z M48,9.8 L54.4,20.1 L53.4,21.3 L52.1,19.7 C51.9,19.5 51.6,19.3 51.3,19.3 L51.3,19.3 C51,19.3 50.7,19.4 50.5,19.7 L49.2,21.3 L48,19.7 C47.6,19.2 46.8,19.2 46.4,19.7 L45.1,21.3 L43,17.8 L48,9.8 Z M31.4,3 L39.8,16.5 L37.7,19.2 L35.3,16.2 C35.1,16 34.8,15.8 34.5,15.8 L34.5,15.8 C34.2,15.8 33.9,15.9 33.7,16.2 L31.3,19.2 L28.9,16.2 C28.5,15.7 27.7,15.7 27.3,16.2 L24.9,19.2 L23,16.5 L31.4,3 Z M21.9,18.3 L24.3,21.4 C24.7,21.9 25.5,21.9 25.9,21.4 L28.3,18.4 L30.7,21.4 C30.9,21.6 31.2,21.8 31.5,21.8 C31.8,21.8 32.1,21.7 32.3,21.4 L34.7,18.4 L37.1,21.4 C37.3,21.6 37.6,21.8 37.9,21.8 C38.2,21.8 38.5,21.7 38.7,21.4 L41.2,18.3 L57,43.8 L6.1,43.8 L21.9,18.3 Z"
                id="Shape"></path>
                <path d="M74,52.1 C73.4,52.1 73,52.5 73,53.1 C73,55.4 71.1,57.3 68.8,57.3 C66.5,57.3 64.6,55.4 64.6,53.1 C64.6,52.5 64.2,52.1 63.6,52.1 C63,52.1 62.6,52.5 62.6,53.1 C62.6,55.4 60.7,57.3 58.4,57.3 C56.1,57.3 54.2,55.4 54.2,53.1 C54.2,52.5 53.8,52.1 53.2,52.1 C52.6,52.1 52.2,52.5 52.2,53.1 C52.2,55.4 50.3,57.3 48,57.3 C45.7,57.3 43.8,55.4 43.8,53.1 C43.8,52.5 43.4,52.1 42.8,52.1 C42.2,52.1 41.8,52.5 41.8,53.1 C41.8,55.4 39.9,57.3 37.6,57.3 C35.3,57.3 33.4,55.4 33.4,53.1 C33.4,52.5 33,52.1 32.4,52.1 C31.8,52.1 31.4,52.5 31.4,53.1 C31.4,55.4 29.5,57.3 27.2,57.3 C24.9,57.3 23,55.4 23,53.1 C23,52.5 22.6,52.1 22,52.1 C21.4,52.1 21,52.5 21,53.1 C21,55.4 19.1,57.3 16.8,57.3 C14.5,57.3 12.6,55.4 12.6,53.1 C12.6,52.5 12.2,52.1 11.6,52.1 C11,52.1 10.6,52.5 10.6,53.1 C10.6,55.4 8.7,57.3 6.4,57.3 C4.1,57.3 2.2,55.4 2.2,53.1 C2.2,52.5 1.8,52.1 1.2,52.1 C0.6,52.1 0.2,52.5 0.2,53.1 C0.2,56.5 3,59.3 6.4,59.3 C8.6,59.3 10.5,58.2 11.6,56.5 C12.7,58.2 14.6,59.3 16.8,59.3 C19,59.3 20.9,58.2 22,56.5 C23.1,58.2 25,59.3 27.2,59.3 C29.4,59.3 31.3,58.2 32.4,56.5 C33.5,58.2 35.4,59.3 37.6,59.3 C39.8,59.3 41.7,58.2 42.8,56.5 C43.9,58.2 45.8,59.3 48,59.3 C50.2,59.3 52.1,58.2 53.2,56.5 C54.3,58.2 56.2,59.3 58.4,59.3 C60.6,59.3 62.5,58.2 63.6,56.5 C64.7,58.2 66.6,59.3 68.8,59.3 C72.2,59.3 75,56.5 75,53.1 C75,52.5 74.5,52.1 74,52.1 Z"
                id="Shape"></path>
                <path d="M74,61.8 C73.4,61.8 73,62.2 73,62.8 C73,65.1 71.1,67 68.8,67 C66.5,67 64.6,65.1 64.6,62.8 C64.6,62.2 64.2,61.8 63.6,61.8 C63,61.8 62.6,62.2 62.6,62.8 C62.6,65.1 60.7,67 58.4,67 C56.1,67 54.2,65.1 54.2,62.8 C54.2,62.2 53.8,61.8 53.2,61.8 C52.6,61.8 52.2,62.2 52.2,62.8 C52.2,65.1 50.3,67 48,67 C45.7,67 43.8,65.1 43.8,62.8 C43.8,62.2 43.4,61.8 42.8,61.8 C42.2,61.8 41.8,62.2 41.8,62.8 C41.8,65.1 39.9,67 37.6,67 C35.3,67 33.4,65.1 33.4,62.8 C33.4,62.2 33,61.8 32.4,61.8 C31.8,61.8 31.4,62.2 31.4,62.8 C31.4,65.1 29.5,67 27.2,67 C24.9,67 23,65.1 23,62.8 C23,62.2 22.6,61.8 22,61.8 C21.4,61.8 21,62.2 21,62.8 C21,65.1 19.1,67 16.8,67 C14.5,67 12.6,65.1 12.6,62.8 C12.6,62.2 12.2,61.8 11.6,61.8 C11,61.8 10.6,62.2 10.6,62.8 C10.6,65.1 8.7,67 6.4,67 C4.1,67 2.2,65.1 2.2,62.8 C2.2,62.2 1.8,61.8 1.2,61.8 C0.6,61.8 0.2,62.2 0.2,62.8 C0.2,66.2 3,69 6.4,69 C8.6,69 10.5,67.9 11.6,66.2 C12.7,67.9 14.6,69 16.8,69 C19,69 20.9,67.9 22,66.2 C23.1,67.9 25,69 27.2,69 C29.4,69 31.3,67.9 32.4,66.2 C33.5,67.9 35.4,69 37.6,69 C39.8,69 41.7,67.9 42.8,66.2 C43.9,67.9 45.8,69 48,69 C50.2,69 52.1,67.9 53.2,66.2 C54.3,67.9 56.2,69 58.4,69 C60.6,69 62.5,67.9 63.6,66.2 C64.7,67.9 66.6,69 68.8,69 C72.2,69 75,66.2 75,62.8 C75,62.2 74.5,61.8 74,61.8 Z"
                id="Shape"></path>
                <path d="M74,71.5 C73.4,71.5 73,71.9 73,72.5 C73,74.8 71.1,76.7 68.8,76.7 C66.5,76.7 64.6,74.8 64.6,72.5 C64.6,71.9 64.2,71.5 63.6,71.5 C63,71.5 62.6,71.9 62.6,72.5 C62.6,74.8 60.7,76.7 58.4,76.7 C56.1,76.7 54.2,74.8 54.2,72.5 C54.2,71.9 53.8,71.5 53.2,71.5 C52.6,71.5 52.2,71.9 52.2,72.5 C52.2,74.8 50.3,76.7 48,76.7 C45.7,76.7 43.8,74.8 43.8,72.5 C43.8,71.9 43.4,71.5 42.8,71.5 C42.2,71.5 41.8,71.9 41.8,72.5 C41.8,74.8 39.9,76.7 37.6,76.7 C35.3,76.7 33.4,74.8 33.4,72.5 C33.4,71.9 33,71.5 32.4,71.5 C31.8,71.5 31.4,71.9 31.4,72.5 C31.4,74.8 29.5,76.7 27.2,76.7 C24.9,76.7 23,74.8 23,72.5 C23,71.9 22.6,71.5 22,71.5 C21.4,71.5 21,71.9 21,72.5 C21,74.8 19.1,76.7 16.8,76.7 C14.5,76.7 12.6,74.8 12.6,72.5 C12.6,71.9 12.2,71.5 11.6,71.5 C11,71.5 10.6,71.9 10.6,72.5 C10.6,74.8 8.7,76.7 6.4,76.7 C4.1,76.7 2.2,74.8 2.2,72.5 C2.2,71.9 1.8,71.5 1.2,71.5 C0.6,71.5 0.2,71.9 0.2,72.5 C0.2,75.9 3,78.7 6.4,78.7 C8.6,78.7 10.5,77.6 11.6,75.9 C12.7,77.6 14.6,78.7 16.8,78.7 C19,78.7 20.9,77.6 22,75.9 C23.1,77.6 25,78.7 27.2,78.7 C29.4,78.7 31.3,77.6 32.4,75.9 C33.5,77.6 35.4,78.7 37.6,78.7 C39.8,78.7 41.7,77.6 42.8,75.9 C43.9,77.6 45.8,78.7 48,78.7 C50.2,78.7 52.1,77.6 53.2,75.9 C54.3,77.6 56.2,78.7 58.4,78.7 C60.6,78.7 62.5,77.6 63.6,75.9 C64.7,77.6 66.6,78.7 68.8,78.7 C72.2,78.7 75,75.9 75,72.5 C75,71.9 74.5,71.5 74,71.5 Z"
                id="Shape"></path>
            </g>
        </g>
    </g>
</svg>