<?xml version="1.0" encoding="UTF-8" ?>
<svg width="30px" height="30px" viewBox="0 0 30 30" version="1.1" xmlns="http://www.w3.org/2000/svg">
    <g id="Page-1" stroke="none" stroke-width="1" fill-rule="evenodd">
        <g id="employee" transform="translate(-1.000000, -1.000000)" fill-rule="nonzero">
            <g id="Group" transform="translate(1.000000, 0.637800)">
                <g id="Shape">
                    <path d="M15,0.3622 C14.323839,0.3522 14.323839,1.3718 15,1.3622 C20.663866,1.3622 25.766109,4.7720781 27.933594,10.004778 C30.101075,15.237578 28.905366,21.257591 24.900391,25.262591 C20.895428,29.267591 14.87532,30.465147 9.642578,28.297747 C4.409834,26.130247 0.9999936,21.0261 1,15.3622 C1.00956,14.686 -0.0095626,14.686 0,15.3622 C-6.88e-06,21.4277 3.6559996,26.900375 9.259766,29.221575 C14.863528,31.542775 21.318492,30.258522 25.607422,25.969622 C29.896365,21.680622 31.178586,15.225766 28.857422,9.621966 C26.536254,4.0182656 21.065456,0.3622 15,0.3622 Z M14.990234,2.3602469 C14.617265,2.3606313 14.245697,2.3788531 13.876953,2.4110281 C9.452026,2.7968281 5.3980964,5.4425 3.3417969,9.6122 C0.6000674,15.1719 2.1699469,21.902953 7.0878906,25.676653 C12.005808,29.450253 18.911677,29.222837 23.572266,25.135638 C28.232886,21.048338 29.359258,14.2307 26.259766,8.8622 C25.926433,8.2841 25.059245,8.7842 25.392578,9.3622 C28.256603,14.3228 27.218664,20.606984 22.912109,24.383684 C18.605584,28.160384 12.239617,28.368631 7.6953125,24.881731 C3.1509835,21.394731 1.7048402,15.192859 4.2382812,10.055559 C6.7717254,4.9183594 12.574641,2.2879031 18.107422,3.7704031 C18.776431,3.9883031 19.053785,2.9503594 18.365234,2.8055594 C17.242548,2.5047344 16.109142,2.3590937 14.990234,2.3602469 Z M15,4.3622 C14.323839,4.3522 14.323839,5.3718 15,5.3622 C19.856258,5.3622 24.006331,8.8433719 24.849609,13.625872 C25.692899,18.408372 22.985272,23.097784 18.421875,24.758684 C13.85848,26.419584 8.7679642,24.5679 6.3398438,20.3622 C6.016826,19.7483 5.1040083,20.2762 5.4746094,20.8622 C8.1420554,25.4824 13.75049,27.522737 18.763672,25.698138 C23.776856,23.873438 26.760392,18.705844 25.833984,13.452044 C24.907589,8.1981438 20.334911,4.3622 15,4.3622 Z M14.869141,6.3622 C12.572757,6.3963824 10.325239,7.3104312 8.6367188,8.9989188 C6.0637602,11.571919 5.2930759,15.443759 6.6855469,18.805559 C8.0780236,22.167259 11.361273,24.3622 15,24.3622 C15.676161,24.3722 15.676161,23.3526 15,23.3622 C11.762864,23.3622 8.8481701,21.413447 7.609375,18.422747 C6.370585,15.432047 7.0547578,11.99495 9.34375,9.70595 C11.632764,7.41695 15.071791,6.732775 18.0625,7.971575 C21.053197,9.210375 22.999971,12.1251 23,15.3622 C22.9904,16.0384 24.009563,16.0384 24,15.3622 C23.999967,11.7235 21.807028,8.4401469 18.445312,7.0477469 C17.604881,6.6996469 16.731546,6.4866156 15.855469,6.4032156 C15.52694,6.3719531 15.197195,6.3573168 14.869141,6.3622 Z M14.099609,9.641497 C14.025871,9.643897 13.963362,9.666606 13.917969,9.741106 C13.517206,9.874706 13.089625,9.998737 12.880859,10.323138 C12.586013,10.747437 12.456776,11.377225 12.333984,11.815325 L12.332031,11.825091 C12.21156,12.278791 12.108588,12.732734 11.996094,13.102434 C11.883599,13.472134 11.741543,13.750791 11.669922,13.825091 L11.455078,14.039934 C11.231599,14.264934 11.271316,14.638419 11.537109,14.811419 L11.8125,14.991106 L11.826172,15.000872 C12.290834,15.282072 12.768204,15.471584 13.251953,15.633684 C13.215273,15.829284 13.173363,15.999131 12.996094,16.194231 C12.755819,16.443731 12.401258,16.701622 12,16.969622 C11.5897,17.242722 11.122855,17.546438 10.736328,17.948138 C10.327728,18.354338 10,18.922834 10,19.602434 L10,19.8622 C10.000028,20.1383 10.223869,20.3622 10.5,20.3622 L10.761719,20.3622 L19.238281,20.3622 L19.5,20.3622 C19.776131,20.3622 19.999972,20.1383 20,19.8622 L20,19.602434 C20,18.911634 19.649597,18.358456 19.267578,17.959856 L19.259766,17.948138 C18.872932,17.561737 18.435412,17.257169 18.021484,16.967669 L18.013672,16.957903 C17.608677,16.687803 17.239184,16.426613 17.003906,16.182512 C16.810553,15.969712 16.758495,15.803528 16.736328,15.598528 C17.201707,15.441828 17.665447,15.258716 18.117188,14.965716 L18.375,14.805559 C18.646617,14.634159 18.688554,14.254816 18.460938,14.028216 L18.246094,13.813372 C18.151374,13.715372 18.005251,13.430459 17.880859,13.055559 C17.756468,12.680659 17.639313,12.222744 17.496094,11.764544 C17.355366,11.314244 17.192529,10.832681 16.863281,10.412981 C16.533619,9.974681 15.989818,9.649409 15.337891,9.649309 L14.345703,9.649309 L14.345703,9.657122 C14.258316,9.657022 14.173348,9.639097 14.099609,9.641497 Z M14.345703,10.651262 L14.345703,10.657122 L15.337891,10.657122 C15.676694,10.657122 15.899999,10.800056 16.066406,11.022356 L16.074219,11.032122 C16.264254,11.272522 16.406967,11.642284 16.541016,12.071184 C16.673497,12.495084 16.790707,12.955078 16.931641,13.379778 C17.036692,13.696378 17.199378,13.963634 17.375,14.227434 C16.972523,14.466734 16.573759,14.671163 16.185547,14.776262 C16.153877,14.786262 16.12313,14.796419 16.09375,14.811419 C16.02115,14.847419 15.894688,14.929219 15.810547,15.061419 C15.726407,15.193719 15.691406,15.354431 15.691406,15.506731 C15.691406,16.045031 15.938516,16.5045 16.263672,16.8622 L16.271484,16.871966 C16.614798,17.231766 17.041156,17.519047 17.458984,17.797747 L17.449219,17.787981 C17.860071,18.075381 18.247028,18.349209 18.548828,18.649309 C18.756494,18.866509 18.82241,19.111094 18.884766,19.358294 L11.111328,19.358294 C11.171598,19.103494 11.238189,18.850697 11.447266,18.641497 L11.453125,18.631731 C11.726828,18.346631 12.139373,18.068287 12.554688,17.791888 L12.556641,17.791888 C12.978408,17.510187 13.390442,17.220306 13.728516,16.866106 L13.736328,16.854388 C14.061678,16.496288 14.304069,16.038972 14.322266,15.500872 C14.323107,15.473872 14.321796,15.447794 14.318359,15.420794 C14.310359,15.358794 14.305563,15.246928 14.220703,15.098528 C14.135843,14.950228 13.965122,14.835734 13.830078,14.789934 C13.821678,14.789934 13.813238,14.780169 13.804688,14.780169 C13.379565,14.660769 12.95997,14.455216 12.535156,14.215716 C12.702687,13.956216 12.857508,13.694078 12.953125,13.379778 C13.081221,12.958778 13.183656,12.500237 13.296875,12.073138 L13.298828,12.073138 C13.420908,11.638338 13.54115,11.265575 13.705078,11.034075 C13.709778,11.024075 13.71438,11.021544 13.71875,11.014544 C13.865716,10.784944 14.054009,10.651262 14.345703,10.651262 Z M16.552734,15.692278 C16.549034,15.692278 16.539449,15.70495 16.537109,15.70595 L16.445312,15.741106 C16.481672,15.731106 16.516444,15.703278 16.552734,15.692278 Z"></path>
                </g>
            </g>
        </g>
    </g>
</svg>