<?xml version="1.0" encoding="UTF-8" ?>
<svg width="48px" height="37px" viewBox="0 0 48 37" version="1.1" xmlns="http://www.w3.org/2000/svg">
    <g id="Page-1" stroke="none" stroke-width="1" fill-rule="evenodd">
        <g id="brainstorm" transform="translate(-8.000000, -14.000000)" fill-rule="nonzero">
            <g id="Group" transform="translate(8.000000, 14.000000)">
                <path d="M47.7119141,17.2773438 L45.4291993,14.0375977 C45.4775391,13.9047852 45.5458985,13.7939454 45.6259766,13.6640625 C45.7924805,13.3945312 46,13.059082 46,12.5 C46,5.6074219 40.3925781,0 33.5,0 C29.765625,0 26.6991577,0.914978 24.435791,2.6079712 C22.0523682,0.873291 18.7471313,0 14.5297852,0 C7.6372071,0 2.0297852,5.6074219 2.0297852,12.5 C2.0297852,13.059082 2.2373047,13.3950195 2.4038086,13.6645508 C2.4833984,13.7939453 2.5517578,13.9047852 2.6005859,14.0375977 L0.3173828,17.2773438 C-0.0556641,17.8066407 -0.1020508,18.4931641 0.196289,19.0678711 C0.4946289,19.6430664 1.0820312,20 1.7294922,20 L2.1416016,20 C2.1899414,20 2.2182618,20.0263672 2.2333985,20.0483398 C2.2485352,20.0703124 2.2626954,20.105957 2.2456055,20.1508789 L1.4794922,22.1547851 C1.40625,22.3457031 1.456543,22.5610351 1.605957,22.7001953 L2.0346679,23.0976562 L1.7114257,23.3642578 C1.5146484,23.5268555 1.4716796,23.8115234 1.6123046,24.0249023 L2.6640624,25.6220703 C2.7963866,25.8232422 2.7807616,26.0927734 2.6254882,26.2773437 L2.2915038,26.6762695 C1.8188476,27.2397461 1.755371,28.0419922 2.133789,28.6728515 C2.4018554,29.1210937 2.8530273,29.4199218 3.3852538,29.4956054 L6.6904296,29.8701171 C7.6079101,29.9746093 8.4511718,30.458496 9.0039062,31.1977538 C9.4487304,31.7934569 9.6860351,32.529785 9.671875,33.2719726 L9.612793,36.4907226 C9.6103516,36.6249999 9.6621094,36.7543945 9.7558594,36.8500976 C9.8500977,36.9462891 9.9785156,37 10.112793,37 L23.0297852,37 C23.166504,37 23.2973633,36.9438477 23.3920899,36.8447266 C23.4863282,36.7456055 23.5356446,36.6123047 23.5292969,36.475586 L23.0180664,25.9838868 C22.9780273,25.241211 23.2143555,24.5146485 23.6835937,23.9389649 C23.8437499,23.7421876 24.0444335,23.5576172 24.2792968,23.3901368 C24.7591552,23.048401 25.1926269,22.6632081 25.6037597,22.2586671 C25.7905883,22.3947755 25.9633788,22.5408937 26.1582031,22.6708985 C27.3378906,23.4462891 28.03125,24.8046876 27.9667969,26.2153321 L27.5004883,36.4775391 C27.4941406,36.6137696 27.5439453,36.7465821 27.6386719,36.8452149 C27.7329102,36.9443359 27.8632812,37 28,37 L37.9165039,37 C38.0507812,37 38.1791992,36.9462891 38.2734375,36.8500977 C38.3671875,36.7543946 38.4189453,36.625 38.4165039,36.4907227 L38.3574219,33.2719727 C38.34375,32.5292969 38.5810547,31.7924805 39.0258789,31.1977539 C39.5786133,30.4584961 40.421875,29.9746094 41.3393555,29.8701172 L44.6591797,29.4941406 C45.1762695,29.4199218 45.6269531,29.1210937 45.8959961,28.6733398 C46.2749023,28.0419921 46.2109375,27.2392578 45.7382813,26.6762695 L45.4033204,26.2773437 C45.2490235,26.0927734 45.2333985,25.8232421 45.3657227,25.6220703 L46.4174805,24.0249023 C46.5581055,23.8115234 46.5151367,23.5268554 46.3183594,23.3642578 L45.9951172,23.0976562 L46.4238281,22.7001953 C46.5732422,22.5610351 46.6235351,22.3457031 46.5502929,22.1547851 L45.7841796,20.1508789 C45.7670898,20.1054687 45.7812499,20.0698242 45.7963866,20.0483398 C45.8115234,20.0263672 45.8398438,20 45.8881836,20 L46.2998047,20 C46.9477539,20 47.5356445,19.6425781 47.8334961,19.0673828 C48.1318359,18.4926758 48.0849609,17.8066406 47.7119141,17.2773438 Z M23.6992188,22.5756836 C23.3916016,22.7949219 23.1254883,23.0410156 22.9082032,23.3071289 C22.2817384,24.0761719 21.9663087,25.0458984 22.019043,26.0351562 L22.5048828,36 L10.6220703,36 L10.671875,33.2905273 C10.6899414,32.3276367 10.3818359,31.3720703 9.8046875,30.5991211 C9.0874023,29.6396484 7.9936523,29.0117188 6.8027344,28.8769531 L3.5122071,28.5039062 C3.2939454,28.4731445 3.104004,28.3471679 2.991211,28.1586914 C2.8320313,27.8935547 2.8583985,27.5556641 3.0576172,27.3188476 L3.3916016,26.9204101 C3.8286133,26.3999023 3.8730469,25.6401367 3.4990235,25.0722656 L2.694336,23.8500976 L3.1118165,23.505371 C3.2231446,23.4135741 3.2890626,23.2783202 3.2934571,23.1342772 C3.2973633,22.9902342 3.2392579,22.8510741 3.1337891,22.7529295 L2.5336914,22.1967772 L3.1791992,20.5083006 C3.3100586,20.166992 3.2646484,19.7827147 3.0571289,19.4814451 C2.8496094,19.1801755 2.5073242,19 2.1416016,19 L1.7294922,19 C1.4526367,19 1.2114258,18.8530273 1.0839844,18.6074219 C0.956543,18.3618165 0.975586,18.0795899 1.1347656,17.8535157 L4.0034179,13.7832032 C4.1625976,13.5576173 4.1083984,13.2456055 3.8828124,13.0864259 C3.6850585,12.9472657 3.4194335,12.9716798 3.2504882,13.1323243 C3.112793,12.909668 3.0297852,12.7724609 3.0297852,12.5 C3.0297852,6.1586914 8.1884766,1 14.5297852,1 C18.414856,1 21.4390259,1.7543945 23.6361695,3.2684937 C21.2838745,5.4164429 20,8.5565796 20,12.5 C20,15.8253784 21.7658691,19.1541138 24.7963257,21.6583862 C24.4537964,21.9855957 24.0922852,22.2957764 23.6992188,22.5756836 Z M28.0297852,13.5 C28.0297852,16.4342041 27.1384888,18.9952393 25.4887085,20.930542 C22.6557617,18.612793 21,15.5459595 21,12.5 C21,8.8164062 22.2295532,5.8986816 24.4716797,3.9208374 C26.8487549,5.9916992 28.0297852,9.1680908 28.0297852,13.5 Z M46.9458008,18.6074219 C46.8183594,18.8530273 46.5766602,19 46.2998047,19 L45.8881836,19 C45.5219727,19 45.1796875,19.1801758 44.9726563,19.4814453 C44.7651368,19.7827148 44.7197266,20.1665039 44.850586,20.5083008 L45.4960938,22.1967774 L44.8959961,22.7529297 C44.7905273,22.8510742 44.7324219,22.9902344 44.7363281,23.1342774 C44.7407226,23.2783204 44.8066406,23.4135743 44.9179687,23.5053712 L45.3354492,23.8500978 L44.5307617,25.0722658 C44.1567383,25.6396486 44.2006836,26.3999025 44.637207,26.919922 L44.9721679,27.3193361 C45.1708984,27.5556642 45.1977538,27.8935549 45.0385741,28.1586916 C44.9252929,28.3471682 44.7353514,28.4731447 44.5322264,28.5024416 L41.2270506,28.8769533 C40.0366209,29.0117189 38.9423826,29.6396486 38.2250975,30.5991213 C37.6479491,31.3706057 37.3398436,32.3266604 37.3574217,33.2905275 L37.4072266,36 L28.5234375,36 L28.9658203,26.2607422 C29.0463867,24.4995117 28.1806641,22.803711 26.7099609,21.8369141 C26.5652465,21.7403565 26.4379882,21.6312867 26.2980346,21.531189 C28.0744018,19.4240723 29.0297851,16.6560059 29.0297851,13.5 C29.0297851,8.9484863 27.763977,5.5429077 25.2628784,3.2879639 C27.3428955,1.8026123 30.1264038,1 33.5,1 C39.8413086,1 45,6.1586914 45,12.5 C45,12.7724609 44.9169922,12.9091797 44.7792969,13.1323242 C44.6098633,12.9711914 44.3442383,12.9467773 44.1469727,13.0864258 C43.9213868,13.2456055 43.8671875,13.5576172 44.0263672,13.7832031 L46.8945313,17.8535156 C47.0541992,18.0795898 47.0732422,18.3613281 46.9458008,18.6074219 Z"
                id="Shape"></path>
                <path d="M42.0668945,13.5463867 C41.9853515,13.527832 40.0688476,13.1088867 38.762207,14.4624023 C38.5703125,14.6611328 38.5761718,14.977539 38.7749023,15.1694335 C38.8720703,15.2631835 38.9970703,15.3095702 39.1220703,15.3095702 C39.2529297,15.3095702 39.3837891,15.2583007 39.4819336,15.1567382 C40.0991211,14.5161132 40.9643555,14.4521484 41.4555664,14.4765624 L41.4555664,14.5805663 C41.4555664,14.8569335 41.6791992,15.0805663 41.9555664,15.0805663 C42.2319336,15.0805663 42.4555664,14.8569335 42.4555664,14.5805663 L42.4555664,14.0336913 C42.4555664,13.800293 42.2944336,13.5981445 42.0668945,13.5463867 Z"
                id="Shape"></path>
                <path d="M36.0722656,27.1547852 C34.2495117,27.1547852 33.1992187,25.2797852 33.1889648,25.2607422 C33.0571289,25.019043 32.7548828,24.9306641 32.5107421,25.0615234 C32.2690429,25.1933593 32.1791991,25.4956054 32.3105468,25.7382812 C32.3637695,25.836914 33.6474609,28.1547851 36.0722656,28.1547851 C36.3486328,28.1547851 36.5722656,27.9311523 36.5722656,27.6547851 C36.5722656,27.3784179 36.3486328,27.1547852 36.0722656,27.1547852 Z"
                id="Shape"></path>
                <path d="M5.9628906,13.5463867 C5.7353515,13.5981445 5.5742187,13.8002929 5.5742187,14.0336914 L5.5742187,14.5805664 C5.5742187,14.8569336 5.7978515,15.0805664 6.0742187,15.0805664 C6.3505859,15.0805664 6.5742187,14.8569336 6.5742187,14.5805664 L6.5742187,14.4765625 C7.0737304,14.4580078 7.9311523,14.5180664 8.5478515,15.1567383 C8.645996,15.2583008 8.7768554,15.3095703 8.9077148,15.3095703 C9.0327148,15.3095703 9.1577148,15.2631836 9.2548828,15.1694336 C9.4536133,14.9775391 9.4594726,14.6611328 9.2675781,14.4624024 C7.9609375,13.1088867 6.0444336,13.527832 5.9628906,13.5463867 Z"
                id="Shape"></path>
                <path d="M15.5180664,25.0605469 C15.2753906,24.9282227 14.9716797,25.019043 14.840332,25.2617188 C14.8300781,25.2807618 13.793457,27.1547852 11.9575195,27.1547852 C11.6811523,27.1547852 11.4575195,27.378418 11.4575195,27.6547852 C11.4575195,27.9311524 11.6811523,28.1547852 11.9575195,28.1547852 C14.3823242,28.1547852 15.6660156,25.8369141 15.7192383,25.7382813 C15.8510742,25.4956055 15.7607422,25.1918945 15.5180664,25.0605469 Z"
                id="Shape"></path>
            </g>
        </g>
    </g>
</svg>