<?xml version="1.0" encoding="UTF-8" ?>
<svg width="78px" height="79px" viewBox="0 0 78 79" version="1.1" xmlns="http://www.w3.org/2000/svg">
    <g id="Page-1" stroke="none" stroke-width="1" fill-rule="evenodd">
        <g id="buildings" transform="translate(-11.000000, 0.000000)" fill-rule="nonzero">
            <g id="Group" transform="translate(11.000000, 0.000000)">
                <path d="M1.6,78.3 L76.7,78.3 C77.3,78.3 77.7,77.9 77.7,77.3 C77.7,76.7 77.3,76.3 76.7,76.3 L74.6,76.3 L74.6,19.9 C74.6,19.3 74.2,18.9 73.6,18.9 L55.7,18.9 C55.1,18.9 54.7,19.3 54.7,19.9 L54.7,35.5 L53.8,35.5 C53.6,33.8 52.7,32.4 51.6,31.7 C51.5,29.6 50.3,27.7 48.9,27.7 L48.2,27.7 L48.2,22.1 C48.2,21.5 47.8,21.1 47.2,21.1 C46.6,21.1 46.2,21.5 46.2,22.1 L46.2,27.7 L45.5,27.7 C44.1,27.7 42.9,29.6 42.8,31.7 C41.7,32.4 40.8,33.8 40.6,35.5 L39.7,35.5 L39.7,29.1 C39.7,28.5 39.3,28.1 38.7,28.1 L23.5,28.1 L23.5,19.9 C23.5,19.3 23.1,18.9 22.5,18.9 L4.7,18.9 C4.1,18.9 3.7,19.3 3.7,19.9 L3.7,76.2 L1.6,76.2 C1,76.2 0.6,76.6 0.6,77.2 C0.6,77.8 1.1,78.3 1.6,78.3 Z M56.7,20.9 L72.5,20.9 L72.5,76.2 L56.7,76.2 L56.7,20.9 Z M45.5,29.8 L48.8,29.8 C49,29.9 49.4,30.5 49.5,31.2 L44.8,31.2 C45,30.4 45.3,29.9 45.5,29.8 Z M44.3,33.2 L50,33.2 C50.5,33.2 51.5,34.2 51.8,35.6 L42.5,35.6 C42.8,34.2 43.8,33.2 44.3,33.2 Z M54.7,37.6 L54.6,76.3 L39.7,76.3 L39.7,37.6 L54.7,37.6 Z M37.7,30.2 L37.7,36.6 L37.7,76.3 L23.5,76.3 L23.5,30.2 L37.7,30.2 Z M5.7,20.9 L21.5,20.9 L21.5,29.1 L21.5,76.2 L5.7,76.2 L5.7,20.9 Z"
                id="Shape"></path>
                <path d="M68.9,30 C69.5,30 69.9,29.6 69.9,29 L69.9,25.9 C69.9,25.3 69.5,24.9 68.9,24.9 C68.3,24.9 67.9,25.3 67.9,25.9 L67.9,29 C67.9,29.6 68.3,30 68.9,30 Z"
                id="Shape"></path>
                <path d="M64.5,30 C65.1,30 65.5,29.6 65.5,29 L65.5,25.9 C65.5,25.3 65.1,24.9 64.5,24.9 C63.9,24.9 63.5,25.3 63.5,25.9 L63.5,29 C63.5,29.6 63.9,30 64.5,30 Z"
                id="Shape"></path>
                <path d="M60.1,30 C60.7,30 61.1,29.6 61.1,29 L61.1,25.9 C61.1,25.3 60.7,24.9 60.1,24.9 C59.5,24.9 59.1,25.3 59.1,25.9 L59.1,29 C59.1,29.6 59.5,30 60.1,30 Z"
                id="Shape"></path>
                <path d="M68.9,38.1 C69.5,38.1 69.9,37.7 69.9,37.1 L69.9,34 C69.9,33.4 69.5,33 68.9,33 C68.3,33 67.9,33.4 67.9,34 L67.9,37.1 C67.9,37.7 68.3,38.1 68.9,38.1 Z"
                id="Shape"></path>
                <path d="M64.5,38.1 C65.1,38.1 65.5,37.7 65.5,37.1 L65.5,34 C65.5,33.4 65.1,33 64.5,33 C63.9,33 63.5,33.4 63.5,34 L63.5,37.1 C63.5,37.7 63.9,38.1 64.5,38.1 Z"
                id="Shape"></path>
                <path d="M60.1,38.1 C60.7,38.1 61.1,37.7 61.1,37.1 L61.1,34 C61.1,33.4 60.7,33 60.1,33 C59.5,33 59.1,33.4 59.1,34 L59.1,37.1 C59.1,37.7 59.5,38.1 60.1,38.1 Z"
                id="Shape"></path>
                <path d="M68.9,46.3 C69.5,46.3 69.9,45.9 69.9,45.3 L69.9,42.2 C69.9,41.6 69.5,41.2 68.9,41.2 C68.3,41.2 67.9,41.6 67.9,42.2 L67.9,45.3 C67.9,45.8 68.3,46.3 68.9,46.3 Z"
                id="Shape"></path>
                <path d="M64.5,46.3 C65.1,46.3 65.5,45.9 65.5,45.3 L65.5,42.2 C65.5,41.6 65.1,41.2 64.5,41.2 C63.9,41.2 63.5,41.6 63.5,42.2 L63.5,45.3 C63.5,45.8 63.9,46.3 64.5,46.3 Z"
                id="Shape"></path>
                <path d="M60.1,46.3 C60.7,46.3 61.1,45.9 61.1,45.3 L61.1,42.2 C61.1,41.6 60.7,41.2 60.1,41.2 C59.5,41.2 59.1,41.6 59.1,42.2 L59.1,45.3 C59.1,45.8 59.5,46.3 60.1,46.3 Z"
                id="Shape"></path>
                <path d="M68.9,54.4 C69.5,54.4 69.9,54 69.9,53.4 L69.9,50.3 C69.9,49.7 69.5,49.3 68.9,49.3 C68.3,49.3 67.9,49.7 67.9,50.3 L67.9,53.4 C67.9,54 68.3,54.4 68.9,54.4 Z"
                id="Shape"></path>
                <path d="M64.5,54.4 C65.1,54.4 65.5,54 65.5,53.4 L65.5,50.3 C65.5,49.7 65.1,49.3 64.5,49.3 C63.9,49.3 63.5,49.7 63.5,50.3 L63.5,53.4 C63.5,54 63.9,54.4 64.5,54.4 Z"
                id="Shape"></path>
                <path d="M60.1,54.4 C60.7,54.4 61.1,54 61.1,53.4 L61.1,50.3 C61.1,49.7 60.7,49.3 60.1,49.3 C59.5,49.3 59.1,49.7 59.1,50.3 L59.1,53.4 C59.1,54 59.5,54.4 60.1,54.4 Z"
                id="Shape"></path>
                <path d="M68.9,62.6 C69.5,62.6 69.9,62.2 69.9,61.6 L69.9,58.5 C69.9,57.9 69.5,57.5 68.9,57.5 C68.3,57.5 67.9,57.9 67.9,58.5 L67.9,61.6 C67.9,62.1 68.3,62.6 68.9,62.6 Z"
                id="Shape"></path>
                <path d="M64.5,62.6 C65.1,62.6 65.5,62.2 65.5,61.6 L65.5,58.5 C65.5,57.9 65.1,57.5 64.5,57.5 C63.9,57.5 63.5,57.9 63.5,58.5 L63.5,61.6 C63.5,62.1 63.9,62.6 64.5,62.6 Z"
                id="Shape"></path>
                <path d="M60.1,62.6 C60.7,62.6 61.1,62.2 61.1,61.6 L61.1,58.5 C61.1,57.9 60.7,57.5 60.1,57.5 C59.5,57.5 59.1,57.9 59.1,58.5 L59.1,61.6 C59.1,62.1 59.5,62.6 60.1,62.6 Z"
                id="Shape"></path>
                <path d="M68.9,70.7 C69.5,70.7 69.9,70.3 69.9,69.7 L69.9,66.6 C69.9,66 69.5,65.6 68.9,65.6 C68.3,65.6 67.9,66 67.9,66.6 L67.9,69.7 C67.9,70.3 68.3,70.7 68.9,70.7 Z"
                id="Shape"></path>
                <path d="M64.5,70.7 C65.1,70.7 65.5,70.3 65.5,69.7 L65.5,66.6 C65.5,66 65.1,65.6 64.5,65.6 C63.9,65.6 63.5,66 63.5,66.6 L63.5,69.7 C63.5,70.3 63.9,70.7 64.5,70.7 Z"
                id="Shape"></path>
                <path d="M60.1,70.7 C60.7,70.7 61.1,70.3 61.1,69.7 L61.1,66.6 C61.1,66 60.7,65.6 60.1,65.6 C59.5,65.6 59.1,66 59.1,66.6 L59.1,69.7 C59.1,70.3 59.5,70.7 60.1,70.7 Z"
                id="Shape"></path>
                <path d="M17.9,24.9 C17.3,24.9 16.9,25.3 16.9,25.9 L16.9,29 C16.9,29.6 17.3,30 17.9,30 C18.5,30 18.9,29.6 18.9,29 L18.9,25.9 C18.9,25.3 18.4,24.9 17.9,24.9 Z"
                id="Shape"></path>
                <path d="M13.5,24.9 C12.9,24.9 12.5,25.3 12.5,25.9 L12.5,29 C12.5,29.6 12.9,30 13.5,30 C14.1,30 14.5,29.6 14.5,29 L14.5,25.9 C14.5,25.3 14,24.9 13.5,24.9 Z"
                id="Shape"></path>
                <path d="M9.1,24.9 C8.5,24.9 8.1,25.3 8.1,25.9 L8.1,29 C8.1,29.6 8.5,30 9.1,30 C9.7,30 10.1,29.6 10.1,29 L10.1,25.9 C10.1,25.3 9.6,24.9 9.1,24.9 Z"
                id="Shape"></path>
                <path d="M17.9,33 C17.3,33 16.9,33.4 16.9,34 L16.9,37.1 C16.9,37.7 17.3,38.1 17.9,38.1 C18.5,38.1 18.9,37.7 18.9,37.1 L18.9,34 C18.9,33.5 18.4,33 17.9,33 Z"
                id="Shape"></path>
                <path d="M13.5,33 C12.9,33 12.5,33.4 12.5,34 L12.5,37.1 C12.5,37.7 12.9,38.1 13.5,38.1 C14.1,38.1 14.5,37.7 14.5,37.1 L14.5,34 C14.5,33.5 14,33 13.5,33 Z"
                id="Shape"></path>
                <path d="M9.1,33 C8.5,33 8.1,33.4 8.1,34 L8.1,37.1 C8.1,37.7 8.5,38.1 9.1,38.1 C9.7,38.1 10.1,37.7 10.1,37.1 L10.1,34 C10.1,33.5 9.6,33 9.1,33 Z"
                id="Shape"></path>
                <path d="M17.9,41.2 C17.3,41.2 16.9,41.6 16.9,42.2 L16.9,45.3 C16.9,45.9 17.3,46.3 17.9,46.3 C18.5,46.3 18.9,45.9 18.9,45.3 L18.9,42.2 C18.9,41.6 18.4,41.2 17.9,41.2 Z"
                id="Shape"></path>
                <path d="M13.5,41.2 C12.9,41.2 12.5,41.6 12.5,42.2 L12.5,45.3 C12.5,45.9 12.9,46.3 13.5,46.3 C14.1,46.3 14.5,45.9 14.5,45.3 L14.5,42.2 C14.5,41.6 14,41.2 13.5,41.2 Z"
                id="Shape"></path>
                <path d="M9.1,41.2 C8.5,41.2 8.1,41.6 8.1,42.2 L8.1,45.3 C8.1,45.9 8.5,46.3 9.1,46.3 C9.7,46.3 10.1,45.9 10.1,45.3 L10.1,42.2 C10.1,41.6 9.6,41.2 9.1,41.2 Z"
                id="Shape"></path>
                <path d="M17.9,49.3 C17.3,49.3 16.9,49.7 16.9,50.3 L16.9,53.4 C16.9,54 17.3,54.4 17.9,54.4 C18.5,54.4 18.9,54 18.9,53.4 L18.9,50.3 C18.9,49.8 18.4,49.3 17.9,49.3 Z"
                id="Shape"></path>
                <path d="M13.5,49.3 C12.9,49.3 12.5,49.7 12.5,50.3 L12.5,53.4 C12.5,54 12.9,54.4 13.5,54.4 C14.1,54.4 14.5,54 14.5,53.4 L14.5,50.3 C14.5,49.8 14,49.3 13.5,49.3 Z"
                id="Shape"></path>
                <path d="M9.1,49.3 C8.5,49.3 8.1,49.7 8.1,50.3 L8.1,53.4 C8.1,54 8.5,54.4 9.1,54.4 C9.7,54.4 10.1,54 10.1,53.4 L10.1,50.3 C10.1,49.8 9.6,49.3 9.1,49.3 Z"
                id="Shape"></path>
                <path d="M17.9,57.5 C17.3,57.5 16.9,57.9 16.9,58.5 L16.9,61.6 C16.9,62.2 17.3,62.6 17.9,62.6 C18.5,62.6 18.9,62.2 18.9,61.6 L18.9,58.5 C18.9,57.9 18.4,57.5 17.9,57.5 Z"
                id="Shape"></path>
                <path d="M13.5,57.5 C12.9,57.5 12.5,57.9 12.5,58.5 L12.5,61.6 C12.5,62.2 12.9,62.6 13.5,62.6 C14.1,62.6 14.5,62.2 14.5,61.6 L14.5,58.5 C14.5,57.9 14,57.5 13.5,57.5 Z"
                id="Shape"></path>
                <path d="M9.1,57.5 C8.5,57.5 8.1,57.9 8.1,58.5 L8.1,61.6 C8.1,62.2 8.5,62.6 9.1,62.6 C9.7,62.6 10.1,62.2 10.1,61.6 L10.1,58.5 C10.1,57.9 9.6,57.5 9.1,57.5 Z"
                id="Shape"></path>
                <path d="M17.9,65.6 C17.3,65.6 16.9,66 16.9,66.6 L16.9,69.7 C16.9,70.3 17.3,70.7 17.9,70.7 C18.5,70.7 18.9,70.3 18.9,69.7 L18.9,66.6 C18.9,66 18.4,65.6 17.9,65.6 Z"
                id="Shape"></path>
                <path d="M13.5,65.6 C12.9,65.6 12.5,66 12.5,66.6 L12.5,69.7 C12.5,70.3 12.9,70.7 13.5,70.7 C14.1,70.7 14.5,70.3 14.5,69.7 L14.5,66.6 C14.5,66 14,65.6 13.5,65.6 Z"
                id="Shape"></path>
                <path d="M9.1,65.6 C8.5,65.6 8.1,66 8.1,66.6 L8.1,69.7 C8.1,70.3 8.5,70.7 9.1,70.7 C9.7,70.7 10.1,70.3 10.1,69.7 L10.1,66.6 C10.1,66 9.6,65.6 9.1,65.6 Z"
                id="Shape"></path>
                <path d="M51.6,46.3 C52.2,46.3 52.6,45.9 52.6,45.3 L52.6,42.2 C52.6,41.6 52.2,41.2 51.6,41.2 C51,41.2 50.6,41.6 50.6,42.2 L50.6,45.3 C50.6,45.8 51.1,46.3 51.6,46.3 Z"
                id="Shape"></path>
                <path d="M47.2,46.3 C47.8,46.3 48.2,45.9 48.2,45.3 L48.2,42.2 C48.2,41.6 47.8,41.2 47.2,41.2 C46.6,41.2 46.2,41.6 46.2,42.2 L46.2,45.3 C46.2,45.8 46.7,46.3 47.2,46.3 Z"
                id="Shape"></path>
                <path d="M42.8,46.3 C43.4,46.3 43.8,45.9 43.8,45.3 L43.8,42.2 C43.8,41.6 43.4,41.2 42.8,41.2 C42.2,41.2 41.8,41.6 41.8,42.2 L41.8,45.3 C41.8,45.8 42.3,46.3 42.8,46.3 Z"
                id="Shape"></path>
                <path d="M51.6,54.4 C52.2,54.4 52.6,54 52.6,53.4 L52.6,50.3 C52.6,49.7 52.2,49.3 51.6,49.3 C51,49.3 50.6,49.7 50.6,50.3 L50.6,53.4 C50.6,54 51.1,54.4 51.6,54.4 Z"
                id="Shape"></path>
                <path d="M47.2,54.4 C47.8,54.4 48.2,54 48.2,53.4 L48.2,50.3 C48.2,49.7 47.8,49.3 47.2,49.3 C46.6,49.3 46.2,49.7 46.2,50.3 L46.2,53.4 C46.2,54 46.7,54.4 47.2,54.4 Z"
                id="Shape"></path>
                <path d="M42.8,54.4 C43.4,54.4 43.8,54 43.8,53.4 L43.8,50.3 C43.8,49.7 43.4,49.3 42.8,49.3 C42.2,49.3 41.8,49.7 41.8,50.3 L41.8,53.4 C41.8,54 42.3,54.4 42.8,54.4 Z"
                id="Shape"></path>
                <path d="M51.6,62.6 C52.2,62.6 52.6,62.2 52.6,61.6 L52.6,58.5 C52.6,57.9 52.2,57.5 51.6,57.5 C51,57.5 50.6,57.9 50.6,58.5 L50.6,61.6 C50.6,62.1 51.1,62.6 51.6,62.6 Z"
                id="Shape"></path>
                <path d="M47.2,62.6 C47.8,62.6 48.2,62.2 48.2,61.6 L48.2,58.5 C48.2,57.9 47.8,57.5 47.2,57.5 C46.6,57.5 46.2,57.9 46.2,58.5 L46.2,61.6 C46.2,62.1 46.7,62.6 47.2,62.6 Z"
                id="Shape"></path>
                <path d="M42.8,62.6 C43.4,62.6 43.8,62.2 43.8,61.6 L43.8,58.5 C43.8,57.9 43.4,57.5 42.8,57.5 C42.2,57.5 41.8,57.9 41.8,58.5 L41.8,61.6 C41.8,62.1 42.3,62.6 42.8,62.6 Z"
                id="Shape"></path>
                <path d="M51.6,70.7 C52.2,70.7 52.6,70.3 52.6,69.7 L52.6,66.6 C52.6,66 52.2,65.6 51.6,65.6 C51,65.6 50.6,66 50.6,66.6 L50.6,69.7 C50.6,70.3 51.1,70.7 51.6,70.7 Z"
                id="Shape"></path>
                <path d="M47.2,70.7 C47.8,70.7 48.2,70.3 48.2,69.7 L48.2,66.6 C48.2,66 47.8,65.6 47.2,65.6 C46.6,65.6 46.2,66 46.2,66.6 L46.2,69.7 C46.2,70.3 46.7,70.7 47.2,70.7 Z"
                id="Shape"></path>
                <path d="M42.8,70.7 C43.4,70.7 43.8,70.3 43.8,69.7 L43.8,66.6 C43.8,66 43.4,65.6 42.8,65.6 C42.2,65.6 41.8,66 41.8,66.6 L41.8,69.7 C41.8,70.3 42.3,70.7 42.8,70.7 Z"
                id="Shape"></path>
                <path d="M34.4,57.8 C35,57.8 35.4,57.4 35.4,56.8 L35.4,48.4 C35.4,47.8 35,47.4 34.4,47.4 C33.8,47.4 33.4,47.8 33.4,48.4 L33.4,56.8 C33.4,57.3 33.9,57.8 34.4,57.8 Z"
                id="Shape"></path>
                <path d="M30.6,57.8 C31.2,57.8 31.6,57.4 31.6,56.8 L31.6,48.4 C31.6,47.8 31.2,47.4 30.6,47.4 C30,47.4 29.6,47.8 29.6,48.4 L29.6,56.8 C29.6,57.3 30,57.8 30.6,57.8 Z"
                id="Shape"></path>
                <path d="M26.7,57.8 C27.3,57.8 27.7,57.4 27.7,56.8 L27.7,48.4 C27.7,47.8 27.3,47.4 26.7,47.4 C26.1,47.4 25.7,47.8 25.7,48.4 L25.7,56.8 C25.7,57.3 26.2,57.8 26.7,57.8 Z"
                id="Shape"></path>
                <path d="M34.4,44.3 C35,44.3 35.4,43.9 35.4,43.3 L35.4,34.9 C35.4,34.3 35,33.9 34.4,33.9 C33.8,33.9 33.4,34.3 33.4,34.9 L33.4,43.3 C33.4,43.8 33.9,44.3 34.4,44.3 Z"
                id="Shape"></path>
                <path d="M30.6,44.3 C31.2,44.3 31.6,43.9 31.6,43.3 L31.6,34.9 C31.6,34.3 31.2,33.9 30.6,33.9 C30,33.9 29.6,34.3 29.6,34.9 L29.6,43.3 C29.6,43.8 30,44.3 30.6,44.3 Z"
                id="Shape"></path>
                <path d="M26.7,44.3 C27.3,44.3 27.7,43.9 27.7,43.3 L27.7,34.9 C27.7,34.3 27.3,33.9 26.7,33.9 C26.1,33.9 25.7,34.3 25.7,34.9 L25.7,43.3 C25.7,43.8 26.2,44.3 26.7,44.3 Z"
                id="Shape"></path>
                <path d="M34.4,71 C35,71 35.4,70.6 35.4,70 L35.4,61.6 C35.4,61 35,60.6 34.4,60.6 C33.8,60.6 33.4,61 33.4,61.6 L33.4,70 C33.4,70.5 33.9,71 34.4,71 Z"
                id="Shape"></path>
                <path d="M30.6,71 C31.2,71 31.6,70.6 31.6,70 L31.6,61.6 C31.6,61 31.2,60.6 30.6,60.6 C30,60.6 29.6,61 29.6,61.6 L29.6,70 C29.6,70.5 30,71 30.6,71 Z"
                id="Shape"></path>
                <path d="M26.7,71 C27.3,71 27.7,70.6 27.7,70 L27.7,61.6 C27.7,61 27.3,60.6 26.7,60.6 C26.1,60.6 25.7,61 25.7,61.6 L25.7,70 C25.7,70.5 26.2,71 26.7,71 Z"
                id="Shape"></path>
                <path d="M39.1,10.9 C39.1,8.6 37.2,6.8 35,6.8 C32.8,6.8 30.9,8.7 30.9,10.9 C30.9,13.1 32.8,15 35,15 C37.2,15 39.1,13.2 39.1,10.9 Z M35,13.1 C33.8,13.1 32.9,12.1 32.9,11 C32.9,9.9 33.9,8.9 35,8.9 C36.1,8.9 37.1,9.9 37.1,11 C37.1,12.1 36.2,13.1 35,13.1 Z"
                id="Shape"></path>
                <path d="M36,4.1 L36,1.7 C36,1.1 35.6,0.7 35,0.7 C34.4,0.7 34,1.1 34,1.7 L34,4.1 C34,4.7 34.4,5.1 35,5.1 C35.6,5.1 36,4.7 36,4.1 Z"
                id="Shape"></path>
                <path d="M31.5,6 C31.7,6 31.8,6 32,5.9 C32.5,5.6 32.6,5 32.4,4.5 L31.2,2.4 C30.9,1.9 30.3,1.8 29.8,2 C29.3,2.3 29.2,2.9 29.4,3.4 L30.6,5.5 C30.9,5.8 31.2,6 31.5,6 Z"
                id="Shape"></path>
                <path d="M26,5.8 C25.7,6.3 25.9,6.9 26.4,7.2 L28.5,8.4 C28.7,8.5 28.8,8.5 29,8.5 C29.3,8.5 29.7,8.3 29.9,8 C30.2,7.5 30,6.9 29.5,6.6 L27.4,5.4 C26.9,5.2 26.3,5.3 26,5.8 Z"
                id="Shape"></path>
                <path d="M24.6,10.9 C24.6,11.5 25,11.9 25.6,11.9 L28,11.9 L28,11.9 C28.5,11.9 29,11.5 29,10.9 C29,10.3 28.6,9.9 28,9.9 L25.6,9.9 C25.1,9.9 24.6,10.4 24.6,10.9 Z"
                id="Shape"></path>
                <path d="M26.8,16.6 C27,16.6 27.1,16.6 27.3,16.5 L29.4,15.3 C29.9,15 30.1,14.4 29.8,13.9 C29.5,13.4 28.9,13.2 28.4,13.5 L26.3,14.7 C25.8,15 25.6,15.6 25.9,16.1 C26.1,16.4 26.4,16.6 26.8,16.6 Z"
                id="Shape"></path>
                <path d="M29.5,19.9 C29.7,20 29.8,20 30,20 C30.3,20 30.7,19.8 30.9,19.5 L32.2,17.4 C32.5,16.9 32.3,16.3 31.9,16 C31.4,15.7 30.8,15.9 30.5,16.3 L29.2,18.4 C28.9,19 29.1,19.7 29.5,19.9 Z"
                id="Shape"></path>
                <path d="M33.8,18 L33.7,20.4 C33.7,21 34.1,21.4 34.7,21.4 L34.7,21.4 C35.2,21.4 35.7,21 35.7,20.4 L35.8,18 C35.8,17.4 35.4,17 34.8,17 C34.2,17 33.8,17.5 33.8,18 Z"
                id="Shape"></path>
                <path d="M38.5,19.9 C38.7,20.2 39,20.4 39.4,20.4 C39.6,20.4 39.7,20.4 39.9,20.3 C40.4,20 40.6,19.4 40.3,18.9 L39.2,16.8 C38.9,16.3 38.3,16.1 37.8,16.4 C37.3,16.7 37.1,17.3 37.4,17.8 L38.5,19.9 Z"
                id="Shape"></path>
                <path d="M42.9,17.1 C43.2,17.1 43.6,16.9 43.7,16.6 C44,16.1 43.9,15.5 43.4,15.2 L41.4,13.9 C40.9,13.6 40.3,13.7 40,14.2 C39.7,14.7 39.8,15.3 40.3,15.6 L42.3,16.9 C42.5,17.1 42.7,17.1 42.9,17.1 Z"
                id="Shape"></path>
                <path d="M44.4,12.6 C44.9,12.6 45.4,12.2 45.4,11.6 C45.4,11 45,10.6 44.5,10.6 L42,10.4 C41.5,10.4 41,10.8 41,11.3 C41,11.9 41.4,12.3 41.9,12.3 L44.4,12.6 C44.3,12.6 44.4,12.6 44.4,12.6 Z"
                id="Shape"></path>
                <path d="M40.3,8.4 C40.5,8.7 40.8,8.9 41.2,8.9 C41.4,8.9 41.5,8.9 41.7,8.8 L43.9,7.7 C44.4,7.5 44.6,6.8 44.3,6.4 C44.1,5.9 43.4,5.7 43,6 L40.8,7 C40.3,7.3 40.1,7.9 40.3,8.4 Z"
                id="Shape"></path>
                <path d="M40.7,2.4 C40.2,2.1 39.6,2.2 39.3,2.7 L38,4.7 C37.7,5.2 37.8,5.8 38.3,6.1 C38.5,6.2 38.7,6.3 38.9,6.3 C39.2,6.3 39.5,6.1 39.7,5.9 L41,3.9 C41.3,3.3 41.2,2.7 40.7,2.4 Z"
                id="Shape"></path>
            </g>
        </g>
    </g>
</svg>