<?xml version="1.0" encoding="UTF-8" ?>
<svg width="305px" height="229px" viewBox="0 0 305 229" version="1.1"
xmlns="http://www.w3.org/2000/svg">
    <g id="Page-1" stroke="none" stroke-width="1" fill-rule="evenodd">
        <g id="drone">
            <g id="Group">
                <path d="M167,128 C166,131 162,134 158,134 L147,134 C143,134 139,131 138,128 L167,128 Z"
                id="Shape"></path>
                <path d="M134,126 C133,121 134,109 134,103 C134,98 137,94 141,92 C139,94 138,96 138,98 L138,119 C138,122 140,124 142,126 L134,126 Z"
                id="Shape"></path>
                <path d="M164,92 C169,94 172,98 172,103 C172,109 172,121 171,126 L163,126 C165,124 167,122 167,119 L167,98 C167,96 166,94 164,92 Z"
                id="Shape"></path>
                <path d="M8,89 C32,88 49,87 55,87 C57,87 56,87 56,88 C51,89 41,91 39,92 C37,93 34,93 34,93 L7,94 C-2,94 -3,91 8,89 Z"
                id="Shape"></path>
                <polygon id="Shape" points="102 186 92 186 92 180 98 162 99 161 101 155 113 133 126 120 131 120 116 136 106 154 107 153 109 153 109 155 113 154 111 159 109 159 100 179 104 179"></polygon>
                <path d="M47,102 L57,102 C57,100 57,87 58,86 C59,86 60,85 61,85 C62,85 64,86 64,86 C66,87 65,100 65,102 L75,102 L75,123 L73,123 C72,125 70,127 68,127 L55,127 C52,127 50,125 50,123 L47,123 L47,102 Z"
                id="Shape"></path>
                <path d="M132,119 C132,119 120,117 117,116 C113,115 109,113 109,113 L81,110 L77,112 L77,101 L66,101 C67,99 72,94 75,94 L81,94 L81,88 L67,88 C66,88 67,88 67,88 C71,87 82,85 83,84 C85,84 87,83 88,83 L88,75 C88,74 90,74 91,74 C92,74 93,74 93,75 L93,83 L116,83 C125,83 126,86 114,88 L100,88 L100,94 L102,96 L118,104 C121,106 129,103 132,102 L132,119 Z"
                id="Shape"></path>
                <path d="M51,77 C69,76 82,75 87,75 L87,76 C83,76 76,78 74,79 C73,80 71,80 71,80 L50,80 C44,81 43,78 51,77 Z"
                id="Shape"></path>
                <path d="M131,76 L95,76 L95,76 C99,75 106,74 108,73 C109,72 111,72 111,72 L132,72 C139,72 139,75 131,76 Z"
                id="Shape"></path>
                <path d="M297,89 C274,88 256,87 250,87 C249,87 249,87 249,88 C254,89 264,91 266,92 C268,93 271,93 271,93 L298,94 C307,94 308,91 297,89 Z"
                id="Shape"></path>
                <polygon id="Shape" points="203 186 213 186 213 180 207 162 206 161 205 155 193 133 179 120 174 120 189 136 199 154 198 153 196 153 196 155 192 154 194 159 196 159 205 179 201 179"></polygon>
                <path d="M258,102 L248,102 C248,100 248,87 247,86 C246,86 245,85 244,85 C243,85 242,86 241,86 C239,87 240,100 240,102 L230,102 L230,123 L233,123 C233,125 235,127 237,127 L251,127 C253,127 255,125 255,123 L258,123 L258,102 Z"
                id="Shape"></path>
                <path d="M173,119 C173,119 185,117 188,116 C192,115 196,113 196,113 L224,110 L228,112 L228,101 L239,101 C238,99 233,94 230,94 L224,94 L224,88 L238,88 L238,88 C234,87 223,85 222,84 C221,84 218,83 217,83 L217,75 C217,74 216,74 214,74 C213,74 212,74 212,75 L212,83 L189,83 C181,83 180,86 191,88 L205,88 L205,94 L203,96 L187,104 C184,106 176,103 173,102 L173,119 Z"
                id="Shape"></path>
                <path d="M254,77 C236,76 223,75 219,75 C218,75 218,76 218,76 C222,76 229,78 231,79 C232,80 234,80 234,80 L255,80 C262,81 262,78 254,77 Z"
                id="Shape"></path>
                <path d="M174,76 L210,76 L210,76 C206,75 199,74 197,73 C196,72 194,72 194,72 L173,72 C167,72 166,75 174,76 Z"
                id="Shape"></path>
                <path d="M174,46 L178,41 C171,35 162,32 153,32 C143,32 134,35 127,41 L131,46 C137,41 145,39 153,39 C161,39 168,41 174,46 Z"
                id="Shape"></path>
                <path d="M185,34 L189,29 C179,21 166,16 153,16 C139,16 126,21 116,29 L120,34 C129,27 140,23 153,23 C165,23 176,27 185,34 Z"
                id="Shape"></path>
                <path d="M196,22 L200,17 C187,6 171,0 153,0 C134,0 118,6 105,17 L109,22 C121,12 136,7 153,7 C169,7 184,12 196,22 Z"
                id="Shape"></path>
                <path d="M148,90 L157,90 C161,90 165,94 165,98 L165,118 C165,122 161,126 157,126 L148,126 C144,126 140,122 140,118 L140,98 C140,94 144,90 148,90 Z M153,101 C156,101 160,104 160,108 C160,112 156,115 153,115 C149,115 146,112 146,108 C146,104 149,101 153,101 Z"
                id="Shape"></path>
                <path d="M174,183 L178,188 C171,193 162,196 153,196 C143,196 134,193 127,188 L131,183 C137,187 145,190 153,190 C161,190 168,187 174,183 Z"
                id="Shape"></path>
                <path d="M185,195 L189,200 C179,208 166,213 153,213 C139,213 126,208 116,200 L120,195 C129,202 140,206 153,206 C165,206 176,202 185,195 Z"
                id="Shape"></path>
                <path d="M196,207 L200,212 C187,222 171,229 153,229 C134,229 118,222 105,212 L109,207 C121,216 136,222 153,222 C169,222 184,216 196,207 Z"
                id="Shape"></path>
            </g>
        </g>
    </g>
</svg>