<?xml version="1.0" encoding="UTF-8" ?>
<svg width="83px" height="68px" viewBox="0 0 83 68" version="1.1" xmlns="http://www.w3.org/2000/svg">
    <g id="Page-1" stroke="none" stroke-width="1" fill-rule="evenodd">
        <g id="love" transform="translate(-12.000000, 0.000000)" fill-rule="nonzero">
            <g id="Group" transform="translate(12.000000, 0.000000)">
                <path d="M30.7,48.3 C30.9,48.7 30.8,49.2 30.7,49.4 C30.5,49.9 30.1,50.4 29.5,50.5 L29.3,50.5 L21.1,49.6 C21.1,49.6 19.8,51.1 19.4,51.6 C18.1,53.1 16.9,54.5 15.6,56 C15.5,56.1 15.2,56.2 14.9,56.3 C14.7,56.3 14.4,56.3 14.2,56.2 C13.7,56 13.3,55.6 13.2,55.1 C12.7,52.7 11.6,47.2 11.6,47.2 C11.6,47.2 5.8,44.8 4.5,44.2 C3.7,43.9 3.3,43.3 3.3,42.6 C3.3,42.4 3.3,42.3 3.4,42.1 C3.5,41.8 3.8,41.5 4.2,41.2 L11.1,37.3 L11.8,29.4 C11.8,29.2 11.9,29 11.9,28.9 C12.1,28.4 12.5,28.1 13,27.9 L13.2,27.9 C13.7,27.9 14.1,28 14.6,28.5 L20.3,33.7 L28.2,31.9 C28.7,31.8 29.3,32 29.6,32.4 C30,32.8 30.1,33.4 30,33.7 L26.6,41.3 L30.7,48.3 Z"
                id="Shape"></path>
                <path d="M81.2,30.4 C82,31 82.3,32 82,32.9 C81.8,33.4 81.5,34 80.2,34.3 L70.3,37 L66.7,47 C66.5,47.7 65.8,48.2 65,48.4 L64.2,48.4 C63.7,48.3 63.3,48.1 63.2,47.8 L57.2,38.5 L46.3,38.2 C45.6,38.2 44.9,37.6 44.6,36.7 C44.4,36 44.4,35.3 44.8,34.9 C46.2,33.1 51.7,26.5 51.7,26.5 C51.7,26.5 49.5,19.2 48.6,15.9 C48.5,15.4 48.9,14.5 49.4,14.1 C50,13.6 50.8,13.5 51.5,13.7 C54.6,14.9 61.5,17.5 61.5,17.5 C61.5,17.5 69.1,12.3 69.9,11.7 C70.3,11.4 71,11.1 71.6,11.1 L71.9,11.1 C72.2,11.2 72.4,11.3 72.7,11.4 C73.6,12 73.6,12.9 73.6,13.5 L73.6,14.3 L72.9,24 L81.2,30.4 Z"
                id="Shape"></path>
                <path d="M69.3,7.1 C68.9,7.3 68.4,7.5 68,7.8 C66.9,8.6 65.8,9.3 64.7,10.1 C61.8,7.7 57.9,6.3 53.8,6.3 C48.2,6.3 43.1,8.9 40.2,13.2 L38,16.4 L35.8,13.2 C32.9,9 27.7,6.5 22,6.5 C15.9,6.5 10.6,9.3 7.8,14.1 C5,19 4.9,24.2 7.8,29.9 C8,30.3 8.2,30.8 8.5,31.2 L8.2,34.7 L5.4,36.3 C4.5,35 3.8,33.7 3.1,32.3 C-0.5,25 -0.5,17.9 3.3,11.4 L3.3,11.4 C7,5 14,1.2 22,1.2 C28.2,1.2 33.9,3.5 37.9,7.5 C41.9,3.3 47.6,0.9 53.7,0.9 C59.8,1 65.3,3.2 69.3,7.1 Z"
                id="Shape"></path>
                <path d="M55.9,44.9 C56.9,46.4 57.9,47.9 58.8,49.4 C53,54.9 42.2,64 39.6,66 L37.9,67.3 L36.3,66 C34.5,64.6 27.9,59 22.2,54 C22.5,53.6 22.8,53.3 23.1,52.9 L29.8,53.6 C32.9,56.3 36,58.8 37.9,60.4 C42.1,57.1 51.3,49.3 55.9,44.9 Z"
                id="Shape"></path>
            </g>
        </g>
    </g>
</svg>