<?xml version="1.0" encoding="UTF-8" ?>
<svg width="65px" height="93px" viewBox="0 0 65 93" version="1.1" xmlns="http://www.w3.org/2000/svg">
    <g id="Page-1" stroke="none" stroke-width="1" fill-rule="evenodd">
        <g id="mobileCity" transform="translate(-28.000000, 0.000000)" fill-rule="nonzero">
            <g id="Group" transform="translate(28.000000, 0.000000)">
                <path d="M22.2,93 L24.8,92.4 L24.7,92.3 L24.7,92.3 L24.7,92.3 C24.5,92 24.3,91.7 24.3,91.3 L3.8,2.8 L3.8,2.8 C3.8,2.6 3.7,2.4 3.7,2.2 L3.7,2.2 C3.7,2.2 3.7,2.2 3.7,2.1 L3.7,2.1 L3.7,2.1 C3.7,1.9 3.7,1.7 3.8,1.6 L1.2,2.2 C0.6,2.3 0.1,2.9 0.2,3.7 L20.6,92.2 C20.8,92.8 21.6,93.2 22.2,93 Z"
                id="Shape"></path>
                <path d="M6.9,1 C6.4,0.8 6,1 5.8,1.2 C5.5,1.4 5.3,1.8 5.3,2.1 L5.3,2.4 L5.3,2.4 L7.1,10.1 L32.7,15.3 L31.1,9 C31,8.6 30.7,8.2 30.2,8.1 L6.9,1 Z M24.8,9.6 C24.7,9.9 24.4,10.2 24.1,10.2 L23.9,10.2 L17,8.2 C16.6,8.1 16.4,7.7 16.5,7.3 C16.6,6.9 17,6.7 17.4,6.8 L24.3,8.7 C24.7,8.7 24.9,9.2 24.8,9.6 Z"
                id="Shape"></path>
                <path d="M46.7,76.8 L45.1,69.7 L23.5,81.8 L25.6,91 C25.6,91.2 25.7,91.3 25.8,91.5 C26.1,91.9 26.6,92.1 27.1,92 L27.2,92 L27.2,92 C27.3,92 27.5,91.9 27.6,91.8 L46.2,78.2 C46.7,77.8 46.8,77.3 46.7,76.8 Z M37.1,81.9 C36.9,81.9 36.8,81.9 36.6,81.8 C36,81.6 35.5,80.9 35.3,79.9 C35,78.7 35.2,77.1 36.2,76.5 C36.6,76.3 37,76.3 37.4,76.4 C38,76.7 38.5,77.3 38.7,78.3 C39,79.5 38.8,81 37.9,81.6 C37.6,81.9 37.3,81.9 37.1,81.9 Z"
                id="Shape"></path>
                <path d="M36.9,59.7 C33.8,59.7 31.2,57.1 31.2,54 L31.2,30.3 C31.2,27.9 32.7,25.9 34.8,25 L33,17 L7.4,11.8 L23.2,80.3 L44.8,68.1 L42.9,59.6 L36.9,59.6 L36.9,59.7 Z"
                id="Shape"></path>
                <path d="M63.8,54 L63.8,42.9 L59.9,42.9 L59.9,44.7 C59.9,45.1 59.6,45.5 59.1,45.5 L55.8,45.5 C55.4,45.5 55,45.2 55,44.7 L55,40 L54.1,38.3 L53.2,40 L53.2,46.1 C53.2,46.5 52.9,46.9 52.4,46.9 L49.5,46.9 C49.1,46.9 48.7,46.6 48.7,46.1 L48.7,44.3 L46.2,44.3 C45.8,44.3 45.4,44 45.4,43.5 L45.4,37 L43.9,37 L43.9,45 C43.9,45.4 43.6,45.8 43.1,45.8 L39.8,45.8 C39.4,45.8 39,45.5 39,45 L39,43.2 L37.5,43.2 L37.5,46 C37.5,46.4 37.2,46.8 36.7,46.8 L33.3,46.8 L33.3,54 C33.3,55.8 34.7,57.2 36.5,57.2 L60.2,57.2 C62.3,57.2 63.8,55.7 63.8,54 Z"
                id="Shape"></path>
                <path d="M33.7,45.3 L36.3,45.3 L36.3,42.5 C36.3,42.1 36.6,41.7 37.1,41.7 L40.1,41.7 C40.5,41.7 40.9,42 40.9,42.5 L40.9,44.3 L42.7,44.3 L42.7,36.3 C42.7,35.9 43,35.5 43.5,35.5 L46.5,35.5 C46.9,35.5 47.3,35.8 47.3,36.3 L47.3,42.8 L49.8,42.8 C50.2,42.8 50.6,43.1 50.6,43.6 L50.6,45.4 L52,45.4 L52,39.9 C52,39.8 52,39.6 52.1,39.5 L53.8,36.5 C54.1,36 54.8,36 55.1,36.5 L56.8,39.5 C56.9,39.6 56.9,39.7 56.9,39.9 L56.9,44 L58.7,44 L58.7,42.2 C58.7,41.8 59,41.4 59.5,41.4 L64.2,41.4 L64.2,30.3 C64.2,28.5 62.8,27.1 61,27.1 L36.9,27.1 C35.1,27.1 33.7,28.5 33.7,30.3 L33.7,45.3 Z"
                id="Shape"></path>
            </g>
        </g>
    </g>
</svg>