<?xml version="1.0" encoding="UTF-8" ?>
<svg width="59px" height="60px" viewBox="0 0 59 60" version="1.1" xmlns="http://www.w3.org/2000/svg">
    <g id="Page-1" stroke="none" stroke-width="1" fill-rule="evenodd">
        <g id="financialData" fill-rule="nonzero">
            <g id="Group">
                <g id="Shape">
                    <path d="M43,58 L17,58 C15.9,58 15,57.1 15,56 L15,4 C15,2.9 15.9,2 17,2 L43,2 C44.1,2 45,2.9 45,4 L45,56 C45,57.1 44.1,58 43,58 Z M43,60 C45.2,60 47,58.2 47,56 L47,4 C47,1.8 45.2,0 43,0 L17,0 C14.8,0 13,1.8 13,4 L13,56 C13,58.2 14.8,60 17,60 L43,60 Z"></path>
                    <path d="M13,52 L47,52 L47,6 L13,6 L13,52 Z M15,8 L45,8 L45,50 L15,50 L15,8 Z"></path>
                    <path d="M29,5 L34,5 C34.6,5 35,4.6 35,4 C35,3.4 34.6,3 34,3 L29,3 C28.4,3 28,3.4 28,4 C28,4.6 28.4,5 29,5 Z"></path>
                    <path d="M25,5 L26,5 C26.6,5 27,4.6 27,4 C27,3.4 26.6,3 26,3 L25,3 C24.4,3 24,3.4 24,4 C24,4.6 24.4,5 25,5 Z"></path>
                    <path d="M12,10 L12,11 C12,11.6 12.4,12 13,12 C13.6,12 14,11.6 14,11 L14,10 C14,9.4 13.6,9 13,9 C12.4,9 12,9.4 12,10 Z"></path>
                    <path d="M12,14 L12,15 C12,15.6 12.4,16 13,16 C13.6,16 14,15.6 14,15 L14,14 C14,13.4 13.6,13 13,13 C12.4,13 12,13.4 12,14 Z"></path>
                    <path d="M12,18 L12,19 C12,19.6 12.4,20 13,20 C13.6,20 14,19.6 14,19 L14,18 C14,17.4 13.6,17 13,17 C12.4,17 12,17.4 12,18 Z"></path>
                    <path d="M32,55 C32,56.1 31.1,57 30,57 C28.9,57 28,56.1 28,55 C28,53.9 28.9,53 30,53 C31.1,53 32,53.9 32,55 Z M34,55 C34,52.8 32.2,51 30,51 C27.8,51 26,52.8 26,55 C26,57.2 27.8,59 30,59 C32.2,59 34,57.2 34,55 Z"></path>
                    <path d="M24,33 C24,36.2 26.7,38.8 30,38.8 C31.8,38.8 33.4,38 34.6,36.7 C36.1,34.9 35.8,32.2 33.9,30.8 L27.4,25.8 C26.4,25 26.2,23.7 27,22.8 C27.7,22 28.8,21.5 30.1,21.5 C32.4,21.5 34.1,22.9 34.1,25 C34.1,25.6 34.5,26 35.1,26 C35.7,26 36.1,25.6 36.1,25 C36.1,21.8 33.5,19.5 30.1,19.5 C28.3,19.5 26.6,20.2 25.5,21.5 C24,23.3 24.3,26 26.2,27.4 L32.7,32.4 C33.7,33.2 33.9,34.5 33.1,35.4 C32.3,36.3 31.2,36.8 30,36.8 C27.8,36.8 26,35.1 26,33 C26,32.4 25.6,32 25,32 C24.4,32 24,32.5 24,33 Z"></path>
                    <path d="M29,18 L29,40 C29,40.6 29.4,41 30,41 C30.6,41 31,40.6 31,40 L31,18 C31,17.4 30.6,17 30,17 C29.4,17 29,17.5 29,18 Z"></path>
                    <path d="M9,4 C7.3,4 6,2.7 6,1 C6,-0.3 4,-0.3 4,1 C4,2.7 2.7,4 1,4 C-0.3,4 -0.3,6 1,6 C2.7,6 4,7.3 4,9 C4,10.3 6,10.3 6,9 C6,7.3 7.3,6 9,6 C10.3,6 10.3,4 9,4 Z M5,6 C4.7,5.6 4.4,5.3 4,5 C4.4,4.7 4.7,4.4 5,4 C5.3,4.4 5.6,4.7 6,5 C5.6,5.3 5.3,5.6 5,6 Z"></path>
                    <path d="M55,19 L55,15 C55,14.4 54.6,14 54,14 C53.4,14 53,14.4 53,15 L53,19 C53,19.6 53.4,20 54,20 C54.6,20 55,19.6 55,19 Z"></path>
                    <path d="M52,18 L56,18 C56.6,18 57,17.6 57,17 C57,16.4 56.6,16 56,16 L52,16 C51.4,16 51,16.4 51,17 C51,17.6 51.4,18 52,18 Z"></path>
                    <path d="M8,44 C8,44.6 7.6,45 7,45 C6.4,45 6,44.6 6,44 C6,43.4 6.4,43 7,43 C7.6,43 8,43.4 8,44"></path>
                    <path d="M3,26 C3,26.6 2.6,27 2,27 C1.4,27 1,26.6 1,26 C1,25.4 1.4,25 2,25 C2.6,25 3,25.4 3,26"></path>
                    <path d="M52,36 C52,36.6 51.6,37 51,37 C50.4,37 50,36.6 50,36 C50,35.4 50.4,35 51,35 C51.6,35 52,35.4 52,36"></path>
                    <path d="M59,57 C59,57.6 58.6,58 58,58 C57.4,58 57,57.6 57,57 C57,56.4 57.4,56 58,56 C58.6,56 59,56.4 59,57"></path>
                </g>
            </g>
        </g>
    </g>
</svg>