<?xml version="1.0" encoding="UTF-8" ?>
<svg width="90px" height="128px" viewBox="0 0 90 128" version="1.1" xmlns="http://www.w3.org/2000/svg">
    <g id="Page-1" stroke="none" stroke-width="1" fill-rule="evenodd">
        <g id="mobileSend" fill-rule="nonzero">
            <g id="Group">
                <rect id="Rectangle-path" x="31.63" y="7.28" width="12.25" height="2.83"
                rx="0.57"></rect>
                <path d="M31.63,115.48 C31.6259539,117.96026 33.1169124,120.198547 35.4072132,121.150506 C37.697514,122.102466 40.3357748,121.58048 42.0910165,119.828102 C43.8462583,118.075723 44.3725506,115.438318 43.424332,113.146466 C42.4761133,110.854614 40.2402629,109.360003 37.76,109.36 C36.1351432,109.357345 34.5759269,110.000957 33.4260406,111.148967 C32.2761542,112.296978 31.6299978,113.855141 31.63,115.48 L31.63,115.48 Z M41.88,115.48 C41.8840441,117.152242 40.8792872,118.661888 39.3351073,119.303696 C37.7909274,119.945505 36.0121183,119.592796 34.8296611,118.410339 C33.6472038,117.227882 33.2944946,115.449073 33.9363035,113.904893 C34.5781124,112.360713 36.0877578,111.355956 37.76,111.36 C40.0331322,111.365497 41.8745027,113.206868 41.88,115.48 L41.88,115.48 Z"
                id="Shape"></path>
                <path d="M71.5,117.5 C71.4944934,121.087567 68.5875675,123.994493 65,124 L10.5,124 C6.91243253,123.994493 4.00550664,121.087567 4,117.5 L4,10.5 C4.00550664,6.91243253 6.91243253,4.00550664 10.5,4 L65,4 C68.5875675,4.00550664 71.4944934,6.91243253 71.5,10.5 L71.5,34.81 L75.5,33.08 L75.5,10.5 C75.4889944,4.70557491 70.7944251,0.0110055855 65,0 L10.5,0 C4.70557491,0.0110055855 0.0110055855,4.70557491 0,10.5 L0,117.5 C0.0110055855,123.294425 4.70557491,127.988994 10.5,128 L65,128 C70.7944251,127.988994 75.4889944,123.294425 75.5,117.5 L75.5,84.62 L71.5,82.29 L71.5,117.5 Z"
                id="Shape"></path>
                <path d="M89.48,35.52 C89.5029802,35.3509439 89.4823252,35.1788195 89.42,35.02 C89.3903915,34.9193534 89.3501654,34.8221403 89.3,34.73 L89.3,34.64 C89.3,34.61 89.24,34.58 89.22,34.55 C89.1576345,34.4697412 89.0872729,34.396029 89.01,34.33 L88.83,34.19 L88.73,34.12 L88.58,34.07 L88.33,34 C88.2401959,33.9916025 88.1498041,33.9916025 88.06,34 L87.82,34 C87.720867,34.0167475 87.6236985,34.0435526 87.53,34.08 C87.4767122,34.076883 87.4232878,34.076883 87.37,34.08 L34.5,59 C33.9273649,59.2666705 33.5831605,59.8635117 33.639139,60.49271 C33.6951175,61.1219084 34.1392812,61.6486101 34.75,61.81 L50.17,65.91 L50.17,84.69 C50.1684867,85.3393809 50.5850064,85.9159911 51.2019694,86.11861 C51.8189324,86.3212288 52.4962129,86.1038371 52.88,85.58 L63.88,70.63 L77,79.33 C77.4081937,79.6016787 77.9234046,79.656697 78.3797633,79.4773421 C78.836122,79.2979871 79.1760091,78.9069041 79.29,78.43 L89.46,35.79 C89.46,35.79 89.46,35.79 89.46,35.74 C89.4721012,35.6672626 89.4787862,35.5937272 89.48,35.52 L89.48,35.52 Z M58.74,65.12 L58.74,65.18 L58.63,65.33 L58.56,65.45 L58.56,65.52 L53.26,77.33 L53.26,65.51 L73.3,49.25 L58.74,65.12 Z M77.32,42.12 L51.32,63.12 L39.49,60 L77.32,42.12 Z M58.32,73.07 L60.44,68.34 L61.36,68.95 L58.32,73.07 Z M76.82,75.62 L62.14,65.86 L85.2,40.71 L76.82,75.62 Z"
                id="Shape"></path>
                <path d="M38.13,67.77 L34.3,70.39 C33.6151669,70.859442 33.440558,71.7951669 33.91,72.48 C34.379442,73.1648331 35.3151669,73.339442 36,72.87 L39.83,70.25 C40.2730093,69.9481106 40.5213107,69.4328106 40.4813715,68.8982085 C40.4414323,68.3636065 40.1193201,67.8909212 39.6363715,67.6582085 C39.1534229,67.4254959 38.5830093,67.4681106 38.14,67.77 L38.13,67.77 Z"
                id="Shape"></path>
                <path d="M29.42,65.49 L27.28,66.65 C26.5509842,67.0448836 26.2801165,67.9559841 26.6750001,68.685 C27.0698837,69.4140158 27.9809841,69.6848835 28.71,69.29 L30.85,68.13 C31.3215906,67.8745551 31.62108,67.3869237 31.6356535,66.8507918 C31.6502271,66.31466 31.3776706,65.8114788 30.9206535,65.5307918 C30.4636365,65.2501049 29.8915906,65.2345551 29.42,65.49 L29.42,65.49 Z"
                id="Shape"></path>
                <path d="M41.06,87.19 C40.7027344,87.5937101 40.5879842,88.1573526 40.7589746,88.6686087 C40.929965,89.1798648 41.3607186,89.5610627 41.8889746,89.6686087 C42.4172306,89.7761547 42.9627344,89.5937101 43.32,89.19 L45,87.23 C45.5522847,86.6059182 45.4940818,85.6522847 44.87,85.1 C44.2459182,84.5477153 43.2922847,84.6059182 42.74,85.23 L41.06,87.19 Z"
                id="Shape"></path>
                <path d="M41.18,76.08 L36.18,80.6 C35.6516931,81.169182 35.6451679,82.0474821 36.1649596,82.6244508 C36.6847513,83.2014196 37.5589686,83.2862578 38.18,82.82 L43.18,78.3 C43.6341794,77.9590113 43.8568279,77.3907559 43.7551823,76.831989 C43.6535367,76.2732221 43.2450306,75.8197804 42.6998622,75.6605836 C42.1546937,75.5013869 41.5663671,75.6637396 41.18,76.08 Z"
                id="Shape"></path>
                <path d="M65.63,37.36 L65.63,18.3 C65.6244989,15.6347466 63.4652534,13.4755011 60.8,13.47 L14.71,13.47 C12.0408422,13.4699943 9.87551479,15.6308479 9.87,18.3 L9.87,102.39 C9.87550106,105.055253 12.0347466,107.214499 14.7,107.22 L60.79,107.22 C63.4552534,107.214499 65.6144989,105.055253 65.62,102.39 L65.62,80.76 L61.62,83.86 L61.62,102.39 C61.6094388,102.84395 61.2439498,103.209439 60.79,103.22 L14.71,103.22 C14.2560502,103.209439 13.8905612,102.84395 13.88,102.39 L13.88,18.3 C13.8905612,17.8460502 14.2560502,17.4805612 14.71,17.47 L60.79,17.47 C61.2439498,17.4805612 61.6094388,17.8460502 61.62,18.3 L61.62,39.09 L65.63,37.36 Z"
                id="Shape"></path>
            </g>
        </g>
    </g>
</svg>